<?xml version="1.0" encoding="UTF-8"?>
<svg version="1.1" xmlns="http://www.w3.org/2000/svg" width="512" height="512">
<path d="M0 0 C8.0603328 6.61884258 13.06233623 14.72318226 14.37109375 25.15234375 C14.72500291 35.17976993 11.65309584 43.78703612 6.30859375 52.15234375 C6.87707031 52.56484375 7.44554687 52.97734375 8.03125 53.40234375 C21.67461538 63.60639666 28.29168148 75.38250725 31.30859375 92.15234375 C31.72174428 96.80798804 31.79546584 101.43712549 31.8203125 106.109375 C31.8382637 107.37835129 31.8562149 108.64732758 31.87471008 109.95475769 C31.91927053 113.28042916 31.95179783 116.60574758 31.97814941 119.93157959 C32.00826966 123.34449062 32.05468899 126.75717924 32.09960938 130.16992188 C32.18404993 136.83062498 32.25259311 143.491344 32.30859375 150.15234375 C33.06567627 149.99926758 33.82275879 149.84619141 34.6027832 149.68847656 C35.5949585 149.49608398 36.58713379 149.30369141 37.609375 149.10546875 C38.59333252 148.91114258 39.57729004 148.71681641 40.59106445 148.51660156 C43.30859375 148.15234375 43.30859375 148.15234375 46.49609375 148.90234375 C50.86762222 152.39956652 54.03361623 156.64000306 57.30859375 161.15234375 C57.84355469 161.86261719 58.37851562 162.57289063 58.9296875 163.3046875 C61.54469066 167.04569768 63.15377593 170.27062421 62.8828125 175.0078125 C61.89649349 178.69141207 59.78606975 181.65568254 57.62109375 184.7578125 C56.13737212 187.46472131 56.04951838 189.11360559 56.30859375 192.15234375 C57.36820313 192.6834375 58.4278125 193.21453125 59.51953125 193.76171875 C60.90786683 194.47464783 62.29587055 195.18822342 63.68359375 195.90234375 C64.38226563 196.25039063 65.0809375 196.5984375 65.80078125 196.95703125 C66.47109375 197.30507813 67.14140625 197.653125 67.83203125 198.01171875 C68.75894775 198.48303223 68.75894775 198.48303223 69.70458984 198.96386719 C71.78633986 200.50632672 72.4275018 201.71702914 73.30859375 204.15234375 C73.75851878 208.28673887 73.67887861 212.43345087 73.68359375 216.58984375 C73.70808594 217.72228516 73.73257813 218.85472656 73.7578125 220.02148438 C73.78695053 228.26268956 73.78695053 228.26268956 71.63671875 232.26171875 C69.07838796 234.33928939 66.71667288 235.67721582 63.68359375 236.96484375 C62.24113281 237.59326172 62.24113281 237.59326172 60.76953125 238.234375 C58.30859375 239.15234375 58.30859375 239.15234375 56.30859375 239.15234375 C55.96827624 243.98059841 56.75343057 246.51459506 59.30859375 250.58984375 C63.49963736 258.02169435 63.49963736 258.02169435 62.30859375 263.15234375 C58.66290922 270.31233679 52.72785672 280.44271227 45.30859375 284.15234375 C43.20703125 284.06640625 43.20703125 284.06640625 40.68359375 283.77734375 C39.34748047 283.63039063 39.34748047 283.63039063 37.984375 283.48046875 C35.60864129 283.1891379 33.24105453 282.86151262 30.87109375 282.52734375 C27.35083613 281.90837243 27.35083613 281.90837243 24.30859375 283.15234375 C24.33179688 283.86519531 24.355 284.57804687 24.37890625 285.3125 C24.58789442 296.40380069 24.58789442 296.40380069 22.30859375 301.15234375 C15.85899743 307.32528178 5.00811991 310.19200078 -3.69140625 310.71484375 C-6.95803283 310.53633957 -7.64448858 310.18835033 -10.37890625 308.08984375 C-11.52359375 306.63578125 -11.52359375 306.63578125 -12.69140625 305.15234375 C-13.7028131 303.89470434 -14.72400656 302.64488442 -15.75390625 301.40234375 C-16.45193359 300.51289062 -16.45193359 300.51289062 -17.1640625 299.60546875 C-18.95697446 297.89968039 -20.27889759 297.54664624 -22.69140625 297.15234375 C-22.94921875 297.72597656 -23.20703125 298.29960937 -23.47265625 298.890625 C-24.80192265 301.35743668 -26.33544642 303.24402471 -28.19140625 305.33984375 C-28.79984375 306.03464844 -29.40828125 306.72945313 -30.03515625 307.4453125 C-32.56129295 310.0489015 -33.64816476 310.14794631 -37.37890625 310.52734375 C-46.39106697 310.43956296 -56.68926903 306.71867869 -63.69140625 301.15234375 C-64.71484375 299.109375 -64.71484375 299.109375 -65.06640625 296.96484375 C-65.25976562 295.80082031 -65.25976562 295.80082031 -65.45703125 294.61328125 C-65.82356743 290.76465138 -65.81408388 287.01668923 -65.69140625 283.15234375 C-69.52328313 282.16981122 -72.29775772 282.17262576 -76.06640625 283.15234375 C-80.52480498 284.2053324 -84.35931973 285.00895226 -88.69140625 283.15234375 C-95.39243792 277.68842562 -102.98390363 267.84184399 -104.06640625 259.13671875 C-103.62733648 255.64245517 -102.52857986 253.57950358 -100.69140625 250.58984375 C-98.40662257 246.86120372 -97.30902547 244.55768896 -97.69140625 240.15234375 C-98.66722656 239.6934375 -99.64304687 239.23453125 -100.6484375 238.76171875 C-101.933854 238.14246701 -103.218996 237.52264525 -104.50390625 236.90234375 C-105.14650391 236.60199219 -105.78910156 236.30164063 -106.45117188 235.9921875 C-110.17810639 234.17699659 -112.59201778 232.73601076 -114.69140625 229.15234375 C-115.31897451 224.86326543 -115.15483462 220.54488091 -115.12890625 216.21484375 C-115.14888672 215.03470703 -115.16886719 213.85457031 -115.18945312 212.63867188 C-115.18880859 211.49978516 -115.18816406 210.36089844 -115.1875 209.1875 C-115.18935303 208.14988525 -115.19120605 207.11227051 -115.19311523 206.04321289 C-114.56380081 202.41707561 -113.23316389 200.76982435 -110.69140625 198.15234375 C-107.7109375 196.60546875 -107.7109375 196.60546875 -104.50390625 195.40234375 C-100.82573987 194.22918871 -100.82573987 194.22918871 -97.69140625 192.15234375 C-97.9227604 186.59984415 -99.62765125 183.10063404 -102.6328125 178.4609375 C-104.04394729 175.38351808 -104.13245591 173.51846807 -103.69140625 170.15234375 C-102.38187778 167.64170093 -101.09564367 165.46301169 -99.50390625 163.15234375 C-98.92286133 162.26675781 -98.92286133 162.26675781 -98.33007812 161.36328125 C-91.55226768 151.19096408 -91.55226768 151.19096408 -87.00390625 148.65234375 C-83.67831441 148.15036762 -81.72825213 148.42314464 -78.484375 149.12109375 C-77.58614014 149.31123047 -76.68790527 149.50136719 -75.76245117 149.69726562 C-75.07900635 149.84744141 -74.39556152 149.99761719 -73.69140625 150.15234375 C-73.6833194 149.49216751 -73.67523254 148.83199127 -73.66690063 148.15180969 C-73.58023047 141.22366452 -73.48070688 134.29578518 -73.37402344 127.36791992 C-73.33595624 124.78918963 -73.30106638 122.21041024 -73.26953125 119.6315918 C-73.22339364 115.90525881 -73.16548334 112.17925735 -73.10546875 108.453125 C-73.09391754 107.31716385 -73.08236633 106.1812027 -73.07046509 105.01081848 C-72.76162774 87.91088723 -69.97654284 72.79694217 -57.69140625 60.15234375 C-54.466769 57.32791112 -51.14718906 54.68752868 -47.69140625 52.15234375 C-48.10132813 51.4253125 -48.51125 50.69828125 -48.93359375 49.94921875 C-54.23478164 40.05704996 -57.05466959 30.98607639 -54.51171875 19.81640625 C-51.75160479 10.85260759 -47.34247117 3.50984374 -39.16015625 -1.3515625 C-26.49870919 -7.88710356 -12.0561511 -8.27657398 0 0 Z M-34.06640625 18.77734375 C-37.44084404 23.70921436 -37.28851235 28.28909356 -36.69140625 34.15234375 C-34.50614283 38.60380626 -31.75195415 41.3411952 -27.69140625 44.15234375 C-22.71061242 45.81260836 -18.38866996 45.751378 -13.50390625 44.02734375 C-8.56326209 40.73358098 -5.79441793 37.44653138 -4.19140625 31.77734375 C-3.35390829 26.93937009 -4.037129 23.29475678 -6.69140625 19.15234375 C-10.84079111 14.66124484 -14.2214695 12.35817181 -20.44140625 11.83984375 C-26.32892372 11.92642489 -30.11635668 14.41149949 -34.06640625 18.77734375 Z M-45.703125 74.26171875 C-55.19342352 85.80128509 -54.84552089 97.76179846 -54.75390625 112.15234375 C-54.74888112 113.51301919 -54.74432001 114.87369642 -54.74023438 116.234375 C-54.72851084 119.540411 -54.71210052 122.84635376 -54.69140625 126.15234375 C-53.27458991 125.84052306 -51.85795974 125.52785638 -50.44140625 125.21484375 C-49.6525 125.04082031 -48.86359375 124.86679687 -48.05078125 124.6875 C-46.56195134 124.34980182 -45.07675412 123.9952405 -43.59765625 123.6171875 C-40.33435524 122.82142352 -38.06160588 122.7029838 -34.69140625 123.15234375 C-29.91205997 126.32368567 -26.05379422 130.52906029 -22.69140625 135.15234375 C-19.23240882 134.85848202 -17.87192166 134.32251867 -15.3046875 131.90234375 C-14.54542969 130.99484375 -13.78617188 130.08734375 -13.00390625 129.15234375 C-8.84146775 124.2273745 -8.84146775 124.2273745 -6.69140625 123.15234375 C-1.2773156 122.70116953 2.94077688 123.77431821 8.07421875 125.49609375 C10.4002042 126.29324527 10.4002042 126.29324527 13.30859375 126.15234375 C13.35857814 121.92058821 13.39458539 117.68899579 13.41845703 113.45703125 C13.42842406 112.02177939 13.44200262 110.58654733 13.45947266 109.15136719 C13.62208977 95.43413526 13.12410106 83.75762864 3.453125 73.109375 C-3.82995493 66.29148181 -12.45258765 62.7533528 -22.45703125 62.94140625 C-31.50524013 63.79560779 -39.44553451 67.70036173 -45.703125 74.26171875 Z M-47.69140625 143.15234375 C-47.77777344 144.17714844 -47.86414063 145.20195312 -47.953125 146.2578125 C-48.09389711 147.61860956 -48.23588894 148.97928083 -48.37890625 150.33984375 C-48.43240234 151.01337891 -48.48589844 151.68691406 -48.54101562 152.38085938 C-49.12619642 157.59660126 -50.69773118 159.85523991 -54.69140625 163.15234375 C-55.40941406 163.74660156 -56.12742187 164.34085938 -56.8671875 164.953125 C-63.0154729 169.30300882 -66.79567603 169.94300817 -74.0859375 168.765625 C-76.32207496 168.42966251 -78.42971862 168.12023054 -80.69140625 168.15234375 C-82.97906397 169.67312261 -82.97906397 169.67312261 -83.69140625 172.15234375 C-83.17989243 175.57948632 -81.60359032 178.14968865 -79.94140625 181.15234375 C-76.81334574 187.87587611 -78.24394203 192.426635 -80.69140625 199.15234375 C-80.98015625 200.43109375 -81.26890625 201.70984375 -81.56640625 203.02734375 C-85.12088541 208.25451898 -90.93999253 209.91249219 -96.69140625 212.15234375 C-96.69140625 214.79234375 -96.69140625 217.43234375 -96.69140625 220.15234375 C-94.735553 221.15718579 -92.77664388 222.1560818 -90.81640625 223.15234375 C-89.72585938 223.70921875 -88.6353125 224.26609375 -87.51171875 224.83984375 C-84.90765543 226.29298469 -84.90765543 226.29298469 -82.69140625 226.15234375 C-81.93271152 228.52958723 -81.20609977 230.91045699 -80.515625 233.30859375 C-79.99860996 235.09241815 -79.44403194 236.8662276 -78.8359375 238.62109375 C-77.15912996 244.32779787 -77.86492903 247.20463444 -80.69140625 252.46484375 C-81.28953125 253.43035156 -81.88765625 254.39585937 -82.50390625 255.390625 C-83.98761341 258.09282245 -83.98761341 258.09282245 -83.06640625 260.8828125 C-81.7480071 263.42097922 -81.7480071 263.42097922 -78.69140625 265.15234375 C-76.71821303 264.691932 -74.74589761 264.22482963 -72.7890625 263.69921875 C-69.3607723 262.80543732 -67.24467676 262.55009451 -63.69140625 263.15234375 C-58.49099141 266.23894722 -52.7261799 269.776459 -49.69140625 275.15234375 C-49.05952094 278.77626876 -48.74529846 282.37252412 -48.4140625 286.03515625 C-48.01501137 289.19547926 -48.01501137 289.19547926 -45.875 290.64453125 C-43.28460599 291.24694846 -42.12512338 291.23130781 -39.69140625 290.15234375 C-37.80798332 288.23521303 -36.22518701 286.17812844 -34.5703125 284.0625 C-31.47010115 280.91072588 -28.70309553 280.24345495 -24.3515625 279.8515625 C-22.57072266 279.84576172 -22.57072266 279.84576172 -20.75390625 279.83984375 C-19.56925781 279.82308594 -18.38460937 279.80632812 -17.1640625 279.7890625 C-12.34886269 280.29278981 -9.08056145 281.63793685 -5.78515625 285.23046875 C-5.25921875 285.9471875 -4.73328125 286.66390625 -4.19140625 287.40234375 C-2.52053116 289.53135447 -2.52053116 289.53135447 -0.69140625 291.15234375 C2.63399548 291.43466473 2.63399548 291.43466473 5.30859375 290.15234375 C7.70852465 287.75241285 7.17137149 281.9264475 7.515625 278.66796875 C8.86972136 272.66458585 12.47593567 269.64508233 17.43359375 266.27734375 C22.33443421 263.25439543 25.44928894 262.55035847 31.0703125 263.6171875 C32.17826172 263.88208984 32.17826172 263.88208984 33.30859375 264.15234375 C34.50484375 264.33796875 35.70109375 264.52359375 36.93359375 264.71484375 C37.71734375 264.85921875 38.50109375 265.00359375 39.30859375 265.15234375 C41.28864992 263.01388309 42.32875701 261.8782212 42.24609375 258.90234375 C41.42340063 256.48911061 40.46359381 254.56178136 39.24609375 252.33984375 C35.93019435 245.81736032 36.98385539 240.6700352 38.99609375 233.90234375 C41.09942251 228.08897677 43.02963239 225.72006265 48.62890625 223.04296875 C50.83872818 222.03157689 53.05989429 221.07337969 55.30859375 220.15234375 C55.30859375 217.51234375 55.30859375 214.87234375 55.30859375 212.15234375 C53.3527405 211.14750171 51.39383138 210.1486057 49.43359375 209.15234375 C48.34304688 208.59546875 47.2525 208.03859375 46.12890625 207.46484375 C43.52484293 206.01170281 43.52484293 206.01170281 41.30859375 206.15234375 C40.82826195 204.56936349 40.34937763 202.98594397 39.87109375 201.40234375 C39.60425781 200.520625 39.33742188 199.63890625 39.0625 198.73046875 C35.73526042 187.35234375 35.73526042 187.35234375 38.4609375 181.80859375 C39.37361327 180.29168112 40.32247382 178.79572479 41.3125 177.328125 C42.60481464 174.5053044 42.26877588 173.06184036 41.30859375 170.15234375 C40.31859375 169.16234375 40.31859375 169.16234375 39.30859375 168.15234375 C37.4176587 168.31568033 35.52661785 168.4907009 33.64501953 168.73950195 C26.61104724 169.62988775 21.9190735 169.82741489 15.93359375 165.46484375 C10.22077068 160.62751524 8.02636975 157.42309819 7.12109375 149.90234375 C6.96253906 148.6390625 6.80398438 147.37578125 6.640625 146.07421875 C6.47626953 144.62789062 6.47626953 144.62789062 6.30859375 143.15234375 C3.99859375 142.49234375 1.68859375 141.83234375 -0.69140625 141.15234375 C-1.30628906 141.86261719 -1.92117188 142.57289063 -2.5546875 143.3046875 C-3.36292969 144.22378906 -4.17117188 145.14289063 -5.00390625 146.08984375 C-6.20466797 147.46462891 -6.20466797 147.46462891 -7.4296875 148.8671875 C-11.28974042 152.76724096 -15.38699481 152.36501466 -20.56640625 152.40234375 C-21.27410156 152.42296875 -21.98179687 152.44359375 -22.7109375 152.46484375 C-27.27344004 152.49882887 -30.09211971 151.97990277 -33.69140625 149.15234375 C-35.640625 147.109375 -35.640625 147.109375 -37.37890625 144.96484375 C-39.05878751 142.84323588 -39.05878751 142.84323588 -40.69140625 141.15234375 C-43.33793975 141.15234375 -45.27222255 142.13374009 -47.69140625 143.15234375 Z " fill="#000000" transform="translate(438.69140625,201.84765625)"/>
<path d="M0 0 C9.53750322 5.38571339 15.2202102 12.74190806 18.375 23.10546875 C20.43132133 31.99490753 19.51398154 40.50257793 14.94140625 48.44921875 C14.27238281 49.47015625 14.27238281 49.47015625 13.58984375 50.51171875 C12.25502729 52.67350055 12.25502729 52.67350055 12.56640625 56.44921875 C14.27506356 58.12155989 14.27506356 58.12155989 16.56640625 59.57421875 C27.32231705 67.53968099 33.62555571 78.28873856 35.67333984 91.50463867 C36.64682867 98.26495108 36.91109548 104.92774107 36.98046875 111.75 C37.00951797 113.55358223 37.00951797 113.55358223 37.03915405 115.39360046 C37.09828553 119.18290414 37.14506652 122.97223931 37.19140625 126.76171875 C37.2296473 129.3522258 37.26870245 131.94272096 37.30859375 134.53320312 C37.4039313 140.83843512 37.48916706 147.14374044 37.56640625 153.44921875 C38.32104156 153.29306091 39.07567688 153.13690308 39.85317993 152.97601318 C40.84345184 152.78122375 41.83372375 152.58643433 42.85400391 152.38574219 C43.83551422 152.18833435 44.81702454 151.99092651 45.82827759 151.78753662 C49.67206345 151.31260589 51.51046742 152.1182624 54.56640625 154.44921875 C57.93740724 158.18022955 60.72836726 162.30255837 63.56640625 166.44921875 C64.29150391 167.50496094 64.29150391 167.50496094 65.03125 168.58203125 C67.42339259 172.37881273 67.95614538 175.01936699 67.56640625 179.44921875 C66.25390625 182.265625 66.25390625 182.265625 64.56640625 185.01171875 C62.28162257 188.74035878 61.18402547 191.04387354 61.56640625 195.44921875 C62.62601563 195.96871094 63.685625 196.48820313 64.77734375 197.0234375 C66.16578342 197.72703868 67.55378154 198.43151167 68.94140625 199.13671875 C69.98941406 199.6462207 69.98941406 199.6462207 71.05859375 200.16601562 C72.0640625 200.68325195 72.0640625 200.68325195 73.08984375 201.2109375 C73.70778809 201.51990967 74.32573242 201.82888184 74.96240234 202.1472168 C77.81480647 204.4625701 78.44991736 207.39232798 78.84106445 210.94116211 C78.86937684 213.75678948 78.88816263 216.5709293 78.87890625 219.38671875 C78.89501953 220.36318359 78.91113281 221.33964844 78.92773438 222.34570312 C78.93136948 227.70748882 78.91927132 232.01719266 75.56640625 236.44921875 C73.12339207 237.99067822 70.98403309 239.17451382 68.37890625 240.32421875 C67.72470703 240.63101563 67.07050781 240.9378125 66.39648438 241.25390625 C64.79417788 242.00242899 63.18126875 242.72818371 61.56640625 243.44921875 C62.16074252 249.07150322 63.48665882 252.47623758 66.5078125 257.140625 C67.89264996 260.16069489 67.92965557 262.15074796 67.56640625 265.44921875 C64.25194043 273.12427867 59.07381023 281.11239228 52.56640625 286.44921875 C46.5580681 288.35185916 41.30812983 287.07492396 35.203125 285.82421875 C32.46570788 285.23464214 32.46570788 285.23464214 29.56640625 286.44921875 C29.60765625 287.74859375 29.64890625 289.04796875 29.69140625 290.38671875 C29.67029845 293.73230511 29.49000302 296.9591662 28.94140625 300.26171875 C28.82539063 300.96941406 28.709375 301.67710937 28.58984375 302.40625 C25.95170261 307.67246303 19.48957043 309.43768688 14.25390625 311.19921875 C8.49677547 313.06468141 3.60788155 314.42365025 -2.43359375 313.44921875 C-5.12109375 311.32421875 -5.12109375 311.32421875 -7.43359375 308.44921875 C-8.52885431 307.37754035 -9.63320569 306.31508024 -10.74609375 305.26171875 C-13.43359375 302.44921875 -13.43359375 302.44921875 -13.43359375 300.44921875 C-17.65913439 301.78512851 -19.50618665 303.35953205 -22.05859375 306.94921875 C-24.13687526 309.84564727 -25.42244086 311.44178349 -28.43359375 313.44921875 C-38.35439516 314.40929631 -47.76744011 311.16828805 -56.43359375 306.44921875 C-60.55462671 302.1860812 -60.5646663 297.32824012 -60.49609375 291.63671875 C-60.48707031 290.66089844 -60.47804687 289.68507813 -60.46875 288.6796875 C-60.45714844 287.94363281 -60.44554687 287.20757812 -60.43359375 286.44921875 C-64.51025702 285.5999139 -67.45892895 285.27435928 -71.49609375 286.38671875 C-75.00186996 287.35080721 -77.77279216 288.07233391 -81.43359375 287.44921875 C-89.14568133 282.89370655 -94.17768897 274.07490151 -98.43359375 266.44921875 C-99.56177502 260.18154502 -96.97037297 256.33773932 -93.74609375 251.1953125 C-92.24434523 248.05326128 -92.1911188 245.88933208 -92.43359375 242.44921875 C-93.01367188 242.2790625 -93.59375 242.10890625 -94.19140625 241.93359375 C-100.40772875 240.00509766 -105.68862309 238.06667474 -109.43359375 232.44921875 C-109.87527172 228.33866912 -109.75772571 224.20589044 -109.74609375 220.07421875 C-109.76220703 218.93726563 -109.77832031 217.8003125 -109.79492188 216.62890625 C-109.79556641 215.530625 -109.79621094 214.43234375 -109.796875 213.30078125 C-109.79985596 212.29869629 -109.80283691 211.29661133 -109.8059082 210.26416016 C-109.36796339 206.95301023 -108.42339539 205.11543776 -106.43359375 202.44921875 C-104.0217992 200.99764973 -101.78643398 199.79095558 -99.24609375 198.63671875 C-98.26479492 198.16975586 -98.26479492 198.16975586 -97.26367188 197.69335938 C-95.65972591 196.93236311 -94.04744027 196.18898723 -92.43359375 195.44921875 C-92.06647032 191.14316681 -92.98725635 189.14200313 -95.43359375 185.63671875 C-99.50702108 179.0198356 -99.50702108 179.0198356 -99.15234375 174.6484375 C-97.40761388 169.30994338 -93.78741515 164.87845027 -90.43359375 160.44921875 C-89.88703125 159.70542969 -89.34046875 158.96164062 -88.77734375 158.1953125 C-85.778353 154.3747897 -83.4365638 152.12269549 -78.43359375 151.44921875 C-76.69068756 151.72390484 -74.95576303 152.05236979 -73.23046875 152.421875 C-72.33166992 152.61144775 -71.43287109 152.80102051 -70.50683594 152.99633789 C-69.82266602 153.14578857 -69.13849609 153.29523926 -68.43359375 153.44921875 C-68.42994812 152.75812012 -68.42630249 152.06702148 -68.42254639 151.35498047 C-68.38430939 144.7668674 -68.32706396 138.17920635 -68.24969101 131.59143066 C-68.21057214 128.20644499 -68.1782133 124.8217056 -68.16259766 121.43652344 C-67.92808739 79.13087179 -67.92808739 79.13087179 -52.37109375 62.94921875 C-49.26408309 60.04207427 -46.07899102 57.63645711 -42.43359375 55.44921875 C-42.84351562 54.77117187 -43.2534375 54.093125 -43.67578125 53.39453125 C-49.94345816 42.56854386 -51.88463956 33.15004465 -48.78515625 20.8828125 C-45.70985655 11.86851658 -39.54562011 4.70467953 -31.05859375 0.38671875 C-21.30905516 -3.96188497 -9.90870647 -4.20861601 0 0 Z M-28.18359375 21.07421875 C-31.04296112 24.82481751 -32.23436354 28.75535493 -32.43359375 33.44921875 C-31.59027629 39.30974135 -28.65954338 42.69280754 -24.15234375 46.3203125 C-20.23964502 48.89024416 -15.95722558 49.04793473 -11.43359375 48.44921875 C-5.90129243 46.39691342 -2.05992889 42.70188902 0.56640625 37.44921875 C1.09026385 32.1934671 1.23145997 27.8039578 -1.12109375 23.01171875 C-5.46556831 18.19757126 -8.65407979 15.63148196 -15.24609375 15.19921875 C-20.83885638 15.3016503 -24.14856477 17.22260018 -28.18359375 21.07421875 Z M-43.15234375 80.53125 C-48.47949491 88.50573542 -49.57062116 96.42561243 -49.53125 105.9140625 C-49.52983505 106.59223526 -49.5284201 107.27040802 -49.52696228 107.96913147 C-49.5214212 110.10837453 -49.50888028 112.247508 -49.49609375 114.38671875 C-49.49107111 115.84830577 -49.48650955 117.30989444 -49.48242188 118.77148438 C-49.4714712 122.33076401 -49.4542482 125.88998066 -49.43359375 129.44921875 C-48.01677741 129.13739806 -46.60014724 128.82473138 -45.18359375 128.51171875 C-44.3946875 128.33769531 -43.60578125 128.16367187 -42.79296875 127.984375 C-41.30413884 127.64667682 -39.81894162 127.2921155 -38.33984375 126.9140625 C-35.07654274 126.11829852 -32.80379338 125.9998588 -29.43359375 126.44921875 C-24.65424747 129.62056067 -20.79598172 133.82593529 -17.43359375 138.44921875 C-13.97459632 138.15535702 -12.61410916 137.61939367 -10.046875 135.19921875 C-9.28761719 134.29171875 -8.52835938 133.38421875 -7.74609375 132.44921875 C-3.58365525 127.5242495 -3.58365525 127.5242495 -1.43359375 126.44921875 C3.9804969 125.99804453 8.19858938 127.07119321 13.33203125 128.79296875 C15.6580167 129.59012027 15.6580167 129.59012027 18.56640625 129.44921875 C18.61653056 125.52062956 18.65246127 121.59216891 18.67626953 117.66333008 C18.69105542 115.68368979 18.71649217 113.70413812 18.7421875 111.72460938 C18.81014401 98.30319875 17.70716913 86.39401264 8.39453125 76.1171875 C1.18740911 69.54145853 -7.48543615 65.87645715 -17.3046875 66.203125 C-27.65334906 67.3993923 -36.66543994 72.36856271 -43.15234375 80.53125 Z M-42.43359375 146.44921875 C-42.50835937 147.37863281 -42.583125 148.30804688 -42.66015625 149.265625 C-43.96731684 161.55549763 -43.96731684 161.55549763 -48.66796875 166.05078125 C-49.250625 166.51226562 -49.83328125 166.97375 -50.43359375 167.44921875 C-51.0575 167.95195312 -51.68140625 168.4546875 -52.32421875 168.97265625 C-57.76056691 172.84658938 -62.38843772 173.09486255 -68.83203125 172.06640625 C-71.06632503 171.72656221 -73.17316441 171.42170845 -75.43359375 171.44921875 C-77.73955422 172.91210432 -77.73955422 172.91210432 -78.43359375 175.44921875 C-78.33849756 178.96777766 -77.24858168 180.74635935 -75.37109375 183.76171875 C-73.09847072 187.64099469 -72.662719 191.0389257 -73.43359375 195.44921875 C-74.36783392 198.65060208 -75.41641569 201.77709836 -76.55859375 204.91015625 C-77.54219754 207.31676318 -77.54219754 207.31676318 -77.43359375 209.44921875 C-78.07296875 209.69671875 -78.71234375 209.94421875 -79.37109375 210.19921875 C-83.43347726 211.85733447 -87.43084281 213.65277715 -91.43359375 215.44921875 C-91.43359375 218.08921875 -91.43359375 220.72921875 -91.43359375 223.44921875 C-90.60214844 223.8359375 -89.77070312 224.22265625 -88.9140625 224.62109375 C-87.82738281 225.141875 -86.74070312 225.66265625 -85.62109375 226.19921875 C-84.00267578 226.96492188 -84.00267578 226.96492188 -82.3515625 227.74609375 C-76.91070788 230.92174651 -75.61523847 235.024749 -74.015625 240.8671875 C-72.68586393 246.76632888 -72.84238402 250.81318646 -75.99609375 256.13671875 C-76.47175781 256.84183594 -76.94742188 257.54695313 -77.4375 258.2734375 C-78.74415979 261.12759242 -78.45315574 262.51382864 -77.43359375 265.44921875 C-76.26037439 267.38381772 -76.26037439 267.38381772 -74.43359375 268.44921875 C-72.31934868 268.37410688 -72.31934868 268.37410688 -70.12109375 267.63671875 C-65.23647093 266.23015197 -61.30540473 265.5594675 -56.58203125 267.8046875 C-55.66679688 268.40925781 -54.7515625 269.01382813 -53.80859375 269.63671875 C-52.88820312 270.22839844 -51.9678125 270.82007813 -51.01953125 271.4296875 C-47.01177695 274.55961042 -44.74943205 276.85028738 -43.74609375 281.9296875 C-43.53710647 284.40879913 -43.3287772 286.88796631 -43.12109375 289.3671875 C-42.75523901 292.49672896 -42.75523901 292.49672896 -40.62109375 293.9375 C-38.02781498 294.544142 -36.87050444 294.52959864 -34.43359375 293.44921875 C-32.55017082 291.53208803 -30.96737451 289.47500344 -29.3125 287.359375 C-26.21228865 284.20760088 -23.44528303 283.54032995 -19.09375 283.1484375 C-17.31291016 283.14263672 -17.31291016 283.14263672 -15.49609375 283.13671875 C-14.31144531 283.11996094 -13.12679687 283.10320312 -11.90625 283.0859375 C-7.09105019 283.58966481 -3.82274895 284.93481185 -0.52734375 288.52734375 C-0.00140625 289.2440625 0.52453125 289.96078125 1.06640625 290.69921875 C2.73728134 292.82822947 2.73728134 292.82822947 4.56640625 294.44921875 C7.89180798 294.73153973 7.89180798 294.73153973 10.56640625 293.44921875 C12.43781097 291.57781403 12.05340202 288.27866925 12.31640625 285.76171875 C13.39221554 278.12269885 14.68161768 275.58328833 20.6484375 270.76953125 C25.3684305 267.27979196 28.55214686 265.59003884 34.56640625 266.44921875 C37.59059356 267.03172674 40.58147568 267.69114115 43.56640625 268.44921875 C45.82230874 266.33924035 45.82230874 266.33924035 47.56640625 263.44921875 C47.03507908 260.4605034 46.04079014 258.22259813 44.45703125 255.640625 C42.12314002 251.66821424 41.2419106 249.17505798 42.12890625 244.57421875 C42.58540634 242.85968933 43.06549271 241.1513025 43.56640625 239.44921875 C43.7778125 238.52882813 43.98921875 237.6084375 44.20703125 236.66015625 C45.88488747 229.89020149 45.88488747 229.89020149 48.69140625 228.07421875 C50.11453125 227.76484375 50.11453125 227.76484375 51.56640625 227.44921875 C53.18114524 226.76532929 54.78481645 226.05494751 56.37890625 225.32421875 C57.16910156 224.97101563 57.95929688 224.6178125 58.7734375 224.25390625 C59.66095703 223.85558594 59.66095703 223.85558594 60.56640625 223.44921875 C60.56640625 220.80921875 60.56640625 218.16921875 60.56640625 215.44921875 C59.24576172 215.02576172 59.24576172 215.02576172 57.8984375 214.59375 C48.58718894 211.06973695 48.58718894 211.06973695 45.625 206.3671875 C44.36209226 203.06854787 43.3518841 199.89195147 42.56640625 196.44921875 C42.17195313 194.95261719 42.17195313 194.95261719 41.76953125 193.42578125 C41.50528023 189.55348741 42.65259792 187.66483955 44.56640625 184.32421875 C46.92255167 180.52652587 46.92255167 180.52652587 47.37890625 176.26953125 C46.50576471 174.17691211 46.50576471 174.17691211 44.56640625 171.44921875 C41.81518091 171.55377129 39.22527346 171.79380104 36.50390625 172.13671875 C29.92274271 172.75516631 25.75836449 172.62614343 20.42578125 168.28515625 C19.8121875 167.67929687 19.19859375 167.0734375 18.56640625 166.44921875 C17.69113281 165.71574219 16.81585938 164.98226562 15.9140625 164.2265625 C13.03547092 160.82110724 12.59486182 157.92947256 12.25390625 153.63671875 C12.18107422 152.94384766 12.10824219 152.25097656 12.03320312 151.53710938 C11.85795698 149.84306328 11.70942979 148.14628906 11.56640625 146.44921875 C9.25640625 145.78921875 6.94640625 145.12921875 4.56640625 144.44921875 C3.95152344 145.15949219 3.33664063 145.86976563 2.703125 146.6015625 C1.89488281 147.52066406 1.08664063 148.43976563 0.25390625 149.38671875 C-0.94685547 150.76150391 -0.94685547 150.76150391 -2.171875 152.1640625 C-6.03192792 156.06411596 -10.12918231 155.66188966 -15.30859375 155.69921875 C-16.01628906 155.71984375 -16.72398438 155.74046875 -17.453125 155.76171875 C-22.01562754 155.79570387 -24.83430721 155.27677777 -28.43359375 152.44921875 C-30.3828125 150.40625 -30.3828125 150.40625 -32.12109375 148.26171875 C-33.80097501 146.14011088 -33.80097501 146.14011088 -35.43359375 144.44921875 C-38.08012725 144.44921875 -40.01441005 145.43061509 -42.43359375 146.44921875 Z " fill="#000000" transform="translate(109.43359375,198.55078125)"/>
<path d="M0 0 C8.7029429 5.33406178 14.92142549 12.65380346 18.1796875 22.3359375 C20.43543032 32.38129579 18.6889763 41.76307961 13.30078125 50.4609375 C12.02435621 52.44287563 12.02435621 52.44287563 11.1796875 55.3359375 C11.664375 55.66464844 12.1490625 55.99335937 12.6484375 56.33203125 C24.08737049 64.44927409 32.23488226 75.41504 35.1796875 89.3359375 C36.29276555 96.36164163 36.3083193 103.26354102 36.27734375 110.3671875 C36.27522133 112.2146759 36.27522133 112.2146759 36.27305603 114.0994873 C36.26748362 118.01166266 36.25493617 121.92377961 36.2421875 125.8359375 C36.23660232 128.497395 36.23260666 131.15885194 36.22851562 133.8203125 C36.21752322 140.32554057 36.20081264 146.83073486 36.1796875 153.3359375 C36.78804443 153.19373779 37.39640137 153.05153809 38.02319336 152.9050293 C38.82635986 152.72109619 39.62952637 152.53716309 40.45703125 152.34765625 C41.25101318 152.16420654 42.04499512 151.98075684 42.86303711 151.79174805 C46.49937927 151.07628269 48.64175864 151.11374389 52.1796875 152.3359375 C55.24990086 155.04036373 57.70418157 158.08871514 60.1796875 161.3359375 C61.07300781 162.46515625 61.07300781 162.46515625 61.984375 163.6171875 C65.07397241 167.81549212 67.24269165 171.66557656 67.56640625 176.9375 C66.90338699 181.04955888 64.75171947 184.29204259 62.52734375 187.7578125 C61.06163596 190.56177523 60.90525457 192.2219638 61.1796875 195.3359375 C62.23929688 195.86703125 63.29890625 196.398125 64.390625 196.9453125 C65.77896058 197.65824158 67.1669643 198.37181717 68.5546875 199.0859375 C69.25335938 199.43398437 69.95203125 199.78203125 70.671875 200.140625 C71.3421875 200.48867187 72.0125 200.83671875 72.703125 201.1953125 C73.6300415 201.66662598 73.6300415 201.66662598 74.57568359 202.14746094 C76.6525677 203.6863151 77.29847798 204.9086522 78.1796875 207.3359375 C78.60250723 211.30442949 78.50399538 215.2847346 78.4921875 219.2734375 C78.50830078 220.35818359 78.52441406 221.44292969 78.54101562 222.56054688 C78.54166016 223.60919922 78.54230469 224.65785156 78.54296875 225.73828125 C78.54594971 226.69210693 78.54893066 227.64593262 78.55200195 228.62866211 C78.10569443 231.87397628 77.12283696 233.71395117 75.1796875 236.3359375 C72.76789295 237.78750652 70.53252773 238.99420067 67.9921875 240.1484375 C67.33798828 240.45974609 66.68378906 240.77105469 66.00976562 241.09179688 C64.40581966 241.85279314 62.79353402 242.59616902 61.1796875 243.3359375 C61.77402377 248.95822197 63.09994007 252.36295633 66.12109375 257.02734375 C67.50722362 260.05023215 67.54701442 262.03416938 67.1796875 265.3359375 C63.59657016 273.50413813 58.09209024 282.92607955 49.8671875 286.9609375 C45.76212528 287.37840145 42.66025292 286.81609054 38.70703125 285.74609375 C35.65309175 285.2504776 33.18937403 285.70254919 30.1796875 286.3359375 C30.05013672 287.98142578 30.05013672 287.98142578 29.91796875 289.66015625 C29.77720678 291.11469656 29.63521455 292.56911817 29.4921875 294.0234375 C29.43869141 294.74466797 29.38519531 295.46589844 29.33007812 296.20898438 C28.92460294 300.06981333 28.42665784 302.00739484 26.0390625 305.18359375 C22.81360731 307.61149786 19.94637448 308.82455826 16.1171875 310.0859375 C14.30541016 310.69695312 14.30541016 310.69695312 12.45703125 311.3203125 C1.80058574 314.62266748 1.80058574 314.62266748 -2.8203125 313.3359375 C-7.20654723 309.92908533 -10.74612215 305.94722302 -13.8203125 301.3359375 C-18.09442901 301.82063113 -19.77086364 302.8770355 -22.4453125 306.2109375 C-28.18899898 313.25410056 -28.18899898 313.25410056 -32.1953125 313.7734375 C-41.08179234 313.4291274 -50.2147392 309.78448037 -57.8203125 305.3359375 C-60.25850186 301.67865345 -60.4919817 298.40305855 -60.9453125 294.1484375 C-61.03167969 293.39884766 -61.11804688 292.64925781 -61.20703125 291.87695312 C-61.41869632 290.03076338 -61.62046714 288.18344406 -61.8203125 286.3359375 C-66.23687864 285.37638593 -69.42928034 285.46609428 -73.8203125 286.4609375 C-77.3885622 287.08494176 -79.51542847 287.40629535 -83.0703125 286.5859375 C-89.65352338 281.19967405 -98.09283479 271.87204493 -99.07421875 263.0546875 C-98.78197302 257.88282374 -96.96848721 254.35391417 -93.87890625 250.2578125 C-92.54369094 247.83373157 -92.63708829 246.06081041 -92.8203125 243.3359375 C-93.79613281 242.87703125 -94.77195313 242.418125 -95.77734375 241.9453125 C-97.06276025 241.32606076 -98.34790225 240.706239 -99.6328125 240.0859375 C-100.27541016 239.78558594 -100.91800781 239.48523438 -101.58007812 239.17578125 C-105.30879174 237.35972384 -107.72423883 235.92373113 -109.8203125 232.3359375 C-110.50055015 227.88219106 -110.37574779 223.39865757 -110.3828125 218.8984375 C-110.41955078 217.67060547 -110.45628906 216.44277344 -110.49414062 215.17773438 C-110.5367656 206.47750406 -110.5367656 206.47750406 -108.65136719 203.47338867 C-105.58319104 200.79348172 -101.67069992 199.11354189 -97.9453125 197.5234375 C-96.49511719 196.89501953 -96.49511719 196.89501953 -95.015625 196.25390625 C-94.29117188 195.95097656 -93.56671875 195.64804688 -92.8203125 195.3359375 C-93.11605664 190.70261263 -93.94761812 187.89774664 -96.4453125 183.9609375 C-98.73207927 179.99094944 -99.55172435 177.26495268 -98.7265625 172.7265625 C-96.78562265 167.60649702 -93.24910737 163.53652752 -89.8203125 159.3359375 C-89.28664062 158.60375 -88.75296875 157.8715625 -88.203125 157.1171875 C-85.76500478 153.90150461 -84.43119108 152.53187968 -80.5078125 151.2734375 C-77.42189098 151.32574125 -75.05675939 151.64765392 -72.08984375 152.33984375 C-70.88678589 152.6174353 -70.88678589 152.6174353 -69.65942383 152.90063477 C-68.74906372 153.11610962 -68.74906372 153.11610962 -67.8203125 153.3359375 C-67.82475372 152.66101257 -67.82919495 151.98608765 -67.83377075 151.29071045 C-67.87828371 144.21694065 -67.90829421 137.14321115 -67.93017578 130.06933594 C-67.94018535 127.43520489 -67.95379707 124.80108482 -67.97119141 122.16699219 C-67.99566245 118.3639046 -68.00684643 114.56096492 -68.015625 110.7578125 C-68.02594757 109.59481628 -68.03627014 108.43182007 -68.04690552 107.23358154 C-68.04907674 91.13204923 -65.11438419 76.41276663 -53.8203125 64.3359375 C-46.30179398 57.07667824 -46.30179398 57.07667824 -42.8203125 55.3359375 C-43.09746094 54.78164063 -43.37460938 54.22734375 -43.66015625 53.65625 C-44.04300781 52.89054687 -44.42585938 52.12484375 -44.8203125 51.3359375 C-45.23410156 50.52898438 -45.64789063 49.72203125 -46.07421875 48.890625 C-50.9754255 38.85412401 -51.99007087 30.14481355 -48.8203125 19.3359375 C-45.22952822 10.38793474 -39.00658724 3.53174999 -30.3203125 -0.6640625 C-20.74023396 -4.2414336 -9.33665398 -4.4325529 0 0 Z M-29.0703125 21.5859375 C-31.7693321 25.82725402 -33.21687965 29.6055499 -32.48046875 34.67578125 C-30.5898943 41.39906672 -27.44658769 44.17977387 -21.5078125 47.7109375 C-16.10562397 48.96726041 -11.41330302 48.14746097 -6.5078125 45.6484375 C-2.72197571 42.39085701 -0.46545147 39.27135441 1.1171875 34.5234375 C1.22119646 29.21898032 0.10741774 24.47291329 -3.51171875 20.4609375 C-8.48423954 16.14242258 -11.68203143 14.97861582 -18.28125 15.0546875 C-23.11183697 15.5897679 -25.76178467 18.27740967 -29.0703125 21.5859375 Z M-42.0703125 78.5859375 C-48.45287753 86.4293621 -49.9586315 95.86274071 -49.91796875 105.703125 C-49.9165538 106.38271271 -49.91513885 107.06230042 -49.91368103 107.76248169 C-49.90812768 109.91201362 -49.89558419 112.06143758 -49.8828125 114.2109375 C-49.87779146 115.67708182 -49.87322961 117.14322779 -49.86914062 118.609375 C-49.85817361 122.18493033 -49.84094169 125.76042336 -49.8203125 129.3359375 C-49.01279541 129.12227539 -48.20527832 128.90861328 -47.37329102 128.68847656 C-46.30522217 128.41229492 -45.23715332 128.13611328 -44.13671875 127.8515625 C-43.08170166 127.57602539 -42.02668457 127.30048828 -40.93969727 127.01660156 C-35.75902681 125.88615551 -30.91288142 125.63841453 -25.8203125 127.3359375 C-25.10922951 128.64612191 -24.44778233 129.98371569 -23.8203125 131.3359375 C-22.81595278 132.61610585 -21.77340989 133.86721872 -20.6953125 135.0859375 C-20.15648437 135.69953125 -19.61765625 136.313125 -19.0625 136.9453125 C-18.44761719 137.63367188 -18.44761719 137.63367188 -17.8203125 138.3359375 C-13.50850518 137.85188314 -11.7613571 136.71588884 -9.0078125 133.3984375 C-8.40324219 132.68816406 -7.79867187 131.97789062 -7.17578125 131.24609375 C-5.62740876 129.45446325 -5.62740876 129.45446325 -5.8203125 127.3359375 C0.46581 125.24056333 6.23478121 126.21630562 12.49609375 127.8515625 C13.5641626 128.12774414 14.63223145 128.40392578 15.73266602 128.68847656 C16.54018311 128.90213867 17.3477002 129.11580078 18.1796875 129.3359375 C18.25490335 125.14082174 18.30878131 120.94608273 18.34448242 116.75048828 C18.35939451 115.32886909 18.37973159 113.90729443 18.40600586 112.48583984 C18.64313405 99.30895196 17.9135673 86.41833978 8.359375 76.43359375 C0.15385883 68.82337974 -7.63538521 65.99028225 -18.72265625 66.125 C-28.42684999 66.78581521 -35.53015083 71.63599127 -42.0703125 78.5859375 Z M-42.8203125 146.3359375 C-42.90667969 147.27695313 -42.99304688 148.21796875 -43.08203125 149.1875 C-44.09807975 158.1921133 -44.83714126 162.31574307 -51.90234375 168.015625 C-56.63426865 171.51418617 -59.79649689 173.1813853 -65.8203125 172.3359375 C-69.17267992 171.74434325 -72.49946841 171.08429673 -75.8203125 170.3359375 C-78.22123654 173.51089122 -78.22123654 173.51089122 -78.5390625 177.27734375 C-77.80695493 179.37419533 -76.87755425 181.10904032 -75.7578125 183.0234375 C-72.93898911 188.61978285 -72.89221811 193.31963073 -74.7265625 199.28125 C-75.4339632 201.2164962 -76.17173936 203.14102257 -76.9453125 205.05078125 C-77.93950851 207.23940565 -77.93950851 207.23940565 -77.8203125 209.3359375 C-78.4596875 209.5834375 -79.0990625 209.8309375 -79.7578125 210.0859375 C-83.82019601 211.74405322 -87.81756156 213.5394959 -91.8203125 215.3359375 C-91.8203125 217.9759375 -91.8203125 220.6159375 -91.8203125 223.3359375 C-89.86445925 224.34077954 -87.90555013 225.33967555 -85.9453125 226.3359375 C-84.85476562 226.8928125 -83.76421875 227.4496875 -82.640625 228.0234375 C-80.03656168 229.47657844 -80.03656168 229.47657844 -77.8203125 229.3359375 C-77.51287109 230.36654297 -77.51287109 230.36654297 -77.19921875 231.41796875 C-76.92980469 232.31902344 -76.66039062 233.22007812 -76.3828125 234.1484375 C-76.11597656 235.04175781 -75.84914063 235.93507813 -75.57421875 236.85546875 C-75.01643377 238.69066805 -74.42686675 240.51627476 -73.8203125 242.3359375 C-72.91222345 248.79634244 -74.16552926 252.84113276 -77.82421875 258.1953125 C-79.12774297 260.9966116 -78.77388386 262.44168071 -77.8203125 265.3359375 C-77.1603125 265.9959375 -76.5003125 266.6559375 -75.8203125 267.3359375 C-73.92937745 267.17260092 -72.0383366 266.99758035 -70.15673828 266.7487793 C-63.12276599 265.8583935 -58.43079225 265.66086636 -52.4453125 270.0234375 C-46.73248943 274.86076601 -44.5380885 278.06518306 -43.6328125 285.5859375 C-43.39498047 287.48085938 -43.39498047 287.48085938 -43.15234375 289.4140625 C-43.04277344 290.37828125 -42.93320313 291.3425 -42.8203125 292.3359375 C-40.5103125 292.9959375 -38.2003125 293.6559375 -35.8203125 294.3359375 C-35.20542969 293.62566406 -34.59054688 292.91539062 -33.95703125 292.18359375 C-33.14878906 291.26449219 -32.34054688 290.34539062 -31.5078125 289.3984375 C-30.70730469 288.48191406 -29.90679687 287.56539062 -29.08203125 286.62109375 C-25.22197833 282.72104029 -21.12472394 283.12326659 -15.9453125 283.0859375 C-14.88376953 283.055 -14.88376953 283.055 -13.80078125 283.0234375 C-9.23529663 282.98943017 -6.42523007 283.51387419 -2.8203125 286.3359375 C-0.80078125 288.37890625 -0.80078125 288.37890625 0.9921875 290.5234375 C1.89904297 291.59658203 1.89904297 291.59658203 2.82421875 292.69140625 C3.27152344 293.23410156 3.71882813 293.77679688 4.1796875 294.3359375 C7.6446875 293.3459375 7.6446875 293.3459375 11.1796875 292.3359375 C11.30923828 290.92441406 11.30923828 290.92441406 11.44140625 289.484375 C12.4587372 280.46839608 13.21759085 276.40788704 20.2265625 270.65625 C25.31235568 266.85067372 28.90088208 265.4389653 35.1796875 266.3359375 C35.96988281 266.46355469 36.76007813 266.59117187 37.57421875 266.72265625 C39.80925382 267.05845312 41.91912723 267.36344939 44.1796875 267.3359375 C46.48564797 265.87305193 46.48564797 265.87305193 47.1796875 263.3359375 C47.08481251 259.82556301 46.01511076 258.07660445 44.1171875 255.0859375 C41.61414226 250.83167745 41.38838814 247.16742876 42.1796875 242.3359375 C43.09287638 239.36413749 44.13764969 236.50221834 45.3046875 233.62109375 C46.29888351 231.43246935 46.29888351 231.43246935 46.1796875 229.3359375 C46.8190625 229.0884375 47.4584375 228.8409375 48.1171875 228.5859375 C52.17957101 226.92782178 56.17693656 225.1323791 60.1796875 223.3359375 C60.1796875 220.6959375 60.1796875 218.0559375 60.1796875 215.3359375 C58.22383425 214.33109546 56.26492513 213.33219945 54.3046875 212.3359375 C53.21414063 211.7790625 52.12359375 211.2221875 51 210.6484375 C48.39593668 209.19529656 48.39593668 209.19529656 46.1796875 209.3359375 C45.97472656 208.64886719 45.76976562 207.96179688 45.55859375 207.25390625 C45.28917969 206.35285156 45.01976562 205.45179688 44.7421875 204.5234375 C44.47535156 203.63011719 44.20851563 202.73679688 43.93359375 201.81640625 C43.37580877 199.98120695 42.78624175 198.15560024 42.1796875 196.3359375 C41.27159845 189.87553256 42.52490426 185.83074224 46.18359375 180.4765625 C47.50169146 177.64394468 47.19240897 176.25634359 46.1796875 173.3359375 C45.00256188 171.4025977 45.00256188 171.4025977 43.1796875 170.3359375 C41.09906623 170.41179969 41.09906623 170.41179969 38.9296875 171.1484375 C38.12789062 171.34824219 37.32609375 171.54804688 36.5 171.75390625 C35.35144531 172.04201172 35.35144531 172.04201172 34.1796875 172.3359375 C30.06876385 173.09721966 28.00469437 172.8262937 24.40625 170.6875 C13.78278487 163.18694326 13.78278487 163.18694326 12.44921875 156.8828125 C12.29839844 155.62984375 12.14757812 154.376875 11.9921875 153.0859375 C11.83363281 151.82265625 11.67507813 150.559375 11.51171875 149.2578125 C11.34736328 147.81148437 11.34736328 147.81148437 11.1796875 146.3359375 C8.8696875 145.6759375 6.5596875 145.0159375 4.1796875 144.3359375 C3.57640625 145.04621094 2.973125 145.75648438 2.3515625 146.48828125 C1.55234375 147.40738281 0.753125 148.32648438 -0.0703125 149.2734375 C-0.85921875 150.18996094 -1.648125 151.10648438 -2.4609375 152.05078125 C-6.53066834 155.99249075 -10.23462172 155.49396476 -15.7578125 155.5234375 C-17.56572266 155.54470703 -17.56572266 155.54470703 -19.41015625 155.56640625 C-24.07722368 155.25099161 -26.65460696 154.49954267 -29.98828125 151.171875 C-30.65472656 150.35976562 -31.32117188 149.54765625 -32.0078125 148.7109375 C-33.23873701 147.21876515 -34.50139642 145.75093356 -35.8203125 144.3359375 C-38.466846 144.3359375 -40.4011288 145.31733384 -42.8203125 146.3359375 Z " fill="#000000" transform="translate(271.8203125,2.6640625)"/>
<path d="M0 0 C9.67885165 9.15567048 14.28433776 20.25409462 14.6875 33.4375 C14.46940218 45.65097812 10.56750815 55.15554991 2.3125 64.1875 C-7.31459591 72.98645862 -17.76375335 76.85273748 -30.75341797 76.65625 C-42.93894677 76.09612993 -53.23725403 71.10709859 -61.56640625 62.171875 C-69.73044119 51.77756485 -72.98078241 40.36281454 -71.6875 27.1875 C-69.96933253 18.84072054 -67.06125553 11.81036093 -61.6875 5.1875 C-61.18605469 4.56230469 -60.68460937 3.93710937 -60.16796875 3.29296875 C-43.97636535 -14.78962483 -18.4591781 -12.44921314 0 0 Z M-47.6875 17.1875 C-52.50636106 24.0657034 -54.67949673 29.69437727 -53.6875 38.1875 C-51.12466712 46.38059785 -46.94432285 51.69305465 -39.6875 56.171875 C-33.71669943 59.20392216 -26.26438758 59.32862437 -19.95703125 57.31640625 C-12.8304392 54.02803927 -7.97401832 49.60132759 -4.8125 42.375 C-2.41392128 34.93509715 -2.98953162 28.10437807 -6.49609375 21.15234375 C-9.97572157 15.41381001 -16.23719688 10.55616189 -22.70703125 8.56640625 C-32.19282125 6.75157069 -41.57930139 9.50862175 -47.6875 17.1875 Z " fill="#000000" transform="translate(446.6875,384.8125)"/>
<path d="M0 0 C8.50028653 6.78505014 14.7244291 17.06653511 16 28 C16.98578968 40.54641416 14.72628704 50.99518327 7 61 C6.4225 61.86625 5.845 62.7325 5.25 63.625 C-2.88656971 72.21360136 -13.13042797 76.93772504 -24.9362793 77.47094727 C-37.92832617 77.65384725 -48.36845162 73.80302809 -58 65 C-67.24880576 54.8807184 -70.74737154 44.22344302 -70.31640625 30.61328125 C-69.28709655 18.85881863 -64.79797021 9.91817319 -56 2 C-54.7315625 0.7625 -54.7315625 0.7625 -53.4375 -0.5 C-38.08689653 -13.09945635 -15.27866392 -11.32995517 0 0 Z M-46 17 C-51.31570349 23.98635315 -52.8433332 30.36587438 -52 39 C-50.49313714 46.0531312 -46.67038145 51.45005078 -40.7734375 55.546875 C-33.87754491 59.44360161 -27.45979843 60.23529118 -19.73828125 58.48828125 C-11.84633796 55.88769803 -7.75483668 51.24380031 -3.98046875 44.0859375 C-1.37809321 38.54940947 -1.1135364 33.25197243 -2.71875 27.36328125 C-5.8575294 18.89617069 -11.06088451 14.10371775 -19 10 C-28.604575 7.04617519 -38.90836197 9.90836197 -46 17 Z " fill="#000000" transform="translate(121,384)"/>
<path d="M0 0 C9.75301685 6.69531427 17.06962827 16.09526382 19.63671875 27.84375 C21.58607909 42.57225031 18.30852807 53.81084631 10.140625 65.921875 C1.14134035 75.43540449 -9.82878897 80.09747687 -22.796875 80.609375 C-34.11340519 80.39285975 -44.38980615 76.36520488 -52.734375 68.796875 C-53.4975 67.95125 -54.260625 67.105625 -55.046875 66.234375 C-55.8925 65.30625 -56.738125 64.378125 -57.609375 63.421875 C-65.56193351 53.64372916 -66.90081287 42.48770567 -66.046875 30.234375 C-64.83733747 22.34697062 -61.82821687 16.54113157 -57.046875 10.234375 C-56.180625 8.935 -56.180625 8.935 -55.296875 7.609375 C-40.94350541 -7.54140401 -17.98286518 -10.42083982 0 0 Z M-42.046875 20.234375 C-47.28526177 27.11911189 -49.10312323 33.68134055 -48.046875 42.234375 C-45.39354169 50.87822373 -41.08733422 55.99864968 -33.16796875 60.21875 C-27.54857346 62.90943651 -21.54274485 63.29689922 -15.56640625 61.48046875 C-7.17285225 57.89528237 -2.96137572 53.40965919 0.953125 45.234375 C2.95520371 39.22813887 2.690146 33.24443004 0.203125 27.421875 C-3.207164 20.68418596 -7.32721642 16.64670162 -14.046875 13.234375 C-24.23633699 10.00059365 -34.4530468 12.85751332 -42.046875 20.234375 Z " fill="#000000" transform="translate(279.046875,184.765625)"/>
<path d="M0 0 C7.2191718 2.17839067 13.65657504 5.16173599 20.3125 8.6875 C21.8430603 9.49477539 21.8430603 9.49477539 23.40454102 10.31835938 C30.60248815 14.15910439 37.41724597 18.16551127 44 23 C44.61391602 23.44311523 45.22783203 23.88623047 45.86035156 24.34277344 C56.69213266 32.17240951 66.54695868 40.53248235 76 50 C77.34964844 51.29744141 77.34964844 51.29744141 78.7265625 52.62109375 C86.24385191 59.88518008 92.7893038 67.59870941 99 76 C99.74765625 77.00289063 100.4953125 78.00578125 101.265625 79.0390625 C108.31480031 88.85212309 114.22252752 99.40023527 120 110 C120.38164307 110.69150146 120.76328613 111.38300293 121.15649414 112.09545898 C122 114 122 114 122 117 C119.73495035 118.19984797 117.46410112 119.38494769 115.1875 120.5625 C114.54490234 120.90474609 113.90230469 121.24699219 113.24023438 121.59960938 C111.53073605 122.4765023 109.76678706 123.24515617 108 124 C104.33384796 122.77794932 104.20179262 122.02930814 102.50390625 118.6875 C101.79899048 117.33386353 101.79899048 117.33386353 101.07983398 115.95288086 C100.57911377 114.97843018 100.07839355 114.00397949 99.5625 113 C89.65465297 94.30940609 77.25764676 77.67824245 62 63 C61.19691406 62.195625 60.39382813 61.39125 59.56640625 60.5625 C40.41621675 41.44145843 17.79704372 27.66740749 -7 17 C-6.02412745 14.35290841 -5.04447855 11.70732553 -4.0625 9.0625 C-3.78470703 8.30775391 -3.50691406 7.55300781 -3.22070312 6.77539062 C-1.11328125 1.11328125 -1.11328125 1.11328125 0 0 Z " fill="#000000" transform="translate(343,68)"/>
<path d="M0 0 C1.03758749 2.05412248 2.0545034 4.11869605 3.0625 6.1875 C3.63097656 7.33605469 4.19945312 8.48460938 4.78515625 9.66796875 C6 13 6 13 6.21875 15.6640625 C4.17324097 19.58462148 0.38551326 20.53910075 -3.5625 22.1875 C-22.26174428 30.5339664 -39.36920301 42.29530593 -54.1796875 56.453125 C-56 58 -56 58 -58 58 C-58.33064453 58.82951172 -58.33064453 58.82951172 -58.66796875 59.67578125 C-60.40477225 62.70627416 -62.79048773 64.82396825 -65.3125 67.1875 C-81.18991262 82.61459259 -92.23393965 101.86033716 -103 121 C-110.92 117.535 -110.92 117.535 -119 114 C-118.24135018 110.2067509 -117.83917143 108.30196934 -116.1015625 105.13671875 C-115.7106543 104.42314209 -115.31974609 103.70956543 -114.91699219 102.97436523 C-114.27745605 101.84236694 -114.27745605 101.84236694 -113.625 100.6875 C-113.17801758 99.89351807 -112.73103516 99.09953613 -112.27050781 98.28149414 C-97.44670214 72.36562371 -77.10585482 47.76395637 -53 30 C-52.10909668 29.33508545 -52.10909668 29.33508545 -51.20019531 28.65673828 C-12.60288237 0 -12.60288237 0 0 0 Z " fill="#000000" transform="translate(167,69)"/>
<path d="M0 0 C0.83698386 2.45714547 1.66972424 4.91558857 2.5 7.375 C2.73847656 8.07367188 2.97695313 8.77234375 3.22265625 9.4921875 C5 14.7734375 5 14.7734375 5 17 C-14.73224581 23.10905443 -35.21039573 28.08708093 -55.9765625 28.203125 C-57.23597404 28.21357849 -57.23597404 28.21357849 -58.52082825 28.22424316 C-61.22227019 28.24157339 -63.92350475 28.24796504 -66.625 28.25 C-68.00693039 28.25151062 -68.00693039 28.25151062 -69.41677856 28.25305176 C-83.15727209 28.24287616 -96.49650705 27.74976071 -110 25 C-110.81952148 24.83951172 -111.63904297 24.67902344 -112.48339844 24.51367188 C-120.82212247 22.8582615 -129.01336431 20.95801322 -137 18 C-136.54619105 16.10307857 -136.08675008 14.20750405 -135.625 12.3125 C-135.36976563 11.25675781 -135.11453125 10.20101563 -134.8515625 9.11328125 C-134.07995932 6.29232833 -133.1090423 3.70053801 -132 1 C-126.25485524 2.01594892 -120.52399528 3.08130852 -114.80859375 4.25390625 C-113.23754883 4.57584961 -113.23754883 4.57584961 -111.63476562 4.90429688 C-109.49873424 5.34402966 -107.36331605 5.78675143 -105.22851562 6.23242188 C-92.84501238 8.75795458 -80.79155486 9.23929886 -68.1875 9.25 C-67.36463501 9.25100708 -66.54177002 9.25201416 -65.69396973 9.25305176 C-52.91470321 9.2424837 -40.53935179 8.6604425 -28 6 C-27.21206055 5.83419434 -26.42412109 5.66838867 -25.61230469 5.49755859 C-19.43751904 4.16793314 -13.32439783 2.69926853 -7.2734375 0.87890625 C-4 0 -4 0 0 0 Z " fill="#000000" transform="translate(324,484)"/>
</svg>
