<?xml version="1.0" standalone="no"?>
<!DOCTYPE svg PUBLIC "-//W3C//DTD SVG 20010904//EN"
 "http://www.w3.org/TR/2001/REC-SVG-20010904/DTD/svg10.dtd">
<svg version="1.0" xmlns="http://www.w3.org/2000/svg"
 width="512.000000pt" height="512.000000pt" viewBox="0 0 512.000000 512.000000"
 preserveAspectRatio="xMidYMid meet">

<g transform="translate(0.000000,512.000000) scale(0.100000,-0.100000)"
fill="#000000" stroke="none">
<path d="M2395 5114 c-329 -38 -521 -89 -760 -203 -151 -72 -236 -121 -354
-207 -77 -54 -97 -65 -110 -56 -199 141 -457 178 -679 97 -101 -37 -130 -88
-77 -140 30 -31 41 -31 132 0 97 34 207 41 303 21 223 -47 408 -224 460 -441
19 -81 14 -219 -10 -300 -21 -67 -72 -169 -90 -180 -5 -3 -19 13 -31 36 -24
48 -102 134 -139 155 -52 28 -52 27 -18 89 86 160 17 361 -151 442 -45 21 -71
26 -131 27 -130 1 -234 -63 -291 -179 -27 -55 -31 -75 -31 -141 0 -68 4 -85
34 -143 l34 -67 -53 -33 c-56 -34 -120 -106 -142 -160 -8 -17 -16 -31 -20 -31
-13 0 -70 106 -91 169 -50 152 -34 314 48 472 42 81 44 90 33 118 -15 36 -54
52 -94 39 -42 -15 -112 -145 -149 -278 -6 -25 -12 -101 -12 -170 -1 -104 3
-138 23 -200 60 -192 181 -348 341 -437 43 -24 50 -31 45 -51 -40 -163 -51
-543 -21 -737 72 -468 273 -877 590 -1204 221 -227 469 -396 751 -513 l90 -37
1 -128 c1 -99 7 -145 24 -203 72 -247 257 -433 510 -511 108 -34 293 -34 400
0 206 64 358 188 454 371 58 109 78 197 80 343 l1 128 90 37 c280 116 528 285
746 508 322 332 523 739 595 1209 30 197 19 574 -21 737 -5 19 1 27 39 47 154
81 288 250 345 436 54 172 36 356 -51 534 -43 91 -62 117 -137 191 -72 72
-102 95 -181 133 -52 26 -122 54 -155 62 -207 53 -437 10 -616 -117 -13 -9
-34 2 -115 60 -375 269 -838 416 -1293 411 -64 -1 -129 -4 -146 -5z m395 -159
c324 -39 635 -152 890 -324 158 -106 147 -88 96 -164 -24 -36 -46 -71 -48 -78
-3 -9 -24 2 -64 33 -135 104 -343 212 -524 272 -448 149 -944 118 -1369 -84
-120 -58 -232 -124 -316 -188 -37 -28 -61 -40 -63 -33 -2 7 -24 42 -48 78 -51
76 -62 58 96 164 191 129 471 247 695 294 208 44 452 55 655 30z m45 -339
c271 -46 521 -152 742 -317 l91 -68 -9 -38 c-5 -21 -9 -85 -9 -143 -1 -208 64
-365 215 -516 74 -75 106 -98 183 -137 51 -25 108 -49 127 -53 20 -3 37 -10
40 -14 12 -19 35 -156 44 -266 37 -423 -105 -875 -379 -1209 -203 -247 -498
-451 -782 -540 l-56 -18 -49 35 c-256 187 -610 187 -867 0 l-49 -36 -81 28
c-341 115 -663 371 -870 689 -197 302 -296 695 -265 1051 9 110 32 247 44 266
3 4 20 11 40 14 19 4 76 28 127 53 77 39 109 62 183 137 151 151 216 308 215
516 0 58 -4 122 -9 142 -8 36 -7 39 33 71 226 184 543 321 821 356 50 6 101
13 115 15 49 9 317 -3 405 -18z m1736 -10 c249 -87 413 -329 396 -586 -3 -47
-15 -115 -27 -151 -21 -63 -78 -169 -91 -169 -4 0 -12 14 -20 31 -22 54 -86
126 -142 160 l-53 33 34 67 c30 58 34 75 34 143 0 134 -67 237 -192 295 -80
37 -184 36 -261 -2 -169 -82 -237 -283 -151 -442 34 -62 34 -61 -18 -89 -37
-21 -115 -107 -139 -155 -12 -23 -26 -39 -31 -36 -18 11 -69 113 -90 180 -25
82 -29 213 -10 296 49 214 233 395 450 444 92 21 219 13 311 -19z m-3750 -321
c93 -49 117 -181 46 -262 -56 -63 -126 -79 -203 -44 -106 48 -131 193 -47 277
54 54 133 65 204 29z m3660 -9 c106 -71 92 -244 -24 -297 -74 -33 -145 -20
-199 37 -140 150 51 373 223 260z m-3545 -493 c71 -38 127 -116 136 -188 3
-28 -1 -32 -69 -66 -171 -86 -363 -85 -535 2 -33 16 -61 36 -64 44 -16 40 47
151 104 188 68 42 91 46 242 44 127 -2 150 -5 186 -24z m3639 2 c21 -10 56
-37 76 -58 38 -39 75 -126 65 -152 -7 -19 -107 -69 -181 -90 -74 -22 -200 -24
-283 -6 -34 8 -95 30 -135 50 -68 34 -72 38 -69 66 11 91 85 175 182 206 14 4
88 7 165 6 116 -2 147 -5 180 -22z m-3880 -471 c25 -4 45 -10 45 -14 0 -4 -5
-31 -10 -61 -6 -29 -15 -112 -20 -184 -52 -729 347 -1433 1000 -1769 69 -35
153 -74 188 -86 34 -13 62 -25 62 -28 0 -3 -14 -27 -31 -55 -17 -27 -35 -61
-40 -74 -11 -31 -26 -28 -156 28 -216 95 -404 223 -586 399 -370 358 -576 796
-618 1318 -12 146 -3 338 22 480 l11 64 44 -6 c24 -3 64 -9 89 -12z m3874 -46
c66 -376 10 -813 -149 -1168 -107 -236 -228 -409 -425 -605 -198 -198 -376
-322 -608 -424 -130 -56 -145 -59 -156 -28 -5 13 -23 47 -40 74 -17 28 -31 52
-31 55 0 3 28 16 63 28 90 33 249 114 347 178 560 364 887 1015 840 1677 -5
69 -14 153 -20 187 -6 33 -10 62 -8 64 4 3 120 21 154 23 19 1 23 -7 33 -61z
m-1874 -1960 c185 -39 366 -207 425 -394 50 -164 30 -324 -61 -483 l-31 -54
-29 54 c-36 65 -89 122 -146 156 l-42 25 32 56 c30 53 32 63 32 152 0 84 -3
101 -27 145 -32 60 -87 114 -148 146 -38 20 -60 24 -140 24 -80 0 -102 -4
-140 -24 -61 -32 -116 -86 -148 -146 -24 -44 -27 -61 -27 -145 0 -89 2 -99 32
-152 l32 -56 -42 -25 c-57 -34 -110 -91 -145 -155 l-29 -54 -23 37 c-124 201
-129 427 -13 624 44 74 138 165 214 209 128 72 270 93 424 60z m-38 -344 c54
-40 68 -70 68 -143 0 -58 -4 -73 -27 -103 -38 -50 -88 -71 -154 -66 -99 8
-160 83 -152 185 5 60 26 95 79 131 29 20 44 23 96 20 43 -3 71 -10 90 -24z
m95 -493 c60 -29 112 -89 134 -154 l17 -51 -29 -23 c-82 -66 -261 -105 -392
-86 -88 13 -192 51 -236 86 -28 22 -28 25 -16 63 28 90 94 157 178 181 31 8
91 12 172 10 107 -2 132 -6 172 -26z"/>
<path d="M2384 3946 c-166 -32 -290 -81 -299 -119 -11 -41 -2 -69 28 -91 l28
-21 62 24 c148 55 204 65 362 65 133 -1 160 -4 236 -27 119 -36 184 -66 270
-125 415 -281 529 -831 261 -1257 l-32 -50 0 37 c-1 200 -147 377 -343 413
-20 4 -37 9 -37 12 0 2 13 21 30 41 75 95 112 242 92 365 -45 266 -297 452
-554 409 -267 -45 -454 -298 -410 -554 14 -83 49 -166 92 -220 17 -20 30 -39
30 -41 0 -3 -17 -8 -37 -12 -164 -31 -297 -160 -332 -323 -6 -29 -11 -70 -11
-90 l0 -37 -26 39 c-15 21 -44 75 -65 120 -154 331 -101 713 140 991 71 82 79
119 35 154 -45 35 -72 28 -132 -36 -318 -341 -370 -866 -126 -1275 61 -103
230 -277 331 -342 320 -206 721 -228 1058 -60 118 59 205 125 307 233 356 379
382 952 63 1373 -141 187 -349 324 -583 385 -120 31 -328 40 -438 19z m309
-495 c65 -28 141 -102 174 -170 36 -75 39 -200 6 -273 -30 -66 -105 -143 -172
-175 -48 -24 -68 -28 -141 -28 -73 0 -93 4 -141 28 -67 32 -142 109 -172 175
-30 66 -30 198 0 264 42 92 140 174 237 199 49 13 156 2 209 -20z m313 -828
c59 -31 110 -93 128 -154 11 -35 16 -92 16 -168 l-1 -116 -42 -31 c-23 -17
-63 -43 -89 -58 l-46 -27 -4 95 c-2 75 -7 98 -22 115 -25 27 -79 28 -106 1
-18 -18 -20 -33 -20 -145 l0 -124 -37 -11 c-21 -5 -80 -15 -130 -22 -95 -11
-228 -2 -315 22 l-38 11 0 124 c0 112 -2 127 -20 145 -27 27 -81 26 -106 -1
-15 -17 -20 -40 -22 -115 l-4 -95 -46 27 c-26 15 -66 41 -89 58 l-42 31 -1
116 c0 76 5 133 16 168 23 79 90 146 174 172 14 4 201 7 415 6 380 -2 391 -3
431 -24z"/>
</g>
</svg>
