<?xml version="1.0" encoding="UTF-8"?>
<svg version="1.1" xmlns="http://www.w3.org/2000/svg" width="256" height="256">
<path d="M0 0 C0.67059574 -0.00623996 1.34119148 -0.01247993 2.03210831 -0.01890898 C4.26623551 -0.03479059 6.49926427 -0.02225497 8.73339844 -0.00964355 C10.34029779 -0.01506687 11.94719216 -0.02219071 13.55407715 -0.03088379 C17.90948209 -0.04909531 22.26450738 -0.04205868 26.61991882 -0.02936745 C31.18151866 -0.0192285 35.74308636 -0.02863561 40.3046875 -0.03491211 C47.96457749 -0.04218591 55.62431314 -0.03260784 63.28417969 -0.0135498 C72.13546748 0.00821845 80.9863867 0.00116689 89.83766556 -0.02085543 C97.4420957 -0.03901706 105.046415 -0.04156402 112.65085983 -0.03110075 C117.1905191 -0.02487001 121.73000523 -0.02401863 126.26965332 -0.0372467 C130.53796104 -0.04881572 134.80579434 -0.0407605 139.0740509 -0.01766968 C140.63893344 -0.01238817 142.20385602 -0.01388685 143.76872253 -0.02272034 C145.90819987 -0.03368243 148.0461654 -0.01990717 150.18554688 0 C151.3816156 0.0015081 152.57768433 0.0030162 153.80999756 0.00457001 C157.88737528 0.62977487 159.95748004 1.84199601 163.09277344 4.50793457 C166.45500753 9.39396976 166.51999853 13.74914314 166.47372437 19.46520996 C166.47840434 20.35631753 166.48308431 21.2474251 166.4879061 22.16553593 C166.49985359 25.14570649 166.49039973 28.125417 166.48095703 31.10559082 C166.48502283 33.24449939 166.49036476 35.38340586 166.49688721 37.52230835 C166.51056549 43.32800825 166.50525996 49.13354824 166.49574995 54.93925095 C166.48815607 61.01431459 166.49519821 67.08936453 166.49990845 73.16442871 C166.50536678 83.36652078 166.49817232 93.5685477 166.48388672 103.77062988 C166.4675601 115.56654996 166.47284855 127.36231448 166.48936594 139.15823078 C166.50297856 149.28491453 166.50490154 159.41155144 166.49704993 169.53824139 C166.4923722 175.58693174 166.49175137 181.63554896 166.50165939 187.68423462 C166.51032346 193.37074187 166.50431719 199.05704851 166.48697662 204.74353409 C166.48300882 206.83088981 166.48415084 208.91826241 166.49076462 211.00561142 C166.49895841 213.85418885 166.48868448 216.70212278 166.47372437 219.55065918 C166.48041653 220.37731614 166.4871087 221.2039731 166.49400365 222.05568027 C166.44445056 226.91789254 165.93240591 230.38134974 163.09277344 234.50793457 C158.79895036 238.15897041 155.76228638 239.00883753 150.18554688 239.01586914 C149.51495113 239.0221091 148.84435539 239.02834907 148.15343857 239.03477812 C145.91931136 239.05065973 143.68628261 239.03812411 141.45214844 239.0255127 C139.84524909 239.03093601 138.23835471 239.03805985 136.63146973 239.04675293 C132.27606479 239.06496446 127.9210395 239.05792782 123.56562805 239.04523659 C119.00402821 239.03509764 114.44246051 239.04450475 109.88085938 239.05078125 C102.22096938 239.05805505 94.56123374 239.04847698 86.90136719 239.02941895 C78.0500794 239.00765069 69.19916018 239.01470225 60.34788132 239.03672457 C52.74345117 239.0548862 45.13913187 239.05743316 37.53468704 239.04696989 C32.99502777 239.04073915 28.45554165 239.03988777 23.91589355 239.05311584 C19.64758583 239.06468486 15.37975253 239.05662964 11.11149597 239.03353882 C9.54661344 239.02825731 7.98169086 239.02975599 6.41682434 239.03858948 C4.27734701 239.04955157 2.13938148 239.03577631 0 239.01586914 C-1.19606873 239.01436104 -2.39213745 239.01285294 -3.62445068 239.01129913 C-7.7018284 238.38609427 -9.77193317 237.17387313 -12.90722656 234.50793457 C-16.26946065 229.62189938 -16.33445166 225.266726 -16.28817749 219.55065918 C-16.29285746 218.65955161 -16.29753743 217.76844404 -16.30235922 216.85033321 C-16.31430671 213.87016265 -16.30485286 210.89045214 -16.29541016 207.91027832 C-16.29947596 205.77136975 -16.30481789 203.63246328 -16.31134033 201.49356079 C-16.32501862 195.68786089 -16.31971309 189.8823209 -16.31020308 184.07661819 C-16.30260919 178.00155455 -16.30965134 171.92650461 -16.31436157 165.85144043 C-16.3198199 155.64934836 -16.31262544 145.44732144 -16.29833984 135.24523926 C-16.28201323 123.44931918 -16.28730168 111.65355466 -16.30381906 99.85763836 C-16.31743168 89.73095461 -16.31935467 79.6043177 -16.31150305 69.47762775 C-16.30682533 63.4289374 -16.30620449 57.38032018 -16.31611252 51.33163452 C-16.32477658 45.64512727 -16.31877032 39.95882063 -16.30142975 34.27233505 C-16.29746194 32.18497933 -16.29860396 30.09760674 -16.30521774 28.01025772 C-16.31341153 25.16168029 -16.3031376 22.31374636 -16.28817749 19.46520996 C-16.29486966 18.638553 -16.30156182 17.81189604 -16.30845678 16.96018887 C-16.25890368 12.0979766 -15.74685903 8.6345194 -12.90722656 4.50793457 C-8.61340348 0.85689873 -5.57673951 0.00703161 0 0 Z M-7.90722656 11.50793457 C-8.20220524 14.42559325 -8.31172115 17.12988572 -8.28817749 20.04870605 C-8.29285746 20.93119994 -8.29753743 21.81369383 -8.30235922 22.72292995 C-8.31436324 25.69178049 -8.3048309 28.66017403 -8.29541016 31.62902832 C-8.29947345 33.75265778 -8.30481397 35.87628513 -8.31134033 37.99990845 C-8.32504846 43.77665996 -8.31970084 49.55325123 -8.31020308 55.33000565 C-8.30262458 61.36645195 -8.30964704 67.40288423 -8.31436157 73.43933105 C-8.31982441 83.57778393 -8.31261365 93.71617132 -8.29833984 103.85461426 C-8.28201236 115.58747957 -8.28730049 127.32018852 -8.30381906 139.05305004 C-8.31741887 149.11423427 -8.31936096 159.17537133 -8.31150305 169.23656178 C-8.30681826 175.25110755 -8.3062238 181.26557975 -8.31611252 187.28012085 C-8.32475801 192.93374858 -8.31880453 198.58717407 -8.30142975 204.24077988 C-8.29745196 206.3197178 -8.29862089 208.39867265 -8.30521774 210.47760391 C-8.31337236 213.30768929 -8.30318555 216.13711983 -8.28817749 218.96716309 C-8.29821574 220.21165301 -8.29821574 220.21165301 -8.30845678 221.48128414 C-8.37481147 225.63474367 -8.37481147 225.63474367 -6.56235278 229.21772158 C-3.98326716 231.22818443 -1.71886482 230.885775 1.50756836 230.8888855 C2.16138331 230.89356547 2.81519827 230.89824544 3.4888258 230.90306723 C5.68383644 230.91505161 7.8782267 230.90554711 10.07324219 230.89611816 C11.64515549 230.90018236 13.21706593 230.90552338 14.78897095 230.91204834 C19.06165674 230.92574595 23.33412566 230.92041327 27.60681534 230.91091108 C32.07373905 230.90332711 36.54064393 230.91035658 41.00756836 230.91506958 C48.50963686 230.92053082 56.01161681 230.91332587 63.51367188 230.89904785 C72.19278782 230.88272061 80.87169236 230.88800886 89.55080318 230.90452707 C96.9963026 230.91813145 104.4417383 230.92006674 111.88724613 230.91221106 C116.33684315 230.90752876 120.78634073 230.90692492 125.2359314 230.91682053 C129.41875503 230.92547271 133.60130552 230.91950049 137.78409958 230.90213776 C139.32121705 230.89816353 140.85835742 230.89932292 142.39546585 230.90592575 C144.48994936 230.91409482 146.58355154 230.90387729 148.67797852 230.8888855 C149.8512117 230.88775442 151.02444489 230.88662334 152.23323059 230.88545799 C155.47843147 230.45701911 156.12243201 230.01290137 158.09277344 227.50793457 C158.38775212 224.59027589 158.49726802 221.88598342 158.47372437 218.96716309 C158.48074432 217.64342226 158.48074432 217.64342226 158.4879061 216.29293919 C158.49991011 213.32408865 158.49037778 210.35569511 158.48095703 207.38684082 C158.48502033 205.26321136 158.49036084 203.13958401 158.49688721 201.01596069 C158.51059534 195.23920918 158.50524771 189.46261791 158.49574995 183.68586349 C158.48817146 177.64941719 158.49519391 171.61298491 158.49990845 165.57653809 C158.50537128 155.43808521 158.49816052 145.29969782 158.48388672 135.16125488 C158.46755923 123.42838957 158.47284737 111.69568063 158.48936594 99.9628191 C158.50296575 89.90163487 158.50490783 79.84049781 158.49704993 69.77930737 C158.49236513 63.76476159 158.49177068 57.75028939 158.50165939 51.73574829 C158.51030489 46.08212056 158.50435141 40.42869507 158.48697662 34.77508926 C158.48299884 32.69615134 158.48416777 30.61719649 158.49076462 28.53826523 C158.49891923 25.70817985 158.48873243 22.87874931 158.47372437 20.04870605 C158.48376261 18.80421613 158.48376261 18.80421613 158.49400365 17.534585 C158.56035834 13.38112547 158.56035834 13.38112547 156.74789965 9.79814756 C154.16881404 7.78768471 151.9044117 8.13009414 148.67797852 8.12698364 C147.69725608 8.11996368 147.69725608 8.11996368 146.69672108 8.11280191 C144.50171043 8.10081753 142.30732018 8.11032203 140.11230469 8.11975098 C138.54039139 8.11568678 136.96848094 8.11034576 135.39657593 8.1038208 C131.12389013 8.09012319 126.85142121 8.09545587 122.57873154 8.10495806 C118.11180782 8.11254203 113.64490294 8.10551257 109.17797852 8.10079956 C101.67591002 8.09533832 94.17393006 8.10254327 86.671875 8.11682129 C77.99275905 8.13314853 69.31385451 8.12786028 60.63474369 8.11134207 C53.18924427 8.09773769 45.74380857 8.0958024 38.29830074 8.10365808 C33.84870373 8.10834038 29.39920615 8.10894422 24.94961548 8.09904861 C20.76679185 8.09039643 16.58424135 8.09636865 12.4014473 8.11373138 C10.86432982 8.11770561 9.32718945 8.11654622 7.79008102 8.10994339 C5.69559752 8.10177432 3.60199534 8.11199185 1.50756836 8.12698364 C0.33433517 8.12811472 -0.83889801 8.1292458 -2.04768372 8.13041115 C-5.2928846 8.55885003 -5.93688513 9.00296777 -7.90722656 11.50793457 Z " fill="#000000" transform="translate(52.9072265625,8.4920654296875)"/>
<path d="M0 0 C1.11045685 -0.00563965 2.2209137 -0.0112793 3.36502075 -0.01708984 C5.19321854 -0.01101715 5.19321854 -0.01101715 7.05834961 -0.00482178 C8.34144012 -0.00832642 9.62453064 -0.01183105 10.94650269 -0.01544189 C14.46711368 -0.02456778 17.9876076 -0.02102086 21.50822067 -0.01468372 C25.19037952 -0.00962475 28.87252826 -0.01431489 32.5546875 -0.01745605 C38.73854372 -0.021096 44.9223522 -0.01629586 51.10620117 -0.0067749 C58.25839979 0.00410972 65.41048439 0.00058416 72.56268024 -0.01042771 C78.70032637 -0.01949979 84.83793814 -0.02078626 90.9755888 -0.01555037 C94.6426906 -0.01243023 98.30973879 -0.01202254 101.97683716 -0.01862335 C106.06397266 -0.02546617 110.15091117 -0.01598537 114.23803711 -0.00482178 C115.45683563 -0.00887024 116.67563416 -0.0129187 117.93136597 -0.01708984 C119.04182281 -0.0114502 120.15227966 -0.00581055 121.29638672 0 C122.26313828 0.00075405 123.22988983 0.0015081 124.22593689 0.002285 C126.64819336 0.25396729 126.64819336 0.25396729 129.64819336 2.25396729 C130.02914429 5.17645264 130.02914429 5.17645264 130.03637695 8.96685791 C130.04426239 10.00123238 130.04426239 10.00123238 130.05230713 11.0565033 C130.06553653 13.34130345 130.05675925 15.62540976 130.04663086 17.91021729 C130.04865076 19.49440648 130.0515615 21.07859476 130.05532837 22.66278076 C130.05975569 25.98509563 130.05330777 29.30716876 130.03930664 32.62945557 C130.02221429 36.89369192 130.03205333 41.15736189 130.05002403 45.42157745 C130.06085102 48.69348438 130.05742058 51.96525643 130.04964066 55.23716736 C130.04763563 56.80968797 130.05010851 58.38222073 130.05707932 59.95472717 C130.06467628 62.15050818 130.05311572 64.34536473 130.03637695 66.54107666 C130.03399017 67.7919104 130.03160339 69.04274414 130.02914429 70.33148193 C129.90343048 71.2959021 129.77771667 72.26032227 129.64819336 73.25396729 C126.29405642 75.49005858 125.21384263 75.50487902 121.29638672 75.50793457 C120.18592987 75.51357422 119.07547302 75.51921387 117.93136597 75.52502441 C116.71256744 75.52097595 115.49376892 75.51692749 114.23803711 75.51275635 C112.95494659 75.51626099 111.67185608 75.51976563 110.34988403 75.52337646 C106.82927304 75.53250235 103.30877912 75.52895543 99.78816605 75.52261829 C96.1060072 75.51755932 92.42385846 75.52224946 88.74169922 75.52539062 C82.557843 75.52903057 76.37403452 75.52423043 70.19018555 75.51470947 C63.03798693 75.50382485 55.88590233 75.50735041 48.73370647 75.51836228 C42.59606035 75.52743436 36.45844858 75.52872083 30.32079792 75.52348495 C26.65369612 75.5203648 22.98664793 75.51995711 19.31954956 75.52655792 C15.23241406 75.53340074 11.14547555 75.52391994 7.05834961 75.51275635 C5.83955109 75.51680481 4.62075256 75.52085327 3.36502075 75.52502441 C2.2545639 75.51938477 1.14410706 75.51374512 0 75.50793457 C-0.96675156 75.50718052 -1.93350311 75.50642647 -2.92955017 75.50564957 C-5.35180664 75.25396729 -5.35180664 75.25396729 -8.35180664 73.25396729 C-8.73275757 70.33148193 -8.73275757 70.33148193 -8.73999023 66.54107666 C-8.74524719 65.85149368 -8.75050415 65.16191071 -8.75592041 64.45143127 C-8.76914981 62.16663112 -8.76037253 59.88252481 -8.75024414 57.59771729 C-8.75226405 56.01352809 -8.75517478 54.42933981 -8.75894165 52.84515381 C-8.76336897 49.52283894 -8.75692105 46.20076581 -8.74291992 42.878479 C-8.72582757 38.61424265 -8.73566661 34.35057268 -8.75363731 30.08635712 C-8.7644643 26.81445019 -8.76103386 23.54267814 -8.75325394 20.27076721 C-8.75124891 18.6982466 -8.75372179 17.12571384 -8.7606926 15.5532074 C-8.76828956 13.35742639 -8.756729 11.16256984 -8.73999023 8.96685791 C-8.73760345 7.71602417 -8.73521667 6.46519043 -8.73275757 5.17645264 C-8.60704376 4.21203247 -8.48132996 3.2476123 -8.35180664 2.25396729 C-4.9976697 0.01787599 -3.91745592 0.00305555 0 0 Z M-0.35180664 8.25396729 C-0.35180664 27.72396729 -0.35180664 47.19396729 -0.35180664 67.25396729 C39.90819336 67.25396729 80.16819336 67.25396729 121.64819336 67.25396729 C121.64819336 47.78396729 121.64819336 28.31396729 121.64819336 8.25396729 C81.38819336 8.25396729 41.12819336 8.25396729 -0.35180664 8.25396729 Z " fill="#000000" transform="translate(67.351806640625,29.74603271484375)"/>
<path d="M0 0 C0.79587021 0.00718552 1.59174042 0.01437103 2.41172791 0.02177429 C3.22778 0.02223251 4.04383209 0.02269073 4.88461304 0.02316284 C6.61038161 0.0261856 8.33614744 0.03407262 10.06187439 0.0464325 C12.71309498 0.06469327 15.36396661 0.06694218 18.01524353 0.06669617 C19.68907469 0.0716111 21.36290348 0.07743932 23.03672791 0.08427429 C24.23356956 0.08594353 24.23356956 0.08594353 25.45458984 0.08764648 C31.04177264 0.13619403 31.04177264 0.13619403 32.15782166 1.25224304 C32.26763359 3.23552731 32.30693855 5.22274448 32.31895447 7.20903015 C32.32856201 8.48382736 32.33816956 9.75862457 32.34806824 11.072052 C32.35291532 12.47456179 32.35719437 13.87707365 32.36094666 15.27958679 C32.3666953 16.70826216 32.37245307 18.1369375 32.3782196 19.56561279 C32.38873782 22.56426861 32.39457521 25.56289754 32.39805603 28.56156921 C32.40354508 32.40990113 32.42757796 36.25787998 32.45602798 40.10610104 C32.47462209 43.05800424 32.4798582 46.00982181 32.48139191 48.96177864 C32.48442589 50.38080846 32.49247945 51.79983651 32.50557709 53.21880913 C32.52256974 55.20115584 32.51892241 57.18364733 32.51426697 59.1660614 C32.51973541 60.86030495 32.51973541 60.86030495 32.52531433 62.58877563 C32.40404175 63.46771988 32.28276917 64.34666412 32.15782166 65.25224304 C28.54414763 67.66135906 25.92292836 67.52571889 21.75157166 67.48271179 C20.66990723 67.48202446 20.66990723 67.48202446 19.56639099 67.48132324 C18.04330294 67.47830517 16.52021786 67.47043211 14.99717712 67.45805359 C12.6664994 67.43981096 10.33621955 67.4375439 8.00547791 67.43778992 C6.52500572 67.43287383 5.04453623 67.42704512 3.56407166 67.42021179 C2.86713196 67.41909897 2.17019226 67.41798615 1.45213318 67.4168396 C-1.5861381 67.38705401 -3.93591407 67.2209978 -6.84217834 66.25224304 C-8.19851618 63.53956737 -7.97683094 61.40244974 -7.98744202 58.36552429 C-7.99382187 57.13084412 -8.00020172 55.89616394 -8.0067749 54.62406921 C-8.00830335 53.27096089 -8.00941743 51.91785204 -8.01014709 50.56474304 C-8.01335906 49.18233709 -8.01672308 47.79993148 -8.02023315 46.41752625 C-8.02622452 43.51899934 -8.028073 40.62050226 -8.02748108 37.7219696 C-8.02737934 34.00265788 -8.04104329 30.28353656 -8.05825329 26.56427002 C-8.06935455 23.70930599 -8.07140088 20.85438831 -8.07087135 17.99940491 C-8.07205385 16.62783653 -8.07649069 15.25626705 -8.08420372 13.88471985 C-8.09396729 11.96949203 -8.08987076 10.05420855 -8.08509827 8.13896179 C-8.08652328 7.04801208 -8.0879483 5.95706238 -8.0894165 4.83305359 C-7.5880103 -0.4009055 -4.53110538 0.01890526 0 0 Z M0.15782166 8.25224304 C0.15782166 25.08224304 0.15782166 41.91224304 0.15782166 59.25224304 C8.07782166 59.25224304 15.99782166 59.25224304 24.15782166 59.25224304 C24.15782166 42.42224304 24.15782166 25.59224304 24.15782166 8.25224304 C16.23782166 8.25224304 8.31782166 8.25224304 0.15782166 8.25224304 Z " fill="#000000" transform="translate(164.84217834472656,158.7477569580078)"/>
<path d="M0 0 C1.15628906 0.00607269 1.15628906 0.00607269 2.3359375 0.01226807 C3.12742187 0.01035461 3.91890625 0.00844116 4.734375 0.00646973 C6.4088574 0.00510789 8.08335035 0.00880425 9.7578125 0.01715088 C12.32576131 0.02785067 14.89301053 0.01725582 17.4609375 0.00445557 C19.08593905 0.00577716 20.71094016 0.00833956 22.3359375 0.01226807 C23.10679687 0.0082196 23.87765625 0.00417114 24.671875 0 C30.10601618 0.04797174 30.10601618 0.04797174 32.3359375 2.27789307 C32.79014587 6.09243592 32.65998526 9.9394182 32.6484375 13.77789307 C32.66455078 14.849104 32.68066406 15.92031494 32.69726562 17.02398682 C32.69791016 18.04621338 32.69855469 19.06843994 32.69921875 20.12164307 C32.70219971 21.06201416 32.70518066 22.00238525 32.70825195 22.97125244 C32.5239563 24.11303955 32.5239563 24.11303955 32.3359375 25.27789307 C28.67940006 27.71558469 25.93803898 27.56732572 21.7109375 27.54351807 C20.96763184 27.54543152 20.22432617 27.54734497 19.45849609 27.54931641 C17.88834291 27.55067624 16.3181784 27.54699386 14.74804688 27.53863525 C12.34479517 27.52793251 9.94229096 27.53853697 7.5390625 27.55133057 C6.01301918 27.55000894 4.48697633 27.54744647 2.9609375 27.54351807 C2.24212402 27.54756653 1.52331055 27.55161499 0.78271484 27.55578613 C-2.91756684 27.52100988 -4.50172651 27.38611706 -7.6640625 25.27789307 C-8.03637695 22.97125244 -8.03637695 22.97125244 -8.02734375 20.12164307 C-8.02669922 19.0994165 -8.02605469 18.07718994 -8.02539062 17.02398682 C-8.00927734 15.95277588 -7.99316406 14.88156494 -7.9765625 13.77789307 C-7.97978516 12.70668213 -7.98300781 11.63547119 -7.98632812 10.53179932 C-7.9137674 0.0698615 -7.9137674 0.0698615 0 0 Z M0.3359375 8.27789307 C0.3359375 11.90789307 0.3359375 15.53789307 0.3359375 19.27789307 C8.2559375 19.27789307 16.1759375 19.27789307 24.3359375 19.27789307 C24.3359375 15.64789307 24.3359375 12.01789307 24.3359375 8.27789307 C16.4159375 8.27789307 8.4959375 8.27789307 0.3359375 8.27789307 Z " fill="#000000" transform="translate(115.6640625,198.72210693359375)"/>
<path d="M0 0 C0.74330566 -0.00191345 1.48661133 -0.0038269 2.25244141 -0.00579834 C3.82259459 -0.00715817 5.3927591 -0.00347579 6.96289062 0.00488281 C9.36614233 0.01558555 11.76864654 0.0049811 14.171875 -0.0078125 C15.69791832 -0.00649087 17.22396117 -0.0039284 18.75 0 C19.46881348 -0.00404846 20.18762695 -0.00809692 20.92822266 -0.01226807 C24.62850434 0.02250818 26.21266401 0.15740101 29.375 2.265625 C29.74731445 4.57226563 29.74731445 4.57226563 29.73828125 7.421875 C29.73763672 8.44410156 29.73699219 9.46632813 29.73632812 10.51953125 C29.72021484 11.59074219 29.70410156 12.66195312 29.6875 13.765625 C29.69072266 14.83683594 29.69394531 15.90804687 29.69726562 17.01171875 C29.64187004 24.99875496 29.64187004 24.99875496 27.375 27.265625 C24.67364677 27.46536233 22.07702789 27.54544073 19.375 27.53125 C18.58351562 27.53316345 17.79203125 27.5350769 16.9765625 27.53704834 C15.3020801 27.53841018 13.62758715 27.53471382 11.953125 27.52636719 C9.38517619 27.5156674 6.81792697 27.52626225 4.25 27.5390625 C2.62499845 27.5377409 0.99999734 27.53517851 -0.625 27.53125 C-1.39585938 27.53529846 -2.16671875 27.53934692 -2.9609375 27.54351807 C-8.39507868 27.49554632 -8.39507868 27.49554632 -10.625 25.265625 C-11.07920837 21.45108214 -10.94904776 17.60409986 -10.9375 13.765625 C-10.95361328 12.69441406 -10.96972656 11.62320313 -10.98632812 10.51953125 C-10.98697266 9.49730469 -10.98761719 8.47507812 -10.98828125 7.421875 C-10.99126221 6.48150391 -10.99424316 5.54113281 -10.99731445 4.57226562 C-10.87445068 3.81107422 -10.75158691 3.04988281 -10.625 2.265625 C-6.96846256 -0.17206663 -4.22710148 -0.02380765 0 0 Z M-2.625 8.265625 C-2.625 11.895625 -2.625 15.525625 -2.625 19.265625 C5.295 19.265625 13.215 19.265625 21.375 19.265625 C21.375 15.635625 21.375 12.005625 21.375 8.265625 C13.455 8.265625 5.535 8.265625 -2.625 8.265625 Z " fill="#000000" transform="translate(118.625,117.734375)"/>
<path d="M0 0 C1.1149585 -0.00074776 1.1149585 -0.00074776 2.25244141 -0.00151062 C3.82261837 0.00082792 5.39279921 0.01054357 6.96289062 0.02709961 C9.36622642 0.05069511 11.76845279 0.04765899 14.171875 0.04101562 C15.69792328 0.04659253 17.22396689 0.05370248 18.75 0.0625 C19.46881348 0.06158859 20.18762695 0.06067719 20.92822266 0.05973816 C24.6211273 0.11221435 26.21997826 0.25993342 29.375 2.36328125 C29.74731445 4.66992188 29.74731445 4.66992188 29.73828125 7.51953125 C29.73763672 8.54175781 29.73699219 9.56398438 29.73632812 10.6171875 C29.72021484 11.68839844 29.70410156 12.75960937 29.6875 13.86328125 C29.69072266 14.93449219 29.69394531 16.00570312 29.69726562 17.109375 C29.64187004 25.09641121 29.64187004 25.09641121 27.375 27.36328125 C24.67384093 27.57525139 22.07775462 27.66725804 19.375 27.6640625 C18.58351562 27.66834763 17.79203125 27.67263275 16.9765625 27.67704773 C15.30209307 27.68279423 13.62759868 27.68328893 11.953125 27.67895508 C9.38498588 27.67579354 6.8179967 27.69925435 4.25 27.72460938 C2.62500146 27.72688211 0.99999981 27.72758598 -0.625 27.7265625 C-1.78128906 27.74037712 -1.78128906 27.74037712 -2.9609375 27.75447083 C-5.125 27.7355957 -5.125 27.7355957 -8.625 27.36328125 C-11.53993325 22.99088137 -10.95470877 19.00526064 -10.9375 13.86328125 C-10.95361328 12.90035156 -10.96972656 11.93742188 -10.98632812 10.9453125 C-10.98697266 10.02105469 -10.98761719 9.09679687 -10.98828125 8.14453125 C-10.99126221 7.29955078 -10.99424316 6.45457031 -10.99731445 5.58398438 C-10.625 3.36328125 -10.625 3.36328125 -9.57885742 1.5871582 C-6.55302377 -0.30819405 -3.45927062 -0.04432166 0 0 Z M-2.625 8.36328125 C-2.625 11.99328125 -2.625 15.62328125 -2.625 19.36328125 C5.295 19.36328125 13.215 19.36328125 21.375 19.36328125 C21.375 15.73328125 21.375 12.10328125 21.375 8.36328125 C13.455 8.36328125 5.535 8.36328125 -2.625 8.36328125 Z " fill="#000000" transform="translate(167.625,117.63671875)"/>
<path d="M0 0 C0.74330566 -0.00428513 1.48661133 -0.00857025 2.25244141 -0.01298523 C3.82258079 -0.01872326 5.39274675 -0.01923266 6.96289062 -0.01489258 C9.36634549 -0.01173014 11.7685721 -0.03520492 14.171875 -0.06054688 C15.69791511 -0.06281968 17.22395854 -0.06352345 18.75 -0.0625 C19.46881348 -0.07170975 20.18762695 -0.08091949 20.92822266 -0.09040833 C23.77960602 -0.06393132 25.87734191 -0.01094686 28.32885742 1.5246582 C29.69061631 3.83662924 29.74773141 5.40329492 29.73828125 8.08203125 C29.73763672 9.00628906 29.73699219 9.93054688 29.73632812 10.8828125 C29.72021484 11.84574219 29.70410156 12.80867187 29.6875 13.80078125 C29.69072266 14.76371094 29.69394531 15.72664062 29.69726562 16.71875 C29.64217923 23.9000124 29.64217923 23.9000124 27.375 27.30078125 C24.63214531 27.59255395 22.11842461 27.69683923 19.375 27.6640625 C18.18777344 27.66481026 18.18777344 27.66481026 16.9765625 27.66557312 C15.30205781 27.66323114 13.62754971 27.65349527 11.953125 27.63696289 C9.3850976 27.613374 6.81810814 27.61640012 4.25 27.62304688 C2.62499379 27.61747013 0.99999196 27.61036027 -0.625 27.6015625 C-1.39585938 27.60247391 -2.16671875 27.60338531 -2.9609375 27.60432434 C-8.39397453 27.53180672 -8.39397453 27.53180672 -10.625 25.30078125 C-11.07920837 21.48623839 -10.94904776 17.63925611 -10.9375 13.80078125 C-10.95361328 12.72957031 -10.96972656 11.65835938 -10.98632812 10.5546875 C-10.98697266 9.53246094 -10.98761719 8.51023437 -10.98828125 7.45703125 C-10.99126221 6.51666016 -10.99424316 5.57628906 -10.99731445 4.60742188 C-10.87445068 3.84623047 -10.75158691 3.08503906 -10.625 2.30078125 C-6.97442297 -0.13293677 -4.22260582 -0.00535398 0 0 Z M-2.625 8.30078125 C-2.625 11.93078125 -2.625 15.56078125 -2.625 19.30078125 C5.295 19.30078125 13.215 19.30078125 21.375 19.30078125 C21.375 15.67078125 21.375 12.04078125 21.375 8.30078125 C13.455 8.30078125 5.535 8.30078125 -2.625 8.30078125 Z " fill="#000000" transform="translate(69.625,117.69921875)"/>
<path d="M0 0 C0.77085938 0.00091141 1.54171875 0.00182281 2.3359375 0.00276184 C3.12742187 -0.00152328 3.91890625 -0.00580841 4.734375 -0.01022339 C6.40884443 -0.01596989 8.08333882 -0.01646459 9.7578125 -0.01213074 C12.32595162 -0.0089692 14.8929408 -0.03243001 17.4609375 -0.05778503 C19.08593604 -0.06005777 20.71093769 -0.06076164 22.3359375 -0.05973816 C23.49222656 -0.07355278 23.49222656 -0.07355278 24.671875 -0.08764648 C26.8359375 -0.06877136 26.8359375 -0.06877136 30.3359375 0.30354309 C32.48753258 3.53093572 32.58434687 4.40272289 32.56640625 8.11994934 C32.56447266 9.04871887 32.56253906 9.9774884 32.56054688 10.93440247 C32.54217773 12.38556458 32.54217773 12.38556458 32.5234375 13.86604309 C32.52279297 14.83735168 32.52214844 15.80866028 32.52148438 16.80940247 C32.47637007 24.02267794 32.47637007 24.02267794 31.3359375 26.30354309 C27.8068386 27.47990939 24.60244382 27.46564745 20.9296875 27.47151184 C20.20857788 27.47484024 19.48746826 27.47816864 18.74450684 27.4815979 C17.22144203 27.48665542 15.69836617 27.48900659 14.17529297 27.48884583 C11.84454158 27.49103501 9.51426159 27.50920995 7.18359375 27.52815247 C5.70312662 27.53108609 4.22265724 27.53307109 2.7421875 27.53401184 C2.0452478 27.54119736 1.34830811 27.54838287 0.63024902 27.55578613 C-3.03356289 27.53846495 -4.52702197 27.39490345 -7.6640625 25.30354309 C-8.03637695 22.99690247 -8.03637695 22.99690247 -8.02734375 20.14729309 C-8.02669922 19.12506653 -8.02605469 18.10283997 -8.02539062 17.04963684 C-8.00927734 15.9784259 -7.99316406 14.90721497 -7.9765625 13.80354309 C-7.97978516 12.73233215 -7.98300781 11.66112122 -7.98632812 10.55744934 C-7.91383758 0.10563018 -7.91383758 0.10563018 0 0 Z M0.3359375 8.30354309 C0.3359375 11.93354309 0.3359375 15.56354309 0.3359375 19.30354309 C8.2559375 19.30354309 16.1759375 19.30354309 24.3359375 19.30354309 C24.3359375 15.67354309 24.3359375 12.04354309 24.3359375 8.30354309 C16.4159375 8.30354309 8.4959375 8.30354309 0.3359375 8.30354309 Z " fill="#000000" transform="translate(66.6640625,198.6964569091797)"/>
<path d="M0 0 C1.22264305 -0.0049926 1.22264305 -0.0049926 2.46998596 -0.01008606 C4.19751418 -0.01515867 5.92505223 -0.01749428 7.65258789 -0.01733398 C10.3017587 -0.01951917 12.95051241 -0.03766746 15.59960938 -0.05664062 C17.27473815 -0.05957469 18.94986892 -0.0615594 20.625 -0.0625 C21.42087021 -0.06968552 22.21674042 -0.07687103 23.03672791 -0.08427429 C28.65008398 -0.06085352 28.65008398 -0.06085352 30.87890625 2.16796875 C31.13769531 4.3828125 31.13769531 4.3828125 31.14453125 7.10546875 C31.14839844 8.57113281 31.14839844 8.57113281 31.15234375 10.06640625 C31.14460938 11.08992187 31.136875 12.1134375 31.12890625 13.16796875 C31.14050781 14.70324219 31.14050781 14.70324219 31.15234375 16.26953125 C31.14976563 17.24664062 31.1471875 18.22375 31.14453125 19.23046875 C31.14227539 20.12894531 31.14001953 21.02742188 31.13769531 21.953125 C30.87890625 24.16796875 30.87890625 24.16796875 28.87890625 26.16796875 C26.09380401 26.35550186 23.40990979 26.42358107 20.625 26.3984375 C19.80894791 26.39797928 18.99289581 26.39752106 18.15211487 26.39704895 C16.4263463 26.39402619 14.70058047 26.38613917 12.97485352 26.3737793 C10.32363292 26.35551853 7.67276129 26.35326961 5.02148438 26.35351562 C3.34765321 26.34860069 1.67382443 26.34277248 0 26.3359375 C-0.79789444 26.33482468 -1.59578888 26.33371185 -2.41786194 26.33256531 C-8.00504474 26.28401776 -8.00504474 26.28401776 -9.12109375 25.16796875 C-9.22055828 23.39937682 -9.25189592 21.62685424 -9.25390625 19.85546875 C-9.25519531 18.78039062 -9.25648437 17.7053125 -9.2578125 16.59765625 C-9.25201172 14.89996094 -9.25201172 14.89996094 -9.24609375 13.16796875 C-9.24996094 12.03617188 -9.25382812 10.904375 -9.2578125 9.73828125 C-9.25652344 8.66320312 -9.25523438 7.588125 -9.25390625 6.48046875 C-9.25277832 5.48660156 -9.25165039 4.49273437 -9.25048828 3.46875 C-8.96273877 -1.64776205 -4.01755107 0.00560328 0 0 Z M-1.12109375 8.16796875 C-1.12109375 11.46796875 -1.12109375 14.76796875 -1.12109375 18.16796875 C6.79890625 18.16796875 14.71890625 18.16796875 22.87890625 18.16796875 C22.87890625 14.86796875 22.87890625 11.56796875 22.87890625 8.16796875 C14.95890625 8.16796875 7.03890625 8.16796875 -1.12109375 8.16796875 Z " fill="#000000" transform="translate(68.12109375,158.83203125)"/>
<path d="M0 0 C12.54 0 25.08 0 38 0 C39.94345974 3.88691948 39.18480803 8.72514581 39.1875 13 C39.19974609 14.02351562 39.21199219 15.04703125 39.22460938 16.1015625 C39.22654297 17.07867187 39.22847656 18.05578125 39.23046875 19.0625 C39.23457764 19.96097656 39.23868652 20.85945313 39.24291992 21.78515625 C39 24 39 24 37 26 C34.29864677 26.19973733 31.70202789 26.27981573 29 26.265625 C28.20851562 26.26753845 27.41703125 26.2694519 26.6015625 26.27142334 C24.9270801 26.27278518 23.25258715 26.26908882 21.578125 26.26074219 C19.01017619 26.2500424 16.44292697 26.26063725 13.875 26.2734375 C12.24999845 26.2721159 10.62499734 26.26955351 9 26.265625 C8.22914062 26.26967346 7.45828125 26.27372192 6.6640625 26.27789307 C1.22992132 26.22992132 1.22992132 26.22992132 -1 24 C-1.24291992 21.78515625 -1.24291992 21.78515625 -1.23046875 19.0625 C-1.22853516 18.08539063 -1.22660156 17.10828125 -1.22460938 16.1015625 C-1.21236328 15.07804688 -1.20011719 14.05453125 -1.1875 13 C-1.18685547 11.97648438 -1.18621094 10.95296875 -1.18554688 9.8984375 C-1.14032251 2.28064503 -1.14032251 2.28064503 0 0 Z M7 8 C7 11.3 7 14.6 7 18 C14.92 18 22.84 18 31 18 C31 14.7 31 11.4 31 8 C23.08 8 15.16 8 7 8 Z " fill="#000000" transform="translate(109,159)"/>
</svg>
