<?xml version="1.0" encoding="UTF-8"?>
<svg version="1.1" xmlns="http://www.w3.org/2000/svg" width="256" height="256">
<path d="M0 0 C1.71606445 -0.01268921 1.71606445 -0.01268921 3.46679688 -0.02563477 C5.34334961 -0.01652573 5.34334961 -0.01652573 7.2578125 -0.00723267 C8.59180125 -0.01129883 9.92578662 -0.01664096 11.25976562 -0.02316284 C14.87960063 -0.03683718 18.49917907 -0.03153745 22.11901855 -0.02202559 C25.90747773 -0.01442955 29.69591496 -0.02147444 33.484375 -0.02618408 C39.84639428 -0.03164181 46.20830908 -0.02444962 52.5703125 -0.01016235 C59.92534763 0.00616426 67.28013327 0.00087576 74.63516235 -0.01564157 C80.95034928 -0.029256 87.2654611 -0.03117633 93.58065796 -0.02332556 C97.35231618 -0.01864879 101.12385713 -0.01802425 104.89550781 -0.02793503 C108.44144365 -0.03660186 111.98705788 -0.03058833 115.53295898 -0.01325226 C117.45491087 -0.00739392 119.37688996 -0.01630542 121.29882812 -0.02563477 C122.44287109 -0.01717529 123.58691406 -0.00871582 124.765625 0 C125.75965332 0.00113108 126.75368164 0.00226215 127.77783203 0.00342751 C130.81032025 0.44290694 132.19203364 1.26768708 134.3828125 3.38095093 C134.83691406 5.64926147 134.83691406 5.64926147 134.7734375 8.26766968 C134.76054687 9.20546265 134.74765625 10.14325562 134.734375 11.10946655 C134.68410156 12.57416382 134.68410156 12.57416382 134.6328125 14.06845093 C134.61476562 15.05651733 134.59671875 16.04458374 134.578125 17.06259155 C134.53096697 19.50301935 134.46517292 21.94149862 134.3828125 24.38095093 C135.68839111 24.3390564 136.99396973 24.29716187 138.33911133 24.2539978 C143.22716634 24.10815448 148.11503317 24.0169838 153.00463867 23.9414978 C155.11239053 23.90150068 157.21992376 23.84708212 159.3269043 23.7774353 C180.47918249 23.09623477 180.47918249 23.09623477 188.2800293 30.21542358 C188.97394775 30.93004761 189.66786621 31.64467163 190.3828125 32.38095093 C191.69743073 33.49369425 193.01978206 34.59740016 194.3515625 35.68954468 C195.53234937 36.72831865 196.70946015 37.77128654 197.8828125 38.81845093 C199.15904159 39.94211404 200.43639456 41.0645019 201.71484375 42.18563843 C202.33182129 42.72672241 202.94879883 43.2678064 203.58447266 43.82528687 C207.02178728 46.79875534 210.56500034 49.63889235 214.11328125 52.47860718 C214.86222656 53.10638062 215.61117187 53.73415405 216.3828125 54.38095093 C217.07861923 54.91087143 217.77442596 55.44079193 218.49131775 55.98677063 C221.15448905 59.35770902 220.95091136 62.47121139 220.91625977 66.59017944 C220.92487534 67.41499817 220.93349091 68.23981689 220.94236755 69.08963013 C220.96505304 71.81335917 220.95828531 74.53606172 220.94921875 77.25985718 C220.95445246 79.15267748 220.960728 81.04549516 220.96800232 82.93830872 C220.97841071 86.90360801 220.97383766 90.86854852 220.95922852 94.83383179 C220.94202235 99.92095031 220.96555605 105.00694133 221.00071812 110.09393406 C221.02265114 114.00156673 221.02126092 117.90892776 221.0129528 121.81660271 C221.01213137 123.69253719 221.0190313 125.56849124 221.03372383 127.44436836 C221.05109876 130.06399579 221.03668895 132.68157299 221.01391602 135.30111694 C221.03145432 136.46773109 221.03145432 136.46773109 221.04934692 137.65791321 C221.01100159 139.82017517 221.01100159 139.82017517 220.3828125 143.38095093 C216.7944912 146.40309311 213.93957218 146.76936796 209.3203125 146.69345093 C208.29808594 146.68958374 207.27585938 146.68571655 206.22265625 146.68173218 C203.39723254 146.38247822 201.7156726 145.98108822 199.3828125 144.38095093 C198.3828125 141.50595093 198.3828125 141.50595093 198.3828125 138.38095093 C199.8828125 136.00595093 199.8828125 136.00595093 202.3828125 134.38095093 C204.71524615 134.3161611 207.05055475 134.31011132 209.3828125 134.38095093 C209.50737044 125.27873289 209.57197472 116.17857984 209.56159496 107.07550907 C209.55862499 102.84760762 209.57573148 98.62183656 209.63989258 94.39437866 C209.70114543 90.30858999 209.70812815 86.22587423 209.67864418 82.1397686 C209.67675128 80.58689266 209.69389789 79.03386483 209.73103905 77.48143196 C210.03402073 68.35377097 210.03402073 68.35377097 205.95732117 60.45429993 C203.19741393 58.18037973 200.42403004 56.25432228 197.3828125 54.38095093 C196.32217997 53.54748273 195.27429777 52.69682113 194.25390625 51.81454468 C193.45082031 51.15583374 192.64773437 50.4971228 191.8203125 49.81845093 C191.01464844 49.15716187 190.20898438 48.4958728 189.37890625 47.81454468 C172.14766519 33.79175119 172.14766519 33.79175119 134.3828125 36.38095093 C134.3828125 68.72095093 134.3828125 101.06095093 134.3828125 134.38095093 C138.3428125 134.38095093 142.3028125 134.38095093 146.3828125 134.38095093 C150.3828125 138.38095093 150.3828125 138.38095093 150.3828125 141.50595093 C149.3828125 144.38095093 149.3828125 144.38095093 147.72338867 145.54347229 C144.69926347 146.62553075 142.14708464 146.64275168 138.93359375 146.65560913 C137.62543701 146.66514114 136.31728027 146.67467316 134.96948242 146.68449402 C133.54475884 146.68423261 132.12003525 146.68329565 130.6953125 146.68173218 C129.23087442 146.68562039 127.76643746 146.68995532 126.30200195 146.69471741 C123.23547709 146.70217235 120.16906739 146.70189329 117.10253906 146.69662476 C113.17487099 146.69082573 109.24767382 146.70777461 105.32008362 146.73096943 C102.29688771 146.74570649 99.2738053 146.74657863 96.25057983 146.7434597 C94.80251125 146.74397276 93.35443629 146.74920761 91.90640259 146.75927162 C89.8816488 146.77161907 87.85679973 146.76290632 85.83203125 146.75326538 C84.68049561 146.75389481 83.52895996 146.75452423 82.3425293 146.75517273 C79.07023083 146.34142861 77.67546085 145.72437083 75.3828125 143.38095093 C74.8828125 140.38095093 74.8828125 140.38095093 75.3828125 137.38095093 C88.20778813 127.7622192 107.35159296 134.38095093 123.3828125 134.38095093 C123.3828125 94.12095093 123.3828125 53.86095093 123.3828125 12.38095093 C83.1228125 12.38095093 42.8628125 12.38095093 1.3828125 12.38095093 C1.3828125 23.93095093 1.3828125 35.48095093 1.3828125 47.38095093 C-2.6171875 50.38095093 -2.6171875 50.38095093 -5.2421875 50.19345093 C-7.6171875 49.38095093 -7.6171875 49.38095093 -9.6171875 47.38095093 C-9.88461304 45.49021912 -9.88461304 45.49021912 -9.90771484 43.16244507 C-9.92047455 42.29136612 -9.93323425 41.42028717 -9.94638062 40.52281189 C-9.94860626 39.58009933 -9.95083191 38.63738678 -9.953125 37.66610718 C-9.9631102 36.21608559 -9.9631102 36.21608559 -9.97329712 34.73677063 C-9.98343377 32.68987942 -9.98811383 30.6429551 -9.98779297 28.59603882 C-9.99216536 25.45933749 -10.02847225 22.32404364 -10.06640625 19.18759155 C-10.07227427 17.20126825 -10.07624376 15.21493825 -10.078125 13.22860718 C-10.09249603 12.28791885 -10.10686707 11.34723053 -10.12167358 10.3780365 C-10.11552032 9.50380539 -10.10936707 8.62957428 -10.10302734 7.72885132 C-10.10587738 6.95989029 -10.10872742 6.19092926 -10.11166382 5.39866638 C-9.6171875 3.38095093 -9.6171875 3.38095093 -7.93735695 1.77865314 C-5.07685237 0.05544556 -3.32738823 0.00378614 0 0 Z " fill="#000000" transform="translate(35.6171875,39.619049072265625)"/>
<path d="M0 0 C1.26521484 -0.00193359 2.53042969 -0.00386719 3.83398438 -0.00585938 C5.14818359 0.01798828 6.46238281 0.04183594 7.81640625 0.06640625 C9.12673828 0.05544922 10.43707031 0.04449219 11.78710938 0.03320312 C18.80888289 0.08680445 22.6279106 0.34555789 28.37890625 4.62890625 C29.59190337 5.30257599 30.80753084 5.97156414 32.02734375 6.6328125 C37.06759372 9.86772815 41.44246864 13.39294106 42.79595947 19.51544189 C43.56825425 24.91302717 43.62125414 30.31062893 43.56640625 35.75390625 C43.56348572 36.55555206 43.56056519 37.35719788 43.55755615 38.18313599 C43.53156846 40.50435797 43.45822587 42.81754223 43.359375 45.13671875 C43.34066849 45.84566788 43.32196198 46.554617 43.3026886 47.28504944 C43.08553002 50.52115993 42.75409746 52.25573094 40.42504883 54.57226562 C36.12840711 56.06267721 32.17892953 56.05786506 27.66015625 56.02734375 C26.25691101 56.03164902 26.25691101 56.03164902 24.82531738 56.03604126 C22.85180047 56.0380784 20.8782632 56.03257305 18.90478516 56.02001953 C15.88918785 56.003961 12.87493077 56.0198802 9.859375 56.0390625 C7.93879913 56.03708001 6.0182241 56.0332362 4.09765625 56.02734375 C3.19857544 56.03341644 2.29949463 56.03948914 1.37316895 56.04574585 C-3.42413993 55.99201901 -6.75040258 55.7968021 -10.62109375 52.62890625 C-11.77740227 50.31628922 -11.77149613 48.92578523 -11.81396484 46.3503418 C-11.83002777 45.46569748 -11.8460907 44.58105316 -11.86264038 43.66960144 C-11.9070909 39.62194573 -11.94815516 35.57445403 -11.97119141 31.52661133 C-11.98775216 29.39173482 -12.01504363 27.25691379 -12.05322266 25.12231445 C-12.10798708 22.04479195 -12.12986488 18.96856914 -12.14453125 15.890625 C-12.16720062 14.93838547 -12.18987 13.98614594 -12.21322632 13.00505066 C-12.19900962 8.54505122 -12.07005756 6.28618636 -9.50219727 2.52685547 C-6.04765549 0.25114936 -4.11499132 -0.0025933 0 0 Z M0.37890625 12.62890625 C0.37890625 22.85890625 0.37890625 33.08890625 0.37890625 43.62890625 C10.60890625 43.62890625 20.83890625 43.62890625 31.37890625 43.62890625 C32.61097146 31.82532849 32.61097146 31.82532849 29.73828125 20.625 C27.71280803 18.64828818 25.77359849 17.12777384 23.37890625 15.62890625 C22.83234375 15.0771875 22.28578125 14.52546875 21.72265625 13.95703125 C17.89909242 11.79034508 13.9322373 12.3184021 9.62890625 12.44140625 C6.57640625 12.50328125 3.52390625 12.56515625 0.37890625 12.62890625 Z " fill="#000000" transform="translate(190.62109375,87.37109375)"/>
<path d="M0 0 C5.26712147 3.82811806 8.94958293 9.21666463 10.23046875 15.62109375 C11.00933707 22.71609733 10.20131771 28.59211462 6.23046875 34.62109375 C1.60673068 39.99631972 -3.71304509 43.50937537 -10.76953125 44.62109375 C-18.2390762 44.88827809 -24.86431021 43.11011209 -30.4921875 38.08203125 C-35.15597784 33.06301363 -37.82118755 27.50561995 -38.14453125 20.62109375 C-37.85534583 13.91724994 -34.99179314 7.75627713 -30.76953125 2.62109375 C-21.36361489 -4.55455378 -10.54582359 -5.91840338 0 0 Z M-22.76953125 11.62109375 C-25.78821852 15.12666606 -26.24896796 18.20996791 -26.0546875 22.6953125 C-25.4590384 26.71798382 -23.63940304 28.90034284 -20.58203125 31.43359375 C-16.90373675 32.98665143 -13.66472595 33.29320578 -9.76953125 32.62109375 C-5.74570515 30.72306257 -4.1021182 29.16154754 -1.76953125 25.37109375 C-0.54942246 20.79568578 -0.66981957 17.86500253 -2.76953125 13.62109375 C-5.78585376 10.3241831 -7.94460303 8.87607156 -12.20703125 7.55859375 C-16.7168173 7.6377128 -19.30022345 8.80620318 -22.76953125 11.62109375 Z " fill="#000000" transform="translate(222.76953125,171.37890625)"/>
<path d="M0 0 C5.70130803 3.37592981 10.16188615 8.07561109 12.5625 14.3125 C14.49075688 22.24801872 13.58927491 29.18820593 9.5625 36.3125 C5.12153158 41.79369526 -0.44956398 45.230497 -7.4375 46.3125 C-14.93908193 46.65542946 -20.69041534 45.20443858 -26.4375 40.3125 C-32.12731135 34.87613236 -34.44185374 29.97019577 -34.875 22.0625 C-34.71403601 15.10317441 -32.53563195 9.32943091 -27.5 4.42578125 C-19.53738098 -1.80255522 -9.59196306 -4.50421079 0 0 Z M-21.3125 15.125 C-22.95434868 18.31748355 -23.37649364 20.71312487 -23.4375 24.3125 C-22.12943326 28.08189942 -20.19670271 30.65874211 -17.1875 33.25 C-12.44374988 35.08281255 -8.31726109 35.1061769 -3.625 33.125 C0.30242281 29.87084967 1.43384089 27.47043195 2 22.375 C1.81376393 18.08347319 0.43235359 15.5599659 -2.4375 12.3125 C-9.72692275 7.75661078 -15.37762023 9.38794956 -21.3125 15.125 Z " fill="#000000" transform="translate(92.4375,169.6875)"/>
<path d="M0 0 C0.66846954 -0.0065712 1.33693909 -0.0131424 2.02566528 -0.01991272 C4.24049995 -0.03964427 6.45526692 -0.0513062 8.67016602 -0.0612793 C9.42583422 -0.06535482 10.18150242 -0.06943035 10.96006966 -0.07362938 C14.95758924 -0.09448677 18.95507449 -0.10879144 22.95263672 -0.11816406 C27.08678435 -0.12924457 31.22039609 -0.16366356 35.3543539 -0.20333576 C38.5293327 -0.22944123 41.70418242 -0.2378503 44.87925911 -0.24144554 C46.40354099 -0.24632514 47.92781659 -0.25797812 49.45199394 -0.27648354 C51.58301599 -0.30075413 53.71263295 -0.2999336 55.84375 -0.29296875 C57.05683334 -0.29883499 58.26991669 -0.30470123 59.51976013 -0.31074524 C62.48657227 0.17700195 62.48657227 0.17700195 64.41346741 2.04231262 C65.48657227 4.17700195 65.48657227 4.17700195 65.29907227 6.80200195 C64.48657227 9.17700195 64.48657227 9.17700195 62.48657227 11.17700195 C59.64674377 11.43769836 59.64674377 11.43769836 55.97314453 11.45166016 C55.30467499 11.45677109 54.63620544 11.46188202 53.94747925 11.46714783 C51.73255519 11.48107468 49.51794122 11.48008475 47.30297852 11.4777832 C45.76602563 11.48166857 44.22907382 11.48600291 42.69212341 11.49076843 C39.46821617 11.49823737 36.24441841 11.49793463 33.02050781 11.49267578 C28.88642803 11.48688148 24.75279631 11.50380754 20.61879063 11.52702045 C17.44379551 11.54174373 14.26890863 11.54263142 11.09388542 11.53951073 C9.56963145 11.54002469 8.04537154 11.54527656 6.52115059 11.55532265 C4.39026815 11.56764248 2.26026265 11.56092314 0.12939453 11.54931641 C-1.08368881 11.54994583 -2.29677216 11.55057526 -3.5466156 11.55122375 C-6.51342773 11.17700195 -6.51342773 11.17700195 -8.44032288 9.8802948 C-9.51342773 8.17700195 -9.51342773 8.17700195 -9.32592773 4.55200195 C-9.05780273 3.43825195 -8.78967773 2.32450195 -8.51342773 1.17700195 C-5.65432681 -0.25254851 -3.19599783 0.02595264 0 0 Z " fill="#000000" transform="translate(19.513427734375,116.822998046875)"/>
<path d="M0 0 C0.67982941 -0.00511093 1.35965881 -0.01022186 2.06008911 -0.01548767 C4.31228381 -0.02941341 6.56417357 -0.0284249 8.81640625 -0.02612305 C10.37817499 -0.03000801 11.93994268 -0.03434226 13.50170898 -0.03910828 C16.7768903 -0.04657664 20.05196382 -0.04627454 23.32714844 -0.04101562 C27.53082582 -0.03521647 31.73406325 -0.05215942 35.93766785 -0.0753603 C39.16323439 -0.09006817 42.3886942 -0.09097346 45.61428833 -0.08785057 C47.16448845 -0.08836515 48.71469433 -0.09362845 50.26486206 -0.10366249 C52.42947271 -0.11595479 54.59321646 -0.10928007 56.7578125 -0.09765625 C57.99088135 -0.09828568 59.2239502 -0.0989151 60.49438477 -0.0995636 C61.44627686 0.0239296 62.39816895 0.14742279 63.37890625 0.2746582 C65.37890625 3.2746582 65.37890625 3.2746582 65.12890625 6.8996582 C64.75765625 8.5702832 64.75765625 8.5702832 64.37890625 10.2746582 C61.53814323 11.69503971 59.13351228 11.4097863 55.95727539 11.41992188 C54.96920143 11.42495979 54.96920143 11.42495979 53.96116638 11.43009949 C51.77877936 11.43961585 49.59646899 11.44155291 47.4140625 11.44262695 C45.89953072 11.44583898 44.38499926 11.44920301 42.87046814 11.45271301 C39.6936674 11.45870594 36.51689388 11.46055274 33.34008789 11.45996094 C29.26664449 11.45985929 25.19337528 11.47351366 21.11997318 11.49073315 C17.99131975 11.50184397 14.86270855 11.50388043 11.7340374 11.50335121 C10.23211504 11.50453263 8.73019163 11.50896346 7.22828865 11.51668358 C5.12871168 11.52646544 3.02951454 11.52361284 0.92993164 11.51757812 C-0.26538681 11.51900314 -1.46070526 11.52042816 -2.69224548 11.52189636 C-5.62109375 11.2746582 -5.62109375 11.2746582 -8.62109375 9.2746582 C-8.93359375 5.7746582 -8.93359375 5.7746582 -8.62109375 2.2746582 C-5.7960027 -0.55043284 -3.95780772 0.01478844 0 0 Z " fill="#000000" transform="translate(8.62109375,140.725341796875)"/>
<path d="M0 0 C0.658862 -0.00525696 1.317724 -0.01051392 1.99655151 -0.01593018 C4.17372365 -0.02913053 6.35016422 -0.02039267 8.52734375 -0.01025391 C10.04044739 -0.01227465 11.55355008 -0.01518609 13.06665039 -0.01895142 C16.23756179 -0.02337479 19.40821964 -0.01694352 22.57910156 -0.00292969 C26.64480267 0.01416249 30.70990968 0.00432134 34.77558899 -0.01364708 C37.89998862 -0.02448472 41.02424726 -0.02103873 44.14865112 -0.0132637 C45.647777 -0.01126163 47.14691565 -0.01372125 48.64602661 -0.02070236 C50.74092541 -0.02831687 52.83486053 -0.0167143 54.9296875 0 C56.12198975 0.00238678 57.31429199 0.00477356 58.54272461 0.00723267 C61.46484375 0.38818359 61.46484375 0.38818359 63.35375977 1.72103882 C65.06688614 4.29152829 64.78402601 6.38787034 64.46484375 9.38818359 C61.63818784 12.2148395 59.80322451 11.64186324 55.84375 11.64697266 C55.16392059 11.65047729 54.48409119 11.65398193 53.78366089 11.65759277 C51.53145199 11.66641141 49.27955597 11.66056065 47.02734375 11.65380859 C45.46557556 11.65515521 43.90380777 11.65709571 42.34204102 11.65960693 C39.06685398 11.66255837 35.79177594 11.65825999 32.51660156 11.64892578 C28.31300684 11.63753117 24.1096675 11.64409055 19.90608215 11.65607071 C16.68052233 11.66328882 13.4550233 11.66100162 10.22946167 11.65581512 C8.67927012 11.65447849 7.1290731 11.65612683 5.57888794 11.66077423 C3.41442182 11.66583875 1.25037248 11.65813069 -0.9140625 11.64697266 C-2.76366577 11.64458588 -2.76366577 11.64458588 -4.65063477 11.64215088 C-7.53515625 11.38818359 -7.53515625 11.38818359 -9.53515625 9.38818359 C-10.08559139 4.21409331 -10.08559139 4.21409331 -8.42407227 1.72103882 C-5.62984249 -0.25062309 -3.39585692 0.00679791 0 0 Z " fill="#000000" transform="translate(30.53515625,92.61181640625)"/>
<path d="M0 0 C2.375 0.8125 2.375 0.8125 4.375 2.8125 C4.52007695 5.55735593 4.56152423 8.19730543 4.5 10.9375 C4.49097656 11.69160156 4.48195313 12.44570312 4.47265625 13.22265625 C4.4490687 15.08607254 4.41319719 16.94932593 4.375 18.8125 C5.19484375 18.76609375 6.0146875 18.7196875 6.859375 18.671875 C8.47585937 18.61773437 8.47585937 18.61773437 10.125 18.5625 C11.72601563 18.49289063 11.72601563 18.49289063 13.359375 18.421875 C16.375 18.8125 16.375 18.8125 18.765625 20.6328125 C20.375 22.8125 20.375 22.8125 20.375 25.9375 C19.375 28.8125 19.375 28.8125 17.57421875 29.97338867 C13.89180982 31.37841082 10.27411758 31.14057156 6.375 31.125 C5.16457031 31.14916992 5.16457031 31.14916992 3.9296875 31.17382812 C2.75792969 31.17479492 2.75792969 31.17479492 1.5625 31.17578125 C0.85480469 31.17876221 0.14710937 31.18174316 -0.58203125 31.18481445 C-3.35911721 30.6787131 -4.66159278 29.8416608 -6.625 27.8125 C-7.14257812 25.22460938 -7.14257812 25.22460938 -7.15625 22.15625 C-7.16140625 21.05152344 -7.1665625 19.94679687 -7.171875 18.80859375 C-7.15640625 17.65488281 -7.1409375 16.50117188 -7.125 15.3125 C-7.14046875 14.15878906 -7.1559375 13.00507813 -7.171875 11.81640625 C-7.16671875 10.71167969 -7.1615625 9.60695312 -7.15625 8.46875 C-7.14948242 6.94991211 -7.14948242 6.94991211 -7.14257812 5.40039062 C-6.625 2.8125 -6.625 2.8125 -4.75585938 0.94726562 C-2.625 -0.1875 -2.625 -0.1875 0 0 Z " fill="#000000" transform="translate(32.625,155.1875)"/>
</svg>
