<?xml version="1.0" encoding="UTF-8"?>
<svg version="1.1" xmlns="http://www.w3.org/2000/svg" width="512" height="512">
<path d="M0 0 C2.99316429 0.86976883 5.76242412 2.10675979 8.58984375 3.41015625 C9.4001001 3.7693515 10.21035645 4.12854675 11.04516602 4.49862671 C13.68264184 5.67222189 16.31001666 6.86672143 18.9375 8.0625 C20.76129813 8.88075849 22.58560395 9.69788627 24.41040039 10.51391602 C28.12776817 12.17946717 31.84082772 13.85413404 35.55078125 15.53613281 C39.88312225 17.49893677 44.22494201 19.43915531 48.57298279 21.36689758 C51.64376807 22.72913329 54.71094851 24.09933124 57.77713013 25.47189331 C59.21219119 26.11331337 60.64828368 26.752431 62.0854187 27.38919067 C64.0700328 28.27045034 66.04924405 29.1628268 68.02734375 30.05859375 C69.13843506 30.55673584 70.24952637 31.05487793 71.39428711 31.56811523 C74 33 74 33 76 36 C76.23046875 37.9375 76.23046875 37.9375 76.1875 40 C76.17783203 41.0209375 76.17783203 41.0209375 76.16796875 42.0625 C76 44 76 44 75 47 C75.81717499 46.81207886 76.63434998 46.62415771 77.47628784 46.43054199 C85.21142302 44.65377017 92.94886736 42.887502 100.68902397 41.13272858 C104.66738463 40.23041165 108.64476651 39.3241863 112.62011719 38.40869141 C116.46297152 37.52386639 120.30812399 36.64974973 124.15503311 35.7827301 C125.61574556 35.45159669 127.07561903 35.11673771 128.5345726 34.77793884 C148.61299699 30.12212475 148.61299699 30.12212475 158.70703125 34.22265625 C159.87041016 34.67833984 161.03378906 35.13402344 162.23242188 35.60351562 C163.41384766 36.08498047 164.59527344 36.56644531 165.8125 37.0625 C168.18939778 38.0232107 170.57077371 38.97293532 172.95703125 39.91015625 C173.99835205 40.33433838 175.03967285 40.75852051 176.11254883 41.19555664 C181.07779467 42.57887321 184.75544181 40.81422226 189.38671875 38.93359375 C190.40830078 38.53076172 191.42988281 38.12792969 192.48242188 37.71289062 C194.60364519 36.86879628 196.72094087 36.01475789 198.83398438 35.15039062 C200.37602539 34.54807617 200.37602539 34.54807617 201.94921875 33.93359375 C202.87049561 33.56290771 203.79177246 33.19222168 204.7409668 32.81030273 C214.55197526 30.37096368 224.02048913 33.04907188 233.6328125 35.28125 C235.12046463 35.61849045 236.60833303 35.95477821 238.09640503 36.29016113 C241.98157308 37.16845645 245.86369848 38.05952497 249.74530029 38.95343018 C253.71904393 39.86612028 257.69557362 40.76650017 261.671875 41.66796875 C269.45067059 43.43338354 277.22629037 45.21232365 285 47 C284.67 46.01 284.34 45.02 284 44 C283.42250022 36.72350275 283.42250022 36.72350275 285.49389648 34.12841797 C288.87094932 31.26030822 292.48931556 29.68752583 296.5234375 27.91015625 C297.36952576 27.52877502 298.21561401 27.1473938 299.08734131 26.75445557 C301.8457292 25.51425259 304.60993211 24.2877295 307.375 23.0625 C309.27737151 22.21356156 311.17955141 21.36419363 313.08154297 20.5144043 C316.90396692 18.80900296 320.72923976 17.11021574 324.55664062 15.41601562 C328.71979999 13.57185556 332.87345125 11.7078864 337.021698 9.83045959 C339.75489424 8.59606598 342.49357914 7.37428981 345.23419189 6.15646362 C347.07986483 5.33264612 348.91966166 4.4957035 350.75927734 3.65844727 C356.77701672 1.0136556 361.40262921 -0.83812752 368 0 C370.5 1.5 370.5 1.5 372 4 C372.54686219 6.77988279 372.72991469 9.25208587 372 12 C368.56175929 16.32033512 364.08388543 18.06067918 359.16015625 20.23046875 C358.2833873 20.62518875 357.40661835 21.01990875 356.50328064 21.42658997 C353.69343555 22.68879271 350.87805773 23.93810079 348.0625 25.1875 C346.23466815 26.00766641 344.40719072 26.82862316 342.58007812 27.65039062 C333.16581092 31.87380438 323.71744566 36.01955923 314.24609375 40.11328125 C313.34665543 40.50460739 312.4472171 40.89593353 311.52052307 41.29911804 C310.69318161 41.65456192 309.86584015 42.0100058 309.01342773 42.3762207 C308.28453842 42.69081741 307.55564911 43.00541412 306.80467224 43.32954407 C305 44 305 44 303 44 C303.24765106 44.58850739 303.49530212 45.17701477 303.75045776 45.78335571 C314.20918447 70.70799415 324.17184212 95.83268564 334.16699219 120.94580078 C336.40444567 126.56709798 338.64556211 132.18692071 340.88864052 137.80597532 C343.07331969 143.27926334 345.25422502 148.75404974 347.43368149 154.22941971 C348.35199204 156.53509043 349.2713832 158.84033108 350.19189835 161.14512253 C351.46987568 164.34595828 352.74353239 167.54848047 354.01611328 170.75146484 C354.58017128 172.16019363 354.58017128 172.16019363 355.15562439 173.59738159 C357.03973402 178.35324534 358.70025799 183.05122 360 188 C363.6278063 186.43488356 367.25467848 184.86761906 370.88104248 183.29916382 C372.88576204 182.43284932 374.89136004 181.56859032 376.89697266 180.7043457 C384.38999181 177.46913693 391.85161553 174.17523645 399.28125 170.796875 C401.56799139 169.76379574 403.85523744 168.73184209 406.14263916 167.70022583 C407.62242754 167.02890967 409.0998112 166.35226552 410.574646 165.6701355 C412.65588904 164.70798349 414.74477506 163.76457466 416.8359375 162.82421875 C418.02751465 162.27854248 419.2190918 161.73286621 420.44677734 161.1706543 C424.68182834 159.775363 427.5675035 159.67697343 432 160 C434.5 161.5 434.5 161.5 436 164 C436.54686219 166.77988279 436.72991469 169.25208587 436 172 C432.60414903 176.2307242 428.31694271 177.95724968 423.4765625 180.08984375 C422.63047424 180.47122498 421.78438599 180.8526062 420.91265869 181.24554443 C418.1542708 182.48574741 415.39006789 183.7122705 412.625 184.9375 C410.72262849 185.78643844 408.82044859 186.63580637 406.91845703 187.4855957 C403.09603308 189.19099704 399.27076024 190.88978426 395.44335938 192.58398438 C391.28020001 194.42814444 387.12654875 196.2921136 382.978302 198.16954041 C380.24510576 199.40393402 377.50642086 200.62571019 374.76580811 201.84353638 C372.92013517 202.66735388 371.08033834 203.5042965 369.24072266 204.34155273 C358.44086326 209.08808234 358.44086326 209.08808234 352 208 C348.27600652 205.40695085 346.91281189 202.07913332 345.25 197.9375 C344.60804688 196.37322266 344.60804688 196.37322266 343.953125 194.77734375 C343 192 343 192 343 189 C339.24652117 190.76352647 335.49786488 192.53707775 331.75 194.3125 C330.68652344 194.81201172 329.62304688 195.31152344 328.52734375 195.82617188 C327.50253906 196.31279297 326.47773438 196.79941406 325.421875 197.30078125 C324.47924805 197.74591064 323.53662109 198.19104004 322.56542969 198.6496582 C320.1619914 199.91473406 318.11535412 201.3046699 316 203 C316.639375 204.0725 317.27875 205.145 317.9375 206.25 C321.82829191 212.77648966 321.81005454 220.01816455 320.609375 227.40234375 C318.65330304 234.53699082 314.00717814 240.28111091 307.91015625 244.41796875 C304.0419942 246.47455395 300.39021485 247.56097851 296 248 C296.04640625 248.68964844 296.0928125 249.37929688 296.140625 250.08984375 C296.47064294 258.68209661 294.71547972 266.07070286 288.71484375 272.58203125 C281.06985357 278.90351516 273.59549031 280.66407415 263.8359375 280.30859375 C261 280 261 280 259 279 C258.88914062 279.7321875 258.77828125 280.464375 258.6640625 281.21875 C257.07058828 287.89259495 252.48007415 293.21583165 246.90625 297.02734375 C241.67064024 299.69879217 236.93014383 300.27125362 231.125 300.125 C230.43664062 300.11597656 229.74828125 300.10695313 229.0390625 300.09765625 C227.35922162 300.07432513 225.67956254 300.03846326 224 300 C223.67128906 300.71285156 223.34257812 301.42570312 223.00390625 302.16015625 C218.69781476 310.83068734 213.63474502 316.49646178 204.4375 319.9375 C196.5265586 322.14106672 189.48970668 321.18431797 182 318 C177.79874088 315.4747751 174.49512851 312.61796954 171.4375 308.8125 C167.94992369 305.10455486 163.51348643 304.9653797 158.68164062 304.16967773 C151.59081868 302.91758417 146.71217188 300.3814091 142.1953125 294.75 C139.82460331 291.30169573 137.8293842 287.76087357 136 284 C135.02160156 284.04640625 134.04320312 284.0928125 133.03515625 284.140625 C123.24587343 284.41014311 116.92797065 283.31690332 108.75 277.8125 C104.77831278 273.75054717 101 268.85355283 101 263 C100.34 263.33 99.68 263.66 99 264 C89.04091453 265.08370214 81.22402827 263.8934802 73 258 C66.71727984 252.33213679 63.93254091 245.34624117 63 237 C63.4375 234.140625 63.4375 234.140625 64 232 C63.12988281 231.85304688 63.12988281 231.85304688 62.2421875 231.703125 C53.06340608 229.94613054 47.45513648 225.49392487 42 218 C38.33578588 211.80696205 38.43826711 205.02166114 39 198 C39.33 197.34 39.66 196.68 40 196 C39.39414063 195.82984375 38.78828125 195.6596875 38.1640625 195.484375 C32.63324952 193.88469371 27.33528204 192.01031694 22.03125 189.76953125 C20.05030811 188.88190843 20.05030811 188.88190843 18 189 C17.29423828 190.80597656 17.29423828 190.80597656 16.57421875 192.6484375 C15.9458073 194.22415576 15.31687383 195.79966589 14.6875 197.375 C14.2244043 198.56609375 14.2244043 198.56609375 13.75195312 199.78125 C13.44580078 200.54179687 13.13964844 201.30234375 12.82421875 202.0859375 C12.54666748 202.7876709 12.26911621 203.4894043 11.9831543 204.21240234 C11 206 11 206 8 208 C1.55998437 208.59649713 -2.78766975 207.26455569 -8.58984375 204.58984375 C-9.4001001 204.2306485 -10.21035645 203.87145325 -11.04516602 203.50137329 C-13.68264184 202.32777811 -16.31001666 201.13327857 -18.9375 199.9375 C-20.76129813 199.11924151 -22.58560395 198.30211373 -24.41040039 197.48608398 C-28.12776817 195.82053283 -31.84082772 194.14586596 -35.55078125 192.46386719 C-39.88312225 190.50106323 -44.22494201 188.56084469 -48.57298279 186.63310242 C-51.64376807 185.27086671 -54.71094851 183.90066876 -57.77713013 182.52810669 C-59.21219119 181.88668663 -60.64828368 181.247569 -62.0854187 180.61080933 C-64.0700328 179.72954966 -66.04924405 178.8371732 -68.02734375 177.94140625 C-69.69398071 177.19419312 -69.69398071 177.19419312 -71.39428711 176.43188477 C-74 175 -74 175 -76 172 C-76.65753425 165.09589041 -76.65753425 165.09589041 -74.5 161.5 C-71.02990959 159.41794575 -67.91022056 159.52610794 -64 160 C-60.88858944 160.92504634 -58.00142815 162.22463614 -55.05859375 163.5859375 C-53.80205994 164.14544098 -53.80205994 164.14544098 -52.5201416 164.71624756 C-49.81960393 165.92226624 -47.12874381 167.14840208 -44.4375 168.375 C-42.58929785 169.20446747 -40.74041796 170.03242642 -38.89086914 170.85888672 C-35.2524918 172.4862002 -31.61721221 174.1201236 -27.984375 175.75976562 C-21.66145479 178.60874536 -15.30452257 181.37602009 -8.9375 184.125 C-7.15486504 184.89824646 -5.37230195 185.67165865 -3.58984375 186.4453125 C-2.40519531 186.95835937 -1.22054687 187.47140625 0 188 C0.16884201 187.40027846 0.33768402 186.80055693 0.51164246 186.18266201 C2.36506592 179.7840704 4.61072189 173.64117773 7.11328125 167.47094727 C7.51545364 166.46922485 7.91762604 165.46750244 8.33198547 164.4354248 C9.65463541 161.14404925 10.98350302 157.85522353 12.3125 154.56640625 C13.24629832 152.24656201 14.17972255 149.92656716 15.11279297 147.60643005 C17.07046104 142.74103744 19.03077553 137.87672091 20.99365234 133.01342773 C23.47674342 126.86122783 25.95544804 120.70727105 28.43247986 114.55262852 C37.9057049 91.01484609 47.4128159 67.49158481 57 44 C56.11126961 43.71109957 56.11126961 43.71109957 55.20458508 43.41636276 C51.08764033 42.06386929 47.03355169 40.6956616 43.06958008 38.93457031 C41.78698051 38.36817841 41.78698051 38.36817841 40.47846985 37.79034424 C39.58452011 37.39031189 38.69057037 36.99027954 37.76953125 36.578125 C36.34020515 35.94351349 36.34020515 35.94351349 34.88200378 35.29608154 C32.87510733 34.40383581 30.86912336 33.50953509 28.86401367 32.61328125 C25.84082552 31.26265459 22.81423411 29.91990155 19.78710938 28.578125 C-10.42697258 15.14605485 -10.42697258 15.14605485 -12 12 C-12.56872038 4.9478673 -12.56872038 4.9478673 -10.5 1.5 C-7.03493399 -0.5790396 -3.90566275 -0.45851532 0 0 Z M206.44458008 50.58544922 C205.54375702 50.933909 204.64293396 51.28236877 203.71481323 51.64138794 C202.74287018 52.02527679 201.77092712 52.40916565 200.76953125 52.8046875 C199.75408234 53.19961395 198.73863342 53.59454041 197.69241333 54.00143433 C194.3962862 55.28552834 191.10418878 56.57957485 187.8125 57.875 C185.56529398 58.75581054 183.31797952 59.63634449 181.07055664 60.51660156 C177.74538262 61.81976125 174.42067809 63.12406023 171.09733582 64.43188477 C165.85883051 66.49292622 160.61684642 68.54111946 155.35157776 70.53286743 C153.56986034 71.20689284 151.79106823 71.88863614 150.01245117 72.57080078 C148.04862644 73.32389911 146.08038454 74.06564321 144.10668945 74.79248047 C137.24619341 77.46395048 130.88317514 81.23364971 127.5 88 C126.30836689 95.14979866 126.95794017 100.00616673 131 106 C134.60789322 109.8596067 138.10147323 112.07770546 143.29048157 112.92727661 C152.82377399 113.18314988 163.41926115 107.43250326 172.17578125 104.0078125 C174.02399599 103.291629 175.87221097 102.57544611 177.72043896 101.8592968 C180.27572153 100.86785901 182.82937122 99.87225183 185.38305664 98.87670898 C188.57657453 97.63251797 191.77169425 96.39245821 194.96679688 95.15234375 C195.58972059 94.91045696 196.21264431 94.66857018 196.8544445 94.41935349 C201.0937338 92.773531 205.33504126 91.13297108 209.57666016 89.49316406 C213.419051 88.00702316 217.25292124 86.50364485 221.07568359 84.96777344 C222.48142285 84.41335449 223.88718227 83.85898668 225.29296875 83.3046875 C226.42629639 82.84819824 227.55962402 82.39170898 228.72729492 81.92138672 C232.73856933 80.7920656 235.8425951 80.75488228 240 81 C242.49518108 82.52930453 242.87047343 83.62138387 243.8125 86.375 C244.04289673 89.60055426 243.53591401 91.15642355 242 94 C239.56982422 95.4855957 239.56982422 95.4855957 236.5546875 96.67578125 C235.47832031 97.11083984 234.40195312 97.54589844 233.29296875 97.99414062 C232.16503906 98.42919922 231.03710938 98.86425781 229.875 99.3125 C228.73933594 99.76689453 227.60367188 100.22128906 226.43359375 100.68945312 C223.62836419 101.80918762 220.81758176 102.91180646 218 104 C222.38381114 109.24471606 226.99708809 114.13522023 231.84130859 118.95483398 C232.98379059 120.09753502 232.98379059 120.09753502 234.14935303 121.26332092 C236.64668272 123.75995857 239.14752687 126.25304362 241.6484375 128.74609375 C243.38885998 130.48464954 245.12906061 132.22342744 246.86904907 133.9624176 C251.43376321 138.52332637 256.00147327 143.08122314 260.56982422 147.63848877 C265.23717278 152.29558054 269.90166724 156.95552903 274.56640625 161.61523438 C283.70815409 170.74627983 292.85297437 179.87424173 302 189 C304.99670809 187.58593359 307.99256231 186.17006682 310.98828125 184.75390625 C311.82588989 184.35868774 312.66349854 183.96346924 313.52648926 183.55627441 C320.73965395 180.14466609 327.88424488 176.61011394 335 173 C334.36988302 167.21301338 332.28125199 162.21494824 330.12280273 156.86376953 C329.52273911 155.35552864 329.52273911 155.35552864 328.91055298 153.81681824 C327.59057044 150.50318892 326.26213706 147.19301774 324.93359375 143.8828125 C324.01527006 141.58231108 323.09747631 139.28159805 322.18019104 136.98068237 C319.76718333 130.93203839 317.34699056 124.88629458 314.92529297 118.84112549 C312.45366631 112.66951617 309.990139 106.49467117 307.52539062 100.3203125 C302.69024956 88.21087519 297.84774443 76.10439695 293 64 C291.63865181 63.94671288 291.63865181 63.94671288 290.24980164 63.89234924 C280.87318319 63.41229808 272.05101397 61.9809085 262.89453125 59.83984375 C261.51332955 59.52627404 260.13186881 59.21384349 258.75016785 58.90248108 C255.16410716 58.09182738 251.58108935 57.26851802 247.9987793 56.44146729 C242.22983081 55.11164574 236.45662289 53.80050698 230.68289757 52.49160957 C228.678807 52.03515052 226.67623223 51.57246797 224.67378235 51.10887146 C223.46119247 50.83180862 222.2486026 50.55474579 220.99926758 50.26928711 C219.93420486 50.02359482 218.86914215 49.77790253 217.77180481 49.52476501 C213.47346585 48.71099274 210.44441323 49.02166824 206.44458008 50.58544922 Z M139.00073242 50.26928711 C137.78814255 50.54634995 136.57555267 50.82341278 135.32621765 51.10887146 C134.68007696 51.25846251 134.03393627 51.40805355 133.36821556 51.56217766 C131.32759757 52.03378506 129.28557205 52.49875748 127.24299622 52.96180725 C121.43583159 54.27897831 115.63042087 55.60359099 109.82836914 56.94311523 C106.272742 57.76350698 102.7146475 58.57238908 99.15487099 59.37457466 C97.81261812 59.67930194 96.47128906 59.98813429 95.13103294 60.30152702 C85.69600667 62.50593196 76.65586786 63.62204127 67 64 C61.49298668 77.61574225 55.99878642 91.23659431 50.51982784 104.86365128 C47.97559533 111.19070575 45.42718474 117.51601662 42.86889648 123.83740234 C40.40133097 129.9346511 37.94546317 136.03652336 35.49676704 142.14138031 C34.55929811 144.47301643 33.61787666 146.8030673 32.6724987 149.13150787 C31.35190308 152.38600808 30.04530764 155.64579485 28.74194336 158.90722656 C28.34561707 159.874673 27.94929077 160.84211945 27.54095459 161.83888245 C27.01292488 163.1723597 27.01292488 163.1723597 26.47422791 164.53277588 C26.16358367 165.30339481 25.85293943 166.07401375 25.53288174 166.86798477 C24.91689854 169.33248198 25.06435689 170.65214252 26 173 C28.0082284 174.30642942 28.0082284 174.30642942 30.55078125 175.17578125 C31.47697266 175.52833984 32.40316406 175.88089844 33.35742188 176.24414062 C34.33259766 176.59669922 35.30777344 176.94925781 36.3125 177.3125 C37.75786133 177.8703418 37.75786133 177.8703418 39.23242188 178.43945312 C43.9604574 180.34733207 43.9604574 180.34733207 48.95141602 180.94506836 C52.16858332 179.46090025 54.33190176 176.92973923 56.7265625 174.390625 C57.85258391 173.23149811 58.97889561 172.07265317 60.10546875 170.9140625 C61.86083221 169.09082824 63.61188617 167.26377562 65.35693359 165.43066406 C74.35996014 156.00526067 82.12118928 148.65858738 95.75 147.75 C104.39193993 147.88044438 111.71128578 151.63480405 117.6875 157.75 C121.49725406 163.10424894 123.18556775 168.48454196 124 175 C124.71285156 175.17015625 125.42570312 175.3403125 126.16015625 175.515625 C135.58401232 177.90012694 142.31480992 180.80917903 148 189 C150.65975033 194.04435408 151.50929113 198.40591889 152 204 C152.94359375 204.14695312 152.94359375 204.14695312 153.90625 204.296875 C163.03813317 205.89220399 169.52996036 208.41571488 175.52734375 215.7109375 C177.9902305 219.53919117 179.02579907 223.59361427 180 228 C180.33119787 229.33386538 180.66379079 230.66738893 181 232 C181.79664063 232.17015625 182.59328125 232.3403125 183.4140625 232.515625 C192.95549041 234.69784939 199.34720559 237.85529327 205 246 C206.94870487 249.49709441 208.06760285 252.61106874 207.87109375 256.6484375 C207.63390234 262.3563341 208.47629329 265.73635282 212.25390625 270.03515625 C220.65226276 279.23116374 220.65226276 279.23116374 231.875 283.4375 C236.66712268 283.33897037 238.72173592 281.35822174 242 278 C243.65377661 274.69244678 243.74863527 271.54918837 243 268 C237.78413767 260.18823426 229.71666128 253.76018469 222.94335938 247.33398438 C214.76317984 239.34900674 214.76317984 239.34900674 214 233 C214.4375 230.1875 214.4375 230.1875 216 228 C219.73454118 226.27636561 221.84246611 225.58095455 225.76635742 227.00146484 C230.00339626 229.62014358 233.087503 232.86751743 236.48828125 236.4765625 C237.93090561 237.96685769 239.37428854 239.45641888 240.81835938 240.9453125 C243.07169539 243.28538143 245.31820957 245.63103144 247.55151367 247.99023438 C249.72073709 250.27468214 251.91463573 252.53296713 254.11328125 254.7890625 C254.76984207 255.49632477 255.42640289 256.20358704 256.1028595 256.93228149 C260.20780041 261.10313919 263.13504441 262.8159164 269.02775574 263.15072632 C272.94093098 262.85166676 275.0110061 260.88668418 277.8125 258.375 C279.78684507 254.42630986 280.03654061 251.29336829 279 247 C277.43738874 244.71542265 277.43738874 244.71542265 275.296875 242.5390625 C274.4812207 241.66910645 273.66556641 240.79915039 272.82519531 239.90283203 C267.46063179 234.35823836 261.98681657 228.92315737 256.5 223.5 C254.15337808 221.17995794 251.81010217 218.85660863 249.46875 216.53125 C248.93342651 216.00422485 248.39810303 215.47719971 247.84655762 214.9342041 C243.06460328 210.1843934 243.06460328 210.1843934 242.8125 205.5625 C243 202 243 202 245 199 C248.18461122 198.01167238 249.8013364 197.5540497 253 198 C254.74658203 199.1105957 254.74658203 199.1105957 256.5078125 200.73828125 C257.19987793 201.37701172 257.89194336 202.01574219 258.60498047 202.67382812 C264.11532689 208.02577315 269.50764722 213.49353301 274.88378906 218.97973633 C276.46501098 220.59114694 278.05239031 222.19628644 279.640625 223.80078125 C280.11985413 224.29347 280.59908325 224.78615875 281.09283447 225.29377747 C284.97691958 229.20674485 287.39271429 230.81853226 292.875 231.4375 C296.12458092 231.3646122 297.89939678 230.71798257 300.4375 228.6875 C303.3660953 225.61604639 303.85170541 223.94537802 304.5 219.8125 C303.97487841 215.80844784 303.64476863 215.19128976 301.07493591 212.375 C300.43555525 211.67415283 299.79617458 210.97330566 299.13741875 210.2512207 C295.25675454 206.16393944 291.29434462 202.16453868 287.30102539 198.1875 C286.3441249 197.23088224 285.38744585 196.27404292 284.43096924 195.31700134 C281.85725275 192.74300024 279.28048482 190.1720743 276.70312047 187.60172653 C274.00139966 184.90629561 271.30254753 182.20799536 268.6033783 179.51000977 C263.50217778 174.41190605 258.39843561 169.31635483 253.29375499 164.22173595 C247.47792883 158.41712244 241.66497278 152.60963826 235.85224545 146.80192184 C223.90466763 134.86477099 211.95352495 122.93119551 200 111 C197.32481285 111.93686317 194.65027802 112.87552285 191.97607422 113.81518555 C190.8555793 114.20727833 190.8555793 114.20727833 189.71244812 114.60729218 C184.89747947 116.30107892 180.13196241 118.08648193 175.3828125 119.95703125 C173.57683594 120.66569336 173.57683594 120.66569336 171.734375 121.38867188 C169.30116013 122.34852774 166.87151855 123.31748536 164.4453125 124.29492188 C152.95290604 128.77175909 142.63189226 130.64685776 130.84375 126.18359375 C120.78177481 121.55895515 116.33187161 115.07378196 112 105 C109.31135091 96.93405274 110.11717643 86.83155092 113.74609375 79.20703125 C120.73848858 66.89954503 130.55728054 62.38950209 143.5625 57.625 C144.76197266 57.17511719 145.96144531 56.72523438 147.19726562 56.26171875 C150.12786101 55.16420494 153.06192167 54.07728473 156 53 C153.73030256 50.73030256 152.02604513 50.00868171 149 49 C145.32722471 49 142.55320297 49.44979111 139.00073242 50.26928711 Z M80.765625 173.7578125 C80.08699402 174.42029999 79.40836304 175.08278748 78.70916748 175.76535034 C77.2808574 177.1660798 75.85556046 178.56988752 74.43310547 179.9765625 C72.97940609 181.40717696 71.51680473 182.8288025 70.04541016 184.24121094 C67.91131338 186.28982924 65.80510764 188.36381451 63.703125 190.4453125 C63.0458844 191.06753693 62.3886438 191.68976135 61.71148682 192.33084106 C57.74063983 196.34012756 56.22190343 199.3060596 55.81829834 204.96115112 C56.13011295 208.45997915 57.70131721 210.45281097 60 213 C63.43483562 215.60573737 66.81201721 215.5583977 71 215 C78.33514404 210.95024365 84.27055176 204.03448411 90.11987305 198.14086914 C91.81924086 196.43071636 93.52912345 194.73159749 95.24023438 193.03320312 C96.33397568 191.9381412 97.42709696 190.84245956 98.51953125 189.74609375 C99.02579544 189.24387802 99.53205963 188.74166229 100.05366516 188.22422791 C103.91795786 184.30859011 106.73259414 181.10104605 107.4375 175.5625 C106.91284546 171.29031307 105.79623825 169.24968229 103 166 C93.48251003 160.6311595 87.37528216 167.29858457 80.765625 173.7578125 Z M110.16203308 200.47242737 C109.45242935 201.1943779 108.74282562 201.91632843 108.01171875 202.66015625 C106.8960125 203.77867226 106.8960125 203.77867226 105.75776672 204.91978455 C104.19362632 206.49062596 102.63307713 208.06505051 101.07592773 209.64282227 C98.68535885 212.06466916 96.28416883 214.47556751 93.88085938 216.88476562 C92.36135159 218.41343894 90.84244988 219.94271499 89.32421875 221.47265625 C88.60449387 222.19663101 87.88476898 222.92060577 87.14323425 223.66651917 C86.15133842 224.67282631 86.15133842 224.67282631 85.1394043 225.69946289 C84.55571579 226.2899794 83.97202728 226.88049591 83.37065125 227.48890686 C80.52770218 230.62315479 80.59570846 233.59902227 80.66796875 237.671875 C81.26899453 241.88612634 82.68247248 243.29181427 86 246 C89.94329721 247.26214034 93.34418361 247.80044918 97.14941406 245.9609375 C101.18080571 243.1877157 104.4552681 239.80973622 107.890625 236.33984375 C108.63584412 235.59416641 109.38106323 234.84848907 110.14886475 234.08021545 C111.71782968 232.508237 113.28437107 230.93383637 114.84863281 229.35717773 C117.2501077 226.93739148 119.65954357 224.52575781 122.0703125 222.11523438 C123.59422379 220.58640963 125.11767738 219.05712847 126.640625 217.52734375 C127.36348694 216.80336899 128.08634888 216.07939423 128.83111572 215.33348083 C129.82785309 214.32717369 129.82785309 214.32717369 130.84472656 213.30053711 C131.43143127 212.7100206 132.01813599 212.11950409 132.62261963 211.51109314 C135.50412699 208.34985599 135.33403446 205.36180413 135.28125 201.2578125 C134.85665394 197.8492497 133.52704082 196.25384722 131 194 C122.22936442 189.39541632 116.33707286 194.32476015 110.16203308 200.47242737 Z M144.44140625 223.82421875 C143.74982422 224.45956543 143.05824219 225.09491211 142.34570312 225.74951172 C138.20066381 229.72629903 134.10488432 233.74728395 130.05200195 237.81762695 C128.54427904 239.33078666 127.03118241 240.83842885 125.51757812 242.34570312 C124.55436608 243.30957474 123.5914636 244.27375584 122.62890625 245.23828125 C121.3306189 246.5382605 121.3306189 246.5382605 120.00610352 247.86450195 C116.96532618 251.10141073 116.60814887 253.4371825 116.640625 257.89453125 C117.27581814 261.61593453 119.33979016 263.40312849 122 266 C125.16649513 267.58324757 128.57458194 267.64374236 132 267 C136.42910882 264.31656346 140.12318548 261.18440231 143.765625 257.53515625 C144.28509705 257.01996933 144.80456909 256.50478241 145.33978271 255.97398376 C146.42794587 254.89152546 147.51354983 253.80648885 148.59667969 252.71899414 C150.2507341 251.06176449 151.91772317 249.41835127 153.5859375 247.77539062 C154.64664322 246.71695684 155.70656669 245.65773842 156.765625 244.59765625 C157.26145081 244.11104019 157.75727661 243.62442413 158.26812744 243.12306213 C161.07184796 240.28145764 162.91001461 237.85990081 164 234 C163.91982499 229.51019962 163.49221191 227.58055763 160.5625 224.125 C157.09321226 221.24802968 154.76645259 220.45391319 150.18334961 220.54223633 C147.52422889 221.09975074 146.43336368 221.9904181 144.44140625 223.82421875 Z M162.1875 261.5 C161.62401855 262.04551514 161.06053711 262.59103027 160.47998047 263.15307617 C157.15205419 266.48850454 154.75543423 269.54342225 153 274 C153.09296244 279.29885917 154.25507094 282.25507094 158 286 C160.57747823 287.95532832 161.97225174 287.99946638 165.25 288.0625 C170.52443496 286.56807676 173.14103971 283.79158162 177 280 C178.19379663 278.9110962 179.38924798 277.82400501 180.5859375 276.73828125 C181.87138504 275.53555487 183.15522745 274.33111078 184.4375 273.125 C185.065354 272.56079346 185.69320801 271.99658691 186.34008789 271.4152832 C190.35934388 267.53376731 191.77039921 264.64138585 192.17675781 259.05395508 C191.87482133 255.54540312 190.30454161 253.55368124 188 251 C177.97326669 243.39351267 168.84751335 254.99407674 162.1875 261.5 Z M198.50952148 282.37695312 C197.88634033 283.00537109 197.26315918 283.63378906 196.62109375 284.28125 C195.94755859 284.95800781 195.27402344 285.63476562 194.58007812 286.33203125 C193.87302734 287.04746094 193.16597656 287.76289063 192.4375 288.5 C191.72658203 289.21542969 191.01566406 289.93085938 190.28320312 290.66796875 C188.51989403 292.44311213 186.7589516 294.22054045 185 296 C186.87427235 300.00335777 186.87427235 300.00335777 190 303 C194.82727608 304.1870351 196.81925433 304.57923373 201.3125 302.375 C204.07893408 299.9302443 205.67063697 298.44070431 207 295 C207 288.49701103 205.56436508 285.56436508 201 281 C199.7842263 280.88690335 199.7842263 280.88690335 198.50952148 282.37695312 Z " fill="#000000" transform="translate(76,168)"/>
<path d="M0 0 C1.55460937 0.5259375 1.55460937 0.5259375 3.140625 1.0625 C26.48819588 9.86367855 43.01426408 27.60933692 53.15869141 50.01318359 C61.32496798 69.29848794 62.50328162 94.27482723 55 114 C44.89607398 138.57000026 27.51358449 156.71245151 3 167 C-19.93682599 175.38029757 -45.02852596 174.24083864 -67.26953125 164.3359375 C-88.96170982 153.72259691 -105.09242937 135.87848726 -113 113 C-113.39316406 111.87980469 -113.78632813 110.75960937 -114.19140625 109.60546875 C-120.72528823 87.86380573 -118.59068293 63.60721022 -108.13256836 43.53808594 C-96.08022397 21.4333495 -77.84103006 6.15948558 -53.875 -1.4375 C-36.77163771 -6.39081142 -16.78648316 -5.87913696 0 0 Z M-78.88964844 32.35498047 C-91.83898454 45.07147362 -100.09321135 61.80002822 -100.38037109 80.11987305 C-100.34360246 100.26406797 -95.66433814 116.6730808 -82 132 C-81.07574219 133.04800781 -81.07574219 133.04800781 -80.1328125 134.1171875 C-68.33910397 146.69388083 -51.90255062 154.52608496 -34.65234375 155.37109375 C-22.49794122 155.62983288 -12.240871 154.70427203 -1 150 C-0.06027344 149.61585938 0.87945312 149.23171875 1.84765625 148.8359375 C8.33817124 145.88661539 13.67503359 141.69449039 19 137 C19.77472656 136.32066406 20.54945313 135.64132813 21.34765625 134.94140625 C32.86631301 124.17353672 40.97847893 108.55734581 42.17700195 92.65087891 C42.73156137 70.71153609 39.01218033 52.87437827 24 36 C23.40703125 35.31292969 22.8140625 34.62585938 22.203125 33.91796875 C9.45662691 20.10926248 -8.42390805 13.08430777 -26.97949219 12.04296875 C-46.47429157 11.62838626 -64.75869048 19.12074486 -78.88964844 32.35498047 Z " fill="#000000" transform="translate(285,28)"/>
<path d="M0 0 C2.5 1.5 2.5 1.5 4 4 C4.73181032 7.99169267 5.09384283 10.41285839 2.75386047 13.80812073 C2.20255966 14.40970505 1.65125885 15.01128937 1.08325195 15.63110352 C0.44650543 16.3270462 -0.19024109 17.02298889 -0.84628296 17.74002075 C-4.8457359 21.93680263 -8.91568249 26.05774396 -13.01953125 30.15234375 C-13.96895157 31.10243935 -14.91822354 32.0526832 -15.86735535 33.00306702 C-17.83988497 34.97705877 -19.81418139 36.94926086 -21.78979492 38.92016602 C-24.32297661 41.447604 -26.85157828 43.9795695 -29.37891102 46.51285458 C-31.33044808 48.46799755 -33.28435093 50.42076218 -35.23898888 52.37280464 C-36.62631865 53.75914415 -38.01163665 55.14749591 -39.39692688 56.53587341 C-40.65414803 57.78836632 -40.65414803 57.78836632 -41.93676758 59.06616211 C-42.6751033 59.80370224 -43.41343903 60.54124237 -44.17414856 61.3011322 C-47.15378296 64.07354009 -49.71985016 64.53762414 -53.80078125 64.45703125 C-58.24131236 63.53422105 -60.93109543 60.14428118 -64 57 C-64.96941206 56.05009728 -65.94089127 55.1023011 -66.9140625 54.15625 C-75.8898867 45.36540495 -75.8898867 45.36540495 -76.3125 40.125 C-76.25340627 37.17031347 -76.06564964 36.10941607 -74.5 33.5 C-71.69540435 31.81724261 -69.44228228 31.25901444 -66.16015625 31.40625 C-61.87025931 32.58538985 -59.01619273 35.87680265 -56 39 C-55.42894531 39.57105469 -54.85789063 40.14210937 -54.26953125 40.73046875 C-53.85058594 41.14941406 -53.43164062 41.56835938 -53 42 C-49.69192748 40.55746715 -47.52804619 38.76706451 -44.99755859 36.20874023 C-43.83648087 35.04259438 -43.83648087 35.04259438 -42.65194702 33.85289001 C-41.41270981 32.59346336 -41.41270981 32.59346336 -40.1484375 31.30859375 C-39.29319489 30.44814957 -38.43795227 29.58770538 -37.55679321 28.70118713 C-34.82474662 25.95132102 -32.09947494 23.19486646 -29.375 20.4375 C-26.64252453 17.67744073 -23.9086214 14.91883491 -21.17178345 12.1631012 C-19.46849067 10.44751612 -17.76787759 8.72926575 -16.07015991 7.00816345 C-14.91853867 5.84674583 -14.91853867 5.84674583 -13.74365234 4.66186523 C-13.06732758 3.97728745 -12.39100281 3.29270966 -11.69418335 2.58738708 C-8.26321049 -0.62730748 -4.49581318 -0.61306543 0 0 Z " fill="#000000" transform="translate(292,80)"/>
</svg>
