<?xml version="1.0" standalone="no"?>
<!DOCTYPE svg PUBLIC "-//W3C//DTD SVG 20010904//EN"
 "http://www.w3.org/TR/2001/REC-SVG-20010904/DTD/svg10.dtd">
<svg version="1.0" xmlns="http://www.w3.org/2000/svg"
 width="512.000000pt" height="512.000000pt" viewBox="0 0 512.000000 512.000000"
 preserveAspectRatio="xMidYMid meet">

<g transform="translate(0.000000,512.000000) scale(0.100000,-0.100000)"
fill="#000000" stroke="none">
<path d="M2405 4866 c-314 -60 -577 -286 -675 -579 -187 -555 195 -1126 779
-1164 415 -27 792 249 904 662 29 107 30 316 3 419 -87 328 -316 559 -641 648
-92 25 -276 32 -370 14z m370 -180 c113 -36 198 -89 290 -181 131 -131 199
-277 212 -454 30 -434 -330 -796 -765 -767 -107 6 -228 43 -320 97 -77 46
-208 179 -255 259 -21 36 -49 101 -64 145 -22 68 -26 98 -27 205 -1 148 14
215 76 340 73 147 234 290 388 346 143 51 324 55 465 10z"/>
<path d="M2623 4098 l-222 -222 -65 62 c-36 35 -73 62 -85 62 -55 0 -100 -53
-88 -103 4 -12 51 -66 105 -120 86 -84 104 -97 133 -97 30 0 57 24 290 257
149 148 260 267 264 281 13 52 -30 102 -87 102 -15 0 -93 -70 -245 -222z"/>
<path d="M665 3415 c-30 -29 -33 -74 -7 -103 9 -12 166 -87 348 -167 l331
-147 -288 -720 c-158 -396 -290 -722 -292 -725 -3 -2 -152 61 -332 142 -180
80 -338 145 -352 145 -58 0 -94 -83 -55 -128 20 -24 754 -352 787 -352 37 0
62 30 95 115 17 44 35 83 38 87 4 3 54 -13 112 -36 l105 -42 1 -70 c2 -90 32
-160 89 -213 44 -41 102 -71 136 -71 16 0 19 -8 19 -42 0 -172 165 -314 324
-280 l44 9 16 -41 c23 -59 66 -107 127 -141 48 -27 63 -30 141 -30 85 0 88 -1
93 -25 19 -84 148 -180 243 -180 41 0 50 -5 112 -64 82 -77 140 -100 233 -94
34 2 80 13 102 23 54 26 122 98 136 144 l11 37 87 0 c77 -1 91 2 140 29 61 34
104 82 127 141 l16 41 44 -9 c159 -34 324 108 324 280 0 36 3 42 20 42 32 0
111 44 147 82 79 82 99 211 48 313 -15 31 -25 58 -24 59 10 9 272 137 274 134
2 -2 17 -39 35 -83 33 -85 58 -115 95 -115 33 0 767 328 788 352 38 45 2 128
-56 128 -14 0 -172 -65 -352 -145 -180 -81 -329 -144 -332 -142 -2 3 -134 329
-292 725 l-288 720 331 147 c182 80 339 155 349 167 38 45 2 128 -56 128 -35
0 -768 -327 -789 -352 -21 -23 -23 -56 -6 -93 6 -14 9 -27 6 -30 -3 -3 -171
31 -375 76 l-369 82 -148 -56 c-81 -32 -155 -57 -164 -57 -9 0 -84 25 -166 57
l-148 57 -371 -82 c-203 -46 -372 -80 -375 -77 -3 3 0 16 6 30 17 37 15 70 -5
93 -22 25 -755 352 -790 352 -13 0 -35 -11 -48 -25z m1659 -496 c3 -3 -51 -27
-122 -53 -154 -59 -197 -82 -246 -137 -122 -134 -121 -337 2 -468 28 -30 71
-61 107 -78 51 -24 72 -28 145 -28 83 1 91 3 310 88 124 48 230 87 236 87 5 0
242 -233 526 -517 411 -412 517 -525 523 -551 15 -75 -64 -152 -141 -137 -29
5 -69 38 -203 171 -143 139 -173 164 -198 164 -40 0 -71 -27 -79 -68 -6 -32
-1 -39 179 -220 156 -158 186 -193 192 -225 12 -64 -21 -119 -84 -137 -60 -17
-86 1 -276 190 -160 159 -185 180 -214 180 -43 0 -81 -38 -81 -81 0 -28 19
-52 144 -178 159 -162 171 -183 139 -249 -24 -50 -76 -77 -127 -68 -29 6 -58
26 -125 91 l-88 85 0 57 c0 138 -101 254 -240 278 -39 6 -41 8 -47 51 -15 115
-110 208 -235 229 -29 5 -41 12 -41 24 0 46 -33 122 -72 166 -46 52 -124 95
-175 95 -29 0 -32 3 -38 41 -11 62 -31 105 -72 150 -59 65 -104 84 -203 84
-118 0 -144 -16 -322 -192 l-146 -146 -119 47 c-65 26 -121 51 -125 55 -4 4
88 247 206 541 l214 535 73 7 c41 3 222 40 404 80 327 74 329 74 372 58 23 -8
45 -18 47 -21z m906 -40 c173 -39 348 -74 389 -77 l73 -7 214 -535 c118 -294
214 -538 214 -542 0 -4 -76 -46 -168 -92 l-169 -84 -428 428 c-407 407 -428
429 -404 439 13 5 67 25 119 45 103 39 130 62 130 108 0 35 -39 78 -72 78 -13
0 -212 -73 -442 -161 -231 -89 -439 -164 -461 -167 -56 -6 -124 25 -161 73
-35 46 -46 143 -21 191 34 66 63 80 458 232 211 82 391 147 399 145 8 -2 157
-35 330 -74z m-1451 -1094 c16 -8 36 -31 46 -51 31 -66 21 -83 -163 -267 -170
-170 -199 -190 -256 -180 -35 7 -82 54 -89 89 -11 58 9 86 181 257 165 163
169 167 211 167 23 0 55 -7 70 -15z m281 -280 c54 -28 75 -98 46 -153 -8 -15
-93 -105 -188 -200 -121 -120 -183 -175 -206 -182 -97 -27 -185 79 -138 168
16 29 325 339 366 366 31 20 82 21 120 1z m275 -279 c39 -17 65 -60 65 -109 0
-46 -32 -88 -177 -229 -98 -95 -127 -118 -158 -124 -52 -9 -104 18 -128 68
-32 65 -20 88 127 237 174 177 194 189 271 157z m280 -282 c19 -9 41 -27 50
-40 19 -29 22 -92 7 -120 -6 -10 -57 -65 -115 -121 -103 -101 -105 -103 -152
-103 -40 0 -52 5 -81 34 -29 29 -34 41 -34 82 0 47 1 48 111 160 126 127 149
139 214 108z m184 -349 c25 -29 31 -45 31 -81 0 -39 -5 -51 -34 -80 -29 -29
-41 -34 -80 -34 -39 0 -52 6 -84 34 l-37 35 80 80 c44 45 83 81 86 81 4 0 21
-16 38 -35z"/>
</g>
</svg>
