<?xml version="1.0" standalone="no"?>
<!DOCTYPE svg PUBLIC "-//W3C//DTD SVG 20010904//EN"
 "http://www.w3.org/TR/2001/REC-SVG-20010904/DTD/svg10.dtd">
<svg version="1.0" xmlns="http://www.w3.org/2000/svg"
 width="512.000000pt" height="512.000000pt" viewBox="0 0 512.000000 512.000000"
 preserveAspectRatio="xMidYMid meet">

<g transform="translate(0.000000,512.000000) scale(0.100000,-0.100000)"
fill="#000000" stroke="none">
<path d="M785 5106 c-40 -18 -73 -56 -85 -97 -6 -22 -10 -881 -10 -2371 l0
-2338 -212 0 c-183 0 -218 -3 -248 -18 -107 -53 -107 -211 0 -264 33 -17 165
-18 2330 -18 2165 0 2297 1 2330 18 107 53 107 211 0 264 -30 15 -65 18 -247
18 l-213 0 -2 2359 -3 2360 -21 27 c-11 15 -33 37 -48 48 l-27 21 -1757 2
c-1449 2 -1762 0 -1787 -11z m3345 -2546 l0 -2260 -380 0 -380 0 0 603 c0 671
2 647 -69 694 l-34 23 -707 0 -707 0 -34 -23 c-71 -47 -69 -23 -69 -694 l0
-603 -380 0 -380 0 0 2260 0 2260 1570 0 1570 0 0 -2260z m-1060 -1750 l0
-510 -510 0 -510 0 0 510 0 510 510 0 510 0 0 -510z"/>
<path d="M1462 4453 c-12 -2 -40 -21 -61 -41 -30 -29 -41 -47 -46 -82 -3 -25
-5 -217 -3 -427 3 -367 4 -383 24 -409 11 -15 33 -37 48 -48 27 -20 39 -21
446 -21 407 0 419 1 446 21 15 11 37 33 48 48 20 27 21 39 21 444 0 463 3 444
-69 495 -31 22 -35 22 -431 23 -220 1 -410 0 -423 -3z m626 -515 l2 -218 -220
0 -220 0 0 220 0 220 218 -2 217 -3 3 -217z"/>
<path d="M2842 4453 c-12 -2 -40 -21 -61 -41 -30 -28 -41 -47 -46 -82 -3 -25
-5 -217 -3 -427 3 -367 4 -383 24 -409 11 -15 33 -37 48 -48 27 -20 39 -21
446 -21 407 0 419 1 446 21 15 11 37 33 48 48 20 26 21 41 24 425 3 445 2 454
-61 505 l-39 31 -401 1 c-221 1 -412 0 -425 -3z m628 -513 l0 -220 -220 0
-220 0 0 213 c0 118 3 217 7 220 3 4 102 7 220 7 l213 0 0 -220z"/>
<path d="M1430 3038 c-18 -13 -43 -36 -54 -51 -20 -28 -21 -41 -24 -428 -3
-379 -2 -402 17 -444 12 -27 33 -52 53 -65 32 -19 49 -20 448 -20 399 0 416 1
448 20 20 13 41 38 53 65 19 42 20 65 17 444 -3 387 -4 400 -24 428 -11 15
-36 38 -54 51 -33 22 -34 22 -440 22 -406 0 -407 0 -440 -22z m660 -493 l0
-215 -220 0 -220 0 0 215 0 215 220 0 220 0 0 -215z"/>
<path d="M2810 3038 c-18 -13 -43 -36 -54 -51 -20 -28 -21 -41 -24 -428 -3
-379 -2 -402 17 -444 12 -27 33 -52 53 -65 32 -19 49 -20 448 -20 399 0 416 1
448 20 20 13 41 38 53 65 19 42 20 65 17 444 -3 387 -4 400 -24 428 -11 15
-36 38 -54 51 -33 22 -34 22 -440 22 -406 0 -407 0 -440 -22z m660 -493 l0
-215 -220 0 -220 0 0 215 0 215 220 0 220 0 0 -215z"/>
</g>
</svg>
