<?xml version="1.0" encoding="UTF-8"?>
<svg version="1.1" xmlns="http://www.w3.org/2000/svg" width="256" height="256">
<path d="M0 0 C3.02112174 2.25003197 3.90915032 3.41332832 4.49219131 7.17837906 C4.48666056 9.07542902 4.48666056 9.07542902 4.48101807 11.01080322 C4.48443577 11.71659193 4.48785347 12.42238063 4.49137473 13.14955688 C4.49796339 15.51450582 4.47596286 17.8783197 4.45410156 20.24316406 C4.45297329 21.93831353 4.45360655 23.63346495 4.45587158 25.32861328 C4.45702045 29.9317063 4.43348321 34.53438339 4.40557575 39.13737965 C4.38059091 43.94733898 4.3782224 48.75730757 4.37347412 53.56732178 C4.36103576 62.67626744 4.3282025 71.78502134 4.28807616 80.89388251 C4.24338522 91.26376299 4.22137815 101.63365257 4.20129442 112.00360537 C4.15947064 133.33584399 4.08910185 154.66790992 4 176 C4.83144531 175.96519531 5.66289062 175.93039063 6.51953125 175.89453125 C8.14955078 175.85392578 8.14955078 175.85392578 9.8125 175.8125 C10.89144531 175.77769531 11.97039062 175.74289063 13.08203125 175.70703125 C16 176 16 176 17.86181641 177.37695312 C19.35811376 179.5106693 19.40089449 180.91055144 19.375 183.5 C19.38273437 184.2734375 19.39046875 185.046875 19.3984375 185.84375 C18.89849991 188.54929461 18.13263716 189.29940514 16 191 C14.0278492 191.37604749 14.0278492 191.37604749 11.7348938 191.37752342 C10.85992186 191.38534666 9.98494991 191.39316991 9.08346367 191.40123022 C7.64053538 191.39119197 7.64053538 191.39119197 6.16845703 191.38095093 C5.14712236 191.3856309 4.1257877 191.39031087 3.07350349 191.39513266 C-0.3651904 191.40714434 -3.80349031 191.3976012 -7.2421875 191.38818359 C-9.7007877 191.39224654 -12.15938607 191.39758686 -14.61798096 191.40411377 C-20.61243924 191.41640048 -26.60674162 191.41456453 -32.6011939 191.40587585 C-37.47191131 191.39910754 -42.34259712 191.39817887 -47.21331787 191.4014473 C-47.90588554 191.401907 -48.59845321 191.40236669 -49.31200778 191.40284032 C-50.718836 191.40379948 -52.1256642 191.40477211 -53.5324924 191.4057581 C-66.73206535 191.41431785 -79.93157585 191.40446871 -93.13113856 191.388357 C-104.46310803 191.37495327 -115.79498532 191.3772812 -127.12695312 191.39111328 C-140.27848644 191.40715879 -153.42996499 191.41349382 -166.58150673 191.40427649 C-167.98323185 191.40332082 -169.38495699 191.40237771 -170.78668213 191.4014473 C-171.82126283 191.40075306 -171.82126283 191.40075306 -172.87674415 191.40004479 C-177.74301775 191.39745181 -182.60925667 191.40183252 -187.4755249 191.40888596 C-194.02213374 191.41816615 -200.56859498 191.41158266 -207.11519623 191.39420319 C-209.52309631 191.39022402 -211.931011 191.39139665 -214.33890533 191.39799118 C-217.61562354 191.40614024 -220.89177531 191.39596538 -224.16845703 191.38095093 C-225.61138532 191.39098918 -225.61138532 191.39098918 -227.08346367 191.40123022 C-227.95843561 191.39340697 -228.83340755 191.38558373 -229.7348938 191.37752342 C-230.49156908 191.37703637 -231.24824436 191.37654931 -232.0278492 191.37604749 C-234.54808993 190.89549083 -235.43879661 189.99896554 -237 188 C-237.3984375 185.84375 -237.3984375 185.84375 -237.375 183.5 C-237.38273438 182.7265625 -237.39046875 181.953125 -237.3984375 181.15625 C-236.88822151 178.39508112 -236.25294548 177.66622246 -234 176 C-231.08203125 175.70703125 -231.08203125 175.70703125 -227.8125 175.8125 C-226.72582031 175.83957031 -225.63914063 175.86664063 -224.51953125 175.89453125 C-223.68808594 175.92933594 -222.85664063 175.96414062 -222 176 C-222.00888245 175.11938904 -222.01776489 174.23877808 -222.0269165 173.33148193 C-222.10706201 165.03287641 -222.16796416 156.73440084 -222.20724869 148.43549728 C-222.22812433 144.16890708 -222.25644109 139.90263664 -222.30175781 135.63623047 C-222.3452171 131.51893216 -222.36913728 127.40194143 -222.37950897 123.28443146 C-222.38690027 121.7135153 -222.40133388 120.14261598 -222.42292023 118.57183075 C-222.45195682 116.37141031 -222.45595612 114.17226087 -222.45410156 111.97167969 C-222.46298401 110.71925476 -222.47186646 109.46682983 -222.48101807 108.17645264 C-221.9100317 104.40588501 -221.00836419 103.26662702 -218 101 C-215.13723744 100.04574581 -213.08380048 99.80920118 -210.09765625 99.68359375 C-209.12997314 99.64121582 -208.16229004 99.59883789 -207.1652832 99.55517578 C-203.03031339 99.39835342 -198.89533292 99.24429405 -194.75976562 99.10400391 C-192.48760957 99.01837594 -190.22233902 98.90190416 -187.953125 98.76171875 C-186.91671875 98.71660156 -185.8803125 98.67148438 -184.8125 98.625 C-183.52279297 98.55152344 -183.52279297 98.55152344 -182.20703125 98.4765625 C-178.80404249 99.28364302 -177.87015643 101.11544085 -176 104 C-175.51898193 107.33467102 -175.51898193 107.33467102 -175.54589844 111.17700195 C-175.54531433 111.87998917 -175.54473022 112.58297638 -175.54412842 113.30726624 C-175.54690293 115.61811661 -175.5779621 117.9276578 -175.609375 120.23828125 C-175.61683971 121.8453857 -175.62253156 123.45249927 -175.62652588 125.05961609 C-175.64176427 129.27993099 -175.68103004 133.49969116 -175.7253418 137.7197876 C-175.76633359 142.02991228 -175.7845452 146.340127 -175.8046875 150.65039062 C-175.84752669 159.10054278 -175.91786129 167.55013837 -176 176 C-171.38 176 -166.76 176 -162 176 C-162.0314209 172.54043823 -162.0314209 172.54043823 -162.06347656 169.01098633 C-162.12977955 161.38753279 -162.17394854 153.76406646 -162.20724869 146.14040089 C-162.22811627 141.51849417 -162.25641864 136.89688307 -162.30175781 132.27514648 C-162.34524535 127.81420171 -162.36914335 123.35354114 -162.37950897 118.89240074 C-162.38689514 117.19113377 -162.40131876 115.48988221 -162.42292023 113.78873634 C-162.4519937 111.40414546 -162.45595448 109.02072617 -162.45410156 106.63598633 C-162.46848267 105.93395584 -162.48286377 105.23192535 -162.49768066 104.50862122 C-162.46815336 100.99260088 -162.06047022 99.09478768 -160.15193176 96.10313416 C-157.48917499 93.50075855 -155.385163 92.78879659 -151.80859375 91.796875 C-150.61685547 91.4565625 -149.42511719 91.11625 -148.19726562 90.765625 C-146.33618164 90.26289063 -146.33618164 90.26289063 -144.4375 89.75 C-143.19291016 89.399375 -141.94832031 89.04875 -140.66601562 88.6875 C-138.36484648 88.0396343 -136.06156304 87.39920048 -133.75561523 86.76855469 C-131.82233242 86.22935257 -129.90407175 85.63469058 -128 85 C-122.16182573 84.4439834 -122.16182573 84.4439834 -120 85 C-116.92309418 87.93765452 -116.04982366 89.59954412 -115.51898193 93.86616516 C-115.50745018 95.39814571 -115.51787901 96.9303905 -115.54589844 98.4621582 C-115.54531433 99.3016954 -115.54473022 100.1412326 -115.54412842 101.00621033 C-115.54690737 103.77149303 -115.57798994 106.53568768 -115.609375 109.30078125 C-115.61683807 111.22177034 -115.62253069 113.14276705 -115.62652588 115.06376648 C-115.64177698 120.11261116 -115.68105441 125.16099342 -115.7253418 130.20965576 C-115.76630572 135.36431625 -115.7845393 140.51905168 -115.8046875 145.67382812 C-115.84754906 155.78275493 -115.91579418 165.89133896 -116 176 C-111.38 176 -106.76 176 -102 176 C-102.01110306 174.77082352 -102.02220612 173.54164703 -102.03364563 172.27522278 C-102.13497405 160.69525593 -102.20994278 149.11537895 -102.25906086 137.53506947 C-102.28516194 131.58137864 -102.32057029 125.6280455 -102.37719727 119.67456055 C-102.43149735 113.9298062 -102.46141668 108.18539605 -102.47438622 102.44040489 C-102.48362958 100.24789701 -102.50167971 98.05540812 -102.52865028 95.86304665 C-102.56491304 92.79345521 -102.56994638 89.72528852 -102.56762695 86.65551758 C-102.59459152 85.29389748 -102.59459152 85.29389748 -102.62210083 83.9047699 C-102.58534216 79.41310296 -102.48139562 77.60334702 -99.59236145 73.98243713 C-97.41570782 72.31790113 -95.37744331 70.84929096 -92.9609375 69.5703125 C-92.22085449 69.17054199 -91.48077148 68.77077148 -90.71826172 68.35888672 C-89.94498535 67.9517041 -89.17170898 67.54452148 -88.375 67.125 C-83.01995024 64.25395158 -77.87417964 61.3294893 -72.875 57.875 C-68.24776674 54.87547245 -65.46222172 53.85005859 -60 55 C-57.4177594 57.17223601 -56.16250413 58.9420444 -55.64495087 62.3114872 C-55.50578358 65.2873017 -55.50573814 68.2371995 -55.54589844 71.21606445 C-55.54531433 72.34820877 -55.54473022 73.48035309 -55.54412842 74.64680481 C-55.54691334 78.38594302 -55.57802639 82.12428242 -55.609375 85.86328125 C-55.61683589 88.45687932 -55.62252954 91.05048302 -55.62652588 93.64408875 C-55.64023375 99.77103566 -55.67175335 105.8976533 -55.71192384 112.02447623 C-55.75667283 119.0014443 -55.77863639 125.97842624 -55.79870558 132.95550215 C-55.84048725 147.30382598 -55.91162781 161.65189252 -56 176 C-51.38 176 -46.76 176 -42 176 C-42.01554428 174.26383423 -42.03108856 172.52766846 -42.04710388 170.7388916 C-42.18900597 154.37713552 -42.2943608 138.01552877 -42.3626852 121.65329742 C-42.3987469 113.24126942 -42.44789247 104.82970144 -42.52807617 96.41796875 C-42.59794881 89.08441653 -42.64303158 81.75119753 -42.65861946 74.41732168 C-42.6677286 70.53555126 -42.68906372 66.65473392 -42.7401104 62.77326965 C-42.78782272 59.11551471 -42.80224215 55.45910013 -42.79175377 51.80106354 C-42.79458117 49.8271825 -42.83214917 47.85344569 -42.87094116 45.87994385 C-42.8228008 39.93169979 -42.62982642 35.95420634 -38.66908264 31.32751465 C-37.48363875 30.17826242 -36.26109037 29.06569648 -35 28 C-34.38308005 27.46634071 -33.76616011 26.93268143 -33.13054562 26.38285065 C-32.00726152 25.4302038 -30.87737952 24.48530041 -29.7421875 23.546875 C-27.21652317 21.3043569 -25.08202365 18.78646117 -22.89453125 16.21875 C-20.73850178 13.69375053 -18.53160965 11.21971287 -16.3125 8.75 C-15.58675781 7.94046875 -14.86101562 7.1309375 -14.11328125 6.296875 C-6.71369363 -1.74556034 -6.71369363 -1.74556034 0 0 Z " fill="#9CA3AF" transform="translate(237,65)"/>
<path d="M0 0 C1.28142883 -0.00786278 1.28142883 -0.00786278 2.58874512 -0.0158844 C4.39427605 -0.02230563 6.19984882 -0.02096627 8.00537109 -0.01245117 C10.77126317 -0.00393699 13.53509309 -0.03270604 16.30078125 -0.06445312 C18.05468688 -0.0660651 19.80859617 -0.06548768 21.5625 -0.0625 C22.39068237 -0.07373398 23.21886475 -0.08496796 24.07214355 -0.09654236 C29.65619005 -0.02859102 29.65619005 -0.02859102 32.30126953 1.92724609 C33.73655702 5.59806358 33.70912035 9.14828625 33.6796875 13.03125 C33.68255768 13.8619249 33.68542786 14.69259979 33.68838501 15.54844666 C33.69042297 17.30094079 33.68491181 19.05345781 33.67236328 20.8059082 C33.65628493 23.49026185 33.67223087 26.17311455 33.69140625 28.85742188 C33.68942417 30.56120124 33.68558122 32.26497967 33.6796875 33.96875 C33.68576019 34.77192154 33.69183289 35.57509308 33.6980896 36.40260315 C33.62813349 41.93349425 33.62813349 41.93349425 31.89111328 44.43774414 C29.76061416 45.75565526 28.2761851 45.8335431 25.78125 45.80859375 C24.62109375 45.82019531 24.62109375 45.82019531 23.4375 45.83203125 C21.28125 45.43359375 21.28125 45.43359375 19.5625 44.34765625 C17.67938757 41.53447 17.59439421 38.75292241 17.28125 35.43359375 C7.98564909 45.35361462 7.98564909 45.35361462 -1.046875 55.51171875 C-3.83177329 58.71305042 -6.68984634 61.84849965 -9.53515625 64.99609375 C-11.43743476 67.11956744 -13.30138214 69.26885385 -15.15625 71.43359375 C-22.62971325 79.97224027 -30.80450105 87.43211887 -39.71875 94.43359375 C-40.70488281 95.22507812 -41.69101563 96.0165625 -42.70703125 96.83203125 C-86.23308345 131.1975569 -140.59247049 149.73916857 -195.96875 149.55859375 C-197.77085937 149.56439453 -197.77085937 149.56439453 -199.609375 149.5703125 C-216.88559814 149.55136927 -216.88559814 149.55136927 -221.28125 146.87109375 C-223.02209228 143.91923075 -223.23567498 141.80620625 -223.34765625 138.43359375 C-222.34318694 135.23925658 -220.49567145 134.22012367 -217.71875 132.43359375 C-215.00010886 132.12381155 -212.71421797 132.03266966 -210.015625 132.1484375 C-208.47501709 132.17761462 -206.93440833 132.20674693 -205.39379883 132.23583984 C-204.59019928 132.25862 -203.78659973 132.28140015 -202.95864868 132.30487061 C-198.75285667 132.41673089 -194.54694267 132.44663154 -190.33984375 132.46875 C-189.50551315 132.47314087 -188.67118256 132.47753174 -187.81156921 132.48205566 C-135.40628664 132.54157073 -81.08904266 110.05648244 -42.859375 74.421875 C-40.94475594 72.64351533 -38.97879632 70.97659437 -36.96875 69.30859375 C-28.37185646 61.83227289 -20.77987219 52.9415971 -13.35546875 44.3203125 C-11.34001228 41.99700588 -9.28026538 39.7161091 -7.21875 37.43359375 C-3.34238949 33.13674667 0.48168587 28.79831044 4.28125 24.43359375 C5.59338495 22.93327441 6.90587751 21.43326774 8.21875 19.93359375 C9.23960468 18.76694576 10.2604417 17.60028232 11.28125 16.43359375 C10.69110107 16.41901123 10.10095215 16.40442871 9.49291992 16.3894043 C6.81753771 16.31490531 4.14340108 16.2182538 1.46875 16.12109375 C0.53998047 16.09853516 -0.38878906 16.07597656 -1.34570312 16.05273438 C-2.23837891 16.01728516 -3.13105469 15.98183594 -4.05078125 15.9453125 C-5.28405151 15.90603638 -5.28405151 15.90603638 -6.54223633 15.8659668 C-9.18144032 15.34167849 -10.0945444 14.54464301 -11.71875 12.43359375 C-12.1171875 10.27734375 -12.1171875 10.27734375 -12.09375 7.93359375 C-12.10148438 7.16015625 -12.10921875 6.38671875 -12.1171875 5.58984375 C-10.9467773 -0.74414088 -5.27606183 -0.01870193 0 0 Z " fill="#9CA3AF" transform="translate(222.71875,-0.43359375)"/>
</svg>
