<?xml version="1.0" encoding="UTF-8"?>
<svg version="1.1" xmlns="http://www.w3.org/2000/svg" width="256" height="256">
<path d="M0 0 C3.62062488 1.88272494 4.6053814 3.15438871 6.3125 6.8125 C7 10 7 10 7 17 C43.3 17 79.6 17 117 17 C117 14.69 117 12.38 117 10 C118.54278922 5.37163235 119.76072751 2.48206109 124 0 C129.3551869 -0.81764202 134.35309431 -0.92226719 139.125 1.75 C142.1599449 5.39193388 143.26496303 7.99125703 143.125 12.75 C143.10695312 13.54921875 143.08890625 14.3484375 143.0703125 15.171875 C143.04710937 15.77515625 143.02390625 16.3784375 143 17 C143.60473145 16.98428955 144.20946289 16.9685791 144.83251953 16.95239258 C147.59658296 16.8896812 150.36049621 16.85089589 153.125 16.8125 C154.07632813 16.78736328 155.02765625 16.76222656 156.0078125 16.73632812 C162.4035735 16.66970561 166.85202427 17.22197869 171.828125 21.61328125 C172.29734375 22.17402344 172.7665625 22.73476563 173.25 23.3125 C173.72953125 23.86550781 174.2090625 24.41851563 174.703125 24.98828125 C178.04937531 30.17900085 178.28971572 35.5178953 178.26069641 41.5262146 C178.26452196 42.37099196 178.26834751 43.21576932 178.27228898 44.086146 C178.28258642 46.90954522 178.27863301 49.73273984 178.2746582 52.55615234 C178.27900649 54.58344205 178.28419003 56.61073012 178.29014587 58.63801575 C178.30353488 64.14010677 178.30411462 69.64212909 178.30158257 75.14423323 C178.30051275 79.73915778 178.30539656 84.33406843 178.310188 88.92899001 C178.32128295 99.77037891 178.32172071 110.61173317 178.31567383 121.453125 C178.30963384 132.63324892 178.32194578 143.81324699 178.3432439 154.99334943 C178.36086373 164.59607189 178.36686063 174.19875431 178.36360615 183.80149233 C178.36179369 189.53502805 178.36442586 195.26847402 178.37832069 201.00199509 C178.39090046 206.39466309 178.38895339 211.78713503 178.37590981 217.17980003 C178.37354477 219.15666584 178.37627607 221.13354545 178.38453293 223.11039543 C178.39500829 225.81376305 178.38689337 228.5164738 178.3742218 231.21981812 C178.38159609 231.99784896 178.38897037 232.77587981 178.39656812 233.57748735 C178.33179968 240.16790392 176.97985829 245.65543097 172.625 250.8125 C167.29644468 255.25296277 163.54680827 256.44155044 156.63200378 256.39440918 C155.7921644 256.40050028 154.95232502 256.40659139 154.08703595 256.41286707 C151.27427629 256.42950931 148.46196871 256.42471949 145.64916992 256.41992188 C143.63187693 256.42726157 141.61458813 256.4358475 139.5973053 256.44558716 C134.11786301 256.46782425 128.63857102 256.47073267 123.1590898 256.46883965 C118.58409008 256.46872003 114.00912229 256.4772808 109.43413144 256.48561716 C98.63925285 256.50485978 87.84445159 256.50773218 77.04956055 256.50097656 C65.9165208 256.49433742 54.78381251 256.51719326 43.65083998 256.55429029 C34.09058891 256.58498987 24.53044443 256.59634696 14.97014505 256.59245348 C9.26111995 256.59038597 3.55235266 256.5958655 -2.15662575 256.62034607 C-7.52723186 256.64261421 -12.89729949 256.64073444 -18.2679081 256.62041855 C-20.23671385 256.61700847 -22.20555585 256.62209746 -24.17431259 256.63640213 C-26.86718505 256.65461466 -29.55823464 256.64183123 -32.25105286 256.62145996 C-33.02587488 256.63397781 -33.80069689 256.64649566 -34.59899837 256.65939283 C-40.40674992 256.5655262 -44.5517643 254.75827232 -49 251 C-53.69177482 244.95723654 -54.14855722 239.09754405 -54.14044189 231.71429443 C-54.14341302 230.87122592 -54.14638414 230.02815741 -54.1494453 229.15954137 C-54.15812805 226.3299837 -54.15964019 223.50046837 -54.16113281 220.67089844 C-54.16576129 218.64390472 -54.17078599 216.61691187 -54.17617798 214.58992004 C-54.18930125 209.07946525 -54.19574682 203.56902263 -54.20018864 198.05855465 C-54.20311952 194.61580936 -54.20722437 191.1730674 -54.21169281 187.73032379 C-54.22536765 176.95869676 -54.23503433 166.18707734 -54.2388947 155.41544223 C-54.24337534 142.98136295 -54.26092362 130.54739361 -54.2898953 118.11334777 C-54.31151219 108.502179 -54.32159899 98.89104116 -54.32293582 89.27984834 C-54.32398385 83.53956772 -54.32989139 77.79939046 -54.34775543 72.05913544 C-54.36423612 66.65829759 -54.36639155 61.25764077 -54.35761642 55.85678673 C-54.35684605 53.87669324 -54.36118881 51.89659003 -54.37107468 49.91652107 C-54.38379908 47.20867918 -54.37791467 44.50147797 -54.36749268 41.79364014 C-54.37554908 41.01424505 -54.38360548 40.23484996 -54.39190602 39.43183684 C-54.33621385 33.22421444 -53.20057273 27.58656029 -49.0625 22.72265625 C-48.0415625 21.90087891 -48.0415625 21.90087891 -47 21.0625 C-46.319375 20.49660156 -45.63875 19.93070313 -44.9375 19.34765625 C-41.67712572 17.07985559 -38.96638621 16.8789916 -35.11328125 16.90234375 C-34.17548828 16.90556641 -33.23769531 16.90878906 -32.27148438 16.91210938 C-31.29501953 16.92048828 -30.31855469 16.92886719 -29.3125 16.9375 C-28.32443359 16.94201172 -27.33636719 16.94652344 -26.31835938 16.95117188 C-23.87884526 16.96295697 -21.43945311 16.97940989 -19 17 C-19.02102783 16.39019287 -19.04205566 15.78038574 -19.0637207 15.15209961 C-19.08007568 14.34780518 -19.09643066 13.54351074 -19.11328125 12.71484375 C-19.13430908 11.91941162 -19.15533691 11.12397949 -19.17700195 10.30444336 C-18.90254928 6.73125883 -17.27906131 4.66975754 -15 2 C-10.32739571 -1.11506953 -5.46999016 -0.59135029 0 0 Z M-10 9 C-10 11.64 -10 14.28 -10 17 C-7.36 17 -4.72 17 -2 17 C-1.83322718 13.58343976 -1.83322718 13.58343976 -2 10 C-2.66 9.34 -3.32 8.68 -4 8 C-7.7763932 7.7018576 -7.7763932 7.7018576 -10 9 Z M128 8 C125.58878141 9.95633975 125.58878141 9.95633975 125.875 13.625 C125.91625 14.73875 125.9575 15.8525 126 17 C128.64 17 131.28 17 134 17 C134 14.36 134 11.72 134 9 C131.09926819 8.32198966 131.09926819 8.32198966 128 8 Z M-43 29 C-45.70093819 32.79143623 -45.25366994 37.02563919 -45.1953125 41.484375 C-45.1924826 42.29996887 -45.18965271 43.11556274 -45.18673706 43.95587158 C-45.17556558 46.55406528 -45.15046675 49.15191095 -45.125 51.75 C-45.11496627 53.51431793 -45.10584111 55.27864128 -45.09765625 57.04296875 C-45.07563619 61.36211273 -45.04112733 65.68099741 -45 70 C-43.73293213 70.02505615 -42.46586426 70.0501123 -41.16040039 70.07592773 C-36.47702221 70.16981996 -31.7937987 70.27008435 -27.1105957 70.37231445 C-25.08035896 70.41573241 -23.05008408 70.45740226 -21.01977539 70.49731445 C-18.10811849 70.55485146 -15.19665486 70.61859278 -12.28515625 70.68359375 C-11.3716188 70.70030624 -10.45808136 70.71701874 -9.51686096 70.73423767 C-3.11387171 70.88612829 -3.11387171 70.88612829 -2 72 C-1.95936168 73.66617115 -1.957279 75.33388095 -2 77 C-5.43376268 78.71688134 -9.38114365 78.24509002 -13.1640625 78.31640625 C-14.52487442 78.3475779 -14.52487442 78.3475779 -15.91317749 78.37937927 C-18.8170398 78.44487135 -21.72099405 78.50375814 -24.625 78.5625 C-26.59115542 78.60568555 -28.55730147 78.64929985 -30.5234375 78.69335938 C-35.34886362 78.80055239 -40.1743824 78.90182081 -45 79 C-45.1168238 98.06272527 -45.20498348 117.12537785 -45.25906086 136.18838692 C-45.28483784 145.03977554 -45.31997856 153.89094168 -45.37719727 162.7421875 C-45.42704789 170.45733472 -45.4592947 178.17232082 -45.47044247 185.88762462 C-45.47695849 189.972559 -45.49226189 194.05703242 -45.52865028 198.141819 C-45.56263636 201.9881646 -45.57304795 205.83386023 -45.56553841 209.68034172 C-45.56691182 211.09045763 -45.57682958 212.5005957 -45.59602737 213.91058159 C-45.98758407 222.37109843 -45.98758407 222.37109843 -42.65202332 229.82345581 C-38.71892555 233.05139164 -35.87623993 233.12806921 -30.94033813 233.14717102 C-29.67290268 233.15432632 -28.40546722 233.16148163 -27.09962463 233.16885376 C-25.69223047 233.17169396 -24.28483604 233.1744057 -22.87744141 233.17700195 C-21.39744406 233.18326737 -19.91744828 233.18991424 -18.43745422 233.19691467 C-13.57550144 233.21794393 -8.71354837 233.22831432 -3.8515625 233.23828125 C-2.17790078 233.24232889 -0.50423923 233.24644581 1.16942215 233.25063133 C9.03055848 233.26967859 16.89168543 233.28391197 24.7528404 233.2922433 C33.82959156 233.30202175 42.90609925 233.32835894 51.9827646 233.36874419 C58.99770929 233.3988863 66.0125841 233.41371026 73.0275923 233.41702431 C77.21799181 233.41937653 81.40813106 233.42835928 85.59846115 233.45348549 C89.54000915 233.47673881 93.481125 233.48101073 97.42272377 233.47072411 C98.86871718 233.470228 100.31473167 233.47657058 101.76066017 233.49028015 C103.73581813 233.5079589 105.71116316 233.4985207 107.68637085 233.48774719 C108.79139135 233.49013555 109.89641186 233.4925239 111.03491783 233.49498463 C114.69014634 232.88478841 116.36181998 231.54939203 119 229 C120.51065334 225.57928818 120.14244206 221.72939873 120.17578125 218.0390625 C120.19897918 216.66665132 120.22309651 215.29425544 120.24804688 213.921875 C120.28311479 211.77365853 120.31249371 209.62600669 120.32592773 207.47753906 C120.34148609 205.3931978 120.38173162 203.31047181 120.42578125 201.2265625 C120.44036377 199.98471191 120.45494629 198.74286133 120.4699707 197.46337891 C121.09501058 193.37917086 122.44337135 191.20925337 125 188 C130.18074763 184.24395797 134.48113859 183.8846525 140.77734375 183.859375 C142.75444336 183.83037109 142.75444336 183.83037109 144.77148438 183.80078125 C146.85632744 183.77180805 148.94008886 183.74999939 151.02514648 183.74951172 C153.04687511 183.74616804 155.06846063 183.70939945 157.08984375 183.671875 C158.29503662 183.6625293 159.50022949 183.65318359 160.74194336 183.64355469 C165.0803652 182.78659853 166.32585127 181.51291309 169 178 C169.70844297 174.77701195 169.63274691 171.63282126 169.56762695 168.34448242 C169.56835709 167.3781488 169.56908722 166.41181519 169.56983948 165.41619873 C169.56636178 162.22871365 169.52749075 159.04269789 169.48828125 155.85546875 C169.47895381 153.64301858 169.47183737 151.43055807 169.46684265 149.21809387 C169.44776767 143.39978436 169.39866165 137.58210064 169.34332275 131.76403809 C169.2921416 125.82520005 169.26933097 119.88626072 169.24414062 113.94726562 C169.19054414 102.2979024 169.10522456 90.64900327 169 79 C168.17117089 78.99576806 167.34234179 78.99153612 166.48839664 78.98717594 C146.35104236 78.8840157 126.213724 78.77540022 106.07643223 78.66066074 C96.33832073 78.60530686 86.60020557 78.55182137 76.86206055 78.50268555 C68.37748205 78.45987016 59.89293078 78.41359896 51.40839428 78.36312145 C46.91302937 78.33649912 42.41766994 78.3116456 37.92227364 78.29092598 C33.69606308 78.27139257 29.46990443 78.24725888 25.24374008 78.21950912 C23.68805188 78.21012116 22.13235226 78.20245221 20.5766468 78.19658089 C18.46185273 78.18834919 16.34718564 78.17408118 14.23243713 78.15821838 C13.04608956 78.15176583 11.85974199 78.14531328 10.6374445 78.1386652 C8 78 8 78 7 77 C6.875 74.5 6.875 74.5 7 72 C8.83438333 70.16561667 11.77172387 70.85516545 14.23243713 70.84178162 C14.89074349 70.83684364 15.54904984 70.83190566 16.22730488 70.82681805 C18.44914133 70.81137151 20.67094874 70.80306321 22.89282227 70.79467773 C24.47915913 70.78510482 26.0654934 70.77509509 27.65182495 70.76467896 C31.97185943 70.73756021 36.29190491 70.71658851 40.61197782 70.69667697 C45.12170513 70.67486025 49.63139825 70.64745053 54.14109802 70.62062073 C62.68691896 70.57063531 71.23275881 70.52571826 79.77861685 70.48259836 C89.50520061 70.43327586 99.23175008 70.3783393 108.95830071 70.32291877 C128.97216855 70.20900898 148.98606911 70.10218963 169 70 C169.07431132 64.82221598 169.12867808 59.64474431 169.16479492 54.46655273 C169.17985553 52.70608104 169.20030826 50.9456467 169.22631836 49.18530273 C169.26282229 46.65078497 169.27975354 44.11676448 169.29296875 41.58203125 C169.30845261 40.79850784 169.32393646 40.01498444 169.33988953 39.2077179 C169.34129899 34.60232426 168.85334861 31.66096358 166 28 C161.89227749 24.61687182 157.96544897 24.60007696 152.85546875 24.70703125 C152.08568192 24.71127609 151.31589508 24.71552094 150.52278137 24.71989441 C148.07732354 24.73661403 145.63270643 24.7742523 143.1875 24.8125 C141.52410049 24.82755559 139.86068799 24.84124246 138.19726562 24.85351562 C134.13118918 24.88649535 130.06573687 24.93822994 126 25 C125.86495862 26.93559313 125.76798871 28.873872 125.6875 30.8125 C125.62949219 31.89144531 125.57148438 32.97039063 125.51171875 34.08203125 C125.69654652 37.19594792 125.69654652 37.19594792 128.39453125 38.88671875 C130.8342994 40.13097357 130.8342994 40.13097357 133 40 C132.67 41.98 132.34 43.96 132 46 C129.00295075 47.31870167 127.66569149 46.90615901 124.4375 46 C120.00521921 43.42121845 119.36305944 41.92215907 118 37 C117.67 33.04 117.34 29.08 117 25 C75.09 25 33.18 25 -10 25 C-10 29.29 -10 33.58 -10 38 C-8.02 38.99 -6.04 39.98 -4 41 C-4 42.65 -4 44.3 -4 46 C-7.05491056 47.34416065 -8.29373235 46.90724242 -11.5625 45.875 C-15.36208057 43.80250151 -16.20510854 42.83790027 -18 39 C-18.51171875 35.44921875 -18.51171875 35.44921875 -18.6875 31.6875 C-18.75324219 30.43324219 -18.81898437 29.17898437 -18.88671875 27.88671875 C-18.92410156 26.93410156 -18.96148437 25.98148438 -19 25 C-21.87602455 24.89147077 -24.74790832 24.8124485 -27.625 24.75 C-28.43324219 24.71648438 -29.24148437 24.68296875 -30.07421875 24.6484375 C-35.54380916 24.55950107 -38.72970933 25.24214421 -43 29 Z M129 196 C127.59087904 198.81824192 127.88816447 201.17251282 127.90234375 204.3203125 C127.90556641 205.57714844 127.90878906 206.83398438 127.91210938 208.12890625 C127.92048828 209.44761719 127.92886719 210.76632813 127.9375 212.125 C127.94251511 213.46484211 127.94707799 214.804686 127.95117188 216.14453125 C127.96298914 219.42973206 127.97946383 222.71484397 128 226 C132.74042214 222.04047376 137.23120477 217.91752023 141.58984375 213.54296875 C142.17923233 212.9545369 142.76862091 212.36610504 143.37586975 211.75984192 C144.60638107 210.53000519 145.83565434 209.29892856 147.0637207 208.06665039 C148.95344748 206.1715068 150.84853271 204.28183723 152.74414062 202.39257812 C153.94302962 201.19302935 155.14160892 199.99317097 156.33984375 198.79296875 C156.90847641 198.22636032 157.47710907 197.65975189 158.06297302 197.07597351 C160.76358016 194.89742309 160.76358016 194.89742309 162 192 C157.94335053 191.9009086 153.8871723 191.82842894 149.82958984 191.78027344 C148.4502332 191.76019358 147.07096131 191.73292334 145.69189453 191.69824219 C143.70643021 191.64957183 141.72033746 191.62913582 139.734375 191.609375 C137.94338379 191.5779541 137.94338379 191.5779541 136.11621094 191.54589844 C132.38827265 192.08914234 131.28505334 193.07605607 129 196 Z M166.52218628 200.37774658 C165.57123581 201.34560089 165.57123581 201.34560089 164.60107422 202.33300781 C163.88297577 203.06086487 163.16487732 203.78872192 162.42501831 204.53863525 C161.64280914 205.33541687 160.86059998 206.13219849 160.0546875 206.953125 C158.40394886 208.62139365 156.75289702 210.28935243 155.1015625 211.95703125 C152.49138378 214.59808516 149.88353951 217.24130777 147.28125 219.89013672 C144.77506555 222.43882315 142.25939427 224.97783034 139.7421875 227.515625 C138.58709183 228.69865204 138.58709183 228.69865204 137.40866089 229.90557861 C136.67164948 230.64604431 135.93463806 231.38651001 135.17529297 232.14941406 C134.53655243 232.79783264 133.89781189 233.44625122 133.23971558 234.11431885 C125.25414193 240.83760366 118.17298465 240.55757222 108.12231445 240.4699707 C106.50217549 240.4704799 104.88203628 240.47273817 103.26190186 240.47660828 C98.87565724 240.48201535 94.48983697 240.46265029 90.10366845 240.43850732 C85.51046598 240.41717697 80.91726451 240.41780474 76.32402039 240.41581726 C68.61462115 240.40937558 60.90538092 240.38814835 53.19604492 240.35668945 C43.29929487 240.31635781 33.40264826 240.29899428 23.505826 240.28938007 C14.99474803 240.28108008 6.48369198 240.26384602 -2.02736688 240.24434257 C-3.85379225 240.24029388 -5.68021833 240.23655427 -7.50664496 240.2331202 C-12.71092515 240.22333192 -17.91514348 240.20883759 -23.11938477 240.1862812 C-24.69639844 240.18016125 -26.2734196 240.17570969 -27.85044289 240.17303848 C-30.00102637 240.16905375 -32.15149472 240.15893262 -34.30204773 240.14717102 C-35.50603557 240.14289754 -36.7100234 240.13862406 -37.95049572 240.13422108 C-40.49438353 240.02225424 -42.58248078 239.75030943 -45 239 C-43.82191948 242.3529984 -42.80593388 244.7552529 -40 247 C-36.33754809 248.2208173 -32.96935743 248.14479948 -29.15603638 248.14044189 C-28.34845756 248.14341302 -27.54087875 248.14638414 -26.70882785 248.1494453 C-23.99353759 248.15814055 -21.27829138 248.15964123 -18.56298828 248.16113281 C-16.61994329 248.16576035 -14.67689922 248.17078493 -12.7338562 248.17617798 C-7.44874306 248.18930904 -2.16364263 248.19574817 3.12148428 248.20018864 C6.42165009 248.20311787 9.72181241 248.20722236 13.02197647 248.21169281 C23.34242483 248.22536881 33.66286523 248.2350353 43.98332202 248.2388947 C55.90635879 248.24337763 67.82928104 248.26093605 79.75228298 248.2898953 C88.96253886 248.31149113 98.17276247 248.32159784 107.38304341 248.32293582 C112.88682461 248.32398524 118.39049818 248.3299222 123.89425278 248.34775543 C129.07017789 248.36420012 134.24591404 248.36640916 139.42185593 248.35761642 C141.32258102 248.35684415 143.22331613 248.36121374 145.12401581 248.37107468 C147.7169269 248.38373903 150.30916312 248.3779476 152.90206909 248.36749268 C153.65586629 248.37554908 154.40966348 248.38360548 155.18630302 248.39190602 C160.66066464 248.34020885 163.75550001 246.98764538 167.79418945 243.41113281 C169.73123169 239.53783273 169.36652204 235.68791822 169.29296875 231.421875 C169.28872391 230.4953009 169.28447906 229.56872681 169.28010559 228.61407471 C169.26333322 225.65908566 169.22568355 222.70478239 169.1875 219.75 C169.1724513 217.74480153 169.15876322 215.73959235 169.14648438 213.734375 C169.11343438 208.82265304 169.06166182 203.91144274 169 199 C167.78516857 198.88634848 167.78516857 198.88634848 166.52218628 200.37774658 Z " fill="#9CA3AE" transform="translate(66,0)"/>
<path d="M0 0 C0.94617188 -0.020625 1.89234375 -0.04125 2.8671875 -0.0625 C11.65927099 -0.11189373 11.65927099 -0.11189373 15.625 3.25 C17.67376888 7.34753777 16.85407799 12.62153757 16.875 17.125 C16.895625 18.22714844 16.91625 19.32929688 16.9375 20.46484375 C16.94523437 22.05619141 16.94523437 22.05619141 16.953125 23.6796875 C16.96714355 25.13737549 16.96714355 25.13737549 16.98144531 26.62451172 C16.56355721 29.70257242 15.77653901 31.03733056 13.625 33.25 C9.20269405 34.72410198 4.88271583 34.47495829 0.25 34.5 C-0.69617188 34.520625 -1.64234375 34.54125 -2.6171875 34.5625 C-7.6861761 34.59097746 -11.27028265 34.59458451 -15.375 31.25 C-18.02543651 28.59956349 -16.60990299 20.9416676 -16.625 17.375 C-16.645625 16.16457031 -16.66625 14.95414063 -16.6875 13.70703125 C-16.69265625 12.54816406 -16.6978125 11.38929688 -16.703125 10.1953125 C-16.7124707 9.12812988 -16.72181641 8.06094727 -16.73144531 6.96142578 C-16.375 4.25 -16.375 4.25 -15.04199219 2.44091797 C-10.61234123 -0.7236745 -5.19508473 0.02808154 0 0 Z M-8.375 9.25 C-8.375 14.53 -8.375 19.81 -8.375 25.25 C-2.765 25.25 2.845 25.25 8.625 25.25 C8.625 19.97 8.625 14.69 8.625 9.25 C3.015 9.25 -2.595 9.25 -8.375 9.25 Z " fill="#9CA3AF" transform="translate(204.375,139.75)"/>
<path d="M0 0 C1.54880859 -0.02320313 1.54880859 -0.02320313 3.12890625 -0.046875 C7.35647177 -0.02505531 10.73416046 0.19967077 14.6875 1.75 C17.78224786 6.44547951 17.13617841 11.52191391 17 17 C17.00386719 18.71123047 17.00386719 18.71123047 17.0078125 20.45703125 C16.89406724 30.13675289 16.89406724 30.13675289 13.5 33.5 C9.26810861 35.13479136 4.53625209 34.68410822 0.0625 34.6875 C-0.78376953 34.69974609 -1.63003906 34.71199219 -2.50195312 34.72460938 C-10.63128218 34.74370725 -10.63128218 34.74370725 -14.5 32.5 C-17.67454724 27.73817915 -16.90923149 22.66280503 -16.9375 17.0625 C-16.97037109 15.91716797 -17.00324219 14.77183594 -17.03710938 13.59179688 C-17.0898479 5.39814852 -17.0898479 5.39814852 -14.69140625 1.74609375 C-9.8041966 -0.16213132 -5.1999385 -0.0779017 0 0 Z M-8.5 9.5 C-8.5 14.78 -8.5 20.06 -8.5 25.5 C-2.89 25.5 2.72 25.5 8.5 25.5 C8.5 20.22 8.5 14.94 8.5 9.5 C2.89 9.5 -2.72 9.5 -8.5 9.5 Z " fill="#9CA3AF" transform="translate(153.5,138.5)"/>
<path d="M0 0 C1.54880859 -0.02320313 1.54880859 -0.02320313 3.12890625 -0.046875 C7.35647177 -0.02505531 10.73416046 0.19967077 14.6875 1.75 C17.78224786 6.44547951 17.13617841 11.52191391 17 17 C17.00386719 18.71123047 17.00386719 18.71123047 17.0078125 20.45703125 C16.89406724 30.13675289 16.89406724 30.13675289 13.5 33.5 C9.28643422 35.12101511 4.58008043 34.72283488 0.125 34.75 C-0.71289062 34.770625 -1.55078125 34.79125 -2.4140625 34.8125 C-7.52708589 34.84465738 -11.08783969 34.38541277 -15.5 31.5 C-17.61473089 27.27053822 -16.81807595 21.77207217 -16.875 17.125 C-16.91238281 15.97515625 -16.94976562 14.8253125 -16.98828125 13.640625 C-17.07494588 5.37859695 -17.07494588 5.37859695 -14.6953125 1.7421875 C-9.80539608 -0.15878245 -5.20026753 -0.07790663 0 0 Z M-8.5 9.5 C-8.5 14.78 -8.5 20.06 -8.5 25.5 C-2.89 25.5 2.72 25.5 8.5 25.5 C8.5 20.22 8.5 14.94 8.5 9.5 C2.89 9.5 -2.72 9.5 -8.5 9.5 Z " fill="#9CA3AE" transform="translate(102.5,138.5)"/>
<path d="M0 0 C1.54880859 -0.02320313 1.54880859 -0.02320313 3.12890625 -0.046875 C7.35647177 -0.02505531 10.73416046 0.19967077 14.6875 1.75 C17.78224786 6.44547951 17.13617841 11.52191391 17 17 C17.00386719 18.71123047 17.00386719 18.71123047 17.0078125 20.45703125 C16.89406724 30.13675289 16.89406724 30.13675289 13.5 33.5 C9.28643422 35.12101511 4.58008043 34.72283488 0.125 34.75 C-0.71289062 34.770625 -1.55078125 34.79125 -2.4140625 34.8125 C-7.52708589 34.84465738 -11.08783969 34.38541277 -15.5 31.5 C-17.61473089 27.27053822 -16.81807595 21.77207217 -16.875 17.125 C-16.91238281 15.97515625 -16.94976562 14.8253125 -16.98828125 13.640625 C-17.07494588 5.37859695 -17.07494588 5.37859695 -14.6953125 1.7421875 C-9.80539608 -0.15878245 -5.20026753 -0.07790663 0 0 Z M-8.5 9.5 C-8.5 14.78 -8.5 20.06 -8.5 25.5 C-2.89 25.5 2.72 25.5 8.5 25.5 C8.5 20.22 8.5 14.94 8.5 9.5 C2.89 9.5 -2.72 9.5 -8.5 9.5 Z " fill="#9CA3AF" transform="translate(51.5,138.5)"/>
<path d="M0 0 C1.64548828 -0.00773437 1.64548828 -0.00773437 3.32421875 -0.015625 C4.46503906 -0.00015625 5.60585937 0.0153125 6.78125 0.03125 C8.49248047 0.00804688 8.49248047 0.00804688 10.23828125 -0.015625 C11.33527344 -0.01046875 12.43226563 -0.0053125 13.5625 0 C15.06393555 0.00676758 15.06393555 0.00676758 16.59570312 0.01367188 C20.06256156 0.68183005 21.2266266 1.68159749 23.28125 4.53125 C23.79882812 7.21679688 23.79882812 7.21679688 23.8125 10.25 C23.82023437 11.89548828 23.82023437 11.89548828 23.828125 13.57421875 C23.81265625 14.71503906 23.7971875 15.85585937 23.78125 17.03125 C23.79671875 18.17207031 23.8121875 19.31289062 23.828125 20.48828125 C23.82296875 21.58527344 23.8178125 22.68226562 23.8125 23.8125 C23.80798828 24.81345703 23.80347656 25.81441406 23.79882812 26.84570312 C23.13066995 30.31256156 22.13090251 31.4766266 19.28125 33.53125 C16.59570312 34.04882812 16.59570312 34.04882812 13.5625 34.0625 C12.46550781 34.06765625 11.36851562 34.0728125 10.23828125 34.078125 C9.09746094 34.06265625 7.95664063 34.0471875 6.78125 34.03125 C5.64042969 34.04671875 4.49960938 34.0621875 3.32421875 34.078125 C2.22722656 34.07296875 1.13023437 34.0678125 0 34.0625 C-1.50143555 34.05573242 -1.50143555 34.05573242 -3.03320312 34.04882812 C-6.50006156 33.38066995 -7.6641266 32.38090251 -9.71875 29.53125 C-10.23632812 26.84570312 -10.23632812 26.84570312 -10.25 23.8125 C-10.25515625 22.71550781 -10.2603125 21.61851563 -10.265625 20.48828125 C-10.25015625 19.34746094 -10.2346875 18.20664063 -10.21875 17.03125 C-10.23421875 15.89042969 -10.2496875 14.74960938 -10.265625 13.57421875 C-10.26046875 12.47722656 -10.2553125 11.38023438 -10.25 10.25 C-10.24548828 9.24904297 -10.24097656 8.24808594 -10.23632812 7.21679688 C-9.10528407 1.34817208 -5.55177159 0.02502408 0 0 Z M-1.71875 8.53125 C-1.71875 14.14125 -1.71875 19.75125 -1.71875 25.53125 C3.89125 25.53125 9.50125 25.53125 15.28125 25.53125 C15.28125 19.92125 15.28125 14.31125 15.28125 8.53125 C9.67125 8.53125 4.06125 8.53125 -1.71875 8.53125 Z " fill="#9CA3AF" transform="translate(197.71875,92.46875)"/>
<path d="M0 0 C1.64548828 -0.00773437 1.64548828 -0.00773437 3.32421875 -0.015625 C4.46503906 -0.00015625 5.60585938 0.0153125 6.78125 0.03125 C8.49248047 0.00804688 8.49248047 0.00804688 10.23828125 -0.015625 C11.33527344 -0.01046875 12.43226562 -0.0053125 13.5625 0 C15.06393555 0.00676758 15.06393555 0.00676758 16.59570312 0.01367188 C20.06256156 0.68183005 21.2266266 1.68159749 23.28125 4.53125 C23.79882812 7.21679688 23.79882812 7.21679688 23.8125 10.25 C23.82023437 11.89548828 23.82023437 11.89548828 23.828125 13.57421875 C23.81265625 14.71503906 23.7971875 15.85585937 23.78125 17.03125 C23.79671875 18.17207031 23.8121875 19.31289062 23.828125 20.48828125 C23.82296875 21.58527344 23.8178125 22.68226562 23.8125 23.8125 C23.80798828 24.81345703 23.80347656 25.81441406 23.79882812 26.84570312 C23.13066995 30.31256156 22.13090251 31.4766266 19.28125 33.53125 C16.59570312 34.04882812 16.59570312 34.04882812 13.5625 34.0625 C12.46550781 34.06765625 11.36851563 34.0728125 10.23828125 34.078125 C9.09746094 34.06265625 7.95664062 34.0471875 6.78125 34.03125 C5.64042969 34.04671875 4.49960937 34.0621875 3.32421875 34.078125 C2.22722656 34.07296875 1.13023438 34.0678125 0 34.0625 C-1.50143555 34.05573242 -1.50143555 34.05573242 -3.03320312 34.04882812 C-6.50006156 33.38066995 -7.6641266 32.38090251 -9.71875 29.53125 C-10.23632812 26.84570312 -10.23632812 26.84570312 -10.25 23.8125 C-10.25515625 22.71550781 -10.2603125 21.61851563 -10.265625 20.48828125 C-10.25015625 19.34746094 -10.2346875 18.20664063 -10.21875 17.03125 C-10.23421875 15.89042969 -10.2496875 14.74960938 -10.265625 13.57421875 C-10.26046875 12.47722656 -10.2553125 11.38023438 -10.25 10.25 C-10.24548828 9.24904297 -10.24097656 8.24808594 -10.23632812 7.21679688 C-9.10528407 1.34817208 -5.55177159 0.02502408 0 0 Z M-1.71875 8.53125 C-1.71875 14.14125 -1.71875 19.75125 -1.71875 25.53125 C3.89125 25.53125 9.50125 25.53125 15.28125 25.53125 C15.28125 19.92125 15.28125 14.31125 15.28125 8.53125 C9.67125 8.53125 4.06125 8.53125 -1.71875 8.53125 Z " fill="#9CA3AF" transform="translate(44.71875,92.46875)"/>
<path d="M0 0 C1.64548828 -0.00773438 1.64548828 -0.00773438 3.32421875 -0.015625 C4.46503906 -0.00015625 5.60585937 0.0153125 6.78125 0.03125 C8.49248047 0.00804687 8.49248047 0.00804687 10.23828125 -0.015625 C11.33527344 -0.01046875 12.43226562 -0.0053125 13.5625 0 C15.06393555 0.00676758 15.06393555 0.00676758 16.59570312 0.01367188 C20.0625874 0.68183503 21.22493439 1.68298511 23.28125 4.53125 C24.10114614 8.65887358 23.88408893 12.83125588 23.84375 17.03125 C23.87952148 18.74248047 23.87952148 18.74248047 23.91601562 20.48828125 C23.90173201 28.59185358 23.90173201 28.59185358 21.46484375 32.28125 C16.58255965 34.19822044 11.979205 34.10912199 6.78125 34.03125 C5.74871094 34.04671875 4.71617188 34.0621875 3.65234375 34.078125 C-0.5739343 34.05631195 -3.95082243 33.83276757 -7.90234375 32.28125 C-11.00430127 27.58495302 -10.39589887 22.51580387 -10.28125 17.03125 C-10.29220703 15.89042969 -10.30316406 14.74960938 -10.31445312 13.57421875 C-10.24113291 5.25481835 -10.24113291 5.25481835 -8.04077148 2.20703125 C-5.1571155 0.12592362 -3.53415176 0.01592985 0 0 Z M-1.71875 8.53125 C-1.71875 14.14125 -1.71875 19.75125 -1.71875 25.53125 C3.89125 25.53125 9.50125 25.53125 15.28125 25.53125 C15.28125 19.92125 15.28125 14.31125 15.28125 8.53125 C9.67125 8.53125 4.06125 8.53125 -1.71875 8.53125 Z " fill="#9CA3AE" transform="translate(95.71875,185.46875)"/>
<path d="M0 0 C1.64548828 -0.00773438 1.64548828 -0.00773438 3.32421875 -0.015625 C4.46503906 -0.00015625 5.60585938 0.0153125 6.78125 0.03125 C8.49248047 0.00804687 8.49248047 0.00804687 10.23828125 -0.015625 C11.33527344 -0.01046875 12.43226562 -0.0053125 13.5625 0 C15.06393555 0.00676758 15.06393555 0.00676758 16.59570312 0.01367188 C20.0625874 0.68183503 21.22493439 1.68298511 23.28125 4.53125 C24.10114614 8.65887358 23.88408893 12.83125588 23.84375 17.03125 C23.87952148 18.74248047 23.87952148 18.74248047 23.91601562 20.48828125 C23.90173201 28.59185358 23.90173201 28.59185358 21.46484375 32.28125 C16.58255965 34.19822044 11.979205 34.10912199 6.78125 34.03125 C5.74871094 34.04671875 4.71617188 34.0621875 3.65234375 34.078125 C-0.5739343 34.05631195 -3.95082243 33.83276757 -7.90234375 32.28125 C-11.00430127 27.58495302 -10.39589887 22.51580387 -10.28125 17.03125 C-10.29220703 15.89042969 -10.30316406 14.74960938 -10.31445312 13.57421875 C-10.24113291 5.25481835 -10.24113291 5.25481835 -8.04077148 2.20703125 C-5.1571155 0.12592362 -3.53415176 0.01592985 0 0 Z M-1.71875 8.53125 C-1.71875 14.14125 -1.71875 19.75125 -1.71875 25.53125 C3.89125 25.53125 9.50125 25.53125 15.28125 25.53125 C15.28125 19.92125 15.28125 14.31125 15.28125 8.53125 C9.67125 8.53125 4.06125 8.53125 -1.71875 8.53125 Z " fill="#9CA3AE" transform="translate(44.71875,185.46875)"/>
<path d="M0 0 C1.64548828 -0.00773437 1.64548828 -0.00773437 3.32421875 -0.015625 C4.46503906 -0.00015625 5.60585937 0.0153125 6.78125 0.03125 C8.49248047 0.00804688 8.49248047 0.00804688 10.23828125 -0.015625 C11.33527344 -0.01046875 12.43226563 -0.0053125 13.5625 0 C15.06393555 0.00676758 15.06393555 0.00676758 16.59570312 0.01367188 C20.06256156 0.68183005 21.2266266 1.68159749 23.28125 4.53125 C23.79882812 7.21679688 23.79882812 7.21679688 23.8125 10.25 C23.82023437 11.89548828 23.82023437 11.89548828 23.828125 13.57421875 C23.81265625 14.71503906 23.7971875 15.85585937 23.78125 17.03125 C23.79671875 18.17207031 23.8121875 19.31289062 23.828125 20.48828125 C23.82296875 21.58527344 23.8178125 22.68226562 23.8125 23.8125 C23.80798828 24.81345703 23.80347656 25.81441406 23.79882812 26.84570312 C23.13066995 30.31256156 22.13090251 31.4766266 19.28125 33.53125 C16.59570312 34.04882812 16.59570312 34.04882812 13.5625 34.0625 C12.46550781 34.06765625 11.36851562 34.0728125 10.23828125 34.078125 C9.09746094 34.06265625 7.95664063 34.0471875 6.78125 34.03125 C5.64042969 34.04671875 4.49960938 34.0621875 3.32421875 34.078125 C2.22722656 34.07296875 1.13023437 34.0678125 0 34.0625 C-1.50143555 34.05573242 -1.50143555 34.05573242 -3.03320312 34.04882812 C-6.50006156 33.38066995 -7.6641266 32.38090251 -9.71875 29.53125 C-10.23632812 26.84570312 -10.23632812 26.84570312 -10.25 23.8125 C-10.25515625 22.71550781 -10.2603125 21.61851563 -10.265625 20.48828125 C-10.25015625 19.34746094 -10.2346875 18.20664063 -10.21875 17.03125 C-10.23421875 15.89042969 -10.2496875 14.74960938 -10.265625 13.57421875 C-10.26046875 12.47722656 -10.2553125 11.38023438 -10.25 10.25 C-10.24548828 9.24904297 -10.24097656 8.24808594 -10.23632812 7.21679688 C-9.10528407 1.34817208 -5.55177159 0.02502408 0 0 Z M-1.71875 8.53125 C-1.71875 14.14125 -1.71875 19.75125 -1.71875 25.53125 C3.89125 25.53125 9.50125 25.53125 15.28125 25.53125 C15.28125 19.92125 15.28125 14.31125 15.28125 8.53125 C9.67125 8.53125 4.06125 8.53125 -1.71875 8.53125 Z " fill="#9CA3AF" transform="translate(146.71875,92.46875)"/>
<path d="M0 0 C1.64548828 -0.00773437 1.64548828 -0.00773437 3.32421875 -0.015625 C4.46503906 -0.00015625 5.60585937 0.0153125 6.78125 0.03125 C8.49248047 0.00804688 8.49248047 0.00804688 10.23828125 -0.015625 C11.33527344 -0.01046875 12.43226562 -0.0053125 13.5625 0 C15.06393555 0.00676758 15.06393555 0.00676758 16.59570312 0.01367188 C20.06256156 0.68183005 21.2266266 1.68159749 23.28125 4.53125 C23.79882812 7.21679688 23.79882812 7.21679688 23.8125 10.25 C23.82023437 11.89548828 23.82023437 11.89548828 23.828125 13.57421875 C23.81265625 14.71503906 23.7971875 15.85585937 23.78125 17.03125 C23.79671875 18.17207031 23.8121875 19.31289062 23.828125 20.48828125 C23.82296875 21.58527344 23.8178125 22.68226562 23.8125 23.8125 C23.80798828 24.81345703 23.80347656 25.81441406 23.79882812 26.84570312 C23.13066995 30.31256156 22.13090251 31.4766266 19.28125 33.53125 C16.59570312 34.04882812 16.59570312 34.04882812 13.5625 34.0625 C12.46550781 34.06765625 11.36851563 34.0728125 10.23828125 34.078125 C9.09746094 34.06265625 7.95664063 34.0471875 6.78125 34.03125 C5.64042969 34.04671875 4.49960938 34.0621875 3.32421875 34.078125 C2.22722656 34.07296875 1.13023438 34.0678125 0 34.0625 C-1.50143555 34.05573242 -1.50143555 34.05573242 -3.03320312 34.04882812 C-6.50006156 33.38066995 -7.6641266 32.38090251 -9.71875 29.53125 C-10.23632812 26.84570312 -10.23632812 26.84570312 -10.25 23.8125 C-10.25515625 22.71550781 -10.2603125 21.61851563 -10.265625 20.48828125 C-10.25015625 19.34746094 -10.2346875 18.20664063 -10.21875 17.03125 C-10.23421875 15.89042969 -10.2496875 14.74960938 -10.265625 13.57421875 C-10.26046875 12.47722656 -10.2553125 11.38023438 -10.25 10.25 C-10.24548828 9.24904297 -10.24097656 8.24808594 -10.23632812 7.21679688 C-9.10528407 1.34817208 -5.55177159 0.02502408 0 0 Z M-1.71875 8.53125 C-1.71875 14.14125 -1.71875 19.75125 -1.71875 25.53125 C3.89125 25.53125 9.50125 25.53125 15.28125 25.53125 C15.28125 19.92125 15.28125 14.31125 15.28125 8.53125 C9.67125 8.53125 4.06125 8.53125 -1.71875 8.53125 Z " fill="#9CA3AF" transform="translate(95.71875,92.46875)"/>
<path d="M0 0 C1.64548828 -0.00773438 1.64548828 -0.00773438 3.32421875 -0.015625 C4.46503906 -0.00015625 5.60585937 0.0153125 6.78125 0.03125 C8.49248047 0.00804687 8.49248047 0.00804687 10.23828125 -0.015625 C11.33527344 -0.01046875 12.43226563 -0.0053125 13.5625 0 C15.06393555 0.00676758 15.06393555 0.00676758 16.59570312 0.01367188 C20.0625874 0.68183503 21.22493439 1.68298511 23.28125 4.53125 C24.10114614 8.65887358 23.88408893 12.83125588 23.84375 17.03125 C23.87952148 18.74248047 23.87952148 18.74248047 23.91601562 20.48828125 C23.90173201 28.59185358 23.90173201 28.59185358 21.46484375 32.28125 C16.58255965 34.19822044 11.979205 34.10912199 6.78125 34.03125 C5.74871094 34.04671875 4.71617187 34.0621875 3.65234375 34.078125 C-0.9012507 34.05462258 -3.89805341 33.99220291 -7.91796875 31.734375 C-10.43468041 28.65536116 -10.0895111 26.38716542 -9.71875 22.53125 C-7.73875 22.20125 -5.75875 21.87125 -3.71875 21.53125 C-3.05875 22.85125 -2.39875 24.17125 -1.71875 25.53125 C3.89125 25.53125 9.50125 25.53125 15.28125 25.53125 C15.28125 19.92125 15.28125 14.31125 15.28125 8.53125 C9.67125 8.53125 4.06125 8.53125 -1.71875 8.53125 C-1.71875 10.84125 -1.71875 13.15125 -1.71875 15.53125 C-2.37875 16.19125 -3.03875 16.85125 -3.71875 17.53125 C-8.27430556 16.97569444 -8.27430556 16.97569444 -9.71875 15.53125 C-9.95703125 13.16796875 -9.95703125 13.16796875 -10.03125 10.21875 C-10.06863281 9.25324219 -10.10601562 8.28773438 -10.14453125 7.29296875 C-9.24245944 1.44191584 -5.45925996 0.0246071 0 0 Z " fill="#9CA3AE" transform="translate(146.71875,185.46875)"/>
</svg>
