<?xml version="1.0" encoding="UTF-8"?>
<svg version="1.1" xmlns="http://www.w3.org/2000/svg" width="256" height="256">
<path d="M0 0 C1.35776433 -0.00679667 1.35776433 -0.00679667 2.74295825 -0.01373065 C5.77674469 -0.02639316 8.81035204 -0.02475307 11.84416199 -0.02310181 C14.01908601 -0.02908591 16.19400791 -0.03589118 18.368927 -0.04345703 C24.27808187 -0.06113653 30.18717883 -0.06581325 36.09635758 -0.0670886 C41.0292372 -0.06898739 45.96210332 -0.07634473 50.89497775 -0.08343279 C62.53364507 -0.09972186 74.17228145 -0.10460128 85.81095886 -0.10317993 C97.81645344 -0.10197844 109.82174323 -0.12308076 121.82719499 -0.15466726 C132.13477512 -0.18082014 142.44229652 -0.19154763 152.74990958 -0.19026911 C158.90602827 -0.18975918 165.06198725 -0.19545984 171.21807289 -0.21662521 C177.00883801 -0.23599071 182.79929077 -0.23614337 188.59006691 -0.22159195 C190.71367855 -0.21950066 192.83730965 -0.22422376 194.96088791 -0.23631287 C197.86369618 -0.25176574 200.76542754 -0.24245658 203.66821289 -0.22705078 C204.50529008 -0.23733791 205.34236727 -0.24762503 206.20481044 -0.25822389 C212.9627025 -0.17916055 218.15925261 1.7565185 223.26676941 6.23226929 C223.80559753 6.88324585 224.34442566 7.53422241 224.89958191 8.20492554 C225.45387878 8.85332397 226.00817566 9.50172241 226.57926941 10.16976929 C229.70237706 14.7024958 230.27670427 18.58756837 230.29200745 24.04093933 C230.29653856 24.70926952 230.30106967 25.3775997 230.30573809 26.06618232 C230.31836575 28.29845476 230.31676281 30.53048272 230.31510925 32.76278687 C230.32109557 34.36629041 230.32790135 35.96979108 230.33546448 37.57328796 C230.35312206 41.92464536 230.35781978 46.27592409 230.35909605 50.62731385 C230.36051844 53.34760177 230.36478972 56.06786974 230.37009048 58.78815269 C230.38859054 68.28329105 230.3967612 77.77837327 230.39518738 87.27352905 C230.39398625 96.11621178 230.41508299 104.95865031 230.4466747 113.80127126 C230.47285146 121.39974736 230.48355407 128.99814378 230.48227656 136.59666461 C230.4817673 141.13195709 230.48743033 145.66703258 230.50863266 150.20228004 C230.52803846 154.46972088 230.52812366 158.73673824 230.5135994 163.00419426 C230.51151303 164.56663763 230.51620193 166.12910767 230.52832031 167.69150543 C230.59585226 177.00463284 230.47548232 184.18826682 224.05973816 191.50961304 C223.4087616 192.04844116 222.75778503 192.58726929 222.08708191 193.14242554 C221.43868347 193.69672241 220.79028503 194.25101929 220.12223816 194.82211304 C215.53704193 197.98137301 211.48616917 198.54074671 205.97380066 198.68148804 C205.31499405 198.70085419 204.65618744 198.72022034 203.97741699 198.74017334 C201.88910048 198.79958495 199.80072767 198.84619845 197.71208191 198.89242554 C196.28953286 198.93064086 194.86700606 198.96969463 193.44450378 199.00961304 C189.97140117 199.1052535 186.49813059 199.18942527 183.02458191 199.26742554 C183.35458191 200.25742554 183.68458191 201.24742554 184.02458191 202.26742554 C184.6893387 209.72141972 184.66891836 215.24234041 180.02458191 221.26742554 C175.56844319 225.39750532 172.37859869 226.38954479 166.39598083 226.41459656 C164.63799667 226.42532951 164.63799667 226.42532951 162.84449768 226.4362793 C160.9135173 226.44031265 160.9135173 226.44031265 158.94352722 226.44442749 C157.57514778 226.45069349 156.20677005 226.45734042 154.83839417 226.46434021 C150.3431771 226.48536757 145.84795975 226.49574167 141.35270691 226.50570679 C139.80415072 226.5097549 138.25559471 226.51387184 136.70703888 226.51805687 C129.4310925 226.537106 122.15515625 226.55133735 114.87918973 226.55966884 C106.48559558 226.56943923 98.09226528 226.59575456 89.69876409 226.63616973 C83.20777517 226.66634958 76.7168618 226.6811395 70.22580409 226.68444985 C66.35055885 226.68679832 62.47559558 226.6957318 58.60042572 226.72091103 C54.95269916 226.74422962 51.30543946 226.7484101 47.65765762 226.73814964 C45.68732449 226.73741998 43.71701488 226.7564848 41.7467804 226.7762146 C34.95224264 226.73634198 30.49921187 226.43578474 25.02458191 222.26742554 C20.77864664 217.68628485 19.88449841 214.42149468 19.89958191 208.26742554 C19.89571472 206.68961304 19.89571472 206.68961304 19.89176941 205.07992554 C20.02458191 202.26742554 20.02458191 202.26742554 21.02458191 199.26742554 C19.72424011 199.25340698 19.72424011 199.25340698 18.39762878 199.23910522 C15.1468245 199.19479977 11.89692564 199.13305601 8.64665222 199.05990601 C7.2463823 199.03187483 5.8459594 199.01057237 4.44548035 198.99642944 C-4.80180749 198.8974927 -11.97058687 198.65319227 -19.21760559 192.30258179 C-20.02584778 191.32611694 -20.02584778 191.32611694 -20.85041809 190.32992554 C-21.40471497 189.6815271 -21.95901184 189.03312866 -22.53010559 188.36508179 C-25.65321324 183.83235528 -26.22754046 179.94728271 -26.24284363 174.49391174 C-26.24737474 173.82558156 -26.25190585 173.15725137 -26.25657427 172.46866876 C-26.26920194 170.23639631 -26.26759899 168.00436835 -26.26594543 165.77206421 C-26.27193175 164.16856066 -26.27873753 162.56506 -26.28630066 160.96156311 C-26.30395824 156.61020571 -26.30865596 152.25892699 -26.30993223 147.90753722 C-26.31135462 145.1872493 -26.3156259 142.46698134 -26.32092667 139.74669838 C-26.33942672 130.25156003 -26.34759738 120.7564778 -26.34602356 111.26132202 C-26.34482243 102.41863929 -26.36591917 93.57620076 -26.39751089 84.73357981 C-26.42368764 77.13510372 -26.43439026 69.5367073 -26.43311274 61.93818647 C-26.43260348 57.40289398 -26.43826651 52.8678185 -26.45946884 48.33257103 C-26.47887465 44.0651302 -26.47895984 39.79811284 -26.46443558 35.53065681 C-26.46234922 33.96821344 -26.46703812 32.40574341 -26.47915649 30.84334564 C-26.54668844 21.53021824 -26.4263185 14.34658426 -20.01057434 7.02523804 C-19.35959778 6.48640991 -18.70862122 5.94758179 -18.03791809 5.39242554 C-17.38951965 4.83812866 -16.74112122 4.28383179 -16.07307434 3.71273804 C-10.83131246 0.10109577 -6.1589031 -0.02260734 0 0 Z M-7.97541809 19.26742554 C-10.15177811 22.94598444 -10.22820469 26.30863091 -10.2361145 30.52290344 C-10.24319931 31.78322891 -10.25028412 33.04355438 -10.25758362 34.34207153 C-10.25529 35.73117101 -10.25278033 37.12027015 -10.25007629 38.5093689 C-10.25442542 39.97818765 -10.25960924 41.44700414 -10.26556396 42.91581726 C-10.27894334 46.89929369 -10.27953384 50.88267518 -10.27700067 54.86616969 C-10.27593028 58.19371731 -10.28081604 61.52124577 -10.28560609 64.84878927 C-10.29669751 72.69985646 -10.29714067 80.5508758 -10.29109192 88.40194702 C-10.28505096 96.49709836 -10.29736703 104.59207593 -10.31866199 112.68719763 C-10.33628323 119.64191067 -10.34227854 126.59656843 -10.33902425 133.55130297 C-10.33721214 137.70307774 -10.33984028 141.85472855 -10.35373878 146.00648308 C-10.36632113 149.91109028 -10.36436932 153.81542675 -10.3513279 157.72002983 C-10.34896347 159.1510782 -10.35169204 160.58214566 -10.35995102 162.01317215 C-10.37043043 163.97041106 -10.36050853 165.9277272 -10.34963989 167.88496399 C-10.34980763 168.97909072 -10.34997538 170.07321745 -10.3501482 171.20049953 C-9.90336622 174.85712394 -8.99665696 177.18763279 -6.97541809 180.26742554 C-2.84041764 182.86977695 1.739614 182.55079019 6.48196411 182.52812195 C7.33138173 182.5319475 8.18079935 182.53577304 9.0559569 182.53971452 C11.90094897 182.55002965 14.74573866 182.54605519 17.59074402 182.54208374 C19.63098335 182.54643102 21.67122104 182.55161422 23.7114563 182.55757141 C29.25272705 182.57097054 34.79392963 182.57153908 40.33521342 182.56900811 C44.96010023 182.56793908 49.5849732 182.57282001 54.20985705 182.57761353 C65.11970748 182.58871176 76.02952348 182.58914426 86.93937683 182.58309937 C98.19734042 182.57705755 109.45517908 182.58937518 120.71312135 182.61066943 C130.37693833 182.62827685 140.04071551 182.63428817 149.70454794 182.63103169 C155.47715848 182.62921741 161.2496799 182.63186956 167.02227592 182.64574623 C172.45021745 182.65830601 177.87796401 182.65639792 183.30590248 182.64333534 C185.29812053 182.64096603 187.29035222 182.64371691 189.28255463 182.65195847 C192.00200225 182.66239748 194.72079221 182.65434814 197.44021606 182.64164734 C198.22864566 182.64902162 199.01707526 182.65639591 199.82939667 182.66399366 C204.62139287 182.61690707 208.05280878 182.01264722 212.02458191 179.26742554 C214.20094193 175.58886663 214.27736851 172.22622017 214.28527832 168.01194763 C214.29236313 166.75162216 214.29944794 165.49129669 214.30674744 164.19277954 C214.30445382 162.80368006 214.30194415 161.41458092 214.29924011 160.02548218 C214.30358924 158.55666342 214.30877306 157.08784694 214.31472778 155.61903381 C214.32810716 151.63555739 214.32869766 147.6521759 214.32616448 143.66868138 C214.32509409 140.34113377 214.32997986 137.01360531 214.3347699 133.6860618 C214.34586133 125.83499462 214.34630449 117.98397528 214.34025574 110.13290405 C214.33421478 102.03775272 214.34653085 93.94277514 214.36782581 85.84765345 C214.38544705 78.89294041 214.39144236 71.93828265 214.38818806 64.9835481 C214.38637596 60.83177333 214.3890041 56.68012253 214.4029026 52.528368 C214.41548495 48.62376079 214.41353314 44.71942432 214.40049171 40.81482124 C214.39812729 39.38377287 214.40085586 37.95270542 214.40911484 36.52167892 C214.41959425 34.56444001 214.40967235 32.60712387 214.39880371 30.64988708 C214.39897145 29.55576035 214.39913919 28.46163363 214.39931202 27.33435154 C213.95253004 23.67772714 213.04582078 21.34721829 211.02458191 18.26742554 C206.88958146 15.66507413 202.30954982 15.98406089 197.56719971 16.00672913 C196.29307328 16.00099081 196.29307328 16.00099081 194.99320692 15.99513656 C192.14821485 15.98482142 189.30342515 15.98879589 186.4584198 15.99276733 C184.41818047 15.98842005 182.37794278 15.98323685 180.33770752 15.97727966 C174.79643677 15.96388053 169.25523419 15.96331199 163.7139504 15.96584296 C159.08906359 15.966912 154.46419062 15.96203106 149.83930677 15.95723754 C138.92945634 15.94613931 128.01964034 15.94570681 117.10978699 15.95175171 C105.8518234 15.95779352 94.59398473 15.94547589 83.33604246 15.92418164 C73.67222549 15.90657422 64.00844831 15.9005629 54.34461588 15.90381938 C48.57200534 15.90563366 42.79948392 15.90298152 37.02688789 15.88910484 C31.59894637 15.87654506 26.17119981 15.87845315 20.74326134 15.89151573 C18.75104329 15.89388505 16.7588116 15.89113416 14.76660919 15.88289261 C12.04716157 15.8724536 9.32837161 15.88050294 6.60894775 15.89320374 C5.42630336 15.88214231 5.42630336 15.88214231 4.21976715 15.87085742 C-0.57222905 15.917944 -4.00364496 16.52220386 -7.97541809 19.26742554 Z M38.02458191 206.26742554 C38.02458191 207.58742554 38.02458191 208.90742554 38.02458191 210.26742554 C80.26458191 210.26742554 122.50458191 210.26742554 166.02458191 210.26742554 C166.02458191 208.94742554 166.02458191 207.62742554 166.02458191 206.26742554 C123.78458191 206.26742554 81.54458191 206.26742554 38.02458191 206.26742554 Z " fill="#FFFFFF" transform="translate(25.975418090820313,14.732574462890625)"/>
<path d="M0 0 C9.04981142 6.67897759 16.05301099 16.0733116 18.234375 27.23828125 C19.34652577 38.43523027 18.9458504 48.88986207 14.234375 59.23828125 C14.80414063 59.47675781 15.37390625 59.71523437 15.9609375 59.9609375 C28.07443996 66.76697754 33.94733632 82.42660545 37.76708984 94.99047852 C38.86748063 100.28373763 38.50632786 105.85362122 38.546875 111.23828125 C38.57587891 112.5221875 38.60488281 113.80609375 38.63476562 115.12890625 C38.64314453 116.36125 38.65152344 117.59359375 38.66015625 118.86328125 C38.68203003 120.55324219 38.68203003 120.55324219 38.7043457 122.27734375 C38.11886895 125.96599937 37.10392679 126.91788951 34.234375 129.23828125 C31.87927246 129.74164581 31.87927246 129.74164581 29.22460938 129.74621582 C28.21519287 129.75749512 27.20577637 129.76877441 26.16577148 129.78039551 C24.51363647 129.76825012 24.51363647 129.76825012 22.828125 129.75585938 C21.6635376 129.76286865 20.4989502 129.76987793 19.29907227 129.77709961 C15.44393167 129.79472557 11.58952326 129.78303966 7.734375 129.76953125 C5.05923547 129.77222482 2.38411831 129.77609978 -0.29101562 129.78112793 C-5.8998205 129.78840322 -11.50841463 129.77881996 -17.1171875 129.75976562 C-23.59980407 129.73799682 -30.08191742 129.7450483 -36.56452179 129.76707125 C-42.13239089 129.78522884 -47.70010859 129.78778191 -53.26799774 129.77731657 C-56.5925817 129.77108347 -59.91687752 129.77181323 -63.24145508 129.78346252 C-66.94777657 129.79359873 -70.65312607 129.7781661 -74.359375 129.75585938 C-75.46079834 129.7639563 -76.56222168 129.77205322 -77.69702148 129.78039551 C-78.70643799 129.76911621 -79.71585449 129.75783691 -80.75585938 129.74621582 C-81.63189819 129.74470772 -82.50793701 129.74319962 -83.41052246 129.74164581 C-86.56384333 129.06767517 -87.77443489 127.72186995 -89.765625 125.23828125 C-90.28320312 122.42016602 -90.28320312 122.42016602 -90.296875 119.1796875 C-90.30203125 117.98794922 -90.3071875 116.79621094 -90.3125 115.56835938 C-90.29703125 114.32505859 -90.2815625 113.08175781 -90.265625 111.80078125 C-90.28109375 110.59228516 -90.2965625 109.38378906 -90.3125 108.13867188 C-90.23344344 89.68884684 -82.69556227 74.53373647 -70.12109375 61.40625 C-67.765625 59.23828125 -67.765625 59.23828125 -65.765625 59.23828125 C-66.19875 58.28695312 -66.19875 58.28695312 -66.640625 57.31640625 C-71.26765369 45.68457024 -71.91631711 32.00255188 -67.765625 20.11328125 C-62.3561957 8.29436009 -53.70425387 0.10674602 -41.890625 -5.19921875 C-27.97231306 -9.74639452 -12.22891205 -7.78988607 0 0 Z M-46.703125 19.11328125 C-52.98436694 27.11297618 -53.93626783 34.13023064 -52.765625 44.23828125 C-50.16461154 53.12507725 -44.30210368 58.42566447 -36.640625 63.17578125 C-29.33463839 65.83402352 -20.35006664 65.41640774 -13.328125 62.23828125 C-7.2551942 58.7023972 -1.65401469 53.131607 0.79296875 46.40625 C2.49857831 38.02914111 2.1957356 29.88695991 -2.1484375 22.42578125 C-6.22278131 16.91459156 -11.87561749 11.64111161 -18.765625 10.23828125 C-30.11728501 9.00470647 -38.75934643 10.60681836 -46.703125 19.11328125 Z M-54.765625 71.23828125 C-68.52853945 83.53242617 -72.3596346 94.960406 -73.765625 113.23828125 C-42.085625 113.23828125 -10.405625 113.23828125 22.234375 113.23828125 C20.81859333 94.83311951 16.64686721 83.55005221 3.234375 71.23828125 C2.62851563 71.63660156 2.02265625 72.03492187 1.3984375 72.4453125 C-11.00805194 80.29003121 -23.86539061 82.47114865 -38.3125 79.51171875 C-44.4033452 77.610262 -49.53241419 74.86127335 -54.765625 71.23828125 Z " fill="#FFFFFF" transform="translate(153.765625,41.76171875)"/>
<path d="M0 0 C42.24 0 84.48 0 128 0 C128 5.28 128 10.56 128 16 C85.76 16 43.52 16 0 16 C0 10.72 0 5.44 0 0 Z " fill="#FFFFFF" transform="translate(64,175)"/>
</svg>
