<?xml version="1.0" encoding="UTF-8"?>
<svg version="1.1" xmlns="http://www.w3.org/2000/svg" width="256" height="256">
<path d="M0 0 C1.03447266 -0.02900391 2.06894531 -0.05800781 3.13476562 -0.08789062 C13.9076194 -0.17558449 23.55732116 2.72417963 31.4375 10.3125 C33.6004199 12.87836215 35.56997571 15.52536147 37.4375 18.3125 C37.89898437 17.87679687 38.36046875 17.44109375 38.8359375 16.9921875 C52.70998941 4.32457489 67.48013163 0.12652361 85.9934082 0.07226562 C87.97033819 0.06264436 89.94712546 0.03148556 91.92382812 0 C109.33952138 -0.06990745 123.23302846 4.32999547 136.4765625 15.7734375 C138.28425025 17.51830208 138.28425025 17.51830208 140.4375 17.3125 C141.70539786 15.71552831 141.70539786 15.71552831 143 13.6875 C148.3409036 6.36320258 155.70321671 2.35785445 164.4375 0.3125 C168.40587806 -0.11526878 172.32398002 -0.15273307 176.3125 -0.125 C177.32441406 -0.14498047 178.33632812 -0.16496094 179.37890625 -0.18554688 C190.05821919 -0.17870993 199.60940947 2.8620805 207.4375 10.3125 C216.16731993 19.87562092 216.90435167 29.32589331 216.87109375 41.7578125 C216.87566184 43.25658402 216.88096927 44.75535344 216.88697815 46.25411987 C216.89587552 49.38255369 216.89352297 52.51073173 216.88354492 55.63916016 C216.87202881 59.63840908 216.89232326 63.63677847 216.92146206 67.63591194 C216.9398426 70.72612053 216.93952851 73.8161187 216.93382454 76.90636826 C216.93367171 78.38069777 216.93968402 79.85504189 216.95211601 81.329319 C216.96706991 83.39214058 216.95632193 85.45334091 216.93920898 87.51611328 C216.93895973 89.27195236 216.93895973 89.27195236 216.93870544 91.06326294 C216.2037277 95.82800951 213.96223431 98.97258197 210.375 102.125 C207.07024389 104.15049568 204.38225624 104.4357513 200.59887695 104.42602539 C199.12769157 104.42591209 199.12769157 104.42591209 197.62678528 104.42579651 C196.57045395 104.42063522 195.51412262 104.41547394 194.42578125 104.41015625 C193.34241989 104.4087413 192.25905853 104.40732635 191.14286804 104.40586853 C187.67855075 104.40026559 184.2142978 104.38771258 180.75 104.375 C178.40299572 104.36998538 176.05599044 104.36542241 173.70898438 104.36132812 C167.95180092 104.35029521 162.19465506 104.3335542 156.4375 104.3125 C156.25429199 104.92810791 156.07108398 105.54371582 155.88232422 106.17797852 C155.6298291 106.98678467 155.37733398 107.79559082 155.1171875 108.62890625 C154.74956299 109.83075562 154.74956299 109.83075562 154.37451172 111.05688477 C152.59911447 115.33069799 149.39997656 117.24820952 145.38935852 119.42324829 C140.96896064 120.75489964 136.67549539 120.60727791 132.08276367 120.60302734 C131.04149826 120.60974457 130.00023285 120.61646179 128.92741394 120.62338257 C125.48671693 120.64237306 122.0462149 120.6462874 118.60546875 120.6484375 C116.21039246 120.65486493 113.81531695 120.66159325 111.42024231 120.66860962 C106.39920227 120.6805852 101.37823105 120.68429017 96.35717773 120.68310547 C89.93121755 120.68290232 83.50569984 120.71019914 77.07984447 120.74464989 C72.13236983 120.76691555 67.18500169 120.77094309 62.23748207 120.76988602 C59.86886381 120.77224267 57.50024265 120.78106977 55.13167381 120.79655075 C51.81427641 120.8162021 48.49783353 120.81037513 45.18041992 120.79833984 C44.20715759 120.80957886 43.23389526 120.82081787 42.23114014 120.83239746 C34.88855709 120.76489417 29.39817877 119.19526617 24.0625 114 C22.16907919 110.86857327 21.38653085 107.83216658 20.4375 104.3125 C19.83694794 104.31916183 19.23639587 104.32582367 18.61764526 104.33268738 C12.35582849 104.39916078 6.0941123 104.44435047 -0.16796875 104.47729492 C-2.50362216 104.49236261 -4.83924737 104.51282049 -7.17480469 104.53881836 C-10.53587819 104.57528958 -13.89657692 104.5922469 -17.2578125 104.60546875 C-18.29865997 104.62095261 -19.33950745 104.63643646 -20.41189575 104.65238953 C-27.17319508 104.65395196 -31.61008686 103.86593839 -36.875 99.3125 C-39.9031795 95.72354652 -39.70150175 92.40940184 -39.73950195 87.88842773 C-39.74607315 87.24080978 -39.75264435 86.59319183 -39.75941467 85.9259491 C-39.77912087 83.78266269 -39.7908084 81.63944651 -39.80078125 79.49609375 C-39.80689454 78.39362147 -39.80689454 78.39362147 -39.81313133 77.26887703 C-39.83398744 73.37350879 -39.8482873 69.47817565 -39.85766602 65.58276367 C-39.8686888 61.58048056 -39.90304124 57.57875983 -39.94283772 53.57667446 C-39.96913408 50.48205108 -39.97736962 47.38755858 -39.98094749 44.29283333 C-39.98578529 42.81899306 -39.99731815 41.34515752 -40.01598549 39.87142754 C-40.16010045 27.73286218 -38.52334294 18.41196507 -29.984375 9.359375 C-20.81858279 1.61280223 -11.50444505 0.10477637 0 0 Z M-20.4375 23.0625 C-25.2635944 30.44358556 -24.83503823 38.37842011 -24.7578125 46.90625 C-24.7549826 48.09351685 -24.75215271 49.28078369 -24.74923706 50.50402832 C-24.73809598 54.27362401 -24.71300226 58.04297685 -24.6875 61.8125 C-24.67746237 64.37760072 -24.66833789 66.94270519 -24.66015625 69.5078125 C-24.6398833 75.77620914 -24.60072204 82.04408464 -24.5625 88.3125 C-9.7125 88.3125 5.1375 88.3125 20.4375 88.3125 C20.64662137 77.37976883 20.64662137 77.37976883 20.82543945 66.4465332 C20.99228314 58.35556606 21.61632802 50.90369781 23.76879883 43.04345703 C25.13346171 37.47021169 25.1858475 32.39999565 23.25 27 C19.59986933 21.58773728 15.72622697 18.20540532 9.4375 16.3125 C6.27970788 15.88138669 3.18344579 15.84718594 0 15.875 C-0.80759766 15.85501953 -1.61519531 15.83503906 -2.44726562 15.81445312 C-9.8502271 15.82041844 -15.08535626 17.94305817 -20.4375 23.0625 Z M62.4375 20.3125 C61.55578125 20.725 60.6740625 21.1375 59.765625 21.5625 C49.26331075 27.16373427 42.26833505 36.14307733 38.4375 47.3125 C36.4711994 53.84129697 36.15846314 59.76215614 36.20703125 66.55859375 C36.20748947 67.61031265 36.20794769 68.66203156 36.2084198 69.74562073 C36.21142575 71.95339089 36.21926195 74.16115925 36.23168945 76.36889648 C36.25007357 79.76358455 36.25219804 83.15800146 36.25195312 86.55273438 C36.25686408 88.70052321 36.26269055 90.84831019 36.26953125 92.99609375 C36.27064407 94.01577744 36.2717569 95.03546112 36.27290344 96.08604431 C36.27928329 97.02114334 36.28566315 97.95624237 36.29223633 98.91967773 C36.29604813 99.74604233 36.29985992 100.57240692 36.30378723 101.42381287 C36.23100424 103.32447275 36.23100424 103.32447275 37.4375 104.3125 C40.59826344 104.41319779 43.73722027 104.44864023 46.8984375 104.44189453 C47.89184143 104.44364685 48.88524536 104.44539917 49.90875244 104.44720459 C53.21001912 104.45162511 56.51123273 104.44868441 59.8125 104.4453125 C62.09554047 104.44598548 64.37858087 104.44695546 66.66162109 104.44821167 C71.45345744 104.44968891 76.24527519 104.44753323 81.03710938 104.44287109 C87.19466635 104.4371738 93.35217974 104.44045266 99.50973511 104.44644356 C104.22615897 104.45004845 108.94257241 104.44891091 113.65899658 104.44631577 C115.9301148 104.4456463 118.20123394 104.4464756 120.47235107 104.44879532 C123.64044722 104.45132067 126.80847172 104.4474829 129.9765625 104.44189453 C131.39947601 104.44493088 131.39947601 104.44493088 132.85113525 104.44802856 C136.96939411 104.8570576 136.96939411 104.8570576 140.4375 103.3125 C140.55130929 101.87797194 140.59704182 100.43795306 140.61450195 98.99902344 C140.62733719 98.08006287 140.64017242 97.16110229 140.65339661 96.21429443 C140.66078354 95.21029602 140.66817047 94.20629761 140.67578125 93.171875 C140.68788887 91.62212982 140.68788887 91.62212982 140.70024109 90.04107666 C140.71411216 87.84185475 140.72482069 85.64261104 140.73266602 83.44335938 C140.74971517 80.11805428 140.7935535 76.79378639 140.83789062 73.46875 C140.9583454 57.09523992 139.77221001 42.56591609 128.21484375 29.87109375 C114.71811311 16.88770944 99.61241308 15.72622831 81.76953125 16 C74.72226955 16.24745323 68.85765136 17.23697839 62.4375 20.3125 Z M155.4375 24.3125 C151.90210271 29.55464081 151.8416918 34.21386832 152.4375 40.3125 C152.9040176 42.21774493 153.39989211 44.11593684 153.91796875 46.0078125 C155.94375211 54.52876378 155.99806699 62.91180849 156.125 71.625 C156.228125 77.131875 156.33125 82.63875 156.4375 88.3125 C171.2875 88.3125 186.1375 88.3125 201.4375 88.3125 C201.50654571 80.78651725 201.56622991 73.26164335 201.60229492 65.7355957 C201.6173371 63.17794053 201.63777589 60.62031096 201.66381836 58.06274414 C201.70040204 54.37640037 201.71727268 50.69039909 201.73046875 47.00390625 C201.74595261 45.86917374 201.76143646 44.73444122 201.77738953 43.56532288 C201.77904564 35.66864475 201.02403646 28.43772056 196.1875 21.9375 C190.20846011 16.23023465 184.28074042 15.83185536 176.375 15.9375 C175.50294922 15.92589844 174.63089844 15.91429687 173.73242188 15.90234375 C165.73583 15.93866438 160.74492845 18.14440748 155.4375 24.3125 Z " fill="#000000ff" transform="translate(39.5625,119.6875)"/>
<path d="M0 0 C10.48995236 7.90338877 16.4012164 17.07908156 19 30 C20.45791181 43.28484943 17.56754954 54.96020983 9.26171875 65.4921875 C0.89015673 74.77464487 -9.15419174 80.26650139 -21.7265625 81.203125 C-35.46211243 81.42526327 -46.84464039 77.5973806 -56.89453125 68.1875 C-65.24133073 59.51550054 -69.09945139 49.00310658 -69.5 37 C-69.0236501 23.58777306 -64.22732281 13.01475449 -54.609375 3.6796875 C-39.31859455 -9.35113483 -17.06063167 -11.10295077 0 0 Z M-47 19 C-52.00194053 26.47043066 -53.91537457 33.01385809 -53 42 C-51.01411417 49.63714951 -47.37799991 56.06864354 -40.75390625 60.50390625 C-33.23437747 64.83782185 -25.97433894 66.55350567 -17.37109375 64.31640625 C-8.53689504 61.06596062 -3.33253473 56.42895627 1.0546875 48.1484375 C4.08723979 41.2562732 3.95698519 33.82992862 1.375 26.8125 C-2.37597267 18.47410081 -7.64568315 13.67589942 -16 10 C-27.2360756 6.52743333 -39.33456574 10.12526059 -47 19 Z " fill="#000000ff" transform="translate(153,23)"/>
<path d="M0 0 C7.35083517 5.1574408 12.18326121 11.13498757 14 20 C14.83558865 29.30395823 13.34407721 36.56038752 7.3125 43.8125 C2.15345044 49.25657992 -3.7377793 52.52739987 -11.26171875 53.203125 C-21.21953004 53.39554647 -27.75556326 51.09585029 -35.05078125 44.1953125 C-40.79913101 37.72121918 -42.37517358 30.57690683 -42.2734375 22.1328125 C-41.55951324 13.95328021 -37.03272104 7.38679333 -31 2 C-21.66384858 -4.03795961 -10.02479516 -5.24023384 0 0 Z M-24.875 19.375 C-26.25784626 22.60164126 -26.49759088 24.51686382 -26 28 C-23.71274624 32.32036821 -21.52914866 35.05893629 -17 37 C-13.07239081 37.58496307 -11.34540059 37.18285914 -7.8125 35.3125 C-4.03475389 32.20635319 -2.28765679 29.93140988 -1.5625 25.0625 C-2.2642674 20.15012822 -4.52288702 17.16614182 -8.375 14.125 C-15.30385105 11.15549241 -20.35121678 13.64487459 -24.875 19.375 Z " fill="#000000ff" transform="translate(230,51)"/>
<path d="M0 0 C7.35083517 5.1574408 12.18326121 11.13498757 14 20 C14.83558865 29.30395823 13.34407721 36.56038752 7.3125 43.8125 C2.15345044 49.25657992 -3.7377793 52.52739987 -11.26171875 53.203125 C-21.21953004 53.39554647 -27.75556326 51.09585029 -35.05078125 44.1953125 C-40.79913101 37.72121918 -42.37517358 30.57690683 -42.2734375 22.1328125 C-41.55951324 13.95328021 -37.03272104 7.38679333 -31 2 C-21.66384858 -4.03795961 -10.02479516 -5.24023384 0 0 Z M-24.875 19.375 C-26.25784626 22.60164126 -26.49759088 24.51686382 -26 28 C-23.71274624 32.32036821 -21.52914866 35.05893629 -17 37 C-13.07239081 37.58496307 -11.34540059 37.18285914 -7.8125 35.3125 C-4.03475389 32.20635319 -2.28765679 29.93140988 -1.5625 25.0625 C-2.2642674 20.15012822 -4.52288702 17.16614182 -8.375 14.125 C-15.30385105 11.15549241 -20.35121678 13.64487459 -24.875 19.375 Z " fill="#000000ff" transform="translate(54,51)"/>
</svg>
