<?xml version="1.0" encoding="UTF-8"?>
<svg version="1.1" xmlns="http://www.w3.org/2000/svg" width="256" height="256">
<path d="M0 0 C0.96571426 -0.0143811 1.93142853 -0.02876221 2.92640686 -0.0435791 C3.98459625 -0.05412323 5.04278564 -0.06466736 6.13304138 -0.07553101 C7.24883072 -0.09013367 8.36462006 -0.10473633 9.51422119 -0.11978149 C19.81053342 -0.24580724 30.10761702 -0.31595952 40.40455723 -0.36762428 C48.00768875 -0.40647602 55.60933216 -0.4747308 63.21181065 -0.58217204 C69.21379529 -0.66410923 75.21508598 -0.69635369 81.21764946 -0.71201706 C83.76336385 -0.72609436 86.30904283 -0.7556949 88.85438728 -0.80131912 C111.29195931 -1.1838236 111.29195931 -1.1838236 117.17552185 3.98086548 C118.59110674 5.68179086 119.9653093 7.41776172 121.30271912 9.18081665 C122.73004277 10.60601391 124.15893194 12.03011272 125.61822605 13.42255688 C127.20477124 14.93645584 128.76146081 16.4760021 130.31260681 18.02610779 C130.84604202 18.55879587 131.37947723 19.09148396 131.92907715 19.6403141 C132.74824867 20.45893708 132.74824867 20.45893708 133.58396912 21.2940979 C134.73066846 22.43757515 135.87743903 23.58098098 137.02427673 24.72431946 C139.40596224 27.10006985 141.78562623 29.47782372 144.16404724 31.85684204 C147.20977641 34.90267369 150.26238219 37.94151443 153.3167038 40.97872639 C155.67755058 43.32846682 158.03385078 45.68272578 160.3888855 48.03829002 C161.51320043 49.16142714 162.63913215 50.28294825 163.76672363 51.40279579 C165.33624532 52.96252506 166.89931101 54.52845609 168.46092224 56.09609985 C169.35009338 56.98384598 170.23926453 57.8715921 171.15538025 58.78623962 C175.11987835 63.20719815 175.55507039 66.26259548 175.57687378 72.20025635 C175.58211046 72.9071565 175.58734714 73.61405665 175.5927425 74.34237802 C175.60774482 76.71127027 175.60844771 79.07994656 175.6091156 81.44888306 C175.61673717 83.14751551 175.62516467 84.84614451 175.63433838 86.54476929 C175.6562961 91.16076577 175.6650845 95.776696 175.67016482 100.39273882 C175.67380823 103.27870373 175.68004834 106.16465129 175.68716621 109.05060959 C175.71166939 119.12510693 175.72471357 129.19955276 175.72825623 139.27407837 C175.73188764 148.65353635 175.76175254 158.03266633 175.80366081 167.41202414 C175.83840512 175.47165373 175.85380542 183.5311749 175.85450226 191.59087884 C175.85529395 196.4012852 175.86398203 201.2113578 175.89249992 206.02168655 C175.91875012 210.5510008 175.92084719 215.07970634 175.90484428 219.60906219 C175.90303505 221.26581275 175.90967286 222.92259885 175.92566299 224.57927322 C176.00680878 233.5371853 175.99114456 241.71639918 170.30271912 249.18081665 C164.69933836 254.37962976 160.4731143 256.30046775 152.76971436 256.32798767 C152.10309302 256.33166436 151.43647169 256.33534105 150.7496497 256.33912915 C148.51122822 256.35016049 146.27285316 256.3540089 144.03440857 256.3578186 C142.43120171 256.36408373 140.8279963 256.37073058 139.22479248 256.37773132 C133.95520539 256.39877028 128.68561802 256.40913433 123.41600037 256.4190979 C121.6012489 256.42314568 119.78649759 256.42726261 117.97174644 256.43144798 C109.44478552 256.45050019 100.91783325 256.46473052 92.39085513 256.47305995 C82.55232546 256.48282947 72.71402094 256.50914137 62.8755706 256.54956084 C55.26865204 256.5797384 47.66179796 256.59453043 40.05482072 256.59784096 C35.51277725 256.60018981 30.97097431 256.6091285 26.42899513 256.63430214 C22.15339208 256.65761627 17.87818735 256.66180276 13.60253716 256.65154076 C12.03686319 256.65104608 10.47116939 256.65734654 8.90555573 256.6710968 C-7.92940216 256.81062939 -7.92940216 256.81062939 -14.72071838 250.2159729 C-15.38974182 249.23950806 -15.38974182 249.23950806 -16.07228088 248.24331665 C-16.53376526 247.59491821 -16.99524963 246.94651978 -17.47071838 246.2784729 C-20.65277748 240.83654381 -20.98912832 236.39026941 -20.97143555 230.21885681 C-20.97667223 229.31509172 -20.9819089 228.41132663 -20.98730427 227.48017472 C-21.00230877 224.45106335 -21.00300953 221.42212084 -21.00367737 218.39297485 C-21.01129863 216.22129532 -21.01972608 214.04961848 -21.02890015 211.87794495 C-21.05085741 205.97692614 -21.05964592 200.07595916 -21.06472659 194.17490411 C-21.06836923 190.48706653 -21.07460887 186.79924254 -21.08172798 183.11141014 C-21.10622841 170.24236835 -21.1192753 157.3733669 -21.12281799 144.50430298 C-21.12645193 132.5147091 -21.15633573 120.52542722 -21.19822258 108.53590137 C-21.23293468 98.23848065 -21.24836661 87.94114479 -21.24906403 77.64366597 C-21.24985663 71.49526545 -21.25858787 65.34712578 -21.28706169 59.19878578 C-21.31325715 53.41289135 -21.31543884 47.62747373 -21.29940605 41.84154701 C-21.29759267 39.72199462 -21.30427219 37.60241473 -21.32022476 35.4829216 C-21.47093312 14.15310295 -21.47093312 14.15310295 -15.69728088 7.18081665 C-10.81164167 2.68768971 -6.76269721 0.08672195 0 0 Z M-3.69728088 18.18081665 C-5.3243884 21.43503168 -4.84524447 25.01835131 -4.8444519 28.59460449 C-4.84812859 29.47553839 -4.85180528 30.35647228 -4.85559338 31.26410115 C-4.86665901 34.23357852 -4.8704789 37.20302094 -4.87428284 40.17251587 C-4.88054521 42.2943737 -4.88719181 44.41623043 -4.89419556 46.53808594 C-4.91162399 52.31490753 -4.9221619 58.09172084 -4.93040109 63.86856222 C-4.93554632 67.4744198 -4.9416222 71.08027478 -4.94791222 74.68613052 C-4.96696765 85.9585861 -4.98119921 97.23103509 -4.98952419 108.50350368 C-4.99930516 121.53365708 -5.02564573 134.56364098 -5.06602508 147.59373462 C-5.09613618 157.65405293 -5.11098822 167.71432251 -5.1143052 177.77468503 C-5.11666102 183.78876894 -5.12569064 189.80267186 -5.15076637 195.81670761 C-5.17396517 201.47198073 -5.1783134 207.12695262 -5.16800499 212.78226089 C-5.16750755 214.86079151 -5.17388881 216.93933655 -5.18756104 219.01782227 C-5.20515206 221.84993436 -5.19823716 224.68095032 -5.18502808 227.51306152 C-5.19599732 228.34049075 -5.20696657 229.16791998 -5.21826822 230.02042282 C-5.17768296 233.61096591 -5.02779621 235.73619804 -2.85429668 238.66005135 C0.85578413 241.27577728 3.9010305 241.30926681 8.31768799 241.32125854 C10.2040522 241.32982376 10.2040522 241.32982376 12.12852478 241.33856201 C13.52488699 241.33980736 14.9212493 241.34093246 16.31761169 241.34194946 C17.78613408 241.34657809 19.25465527 241.35160281 20.72317505 241.35699463 C24.71500804 241.37011655 28.70682421 241.37656321 32.69867539 241.38100529 C35.19279281 241.38393641 37.68690563 241.3880413 40.18102074 241.39250946 C47.98503085 241.40618398 55.78903046 241.4158508 63.59305173 241.41971135 C72.60069846 241.42419183 81.60819342 241.44173937 90.615794 241.47071195 C97.57895112 241.49233095 104.54206555 241.50241575 111.50525588 241.50375247 C115.66377863 241.50480036 119.82215872 241.51070477 123.98064613 241.52857208 C127.89341881 241.54505655 131.80594162 241.54720654 135.71873665 241.53843307 C137.15301432 241.53766289 138.58730544 241.54200301 140.02154922 241.55189133 C141.98325832 241.56462057 143.9450679 241.55693877 145.90679932 241.54830933 C147.00352368 241.54977589 148.10024805 241.55124245 149.23020649 241.55275345 C152.80995319 241.11941446 155.22480184 240.03262842 158.30271912 238.18081665 C159.717093 235.35206889 159.42543442 232.99270142 159.42297363 229.828125 C159.42382806 229.16896422 159.42468248 228.50980344 159.4255628 227.83066809 C159.42721587 225.61190781 159.42169905 223.39322237 159.41624451 221.17446899 C159.41596257 219.58798728 159.41612049 218.00150544 159.41668701 216.4150238 C159.41697474 212.09915282 159.41108197 207.78330945 159.40411305 203.4674449 C159.39787544 198.96041471 159.39727539 194.45338394 159.39608765 189.9463501 C159.39297554 181.40762086 159.38476376 172.86890438 159.37473816 164.33018076 C159.36357329 154.61085309 159.35806563 144.89152482 159.35304272 135.17219234 C159.34258106 115.17505998 159.32498394 95.17793912 159.30271912 75.18081665 C158.01172302 75.17147095 156.72072693 75.16212524 155.39060974 75.15249634 C150.57451096 75.11245104 145.75904121 75.0466518 140.94334412 74.97329712 C138.86399959 74.94517166 136.78454983 74.92391544 134.70506287 74.90982056 C131.7058202 74.88827427 128.70783167 74.84156389 125.70896912 74.79019165 C124.32723511 74.78834869 124.32723511 74.78834869 122.91758728 74.78646851 C116.91797108 74.65207908 112.32067959 73.57959406 107.30271912 70.18081665 C105.24412537 67.9269104 105.24412537 67.9269104 103.86521912 65.61831665 C103.15559021 64.47169556 103.15559021 64.47169556 102.43162537 63.3019104 C100.72295678 60.09150542 100.17089383 57.47332775 100.09739685 53.89297485 C100.06747902 52.60197624 100.06747902 52.60197624 100.03695679 51.28489685 C100.02024429 50.3598082 100.0035318 49.43471954 99.98631287 48.4815979 C99.96553177 47.53141281 99.94475067 46.58122772 99.92333984 45.60224915 C99.85793859 42.56601209 99.79900308 39.52968834 99.74021912 36.49331665 C99.69702494 34.43536496 99.65341036 32.37742206 99.60935974 30.31948853 C99.50226681 25.27335349 99.40097266 20.22713122 99.30271912 15.18081665 C86.75914981 15.11129073 74.2156264 15.05799207 61.67190361 15.02538013 C55.84727545 15.00972765 50.02277918 14.98849671 44.19822693 14.95449829 C38.57668385 14.92189039 32.9552676 14.90396049 27.33363724 14.89618492 C25.18943918 14.89064402 23.04524801 14.87982402 20.90110397 14.86362648 C17.89663978 14.8418335 14.89269892 14.83885055 11.88816833 14.84024048 C11.00271835 14.82945465 10.11726837 14.81866882 9.20498657 14.80755615 C4.16560173 14.83276462 0.65647929 15.34645788 -3.69728088 18.18081665 Z M115.30271912 28.18081665 C115.18663784 32.59726263 115.11550592 37.01331682 115.05271912 41.43081665 C115.01920349 42.68507446 114.98568787 43.93933228 114.95115662 45.2315979 C114.93826599 46.43687134 114.92537537 47.64214478 114.91209412 48.88394165 C114.89114685 49.99414673 114.87019958 51.10435181 114.84861755 52.24819946 C115.40791831 55.86019985 116.44480573 56.97577197 119.30271912 59.18081665 C122.48059452 60.24010845 124.72860855 60.29540604 128.06443787 60.2784729 C129.18269958 60.27525024 130.3009613 60.27202759 131.45310974 60.26870728 C132.62035583 60.26032837 133.78760193 60.25194946 134.99021912 60.24331665 C136.16906677 60.23880493 137.34791443 60.23429321 138.56248474 60.22964478 C141.475947 60.21784938 144.38930775 60.20138935 147.30271912 60.18081665 C142.01392109 53.70837999 136.13853555 47.86435267 130.22386169 41.97158813 C128.47357035 40.22671947 126.72876586 38.47648882 124.98435974 36.72573853 C123.87595683 35.61799532 122.76724436 34.51056175 121.65818787 33.4034729 C121.135327 32.8785878 120.61246613 32.3537027 120.07376099 31.81291199 C118.03467938 29.29897413 118.03467938 29.29897413 115.30271912 28.18081665 Z " fill="#FFFFFF" transform="translate(50.69728088378906,-0.180816650390625)"/>
<path d="M0 0 C1.20555794 -0.01051392 1.20555794 -0.01051392 2.43547058 -0.02124023 C5.08949435 -0.03883111 7.74244995 -0.02719405 10.39648438 -0.01367188 C12.24206751 -0.01636649 14.08764926 -0.02024865 15.93322754 -0.02526855 C19.8001864 -0.03116507 23.66677554 -0.02259578 27.53369141 -0.00390625 C32.49055662 0.01888347 37.44655555 0.0057612 42.40338898 -0.01819611 C46.2141167 -0.03264998 50.02463902 -0.02805 53.83537292 -0.01768494 C55.66302086 -0.01501651 57.49068744 -0.01829148 59.3183136 -0.02760315 C61.8728678 -0.03776214 64.42601906 -0.02227788 66.98046875 0 C67.73591476 -0.00809692 68.49136078 -0.01619385 69.2696991 -0.02453613 C72.7323623 0.03141117 74.65236673 0.26462417 77.45959473 2.36633301 C79.56468753 5.32494617 79.5715312 6.95713506 78.99023438 10.51757812 C77.45959473 13.16954041 77.45959473 13.16954041 74.99023438 15.51757812 C72.12312376 16.01717213 69.8461526 16.19303444 66.98046875 16.14868164 C66.17676346 16.15583694 65.37305817 16.16299225 64.54499817 16.17036438 C61.89074706 16.18726066 59.23818283 16.16784459 56.58398438 16.14648438 C54.7384019 16.14731299 52.89281949 16.14977211 51.04724121 16.15379333 C47.18019382 16.15665196 43.31372542 16.141944 39.44677734 16.11450195 C34.48988288 16.08041892 29.5340238 16.08643668 24.57707977 16.10516453 C20.76633068 16.11573305 16.95582252 16.10679807 13.14509583 16.09177971 C11.31745621 16.08659634 9.48979145 16.08708158 7.66215515 16.09332466 C5.10755308 16.09877517 2.55443318 16.07840844 0 16.05102539 C-1.13316902 16.06081421 -1.13316902 16.06081421 -2.28923035 16.07080078 C-5.72624275 16.00815278 -7.67598095 15.76285723 -10.47912598 13.70298767 C-12.72378818 10.49811433 -12.55483335 8.33305221 -12.00976562 4.51757812 C-8.78776949 -0.08479629 -5.22543473 -0.05600658 0 0 Z " fill="#FFFFFF" transform="translate(102.009765625,180.482421875)"/>
<path d="M0 0 C1.20555794 -0.01051392 1.20555794 -0.01051392 2.43547058 -0.02124023 C5.08949435 -0.03883111 7.74244995 -0.02719405 10.39648438 -0.01367188 C12.24206751 -0.01636649 14.08764926 -0.02024865 15.93322754 -0.02526855 C19.8001864 -0.03116507 23.66677554 -0.02259578 27.53369141 -0.00390625 C32.49055662 0.01888347 37.44655555 0.0057612 42.40338898 -0.01819611 C46.2141167 -0.03264998 50.02463902 -0.02805 53.83537292 -0.01768494 C55.66302086 -0.01501651 57.49068744 -0.01829148 59.3183136 -0.02760315 C61.8728678 -0.03776214 64.42601906 -0.02227788 66.98046875 0 C67.73591476 -0.00809692 68.49136078 -0.01619385 69.2696991 -0.02453613 C72.7323623 0.03141117 74.65236673 0.26462417 77.45959473 2.36633301 C79.56468753 5.32494617 79.5715312 6.95713506 78.99023438 10.51757812 C77.45959473 13.16954041 77.45959473 13.16954041 74.99023438 15.51757812 C72.12312376 16.01717213 69.8461526 16.19303444 66.98046875 16.14868164 C66.17676346 16.15583694 65.37305817 16.16299225 64.54499817 16.17036438 C61.89074706 16.18726066 59.23818283 16.16784459 56.58398438 16.14648438 C54.7384019 16.14731299 52.89281949 16.14977211 51.04724121 16.15379333 C47.18019382 16.15665196 43.31372542 16.141944 39.44677734 16.11450195 C34.48988288 16.08041892 29.5340238 16.08643668 24.57707977 16.10516453 C20.76633068 16.11573305 16.95582252 16.10679807 13.14509583 16.09177971 C11.31745621 16.08659634 9.48979145 16.08708158 7.66215515 16.09332466 C5.10755308 16.09877517 2.55443318 16.07840844 0 16.05102539 C-1.13316902 16.06081421 -1.13316902 16.06081421 -2.28923035 16.07080078 C-5.72624275 16.00815278 -7.67598095 15.76285723 -10.47912598 13.70298767 C-12.72378818 10.49811433 -12.55483335 8.33305221 -12.00976562 4.51757812 C-8.78776949 -0.08479629 -5.22543473 -0.05600658 0 0 Z " fill="#FFFFFF" transform="translate(102.009765625,150.482421875)"/>
<path d="M0 0 C1.20555794 -0.01051392 1.20555794 -0.01051392 2.43547058 -0.02124023 C5.08949435 -0.03883111 7.74244995 -0.02719405 10.39648438 -0.01367188 C12.24206751 -0.01636649 14.08764926 -0.02024865 15.93322754 -0.02526855 C19.8001864 -0.03116507 23.66677554 -0.02259578 27.53369141 -0.00390625 C32.49055662 0.01888347 37.44655555 0.0057612 42.40338898 -0.01819611 C46.2141167 -0.03264998 50.02463902 -0.02805 53.83537292 -0.01768494 C55.66302086 -0.01501651 57.49068744 -0.01829148 59.3183136 -0.02760315 C61.8728678 -0.03776214 64.42601906 -0.02227788 66.98046875 0 C67.73591476 -0.00809692 68.49136078 -0.01619385 69.2696991 -0.02453613 C72.7323623 0.03141117 74.65236673 0.26462417 77.45959473 2.36633301 C79.56468753 5.32494617 79.5715312 6.95713506 78.99023438 10.51757812 C77.45959473 13.16954041 77.45959473 13.16954041 74.99023438 15.51757812 C72.12312376 16.01717213 69.8461526 16.19303444 66.98046875 16.14868164 C66.17676346 16.15583694 65.37305817 16.16299225 64.54499817 16.17036438 C61.89074706 16.18726066 59.23818283 16.16784459 56.58398438 16.14648438 C54.7384019 16.14731299 52.89281949 16.14977211 51.04724121 16.15379333 C47.18019382 16.15665196 43.31372542 16.141944 39.44677734 16.11450195 C34.48988288 16.08041892 29.5340238 16.08643668 24.57707977 16.10516453 C20.76633068 16.11573305 16.95582252 16.10679807 13.14509583 16.09177971 C11.31745621 16.08659634 9.48979145 16.08708158 7.66215515 16.09332466 C5.10755308 16.09877517 2.55443318 16.07840844 0 16.05102539 C-1.13316902 16.06081421 -1.13316902 16.06081421 -2.28923035 16.07080078 C-5.72624275 16.00815278 -7.67598095 15.76285723 -10.47912598 13.70298767 C-12.72378818 10.49811433 -12.55483335 8.33305221 -12.00976562 4.51757812 C-8.78776949 -0.08479629 -5.22543473 -0.05600658 0 0 Z " fill="#FFFFFF" transform="translate(102.009765625,120.482421875)"/>
<path d="M0 0 C2.5 1.625 2.5 1.625 4 4 C4.63656938 7.73984509 4.25584708 9.50962644 2.5 12.875 C-0.54168979 15.46043632 -2.20007233 15.69010681 -6.09375 15.4140625 C-8 15 -8 15 -10.5 13.4375 C-12.58392818 10.05111671 -12.55802097 7.90614682 -12 4 C-9.10910635 -0.69770218 -5.08522732 -1.02121368 0 0 Z " fill="#FFFFFF" transform="translate(72,181)"/>
<path d="M0 0 C2.5 1.625 2.5 1.625 4 4 C4.63656938 7.73984509 4.25584708 9.50962644 2.5 12.875 C-0.54168979 15.46043632 -2.20007233 15.69010681 -6.09375 15.4140625 C-8 15 -8 15 -10.5 13.4375 C-12.58392818 10.05111671 -12.55802097 7.90614682 -12 4 C-9.10910635 -0.69770218 -5.08522732 -1.02121368 0 0 Z " fill="#FFFFFF" transform="translate(72,151)"/>
<path d="M0 0 C2.5 1.625 2.5 1.625 4 4 C4.63656938 7.73984509 4.25584708 9.50962644 2.5 12.875 C-0.54168979 15.46043632 -2.20007233 15.69010681 -6.09375 15.4140625 C-8 15 -8 15 -10.5 13.4375 C-12.58392818 10.05111671 -12.55802097 7.90614682 -12 4 C-9.10910635 -0.69770218 -5.08522732 -1.02121368 0 0 Z " fill="#FFFFFF" transform="translate(72,121)"/>
</svg>
