<?xml version="1.0" standalone="no"?>
<!DOCTYPE svg PUBLIC "-//W3C//DTD SVG 20010904//EN"
 "http://www.w3.org/TR/2001/REC-SVG-20010904/DTD/svg10.dtd">
<svg version="1.0" xmlns="http://www.w3.org/2000/svg"
 width="500.000000pt" height="500.000000pt" viewBox="0 0 500.000000 500.000000"
 preserveAspectRatio="xMidYMid meet">

<g transform="translate(0.000000,500.000000) scale(0.100000,-0.100000)"
fill="#FFFFFF" stroke="none">
<path d="M2409 4157 c-103 -29 -175 -91 -227 -197 l-27 -55 -3 -527 -3 -527
-527 -3 -527 -3 -57 -27 c-70 -33 -145 -106 -178 -173 -20 -41 -24 -66 -24
-140 -1 -79 3 -98 28 -152 34 -75 95 -134 174 -171 l57 -27 528 -3 527 -3 0
-122 c1 -67 2 -304 3 -527 l2 -405 33 -67 c61 -125 169 -190 312 -190 140 0
259 71 317 190 l28 57 3 532 3 532 527 3 527 3 56 26 c76 36 129 86 170 161
31 58 34 70 34 153 0 82 -3 97 -33 157 -38 77 -92 130 -171 167 l-56 26 -527
3 -527 3 -3 532 -3 532 -28 56 c-71 145 -255 229 -408 186z"/>
</g>
</svg>
