<?xml version="1.0" encoding="utf-8"?>
<!DOCTYPE svg PUBLIC "-//W3C//DTD SVG 20010904//EN" "http://www.w3.org/TR/2001/REC-SVG-20010904/DTD/svg10.dtd">
<svg version="1.0" xmlns="http://www.w3.org/2000/svg" width="258pt" height="258pt" viewBox="0 0 258 258" style="" preserveAspectRatio="xMidYMid meet">
<g fill="#9CA3AFFF">
<path d="M 113.655 14.459 C 109.624 15.896 105.615 19.121 103.658 22.500 C 102.903 23.804 102.326 33.372 102.000 50.000 L 101.500 75.500 62.500 76.000 C 28.734 76.433 23.000 76.727 19.771 78.190 C 14.085 80.768 6.503 88.436 3.858 94.286 L 1.500 99.500 1.500 160.000 L 1.500 220.500 4.090 226.000 C 7.843 233.968 11.268 237.515 18.791 241.218 L 25.458 244.500 129.000 244.500 L 232.542 244.500 239.209 241.218 C 246.732 237.515 250.157 233.968 253.910 226.000 L 256.500 220.500 256.500 160.000 L 256.500 99.500 254.118 94.230 C 251.127 87.612 242.772 79.792 236.357 77.606 C 232.385 76.253 226.180 76.000 196.899 76.000 L 162.154 76.000 161.827 51.250 C 161.545 29.922 161.257 26.055 159.741 23.282 C 157.106 18.461 153.194 15.286 148.404 14.080 C 142.187 12.515 118.380 12.774 113.655 14.459 M 102.000 93.182 C 102.551 101.654 104.155 104.779 109.990 108.750 C 113.119 110.880 114.268 111.000 131.500 111.000 C 148.732 111.000 149.881 110.880 153.010 108.750 C 159.275 104.486 161.923 98.708 161.976 89.191 L 162.000 84.882 196.831 85.191 L 231.662 85.500 236.581 88.505 C 240.274 90.761 242.186 92.862 244.250 96.934 L 247.000 102.359 246.994 159.429 C 246.991 196.861 246.621 217.825 245.919 220.351 C 244.440 225.680 237.599 232.298 231.967 233.848 C 228.537 234.792 204.039 235.010 126.427 234.789 L 25.353 234.500 21.185 231.741 C 18.893 230.224 15.776 227.108 14.259 224.815 L 11.500 220.648 11.219 161.731 L 10.939 102.814 13.381 97.480 C 16.007 91.744 21.225 87.410 27.236 85.973 C 29.031 85.543 46.475 85.261 66.000 85.346 L 101.500 85.500 102.000 93.182 M 149.582 25.491 L 152.074 27.983 151.787 62.957 C 151.524 94.950 151.348 98.083 149.717 99.715 C 148.203 101.231 145.736 101.549 133.357 101.826 C 117.451 102.181 113.984 101.456 112.130 97.385 C 111.364 95.705 111.000 84.430 111.000 62.403 C 111.000 35.673 111.263 29.393 112.479 27.041 C 113.292 25.468 114.530 23.951 115.229 23.669 C 115.928 23.388 123.383 23.122 131.795 23.079 C 146.812 23.001 147.136 23.045 149.582 25.491 "/></g>
<g fill="#9CA3AFFF">
<path d="M 64.500 118.900 C 55.491 123.080 50.558 130.904 50.564 141.000 C 50.568 147.774 52.209 152.261 56.367 156.859 L 58.500 159.218 56.000 160.820 C 51.268 163.854 45.707 170.398 43.148 175.943 C 41.113 180.355 40.501 183.482 40.181 191.116 C 39.605 204.855 37.327 204.000 74.500 204.000 C 111.726 204.000 109.453 204.858 108.788 191.047 C 108.116 177.092 103.718 168.530 93.500 161.287 L 90.500 159.161 92.633 156.830 C 98.762 150.134 100.422 138.231 96.305 130.500 C 93.566 125.356 88.493 120.516 83.782 118.551 C 78.704 116.432 69.457 116.600 64.500 118.900 M 81.568 166.471 C 91.550 169.449 98.969 179.150 98.990 189.250 L 99.000 194.000 74.500 194.000 L 50.000 194.000 50.000 189.866 C 50.000 182.895 52.110 177.837 57.112 172.812 C 64.135 165.759 72.186 163.672 81.568 166.471 M 84.134 130.628 C 96.708 142.675 81.221 162.084 66.356 152.909 C 60.533 149.314 58.418 141.136 61.586 134.460 C 65.543 126.120 77.337 124.116 84.134 130.628 "/></g>
<g fill="#9CA3AFFF">
<path d="M 134.223 161.557 C 131.736 163.298 131.284 167.161 133.365 168.888 C 134.347 169.703 147.041 169.948 178.591 169.761 L 222.452 169.500 223.456 166.645 C 224.320 164.189 224.133 163.526 222.119 161.895 C 219.905 160.103 217.521 160.000 178.112 160.000 C 142.019 160.000 136.148 160.208 134.223 161.557 "/></g>
<g fill="#9CA3AFFF">
<path d="M 124.190 51.026 C 115.808 56.136 116.311 69.480 125.062 74.173 C 134.366 79.163 144.993 72.939 144.993 62.500 C 144.993 51.856 133.356 45.437 124.190 51.026 M 135.051 61.095 C 136.524 63.847 132.760 67.477 129.977 65.988 C 127.544 64.686 127.366 60.454 129.690 59.154 C 131.801 57.972 133.759 58.681 135.051 61.095 "/></g>
<g fill="#9CA3AFFF">
<path d="M 133.571 182.571 C 132.707 183.436 132.000 184.979 132.000 186.000 C 132.000 187.021 132.707 188.564 133.571 189.429 C 134.917 190.775 138.783 191.000 160.515 191.000 C 185.600 191.000 185.904 190.975 187.443 188.777 C 189.447 185.917 189.408 185.408 187.000 183.000 C 185.107 181.107 183.667 181.000 160.071 181.000 C 138.742 181.000 134.916 181.227 133.571 182.571 "/></g>
<g fill="#9CA3AFFF">
<path d="M 179.667 140.667 C 178.562 141.772 178.917 146.517 180.200 147.800 C 181.054 148.654 187.200 149.000 201.500 149.000 C 222.595 149.000 224.000 148.719 224.000 144.500 C 224.000 140.269 222.623 140.000 200.967 140.000 C 189.618 140.000 180.033 140.300 179.667 140.667 "/></g>
<g fill="#9CA3AFFF">
<path d="M 133.200 141.200 C 132.540 141.860 132.000 143.345 132.000 144.500 C 132.000 148.468 133.774 149.000 147.000 149.000 C 160.226 149.000 162.000 148.468 162.000 144.500 C 162.000 140.532 160.226 140.000 147.000 140.000 C 138.533 140.000 134.006 140.394 133.200 141.200 "/></g>
<g fill="#9CA3AFFF">
<path d="M 205.750 182.080 C 203.740 183.251 203.401 188.001 205.200 189.800 C 207.062 191.662 220.485 191.373 222.429 189.429 C 224.516 187.341 224.416 184.686 222.171 182.655 C 220.075 180.758 208.704 180.360 205.750 182.080 "/></g>
</svg>
