<?xml version="1.0" encoding="UTF-8"?>
<svg version="1.1" xmlns="http://www.w3.org/2000/svg" width="256" height="256">
<path d="M0 0 C3.45370715 3.63320577 4.93996549 7.07681692 6.44506836 11.81884766 C6.90108922 13.19945495 7.36071047 14.57887679 7.82341003 15.95726013 C8.06692892 16.68301176 8.31044781 17.40876339 8.56134605 18.15650749 C19.56428971 52.46048492 19.56428971 52.46048492 43.34625244 77.45294189 C61.94115579 85.40491715 84.40501575 85.8193973 104.36164856 85.77003479 C105.09437768 85.77003164 105.8271068 85.7700285 106.58203983 85.77002525 C108.5450159 85.76116334 110.50784018 85.72790686 112.47052002 85.69267273 C116.52747905 86.04592991 120.99286002 86.99286002 124 90 C124.54126601 93.85652032 124.88074869 96.51599879 122.859375 99.921875 C119.56541559 103.7914778 115.76528336 107.15224282 112.0078125 110.5625 C109.66810722 112.70424241 107.33387329 114.85190572 105 117 C104.2577417 117.68194427 103.5154834 118.36388855 102.75073242 119.0664978 C97.55104243 123.85771777 92.41418914 128.70792593 87.32226562 133.61352539 C85.51535917 135.33783882 83.69179556 137.04485487 81.85253906 138.73461914 C79.16223117 141.2117175 76.53563839 143.74347669 73.9140625 146.29296875 C73.08830719 147.02895798 72.26255188 147.7649472 71.41177368 148.52323914 C67.81528063 152.1287843 66.05621422 154.44094687 65.86891174 159.63562012 C66.18496759 163.1225536 66.83069409 166.52328283 67.56471252 169.94403267 C68.23551232 173.11238127 68.72774865 176.30910416 69.25268555 179.50439453 C69.71045169 182.04784713 70.17189937 184.59063943 70.63671875 187.1328125 C70.88352892 188.50792991 71.12967412 189.88316681 71.37519836 191.2585144 C72.40278097 197.01060805 73.43853782 202.76118432 74.4855957 208.50976562 C75.13185872 212.06044367 75.7683424 215.61276121 76.39875221 219.16628647 C76.75431828 221.15394302 77.12078157 223.13964037 77.48747253 225.12527466 C77.80824516 226.93909134 77.80824516 226.93909134 78.13549805 228.78955078 C78.32710007 229.84715607 78.51870209 230.90476135 78.71611023 231.99441528 C79.08601043 235.91060563 78.92972427 239.45045955 76.875 242.875 C73.82795375 244.70322775 71.51715336 244.30523619 68 244 C64.76660363 242.8198583 61.78365951 241.243031 58.75 239.625 C57.43237671 238.9438916 57.43237671 238.9438916 56.08813477 238.24902344 C53.38438319 236.84688079 50.6915338 235.42542911 48 234 C46.47302864 233.19980981 44.94570311 232.40029499 43.41796875 231.6015625 C40.37363154 230.00611845 37.33414626 228.40181881 34.296875 226.79296875 C27.77902503 223.34705627 21.23297138 219.955529 14.6875 216.5625 C13.52404053 215.95889648 12.36058105 215.35529297 11.16186523 214.73339844 C6.58397866 212.36079345 6.58397866 212.36079345 2 210 C0.99880127 209.39913574 -0.00239746 208.79827148 -1.03393555 208.17919922 C-3.90375022 206.70312703 -3.90375022 206.70312703 -6.62695312 207.66235352 C-7.50287109 208.14631592 -8.37878906 208.63027832 -9.28125 209.12890625 C-10.27640625 209.66322266 -11.2715625 210.19753906 -12.296875 210.74804688 C-13.35390625 211.34681641 -14.4109375 211.94558594 -15.5 212.5625 C-16.60859375 213.16513672 -17.7171875 213.76777344 -18.859375 214.38867188 C-22.25178698 216.23784621 -25.6261449 218.11723258 -29 220 C-30.88397295 221.03258638 -32.76930076 222.06270632 -34.65625 223.08984375 C-35.5443335 223.57356445 -36.43241699 224.05728516 -37.34741211 224.55566406 C-38.22276611 225.03229492 -39.09812012 225.50892578 -40 226 C-41.78261366 226.97254339 -43.56516487 227.94520127 -45.34765625 228.91796875 C-46.25273926 229.41087402 -47.15782227 229.9037793 -48.09033203 230.41162109 C-50.15352606 231.53791245 -52.21414368 232.66892923 -54.27294922 233.80322266 C-57.65144957 235.65813301 -61.04284605 237.48735331 -64.4375 239.3125 C-65.48615234 239.89451172 -66.53480469 240.47652344 -67.61523438 241.07617188 C-75.86520677 245.46650806 -75.86520677 245.46650806 -80.03515625 245.10546875 C-83.40822119 243.84779104 -84.23029207 243.06812696 -86 240 C-86.1622467 237.51679993 -86.1622467 237.51679993 -85.84399414 234.6965332 C-85.72468536 233.63109283 -85.60537659 232.56565247 -85.48245239 231.46792603 C-84.71181692 225.92850523 -83.82671743 220.41550075 -82.85711479 214.90746117 C-82.48649631 212.80091824 -82.12271426 210.693287 -81.76051331 208.58528137 C-80.86135819 203.35980658 -79.95160243 198.13619151 -79.04089355 192.91271973 C-78.26699464 188.47228093 -77.49780608 184.03107815 -76.73506355 179.58870888 C-76.37851967 177.52348228 -76.01513085 175.45953761 -75.651474 173.39555359 C-75.43447342 172.13346573 -75.21747284 170.87137787 -74.99389648 169.57104492 C-74.80149887 168.46806564 -74.60910126 167.36508636 -74.41087341 166.22868347 C-73.38063619 159.20302306 -73.38063619 159.20302306 -76.16796875 153.02148438 C-77.15648358 152.02734917 -78.16435027 151.05220241 -79.1875 150.09375 C-79.72342773 149.56535522 -80.25935547 149.03696045 -80.81152344 148.49255371 C-82.52523998 146.81124877 -84.26189995 145.1560459 -86 143.5 C-87.13826724 142.38830205 -88.27500268 141.27503338 -89.41015625 140.16015625 C-94.43323956 135.25073949 -99.53492711 130.47798552 -104.859375 125.89599609 C-109.46715479 121.81478968 -113.88595295 117.53452756 -118.28466797 113.23022461 C-119.43471918 112.11209198 -120.59274126 111.00210355 -121.75830078 109.90014648 C-123.46266508 108.28707891 -125.13928297 106.64918707 -126.8125 105.00390625 C-127.59512207 104.27851402 -127.59512207 104.27851402 -128.39355469 103.53846741 C-131.15686776 100.75988271 -132.35268166 98.661162 -132.51171875 94.81225586 C-132 91 -132 91 -130.7525177 89.32539368 C-128.61104677 87.70584254 -127.09616164 87.38933863 -124.44799805 86.98144531 C-123.05651299 86.75808502 -123.05651299 86.75808502 -121.63691711 86.5302124 C-120.62622665 86.38102356 -119.61553619 86.23183472 -118.57421875 86.078125 C-117.51442307 85.91201721 -116.45462738 85.74590942 -115.36271667 85.57476807 C-111.91027776 85.037323 -108.45539706 84.51805555 -105 84 C-102.68300305 83.64454721 -100.36610841 83.28842684 -98.04931641 82.93164062 C-92.16629969 82.03079073 -86.2803929 81.15082494 -80.39282227 80.28027344 C-76.74886633 79.74057536 -73.10588157 79.19460724 -69.46289062 78.6484375 C-67.12765987 78.30170797 -64.79237545 77.95533963 -62.45703125 77.609375 C-60.83689873 77.36571198 -60.83689873 77.36571198 -59.18403625 77.11712646 C-58.1807579 76.96987122 -57.17747955 76.82261597 -56.14379883 76.67089844 C-54.83008049 76.47581696 -54.83008049 76.47581696 -53.48982239 76.27679443 C-50.97146018 75.99682722 -48.53164448 75.9512719 -46 76 C-45.72921631 75.13697266 -45.45843262 74.27394531 -45.17944336 73.38476562 C-44.02309871 70.06628866 -42.66160443 67.00431469 -41.12890625 63.84375 C-40.55994629 62.6671582 -39.99098633 61.49056641 -39.40478516 60.27832031 C-38.79083617 59.018809 -38.17673779 57.7593705 -37.5625 56.5 C-36.92999717 55.19637571 -36.29767485 53.89266382 -35.66552734 52.58886719 C-31.43937094 43.8870545 -27.14798667 35.21876974 -22.77709961 26.58862305 C-20.67220315 22.41771513 -18.62969353 18.23636548 -16.71875 13.97265625 C-16.36280762 13.18407227 -16.00686523 12.39548828 -15.64013672 11.58300781 C-14.98759299 10.12349442 -14.34749161 8.65831941 -13.72314453 7.18652344 C-10.82678386 0.71230547 -7.07713166 -2.40923631 0 0 Z M-5 25 C-10.65264578 36.19788964 -16.23548113 47.42281063 -21.625 58.75 C-22.53768377 60.65498464 -23.4504433 62.55993299 -24.36328125 64.46484375 C-26.0981249 68.09005125 -27.79943011 71.72847809 -29.48046875 75.37890625 C-30.25717708 77.0237377 -31.03448764 78.66828496 -31.8125 80.3125 C-32.14910645 81.06563477 -32.48571289 81.81876953 -32.83251953 82.59472656 C-34.39495267 85.84782379 -35.31565758 87.71353197 -38.71426392 89.13619995 C-42.05552828 90.01459805 -45.32303296 90.63447619 -48.73974609 91.14501953 C-49.38435791 91.24284729 -50.02896973 91.34067505 -50.69311523 91.44146729 C-52.80249609 91.76031659 -54.91291499 92.07161806 -57.0234375 92.3828125 C-58.49466857 92.60368951 -59.96582853 92.82504066 -61.43692017 93.04684448 C-65.29294415 93.62694236 -69.14989552 94.20062632 -73.00708008 94.77294922 C-76.94931441 95.35906139 -80.89063125 95.95127675 -84.83203125 96.54296875 C-92.5538058 97.70126482 -100.27657097 98.85278191 -108 100 C-103.45742742 105.37763322 -103.45742742 105.37763322 -98.6328125 110.5 C-98.05660156 111.0775 -97.48039062 111.655 -96.88671875 112.25 C-96.01466797 113.11625 -96.01466797 113.11625 -95.125 114 C-94.26455078 114.86625 -94.26455078 114.86625 -93.38671875 115.75 C-90.43479753 118.69534679 -87.42939693 121.53176955 -84.2734375 124.2578125 C-79.37545821 128.50343825 -74.64603122 132.91762957 -69.99707031 137.43310547 C-68.9933418 138.39984072 -67.98079379 139.35749632 -66.95996094 140.30615234 C-65.46143654 141.70091803 -63.9948405 143.12341257 -62.53125 144.5546875 C-61.66048828 145.38468262 -60.78972656 146.21467773 -59.89257812 147.06982422 C-55.2241815 154.29764882 -58.81493446 164.91070584 -60.22265625 172.86328125 C-60.45013846 174.18589866 -60.67672064 175.50867115 -60.90245056 176.83158875 C-61.73534743 181.70165472 -62.58381283 186.56897835 -63.43304443 191.43621826 C-64.15374648 195.56958303 -64.86789985 199.7039712 -65.57305717 203.84001732 C-65.90504515 205.77105215 -66.24676716 207.70040533 -66.58863831 209.62971497 C-66.78892136 210.80160873 -66.98920441 211.9735025 -67.19555664 213.1809082 C-67.37542618 214.21077347 -67.55529572 215.24063873 -67.74061584 216.30171204 C-67.98849136 218.88027937 -67.81834664 220.566563 -67 223 C-62.64968386 220.70288877 -58.30023551 218.40414362 -53.95129395 216.10443115 C-51.62668218 214.87588902 -49.30115701 213.64908832 -46.97558594 212.42236328 C-39.67377926 208.56600402 -32.38843199 204.68734805 -25.1640625 200.6875 C-23.97712108 200.03388924 -22.79011145 199.38040235 -21.60302734 198.72705078 C-19.41262247 197.51717664 -17.22775427 196.29720893 -15.04931641 195.06591797 C-14.06882324 194.52596191 -13.08833008 193.98600586 -12.078125 193.4296875 C-10.81597168 192.72175049 -10.81597168 192.72175049 -9.52832031 191.99951172 C-5.66123773 190.47075196 -2.51646738 190.46205299 1.39916992 191.85107422 C2.16849854 192.2482666 2.93782715 192.64545898 3.73046875 193.0546875 C4.60598389 193.49949463 5.48149902 193.94430176 6.38354492 194.40258789 C7.3088501 194.88848389 8.23415527 195.37437988 9.1875 195.875 C10.64410034 196.62221313 10.64410034 196.62221313 12.13012695 197.38452148 C15.09385649 198.90975378 18.04791954 200.4523608 21 202 C22.27423828 202.66394775 22.27423828 202.66394775 23.57421875 203.34130859 C29.94636233 206.66205733 36.29660894 210.02344023 42.63574219 213.40673828 C44.41819796 214.35791857 46.20146726 215.3075761 47.9855957 216.25561523 C49.6709635 217.15123134 51.35447912 218.05034383 53.03588867 218.95336914 C53.78845947 219.35289795 54.54103027 219.75242676 55.31640625 220.1640625 C55.98099854 220.51936035 56.64559082 220.8746582 57.33032227 221.24072266 C58.99773105 222.13798445 58.99773105 222.13798445 61 222 C60.24131574 217.42235615 59.48143998 212.84491192 58.72052002 208.26763916 C58.44894532 206.63351917 58.17758233 204.99936398 57.90643311 203.36517334 C56.46680714 194.69195878 55.01587583 186.02148808 53.48828125 177.36328125 C53.37154556 176.69897598 53.25480988 176.03467072 53.13453674 175.35023499 C52.5872363 172.23728657 52.03489209 169.12540282 51.47387695 166.01489258 C51.27882568 164.90911865 51.08377441 163.80334473 50.8828125 162.6640625 C50.71152832 161.70967285 50.54024414 160.7552832 50.36376953 159.77197266 C50.24372559 158.85722168 50.12368164 157.9424707 50 157 C49.83741699 156.05817871 49.67483398 155.11635742 49.50732422 154.14599609 C50.28730347 149.16541503 53.53951605 146.49554289 57 143 C57.61108612 142.36488495 58.22217224 141.7297699 58.85177612 141.07540894 C60.75607618 139.11271854 62.68442376 137.17682942 64.62109375 135.24609375 C65.32468521 134.54154556 66.02827667 133.83699738 66.75318909 133.11109924 C68.23014648 131.63346633 69.70834742 130.15707543 71.18774414 128.68188477 C73.43165085 126.44333519 75.67016704 124.19949527 77.90820312 121.95507812 C79.35384618 120.51009596 80.79979945 119.06542408 82.24609375 117.62109375 C82.9046788 116.96048447 83.56326385 116.29987518 84.24180603 115.61924744 C88.13074264 111.74954033 92.12796046 108.08810224 96.32728577 104.55628967 C98.22872946 102.90750412 98.22872946 102.90750412 100 100 C98.21868117 98.21868117 95.55761292 98.42233324 93.13842773 98.09204102 C91.88299667 97.91838516 90.62756561 97.74472931 89.33409119 97.56581116 C88.65830458 97.47434374 87.98251797 97.38287632 87.28625298 97.28863716 C85.17049961 97.00213311 83.05552885 96.71038776 80.94068909 96.41722107 C75.68094201 95.68920056 70.41998103 94.97011346 65.15899658 94.25109863 C60.72535086 93.64485545 56.29222799 93.03501898 51.85972786 92.42045403 C49.78646332 92.1344747 47.71253656 91.85370823 45.63853455 91.57313538 C42.08638567 91.0815109 38.54291713 90.55381526 35 90 C33.7025737 89.81871048 33.7025737 89.81871048 32.37893677 89.63375854 C30.20336914 89.24194336 30.20336914 89.24194336 27 88 C25.97264099 85.2852478 25.97264099 85.2852478 25 82 C24.11364583 80.04817355 23.18942963 78.11323766 22.234375 76.1940918 C21.68040039 75.07661057 21.12642578 73.95912933 20.55566406 72.80778503 C19.95403974 71.60479769 19.35214537 70.40194537 18.75 69.19921875 C18.1297075 67.95474333 17.50959309 66.71017913 16.88964844 65.4655304 C15.59451291 62.86782466 14.29631602 60.27167683 12.99609375 57.67651367 C11.32809641 54.34634187 9.6692885 51.01168552 8.01287842 47.67573833 C6.73712147 45.10952608 5.45586255 42.54609169 4.17297363 39.98343849 C3.55868406 38.75434523 2.94629016 37.52430267 2.33581543 36.29331017 C1.48480344 34.57900147 0.62541917 32.86885651 -0.234375 31.15893555 C-0.72131836 30.1844194 -1.20826172 29.20990326 -1.70996094 28.20585632 C-2.80720487 25.86876491 -2.80720487 25.86876491 -5 25 Z " fill="#FFFFFF" transform="translate(132,6)"/>
</svg>
