<?xml version="1.0" encoding="UTF-8"?>
<svg version="1.1" xmlns="http://www.w3.org/2000/svg" width="256" height="256">
<path d="M0 0 C1.71606445 -0.01268921 1.71606445 -0.01268921 3.46679688 -0.02563477 C5.34334961 -0.01652573 5.34334961 -0.01652573 7.2578125 -0.00723267 C8.59180125 -0.01129883 9.92578662 -0.01664096 11.25976562 -0.02316284 C14.87960063 -0.03683718 18.49917907 -0.03153745 22.11901855 -0.02202559 C25.90747773 -0.01442955 29.69591496 -0.02147444 33.484375 -0.02618408 C39.84639428 -0.03164181 46.20830908 -0.02444962 52.5703125 -0.01016235 C59.92534763 0.00616426 67.28013327 0.00087576 74.63516235 -0.01564157 C80.95034928 -0.029256 87.2654611 -0.03117633 93.58065796 -0.02332556 C97.35231618 -0.01864879 101.12385713 -0.01802425 104.89550781 -0.02793503 C108.44144365 -0.03660186 111.98705788 -0.03058833 115.53295898 -0.01325226 C117.45491087 -0.00739392 119.37688996 -0.01630542 121.29882812 -0.02563477 C122.44287109 -0.01717529 123.58691406 -0.00871582 124.765625 0 C125.75965332 0.00113108 126.75368164 0.00226215 127.77783203 0.00342751 C130.81032025 0.44290694 132.19203364 1.26768708 134.3828125 3.38095093 C134.83691406 5.64926147 134.83691406 5.64926147 134.7734375 8.26766968 C134.76054687 9.20546265 134.74765625 10.14325562 134.734375 11.10946655 C134.68410156 12.57416382 134.68410156 12.57416382 134.6328125 14.06845093 C134.61476562 15.05651733 134.59671875 16.04458374 134.578125 17.06259155 C134.53096697 19.50301935 134.46517292 21.94149862 134.3828125 24.38095093 C135.68839111 24.3390564 136.99396973 24.29716187 138.33911133 24.2539978 C143.22716634 24.10815448 148.11503317 24.0169838 153.00463867 23.9414978 C155.11239053 23.90150068 157.21992376 23.84708212 159.3269043 23.7774353 C180.48138255 23.09616392 180.48138255 23.09616392 188.29321289 30.22421265 C189.3275647 31.2917981 189.3275647 31.2917981 190.3828125 32.38095093 C191.66261971 33.46979583 192.94978452 34.55008668 194.24609375 35.61923218 C195.39910268 36.64029179 196.54884833 37.66504817 197.6953125 38.69345093 C203.87214956 44.14577472 210.23320424 49.29529669 216.75 54.33407593 C219.3828125 56.38095093 219.3828125 56.38095093 220.3828125 57.38095093 C220.50454035 60.04247731 220.56143006 62.67851621 220.57568359 65.34140015 C220.58794983 66.59260147 220.58794983 66.59260147 220.60046387 67.86907959 C220.62536425 70.64125844 220.64184459 73.41338598 220.65625 76.18563843 C220.66157368 77.12977726 220.66689735 78.07391609 220.67238235 79.04666519 C220.69913261 84.04268839 220.71850252 89.03868642 220.73291016 94.03475952 C220.7495736 99.20591373 220.79436006 104.37643253 220.8452816 109.54734612 C220.87886938 113.51410692 220.89047822 117.48071529 220.89613724 121.44760513 C220.90287196 123.35427844 220.91815126 125.26094096 220.94202805 127.16747665 C220.97350546 129.83275517 220.97374323 132.49629853 220.96630859 135.16171265 C220.98271393 135.95351929 220.99911926 136.74532593 221.01602173 137.56112671 C220.99081421 139.76202393 220.99081421 139.76202393 220.3828125 143.38095093 C216.80293998 146.41306257 213.93771013 146.76933736 209.3203125 146.69345093 C208.29808594 146.68958374 207.27585938 146.68571655 206.22265625 146.68173218 C203.38614855 146.38130426 201.69243236 146.04452327 199.3828125 144.38095093 C198.6328125 140.75595093 198.6328125 140.75595093 198.3828125 137.38095093 C201.07726592 134.79427565 202.20137814 134.38560807 206.03515625 134.28720093 C207.13988281 134.31813843 208.24460938 134.34907593 209.3828125 134.38095093 C209.50737044 125.27873289 209.57197472 116.17857984 209.56159496 107.07550907 C209.55862499 102.84760762 209.57573148 98.62183656 209.63989258 94.39437866 C209.70114543 90.30858999 209.70812815 86.22587423 209.67864418 82.1397686 C209.67675128 80.58689266 209.69389789 79.03386483 209.73103905 77.48143196 C210.03402073 68.35377097 210.03402073 68.35377097 205.95732117 60.45429993 C203.19741393 58.18037973 200.42403004 56.25432228 197.3828125 54.38095093 C196.32217997 53.54748273 195.27429777 52.69682113 194.25390625 51.81454468 C193.45082031 51.15583374 192.64773437 50.4971228 191.8203125 49.81845093 C191.01464844 49.15716187 190.20898438 48.4958728 189.37890625 47.81454468 C172.14766519 33.79175119 172.14766519 33.79175119 134.3828125 36.38095093 C134.3828125 68.72095093 134.3828125 101.06095093 134.3828125 134.38095093 C138.3428125 134.38095093 142.3028125 134.38095093 146.3828125 134.38095093 C147.7028125 135.70095093 149.0228125 137.02095093 150.3828125 138.38095093 C150.3203125 141.50595093 150.3203125 141.50595093 149.3828125 144.38095093 C145.80240674 146.7678881 144.20881967 146.63888086 139.95532227 146.65560913 C139.30782013 146.66072006 138.66031799 146.66583099 137.99319458 146.6710968 C135.85344186 146.68499325 133.71401122 146.68403604 131.57421875 146.68173218 C130.0859312 146.68561916 128.59764475 146.68995383 127.10935974 146.69471741 C123.98978072 146.70217976 120.87031488 146.70188832 117.75073242 146.69662476 C113.75465728 146.69083069 109.75904571 146.70775908 105.76304722 146.73096943 C102.68923742 146.74570759 99.61553924 146.74657837 96.54170036 146.7434597 C95.06851216 146.7439729 93.59531771 146.74921038 92.12216377 146.75927162 C90.06103601 146.77162059 88.00081078 146.76485473 85.93969727 146.75326538 C84.76738052 146.75389481 83.59506378 146.75452423 82.38722229 146.75517273 C79.08766731 146.34418838 77.68867524 145.7476593 75.3828125 143.38095093 C74.8828125 140.38095093 74.8828125 140.38095093 75.3828125 137.38095093 C88.20778813 127.7622192 107.35159296 134.38095093 123.3828125 134.38095093 C123.3828125 94.12095093 123.3828125 53.86095093 123.3828125 12.38095093 C83.1228125 12.38095093 42.8628125 12.38095093 1.3828125 12.38095093 C1.3828125 23.93095093 1.3828125 35.48095093 1.3828125 47.38095093 C-1.6171875 50.38095093 -1.6171875 50.38095093 -4.1171875 50.75595093 C-7.10061863 50.30843626 -7.78455459 49.72001467 -9.6171875 47.38095093 C-10.00486755 45.3699646 -10.00486755 45.3699646 -10.02124023 43.04891968 C-10.03392441 42.17791626 -10.04660858 41.30691284 -10.05967712 40.40951538 C-10.05674149 39.47196411 -10.05380585 38.53441284 -10.05078125 37.56845093 C-10.0560231 36.60318481 -10.06126495 35.6379187 -10.06666565 34.6434021 C-10.07308942 32.60247764 -10.07174427 30.56151618 -10.06323242 28.52059937 C-10.05471935 25.39265269 -10.08348415 22.26652973 -10.11523438 19.13876343 C-10.11684634 17.15699314 -10.11626896 15.17521962 -10.11328125 13.19345093 C-10.12451523 12.25589966 -10.13574921 11.31834839 -10.14732361 10.35238647 C-10.13794266 9.48138306 -10.12856171 8.61037964 -10.11889648 7.71298218 C-10.11873032 6.94703735 -10.11856415 6.18109253 -10.11839294 5.39193726 C-8.881105 0.42756753 -4.46015071 0.00507508 0 0 Z " fill="#FFFFFF" transform="translate(35.6171875,39.619049072265625)"/>
<path d="M0 0 C2.01930038 -0.00969885 4.03757924 -0.04073319 6.05664062 -0.07226562 C7.33539063 -0.07742187 8.61414063 -0.08257812 9.93164062 -0.08789062 C11.68613525 -0.10190918 11.68613525 -0.10190918 13.47607422 -0.11621094 C17.01053026 0.2797002 18.76789388 1.22741119 21.65820312 3.24023438 C22.29991455 3.5934375 22.94162598 3.94664063 23.6027832 4.31054688 C29.21857958 7.55606398 33.85591721 11.28781953 36.65820312 17.24023438 C39.0909414 28.19797667 38.25541823 41.18968576 36.65820312 52.24023438 C34.17335439 54.72508311 33.40831048 54.50027055 29.98071289 54.53076172 C29.00953018 54.54352142 28.03834747 54.55628113 27.03773499 54.56942749 C25.98565353 54.57165314 24.93357208 54.57387878 23.84960938 54.57617188 C22.77194809 54.58282867 21.6942868 54.58948547 20.58396912 54.59634399 C18.30168366 54.60648267 16.0193685 54.61116064 13.73706055 54.61083984 C10.23827457 54.61521242 6.74075004 54.65151898 3.2421875 54.68945312 C1.02799912 54.69532102 -1.18619527 54.69929059 -3.40039062 54.70117188 C-4.45044785 54.71554291 -5.50050507 54.72991394 -6.5823822 54.74472046 C-7.55671707 54.7385672 -8.53105194 54.73241394 -9.53491211 54.72607422 C-10.3926976 54.72892426 -11.25048309 54.73177429 -12.13426208 54.73471069 C-14.34179688 54.24023438 -14.34179688 54.24023438 -16.11895752 52.49246216 C-17.47902379 49.98748958 -17.71639979 48.54911924 -17.71411133 45.71875 C-17.72034012 44.83102905 -17.72656891 43.94330811 -17.73298645 43.02868652 C-17.7237767 42.07755981 -17.71456696 41.12643311 -17.70507812 40.14648438 C-17.70557663 39.16280884 -17.70607513 38.1791333 -17.70658875 37.16564941 C-17.7042503 35.08778868 -17.6945353 33.009925 -17.67797852 30.93212891 C-17.65438432 27.75202091 -17.65741971 24.57275143 -17.6640625 21.39257812 C-17.65848561 19.37304188 -17.65137566 17.35350916 -17.64257812 15.33398438 C-17.64394524 13.90729431 -17.64394524 13.90729431 -17.64533997 12.45178223 C-17.63580795 11.56406128 -17.62627594 10.67634033 -17.61645508 9.76171875 C-17.60954399 8.5940094 -17.60954399 8.5940094 -17.60249329 7.40270996 C-17.30293267 4.91785595 -16.7161947 3.33049314 -15.34179688 1.24023438 C-10.37289169 -0.41606735 -5.20382677 0.01514208 0 0 Z M-5.34179688 12.24023438 C-5.34179688 22.47023438 -5.34179688 32.70023438 -5.34179688 43.24023438 C4.88820312 43.24023438 15.11820313 43.24023438 25.65820312 43.24023438 C26.89026833 31.43665662 26.89026833 31.43665662 24.01757812 20.23632812 C21.99210491 18.2596163 20.05289536 16.73910196 17.65820312 15.24023438 C17.11164063 14.68851563 16.56507813 14.13679688 16.00195312 13.56835938 C12.1783893 11.40167321 8.21153417 11.92973022 3.90820312 12.05273438 C0.85570312 12.11460938 -2.19679687 12.17648438 -5.34179688 12.24023438 Z " fill="#FFFFFF" transform="translate(196.341796875,87.759765625)"/>
<path d="M0 0 C5.09170274 3.70954175 8.24833733 8.69654357 10.23046875 14.625 C10.99752703 21.28944141 10.61148472 27.72505979 7.23046875 33.625 C4.85546875 36.375 4.85546875 36.375 2.23046875 38.625 C1.44671875 39.346875 0.66296875 40.06875 -0.14453125 40.8125 C-5.27473793 44.35478556 -10.64050082 45.15336469 -16.76953125 44.625 C-23.79289928 43.22794669 -29.17323459 40.15508153 -33.76953125 34.625 C-37.24286679 28.70565351 -38.95266172 22.44891415 -37.76953125 15.625 C-35.17567579 7.14988936 -30.35828943 2.14596232 -22.76953125 -2.375 C-14.8694833 -4.85929181 -7.17277201 -4.0140155 0 0 Z M-24.14453125 12.75 C-26.41424526 16.76564786 -26.44237214 20.11204283 -25.76953125 24.625 C-24.04081553 28.81031174 -21.93913647 30.86450002 -17.76953125 32.625 C-13.01981581 33.15274616 -10.77731313 33.10036881 -6.45703125 31.0625 C-3.13902104 28.05314191 -1.92496795 25.95788762 -0.76953125 21.625 C-0.90550498 16.85685466 -2.2392397 14.20462099 -5.45703125 10.6875 C-12.71133116 6.17067175 -17.92702566 7.18696868 -24.14453125 12.75 Z " fill="#FFFFFF" transform="translate(222.76953125,171.375)"/>
<path d="M0 0 C6.12340916 3.48502708 9.48985602 8.05894515 12 14.5625 C13.44290126 22.49845693 12.71206386 29.51752092 8.078125 36.24609375 C2.51460259 42.95432321 -2.97850271 45.47093164 -11.5625 46.3125 C-19.39293289 45.67066124 -25.71666119 42.70737641 -30.96875 36.8359375 C-35.84426003 30.47068829 -36.40152758 23.74830913 -35.375 16 C-33.13255618 8.59785905 -29.09293467 3.76611489 -22.375 0 C-15.17871412 -3.39270248 -7.23867131 -3.2524741 0 0 Z M-21.6875 14.25 C-23.78393453 17.66641183 -24.30471664 19.99384851 -24.375 24 C-23.09108379 27.85174864 -21.72998532 29.68629204 -18.6875 32.375 C-14.36017492 34.49783872 -12.16343042 34.53204782 -7.375 34 C-3.20863661 32.24086879 -1.13413121 30.16636339 0.625 26 C1.15704782 21.21156958 1.12283872 19.01482508 -1 14.6875 C-3.62742801 11.71435778 -5.67440882 10.38772169 -9.375 9 C-14.75486626 9 -17.83722364 10.50378516 -21.6875 14.25 Z " fill="#FFFFFF" transform="translate(93.375,170)"/>
<path d="M0 0 C0.67807709 -0.0065712 1.35615417 -0.0131424 2.05477905 -0.01991272 C4.30751646 -0.03968696 6.56018711 -0.051317 8.81298828 -0.0612793 C9.58060612 -0.06535482 10.34822395 -0.06943035 11.13910294 -0.07362938 C15.20145654 -0.09450717 19.26377618 -0.10880176 23.32617188 -0.11816406 C27.52872602 -0.12923571 31.73075169 -0.16363878 35.93311882 -0.20333576 C39.1587118 -0.22944347 42.38417774 -0.23785061 45.6098671 -0.24144554 C47.15926815 -0.24632627 48.70866299 -0.2579824 50.25796127 -0.27648354 C52.42500782 -0.30075393 54.59067253 -0.29993329 56.7578125 -0.29296875 C58.60860916 -0.30176811 58.60860916 -0.30176811 60.49679565 -0.31074524 C63.50830078 0.17700195 63.50830078 0.17700195 65.44192505 2.04231262 C66.50830078 4.17700195 66.50830078 4.17700195 66.32080078 6.80200195 C65.50830078 9.17700195 65.50830078 9.17700195 63.50830078 11.17700195 C60.66847229 11.43769836 60.66847229 11.43769836 56.99487305 11.45166016 C56.3264035 11.45677109 55.65793396 11.46188202 54.96920776 11.46714783 C52.7542837 11.48107468 50.53966974 11.48008475 48.32470703 11.4777832 C46.78775415 11.48166857 45.25080234 11.48600291 43.71385193 11.49076843 C40.48994468 11.49823737 37.26614693 11.49793463 34.04223633 11.49267578 C29.90815654 11.48688148 25.77452483 11.50380754 21.64051914 11.52702045 C18.46552402 11.54174373 15.29063714 11.54263142 12.11561394 11.53951073 C10.59135997 11.54002469 9.06710006 11.54527656 7.5428791 11.55532265 C5.41199667 11.56764248 3.28199116 11.56092314 1.15112305 11.54931641 C-0.0619603 11.54994583 -1.27504364 11.55057526 -2.52488708 11.55122375 C-5.49169922 11.17700195 -5.49169922 11.17700195 -7.42250061 9.8802948 C-9.23810926 6.98792924 -8.19903741 4.36002381 -7.49169922 1.17700195 C-5.62553106 -0.6891662 -2.49123763 0.01990164 0 0 Z " fill="#FFFFFF" transform="translate(18.49169921875,116.822998046875)"/>
<path d="M0 0 C1.01974411 -0.00525696 1.01974411 -0.00525696 2.06008911 -0.01062012 C4.31229801 -0.01943875 6.56419403 -0.01358799 8.81640625 -0.00683594 C10.37817444 -0.00818255 11.93994223 -0.01012306 13.50170898 -0.01263428 C16.77689602 -0.01558571 20.05197406 -0.01128733 23.32714844 -0.00195312 C27.53074316 0.00944149 31.7340825 0.00288211 35.93766785 -0.00909805 C39.16322767 -0.01631617 42.3887267 -0.01402896 45.61428833 -0.00884247 C47.16447988 -0.00750583 48.7146769 -0.00915418 50.26486206 -0.01380157 C52.42932818 -0.01886609 54.59337752 -0.01115804 56.7578125 0 C58.60741577 0.00238678 58.60741577 0.00238678 60.49438477 0.00482178 C63.37890625 0.25878906 63.37890625 0.25878906 65.37890625 2.25878906 C65.92929631 7.43245566 65.92929631 7.43245566 64.26782227 9.92692566 C61.47185999 11.89834196 59.24052437 11.6328967 55.84375 11.63110352 C55.184888 11.63475418 54.526026 11.63840485 53.84719849 11.64216614 C51.67000527 11.65027003 49.49355673 11.63666379 47.31640625 11.62207031 C45.80330404 11.62155168 44.29020115 11.6220695 42.77709961 11.62358093 C39.60618021 11.62349122 36.43551509 11.6130634 33.26464844 11.5949707 C29.19904406 11.57228341 25.13381127 11.57173945 21.06816101 11.57848835 C17.94377334 11.58182901 14.81947047 11.57519643 11.69509888 11.56535912 C10.19597823 11.5615085 8.69684814 11.56035833 7.19772339 11.56194496 C5.10298678 11.56231562 3.00872744 11.54969602 0.9140625 11.53344727 C-0.27823975 11.52883987 -1.47054199 11.52423248 -2.69897461 11.51948547 C-5.62109375 11.25878906 -5.62109375 11.25878906 -8.62109375 9.25878906 C-8.93359375 5.75878906 -8.93359375 5.75878906 -8.62109375 2.25878906 C-5.79443784 -0.56786685 -3.95947451 0.00510942 0 0 Z " fill="#FFFFFF" transform="translate(8.62109375,140.7412109375)"/>
<path d="M0 0 C0.658862 -0.00365067 1.317724 -0.00730133 1.99655151 -0.01106262 C4.17374473 -0.01916652 6.35019327 -0.00556027 8.52734375 0.0090332 C10.04044596 0.00955183 11.55354885 0.00903402 13.06665039 0.00752258 C16.23756979 0.0076123 19.40823491 0.01804012 22.57910156 0.03613281 C26.64470594 0.05882011 30.70993873 0.05936407 34.77558899 0.05261517 C37.89997666 0.0492745 41.02427953 0.05590708 44.14865112 0.0657444 C45.64777177 0.06959502 47.14690186 0.07074518 48.64602661 0.06915855 C50.74076322 0.0687879 52.83502256 0.08140749 54.9296875 0.09765625 C56.12198975 0.10226364 57.31429199 0.10687103 58.54272461 0.11161804 C61.46484375 0.37231445 61.46484375 0.37231445 64.46484375 2.37231445 C64.77734375 5.87231445 64.77734375 5.87231445 64.46484375 9.37231445 C61.63818784 12.19897036 59.80322451 11.6259941 55.84375 11.63110352 C55.16392059 11.63460815 54.48409119 11.63811279 53.78366089 11.64172363 C51.53145199 11.65054227 49.27955597 11.6446915 47.02734375 11.63793945 C45.46557556 11.63928607 43.90380777 11.64122657 42.34204102 11.64373779 C39.06685398 11.64668923 35.79177594 11.64239084 32.51660156 11.63305664 C28.31300684 11.62166203 24.1096675 11.62822141 19.90608215 11.64020157 C16.68052233 11.64741968 13.4550233 11.64513248 10.22946167 11.63994598 C8.67927012 11.63860935 7.1290731 11.64025769 5.57888794 11.64490509 C3.41442182 11.64996961 1.25037248 11.64226155 -0.9140625 11.63110352 C-2.76366577 11.62871674 -2.76366577 11.62871674 -4.65063477 11.62628174 C-7.53515625 11.37231445 -7.53515625 11.37231445 -9.53515625 9.37231445 C-10.08554631 4.19864785 -10.08554631 4.19864785 -8.42407227 1.70417786 C-5.62810999 -0.26723845 -3.39677437 -0.00179318 0 0 Z " fill="#FFFFFF" transform="translate(30.53515625,92.627685546875)"/>
<path d="M0 0 C1.64453125 1.01171875 1.64453125 1.01171875 3 3 C3.21714241 5.81127043 3.28284276 8.3883345 3.1875 11.1875 C3.17396484 11.93708984 3.16042969 12.68667969 3.14648438 13.45898438 C3.11118539 15.30629767 3.05737917 17.15324066 3 19 C4.22976562 18.94779297 4.22976562 18.94779297 5.484375 18.89453125 C6.56203125 18.86746094 7.6396875 18.84039062 8.75 18.8125 C10.35101563 18.76029297 10.35101563 18.76029297 11.984375 18.70703125 C15.30027855 19.02917214 16.59016673 19.77148914 19 22 C18.6875 25.375 18.6875 25.375 18 29 C13.84049575 31.77300283 10.44867832 31.33074562 5.5625 31.3125 C4.70333984 31.32861328 3.84417969 31.34472656 2.95898438 31.36132812 C1.7127832 31.36229492 1.7127832 31.36229492 0.44140625 31.36328125 C-0.69252563 31.36775269 -0.69252563 31.36775269 -1.84936523 31.37231445 C-4.69451661 30.87976639 -6.00139049 30.08682438 -8 28 C-8.50170898 25.41210938 -8.50170898 25.41210938 -8.49609375 22.34375 C-8.49673828 21.23902344 -8.49738281 20.13429687 -8.49804688 18.99609375 C-8.46807617 17.26552734 -8.46807617 17.26552734 -8.4375 15.5 C-8.44458984 14.34628906 -8.45167969 13.19257813 -8.45898438 12.00390625 C-8.39468976 3.52690908 -8.39468976 3.52690908 -6.62915039 1.16992188 C-4.2955173 -0.50590156 -2.80431821 -0.42064773 0 0 Z " fill="#FFFFFF" transform="translate(34,155)"/>
</svg>
