<?xml version="1.0" encoding="UTF-8"?>
<svg version="1.1" xmlns="http://www.w3.org/2000/svg" width="256" height="256">
<path d="M0 0 C1.18843506 0.12592529 2.37687012 0.25185059 3.60131836 0.3815918 C4.7125708 0.51090088 5.82382324 0.64020996 6.96875 0.7734375 C7.96326172 0.88864746 8.95777344 1.00385742 9.98242188 1.12255859 C12.5 1.625 12.5 1.625 15.5 3.625 C16.16015625 5.77734375 16.16015625 5.77734375 16.5625 8.5625 C16.7171875 9.62339844 16.871875 10.68429688 17.03125 11.77734375 C17.69419499 17.21901723 18.27803673 22.66802596 18.80297852 28.12475586 C18.87959717 28.90858643 18.95621582 29.69241699 19.03515625 30.5 C19.13389038 31.54800781 19.13389038 31.54800781 19.23461914 32.6171875 C19.99627095 38.37967553 21.84910548 39.94304184 26.5 43.625 C28.17684287 46.97868573 27.81087794 50.69089638 27.875 54.375 C27.93107422 55.57382813 27.93107422 55.57382813 27.98828125 56.796875 C28.0511315 61.04275822 27.83607873 63.77723031 25.1015625 67.140625 C22.5 69.625 22.5 69.625 20.5 70.625 C19.84530235 72.95810434 19.28037225 75.26382355 18.75 77.625 C17.12556011 84.27229618 14.80394684 89.23324242 10.5 94.625 C9.9225 95.49125 9.345 96.3575 8.75 97.25 C0.11704426 106.3625644 -11.03140866 111.02666121 -23.46484375 111.65234375 C-36.509593 111.53482349 -47.98723963 107.00619277 -57.46484375 97.94140625 C-64.00185405 90.50100873 -66.85735624 83.02397916 -68.68359375 73.421875 C-69.91534318 69.20210183 -71.85567364 67.9225101 -75.5 65.625 C-77.17684287 62.27131427 -76.81087794 58.55910362 -76.875 54.875 C-76.91238281 54.07578125 -76.94976562 53.2765625 -76.98828125 52.453125 C-77.0511315 48.20724178 -76.83607873 45.47276969 -74.1015625 42.109375 C-71.5 39.625 -71.5 39.625 -69.5 38.625 C-68.86985365 35.4869814 -68.86985365 35.4869814 -68.5 31.66796875 C-68.37818359 30.61891106 -68.37818359 30.61891106 -68.25390625 29.54866028 C-67.99382965 27.30417108 -67.74575339 25.05859963 -67.5 22.8125 C-67.25369094 20.5771972 -67.00459018 18.34240271 -66.74609375 16.10847473 C-66.58517088 14.71695286 -66.43123121 13.32460105 -66.28515625 11.93144226 C-65.88687356 8.4778302 -65.47181171 5.53924808 -63.5 2.625 C-61.3125 1.8671875 -61.3125 1.8671875 -58.5 1.5 C-56.87771484 1.2834375 -56.87771484 1.2834375 -55.22265625 1.0625 C-53.99417969 0.918125 -52.76570313 0.77375 -51.5 0.625 C-50.12353809 0.4386769 -48.74724184 0.25112692 -47.37109375 0.0625 C-31.37730128 -2.03360867 -16.03120418 -1.71577441 0 0 Z M-56.5 10.625 C-57.49 19.205 -58.48 27.785 -59.5 36.625 C-57.458125 36.480625 -55.41625 36.33625 -53.3125 36.1875 C-51.91677204 36.09731259 -50.52094679 36.00860946 -49.125 35.921875 C-46.01852134 35.72772008 -42.91588496 35.50375602 -39.8125 35.265625 C-25.89692673 34.30164424 -12.29758971 35.18414772 1.58178711 36.42553711 C4.54834656 36.62830454 7.52651894 36.625 10.5 36.625 C9.51 28.045 8.52 19.465 7.5 10.625 C-15.0953361 7.35820442 -33.9046639 7.35820442 -56.5 10.625 Z M-57.5 45.625 C-57.5 46.945 -57.5 48.265 -57.5 49.625 C-53.151005 53.85318959 -49.66009662 54.73704087 -43.76660156 54.78613281 C-42.36429291 54.80054413 -42.36429291 54.80054413 -40.93365479 54.81524658 C-39.92945496 54.81949646 -38.92525513 54.82374634 -37.890625 54.828125 C-36.84984802 54.83382507 -35.80907104 54.83952515 -34.73675537 54.84539795 C-32.53447483 54.85483953 -30.33218022 54.86137859 -28.12988281 54.86523438 C-24.77643888 54.87492361 -21.42361223 54.90594881 -18.0703125 54.9375 C-15.92708696 54.94403215 -13.78385705 54.94928179 -11.640625 54.953125 C-10.14647064 54.9716452 -10.14647064 54.9716452 -8.62213135 54.99053955 C-2.55239546 54.97131397 2.00080639 54.26730693 7.5 51.625 C9.52908008 49.11310859 9.52908008 49.11310859 10.5 46.625 C8.7675 46.1609375 8.7675 46.1609375 7 45.6875 C6.3503125 45.51347656 5.700625 45.33945312 5.03125 45.16015625 C-1.33679709 43.81382531 -7.61754987 43.46670365 -14.1015625 43.45703125 C-15.29995255 43.45203865 -15.29995255 43.45203865 -16.52255249 43.44694519 C-18.20497061 43.44191292 -19.88739858 43.43953571 -21.56982422 43.43969727 C-24.09750545 43.43752364 -26.62474019 43.41936367 -29.15234375 43.40039062 C-38.80195807 43.36808086 -47.97842419 43.90205748 -57.5 45.625 Z M18.5 50.625 C15.499467 53.69949747 15.499467 53.69949747 14.5 57.625 C9.39819547 60.27038012 5.33816545 61.87379945 -0.48022461 61.8996582 C-2.25247658 61.91395622 -2.25247658 61.91395622 -4.06053162 61.92854309 C-5.32832962 61.92763168 -6.59612762 61.92672028 -7.90234375 61.92578125 C-9.86803062 61.93220894 -9.86803062 61.93220894 -11.87342834 61.93876648 C-14.64311781 61.94621265 -17.41267978 61.94594909 -20.18237305 61.94067383 C-23.72084772 61.93488055 -27.25879871 61.95181386 -30.79718685 61.9750185 C-34.18642728 61.99334569 -37.5755541 61.98956961 -40.96484375 61.98828125 C-42.86350441 62.00209587 -42.86350441 62.00209587 -44.80052185 62.01618958 C-46.57750206 62.00684639 -46.57750206 62.00684639 -48.39038086 61.99731445 C-49.94661415 61.99825859 -49.94661415 61.99825859 -51.5342865 61.9992218 C-56.80897427 61.33364734 -60.5777555 59.09645722 -63.8125 54.9375 C-64.6931011 53.82114742 -65.58476842 52.71314178 -66.5 51.625 C-66.83 51.625 -67.16 51.625 -67.5 51.625 C-67.5 54.595 -67.5 57.565 -67.5 60.625 C-66.076875 61.058125 -66.076875 61.058125 -64.625 61.5 C-61.5 63.625 -61.5 63.625 -60.76171875 65.734375 C-60.45277553 67.46445705 -60.170363 69.19941995 -59.91015625 70.9375 C-58.29471997 81.52245389 -52.93818831 89.32419662 -44.7421875 96.08203125 C-36.15481556 101.99145967 -26.66898414 102.71057783 -16.5 101.625 C-6.60853097 99.2521139 0.96591598 93.50460817 6.25390625 84.90625 C9.15684481 79.5917794 10.50081754 74.80949374 11.3125 68.8125 C11.765625 65.984375 11.765625 65.984375 12.5 63.625 C15.5625 61.5625 15.5625 61.5625 18.5 60.625 C19.64352916 58.33794169 19.60334439 57.03235238 19.5625 54.5 C19.541875 53.22125 19.52125 51.9425 19.5 50.625 C19.17 50.625 18.84 50.625 18.5 50.625 Z " fill="#9CA3AF" transform="translate(134.5,13.375)"/>
<path d="M0 0 C0.72030396 -0.00175232 1.44060791 -0.00350464 2.18273926 -0.00531006 C4.57497534 -0.00972835 6.9671381 -0.00679068 9.359375 -0.00341797 C11.01464858 -0.00409101 12.66992207 -0.00506105 14.32519531 -0.00631714 C17.79883767 -0.00779408 21.27245437 -0.00563968 24.74609375 -0.00097656 C29.20869998 0.00472073 33.67124608 0.0014417 38.1338501 -0.00454903 C41.5532273 -0.00815474 44.97259015 -0.00701601 48.39196777 -0.00442123 C50.03788256 -0.00375199 51.68379863 -0.00458029 53.32971191 -0.00690079 C55.62609331 -0.00942749 57.92237599 -0.0055865 60.21875 0 C61.52811523 0.00079559 62.83748047 0.00159119 64.18652344 0.00241089 C67.109375 0.12939453 67.109375 0.12939453 68.109375 1.12939453 C68.15030437 3.46236886 68.15179223 5.79644678 68.109375 8.12939453 C69.28306641 8.11199219 69.28306641 8.11199219 70.48046875 8.09423828 C71.99833984 8.08070313 71.99833984 8.08070313 73.546875 8.06689453 C74.55621094 8.05529297 75.56554687 8.04369141 76.60546875 8.03173828 C79.109375 8.12939453 79.109375 8.12939453 80.109375 9.12939453 C80.2077471 10.45983078 80.24016092 11.79532797 80.2421875 13.12939453 C80.24347656 13.93376953 80.24476563 14.73814453 80.24609375 15.56689453 C80.24222656 16.41251953 80.23835938 17.25814453 80.234375 18.12939453 C80.23824219 18.97501953 80.24210937 19.82064453 80.24609375 20.69189453 C80.24480469 21.49626953 80.24351562 22.30064453 80.2421875 23.12939453 C80.24105957 23.87189453 80.23993164 24.61439453 80.23876953 25.37939453 C80.109375 27.12939453 80.109375 27.12939453 79.109375 28.12939453 C76.109375 28.25439453 76.109375 28.25439453 73.109375 28.12939453 C72.109375 27.12939453 72.109375 27.12939453 72.01171875 24.62548828 C72.02332031 23.61615234 72.03492188 22.60681641 72.046875 21.56689453 C72.05589844 20.55498047 72.06492187 19.54306641 72.07421875 18.50048828 C72.08582031 17.71802734 72.09742188 16.93556641 72.109375 16.12939453 C70.789375 16.12939453 69.469375 16.12939453 68.109375 16.12939453 C68.109375 34.60939453 68.109375 53.08939453 68.109375 72.12939453 C70.089375 72.62439453 70.089375 72.62439453 72.109375 73.12939453 C72.15191856 75.12894199 72.15018283 77.12981089 72.109375 79.12939453 C71.109375 80.12939453 71.109375 80.12939453 69.04296875 80.22705078 C68.21925781 80.21544922 67.39554687 80.20384766 66.546875 80.19189453 C65.30744141 80.17835938 65.30744141 80.17835938 64.04296875 80.16455078 C63.08583984 80.14714844 63.08583984 80.14714844 62.109375 80.12939453 C62.12097656 80.91185547 62.13257813 81.69431641 62.14453125 82.50048828 C62.15355469 83.51240234 62.16257812 84.52431641 62.171875 85.56689453 C62.18347656 86.57623047 62.19507813 87.58556641 62.20703125 88.62548828 C62.109375 91.12939453 62.109375 91.12939453 61.109375 92.12939453 C59.77893875 92.22776663 58.44344156 92.26018045 57.109375 92.26220703 C56.305 92.26349609 55.500625 92.26478516 54.671875 92.26611328 C53.82625 92.26224609 52.980625 92.25837891 52.109375 92.25439453 C51.26375 92.25826172 50.418125 92.26212891 49.546875 92.26611328 C48.7425 92.26482422 47.938125 92.26353516 47.109375 92.26220703 C46.366875 92.2610791 45.624375 92.25995117 44.859375 92.25878906 C43.109375 92.12939453 43.109375 92.12939453 42.109375 91.12939453 C42.109375 87.49939453 42.109375 83.86939453 42.109375 80.12939453 C34.189375 80.12939453 26.269375 80.12939453 18.109375 80.12939453 C18.109375 83.75939453 18.109375 87.38939453 18.109375 91.12939453 C16.5872791 92.65149043 15.22727418 92.25898974 13.109375 92.26220703 C12.305 92.26349609 11.500625 92.26478516 10.671875 92.26611328 C9.82625 92.26224609 8.980625 92.25837891 8.109375 92.25439453 C7.26375 92.25826172 6.418125 92.26212891 5.546875 92.26611328 C4.7425 92.26482422 3.938125 92.26353516 3.109375 92.26220703 C2.366875 92.2610791 1.624375 92.25995117 0.859375 92.25878906 C-0.890625 92.12939453 -0.890625 92.12939453 -1.890625 91.12939453 C-1.96289002 89.27651952 -1.9744372 87.42105576 -1.953125 85.56689453 C-1.94410156 84.55498047 -1.93507812 83.54306641 -1.92578125 82.50048828 C-1.91417969 81.71802734 -1.90257812 80.93556641 -1.890625 80.12939453 C-2.52871094 80.14099609 -3.16679687 80.15259766 -3.82421875 80.16455078 C-4.65050781 80.17357422 -5.47679687 80.18259766 -6.328125 80.19189453 C-7.56369141 80.20929688 -7.56369141 80.20929688 -8.82421875 80.22705078 C-10.890625 80.12939453 -10.890625 80.12939453 -11.890625 79.12939453 C-11.93143283 77.12981089 -11.93316856 75.12894199 -11.890625 73.12939453 C-9.910625 72.63439453 -9.910625 72.63439453 -7.890625 72.12939453 C-7.890625 53.64939453 -7.890625 35.16939453 -7.890625 16.12939453 C-9.210625 16.12939453 -10.530625 16.12939453 -11.890625 16.12939453 C-11.87902344 16.91185547 -11.86742188 17.69431641 -11.85546875 18.50048828 C-11.84644531 19.51240234 -11.83742188 20.52431641 -11.828125 21.56689453 C-11.81652344 22.57623047 -11.80492188 23.58556641 -11.79296875 24.62548828 C-11.890625 27.12939453 -11.890625 27.12939453 -12.890625 28.12939453 C-15.890625 28.25439453 -15.890625 28.25439453 -18.890625 28.12939453 C-20.4127209 26.60729863 -20.02022021 25.24729371 -20.0234375 23.12939453 C-20.02472656 22.32501953 -20.02601562 21.52064453 -20.02734375 20.69189453 C-20.02347656 19.84626953 -20.01960938 19.00064453 -20.015625 18.12939453 C-20.01949219 17.28376953 -20.02335937 16.43814453 -20.02734375 15.56689453 C-20.02605469 14.76251953 -20.02476563 13.95814453 -20.0234375 13.12939453 C-20.02230957 12.38689453 -20.02118164 11.64439453 -20.02001953 10.87939453 C-19.890625 9.12939453 -19.890625 9.12939453 -18.890625 8.12939453 C-17.03774998 8.05712952 -15.18228622 8.04558233 -13.328125 8.06689453 C-12.31621094 8.07591797 -11.30429688 8.08494141 -10.26171875 8.09423828 C-9.08802734 8.11164063 -9.08802734 8.11164063 -7.890625 8.12939453 C-7.91125 6.99501953 -7.931875 5.86064453 -7.953125 4.69189453 C-7.84682488 -1.36721232 -5.47071023 0.0033241 0 0 Z M0.109375 8.12939453 C0.109375 21.32939453 0.109375 34.52939453 0.109375 48.12939453 C19.909375 48.12939453 39.709375 48.12939453 60.109375 48.12939453 C60.109375 34.92939453 60.109375 21.72939453 60.109375 8.12939453 C40.309375 8.12939453 20.509375 8.12939453 0.109375 8.12939453 Z M0.109375 56.12939453 C0.109375 61.40939453 0.109375 66.68939453 0.109375 72.12939453 C19.909375 72.12939453 39.709375 72.12939453 60.109375 72.12939453 C60.109375 66.84939453 60.109375 61.56939453 60.109375 56.12939453 C40.309375 56.12939453 20.509375 56.12939453 0.109375 56.12939453 Z M6.109375 80.12939453 C6.109375 81.44939453 6.109375 82.76939453 6.109375 84.12939453 C7.429375 84.12939453 8.749375 84.12939453 10.109375 84.12939453 C10.109375 82.80939453 10.109375 81.48939453 10.109375 80.12939453 C8.789375 80.12939453 7.469375 80.12939453 6.109375 80.12939453 Z M50.109375 80.12939453 C50.109375 81.44939453 50.109375 82.76939453 50.109375 84.12939453 C51.429375 84.12939453 52.749375 84.12939453 54.109375 84.12939453 C54.109375 82.80939453 54.109375 81.48939453 54.109375 80.12939453 C52.789375 80.12939453 51.469375 80.12939453 50.109375 80.12939453 Z " fill="#9BA3AE" transform="translate(137.890625,151.87060546875)"/>
<path d="M0 0 C0.75373901 -0.00671722 1.50747803 -0.01343445 2.28405762 -0.02035522 C4.76341442 -0.03927259 7.24249944 -0.0432567 9.72192383 -0.04541016 C11.4581971 -0.05184414 13.19446931 -0.05857294 14.93074036 -0.06558228 C18.56794749 -0.07754063 22.20505976 -0.08126476 25.84228516 -0.08007812 C30.47775079 -0.07987541 35.11260008 -0.10713456 39.74792004 -0.14162254 C43.33499379 -0.16398723 46.9219217 -0.1679127 50.509058 -0.16685867 C52.21650623 -0.16920191 53.92395928 -0.17795252 55.63133812 -0.19352341 C74.33301188 -0.34806517 74.33301188 -0.34806517 82.24145508 4.29052734 C84.24145508 7.29052734 84.24145508 7.29052734 84.17895508 9.35302734 C83.24145508 11.29052734 83.24145508 11.29052734 81.17895508 12.72802734 C77.63462995 13.4067279 75.84591768 12.3484565 72.57958984 11.05395508 C68.39884236 9.68889322 64.10535201 9.44871395 59.74145508 9.10302734 C58.82364258 9.02117187 57.90583008 8.93931641 56.96020508 8.85498047 C54.72129084 8.65674327 52.482031 8.46881317 50.24145508 8.29052734 C49.8339502 9.38433716 49.8339502 9.38433716 49.41821289 10.50024414 C47.49747958 15.05461365 44.72565008 19.00173484 41.99145508 23.10302734 C41.43071289 23.98667969 40.8699707 24.87033203 40.29223633 25.78076172 C36.09543855 32.05657364 36.09543855 32.05657364 32.06176758 33.16162109 C28.4014383 32.03107618 27.46201926 30.72434588 25.36645508 27.54052734 C24.68325195 26.54923828 24.00004883 25.55794922 23.29614258 24.53662109 C21.92001537 22.36254939 20.61215489 20.14383181 19.37426758 17.88818359 C16.12809377 11.77050514 16.12809377 11.77050514 10.42114258 8.46630859 C7.23664811 8.41336943 4.37485359 8.73185939 1.24145508 9.29052734 C0.3468457 9.40654297 -0.54776367 9.52255859 -1.46948242 9.64208984 C-10.30160439 11.0280536 -18.69434069 14.85282473 -24.16870117 22.17724609 C-31.18978441 32.92380207 -30.9167761 44.18958349 -31.07495117 56.63427734 C-31.09555979 58.01290453 -31.11655718 59.39152596 -31.13792419 60.7701416 C-31.19274184 64.37360933 -31.24232634 67.9771302 -31.29077148 71.58068848 C-31.3412836 75.26786956 -31.39681352 78.95497483 -31.4519043 82.64208984 C-31.55899175 89.85817287 -31.66007878 97.07432058 -31.75854492 104.29052734 C-25.15854492 104.29052734 -18.55854492 104.29052734 -11.75854492 104.29052734 C-11.76640015 101.98097046 -11.76640015 101.98097046 -11.77441406 99.62475586 C-11.79245666 93.93514584 -11.80397421 88.24553837 -11.81347656 82.5559082 C-11.81851848 80.08910701 -11.82535183 77.62230882 -11.83398438 75.15551758 C-11.84605617 71.61848206 -11.85177448 68.08148589 -11.85620117 64.54443359 C-11.86136246 63.43403214 -11.86652374 62.32363068 -11.87184143 61.17958069 C-11.87195473 59.64810646 -11.87195473 59.64810646 -11.87207031 58.08569336 C-11.87429092 57.18190445 -11.87651154 56.27811554 -11.87879944 55.34693909 C-11.75854492 53.29052734 -11.75854492 53.29052734 -10.75854492 52.29052734 C-7.75854492 52.16552734 -7.75854492 52.16552734 -4.75854492 52.29052734 C-3.75854492 53.29052734 -3.75854492 53.29052734 -3.63829041 55.34693909 C-3.64051102 56.250728 -3.64273163 57.15451691 -3.64501953 58.08569336 C-3.64509506 59.10667618 -3.64517059 60.127659 -3.64524841 61.17958069 C-3.6504097 62.28998215 -3.65557098 63.40038361 -3.66088867 64.54443359 C-3.66230362 65.67501694 -3.66371857 66.80560028 -3.66517639 67.97044373 C-3.67079473 71.597998 -3.68335034 75.22549158 -3.69604492 78.85302734 C-3.70105756 81.30550041 -3.70562087 83.75797445 -3.7097168 86.21044922 C-3.72077012 92.2371628 -3.73752609 98.26384074 -3.75854492 104.29052734 C-3.12183365 104.28830673 -2.48512238 104.28608612 -1.82911682 104.28379822 C4.77260784 104.26174694 11.37432212 104.24662141 17.97607422 104.2355957 C20.44287541 104.23055378 22.9096736 104.22372044 25.37646484 104.21508789 C28.91350037 104.2030161 32.45049653 104.19729778 35.98754883 104.19287109 C37.09795029 104.18770981 38.20835175 104.18254852 39.35240173 104.17723083 C40.88387596 104.17711754 40.88387596 104.17711754 42.44628906 104.17700195 C43.35007797 104.17478134 44.25386688 104.17256073 45.18504333 104.17027283 C47.24145508 104.29052734 47.24145508 104.29052734 48.24145508 105.29052734 C48.36645508 108.29052734 48.36645508 108.29052734 48.24145508 111.29052734 C46.45537451 113.07660791 44.04881973 112.41678695 41.67047119 112.42605591 C40.871474 112.42403168 40.07247681 112.42200745 39.24926758 112.41992188 C37.99324738 112.42255035 37.99324738 112.42255035 36.71185303 112.42523193 C33.93003294 112.42965136 31.14827587 112.42671215 28.36645508 112.42333984 C26.44213855 112.42401286 24.5178221 112.42498286 22.59350586 112.42623901 C18.55492343 112.42771611 14.51636307 112.42556106 10.4777832 112.42089844 C5.28876997 112.41520114 0.09980845 112.41848009 -5.08920288 112.4244709 C-9.06445712 112.4280762 -13.03969901 112.42693807 -17.01495361 112.42434311 C-18.92881272 112.42367375 -20.84267294 112.42450256 -22.75653076 112.42682266 C-25.42650342 112.42934868 -28.09639112 112.42550933 -30.76635742 112.41992188 C-31.56535461 112.42194611 -32.36435181 112.42397034 -33.18756104 112.42605591 C-38.64428243 112.40478984 -38.64428243 112.40478984 -39.75854492 111.29052734 C-39.88012944 108.88992617 -39.93712966 106.51756234 -39.95141602 104.11547852 C-39.95959351 103.36407593 -39.967771 102.61267334 -39.97619629 101.83850098 C-40.00112169 99.33684082 -40.01759509 96.83523818 -40.03198242 94.33349609 C-40.03996794 93.04997977 -40.03996794 93.04997977 -40.04811478 91.74053383 C-40.07489257 87.20097371 -40.09424213 82.66144138 -40.10864258 78.12182617 C-40.12519317 73.4559724 -40.16987534 68.79083845 -40.22101402 64.12525463 C-40.25488342 60.52099413 -40.2662421 56.91689915 -40.27186966 53.31249428 C-40.2785409 51.59467459 -40.29365395 49.87686416 -40.31776047 48.15920067 C-40.50076029 34.31641673 -38.46750834 22.90375696 -28.75854492 12.29052734 C-20.87964984 4.30013846 -11.25612441 -0.01457764 0 0 Z M25.24145508 8.29052734 C26.93259994 12.51838949 28.55030423 15.67429339 31.24145508 19.29052734 C31.90145508 19.29052734 32.56145508 19.29052734 33.24145508 19.29052734 C34.83494369 17.34438207 34.83494369 17.34438207 36.36645508 14.91552734 C36.9052832 14.10341797 37.44411133 13.29130859 37.99926758 12.45458984 C39.40739638 10.41730709 39.40739638 10.41730709 39.24145508 8.29052734 C34.62145508 8.29052734 30.00145508 8.29052734 25.24145508 8.29052734 Z " fill="#9CA3AF" transform="translate(77.758544921875,131.70947265625)"/>
<path d="M0 0 C0.9075 0.00257813 1.815 0.00515625 2.75 0.0078125 C4.11125 0.00394531 4.11125 0.00394531 5.5 0 C7.75 0.1328125 7.75 0.1328125 8.75 1.1328125 C8.875 4.1328125 8.875 4.1328125 8.75 7.1328125 C7.75 8.1328125 7.75 8.1328125 5.5 8.265625 C4.5925 8.26304687 3.685 8.26046875 2.75 8.2578125 C1.38875 8.26167969 1.38875 8.26167969 0 8.265625 C-2.25 8.1328125 -2.25 8.1328125 -3.25 7.1328125 C-3.375 4.1328125 -3.375 4.1328125 -3.25 1.1328125 C-2.25 0.1328125 -2.25 0.1328125 0 0 Z " fill="#9BA3AE" transform="translate(183.25,211.8671875)"/>
<path d="M0 0 C0.9075 0.00257813 1.815 0.00515625 2.75 0.0078125 C4.11125 0.00394531 4.11125 0.00394531 5.5 0 C7.75 0.1328125 7.75 0.1328125 8.75 1.1328125 C8.875 4.1328125 8.875 4.1328125 8.75 7.1328125 C7.75 8.1328125 7.75 8.1328125 5.5 8.265625 C4.5925 8.26304687 3.685 8.26046875 2.75 8.2578125 C1.38875 8.26167969 1.38875 8.26167969 0 8.265625 C-2.25 8.1328125 -2.25 8.1328125 -3.25 7.1328125 C-3.375 4.1328125 -3.375 4.1328125 -3.25 1.1328125 C-2.25 0.1328125 -2.25 0.1328125 0 0 Z " fill="#9BA3AE" transform="translate(147.25,211.8671875)"/>
</svg>
