<?xml version="1.0" encoding="UTF-8"?>
<svg version="1.1" xmlns="http://www.w3.org/2000/svg" width="256" height="256">
<path d="M0 0 C0.95659327 -0.00623996 1.91318653 -0.01247993 2.89876747 -0.01890898 C6.09471118 -0.03482618 9.28989087 -0.02223937 12.48583984 -0.00964355 C14.78090865 -0.01506522 17.07597398 -0.02218812 19.37103271 -0.03088379 C25.59824918 -0.04911459 31.82520048 -0.04205041 38.05242157 -0.02936745 C44.57011122 -0.01923864 51.08777821 -0.0286328 57.60546875 -0.03491211 C69.25168454 -0.0426549 80.89777934 -0.03022621 92.54397607 -0.00987476 C103.09692268 0.00799554 113.64969328 0.00489121 124.20263672 -0.0135498 C136.46650639 -0.03497068 148.73025075 -0.04291608 160.99413872 -0.03110075 C167.48272808 -0.02486542 173.97119626 -0.02403143 180.45977783 -0.0372467 C186.56002112 -0.04880324 192.65993207 -0.04078254 198.76013947 -0.01766968 C200.99865416 -0.01238161 203.23719683 -0.01389799 205.47570038 -0.02272034 C208.53202911 -0.03365512 211.58729371 -0.01993632 214.64355469 0 C215.52887186 -0.00892289 216.41418903 -0.01784577 217.326334 -0.02703905 C223.15169467 0.04663828 226.64625116 0.93153744 231.32177734 4.50793457 C235.45286094 9.31982857 235.89886757 14.13724099 235.82971191 20.27502441 C235.83907186 21.56290643 235.83907186 21.56290643 235.84862089 22.87680626 C235.86451949 25.74111121 235.85195897 28.60456147 235.83935547 31.46887207 C235.84477797 33.5274912 235.85190135 35.58610645 235.8605957 37.64471436 C235.87881656 43.22733339 235.8717665 48.80965643 235.85907936 54.39228058 C235.84894537 60.23731783 235.85834616 66.08232991 235.86462402 71.92736816 C235.87189924 81.74268133 235.86231594 91.55787407 235.84326172 101.37316895 C235.8214933 112.71754546 235.82854476 124.06163441 235.85056734 135.40600395 C235.86872484 145.14972328 235.87127792 154.89335609 235.86081266 164.63708687 C235.8545797 170.45498492 235.85373681 176.27274786 235.86695862 182.09063721 C235.87852148 187.56053871 235.87048307 193.0300698 235.84738159 198.49993134 C235.84209688 200.50623713 235.84360419 202.51257416 235.85243225 204.51886749 C235.86338062 207.25994603 235.84963271 209.99984136 235.82971191 212.74084473 C235.84309624 213.92874635 235.84309624 213.92874635 235.85675097 215.14064598 C235.78231333 220.42952389 234.82488071 224.42751313 231.32177734 228.50793457 C225.83764739 232.70284779 221.40738532 233.08404007 214.64355469 233.01586914 C213.68696142 233.0221091 212.73036816 233.02834907 211.74478722 233.03477812 C208.54884351 233.05069532 205.35366382 233.03810851 202.15771484 233.0255127 C199.86264604 233.03093436 197.56758071 233.03805726 195.27252197 233.04675293 C189.0453055 233.06498373 182.81835421 233.05791955 176.59113312 233.04523659 C170.07344347 233.03510778 163.55577648 233.04450195 157.03808594 233.05078125 C145.39187015 233.05852404 133.74577534 233.04609535 122.09957862 233.0257439 C111.546632 233.0078736 100.99386141 233.01097793 90.44091797 233.02941895 C78.1770483 233.05083982 65.91330394 233.05878522 53.64941597 233.04696989 C47.16082661 233.04073456 40.67235842 233.03990057 34.18377686 233.05311584 C28.08353357 233.06467238 21.98362262 233.05665168 15.88341522 233.03353882 C13.64490053 233.02825075 11.40635786 233.02976713 9.16785431 233.03858948 C6.11152558 233.04952426 3.05626098 233.03580547 0 233.01586914 C-0.88531717 233.02479203 -1.77063435 233.03371491 -2.68277931 233.04290819 C-8.50813998 232.96923086 -12.00269647 232.0843317 -16.67822266 228.50793457 C-20.80930625 223.69604057 -21.25531289 218.87862815 -21.18615723 212.74084473 C-21.19239719 211.88225672 -21.19863715 211.02366871 -21.2050662 210.13906288 C-21.2209648 207.27475793 -21.20840428 204.41130767 -21.19580078 201.54699707 C-21.20122329 199.48837794 -21.20834667 197.4297627 -21.21704102 195.37115479 C-21.23526187 189.78853575 -21.22821181 184.20621271 -21.21552467 178.62358856 C-21.20539068 172.77855131 -21.21479147 166.93353923 -21.22106934 161.08850098 C-21.22834455 151.27318781 -21.21876126 141.45799507 -21.19970703 131.6427002 C-21.17793862 120.29832368 -21.18499007 108.95423473 -21.20701265 97.60986519 C-21.22517015 87.86614586 -21.22772323 78.12251305 -21.21725798 68.37878227 C-21.21102501 62.56088422 -21.21018212 56.74312128 -21.22340393 50.92523193 C-21.23496679 45.45533043 -21.22692838 39.98579934 -21.2038269 34.51593781 C-21.19854219 32.50963201 -21.2000495 30.50329498 -21.20887756 28.49700165 C-21.21982593 25.75592311 -21.20607802 23.01602778 -21.18615723 20.27502441 C-21.19508011 19.48309 -21.204003 18.69115559 -21.21319628 17.87522316 C-21.13875864 12.58634525 -20.18132603 8.58835601 -16.67822266 4.50793457 C-11.1940927 0.31302135 -6.76383064 -0.06817093 0 0 Z M-8.36099249 12.84368062 C-13.68389216 19.56889618 -10.67822266 30.02642373 -10.67822266 37.50793457 C67.20177734 37.50793457 145.08177734 37.50793457 225.32177734 37.50793457 C226.55974626 19.70532941 226.55974626 19.70532941 223.32177734 12.50793457 C219.95624784 10.82516982 216.1474013 11.36384478 212.44569397 11.36749268 C211.51505188 11.36452155 210.58440979 11.36155043 209.62556642 11.35848927 C206.48791749 11.34977492 203.35030658 11.34829173 200.21264648 11.34680176 C197.97094134 11.34217558 195.72923699 11.3371512 193.48753357 11.33175659 C187.38433973 11.31861279 181.28115689 11.31218399 175.1779511 11.30774593 C171.3690795 11.3048189 167.56021094 11.30071485 163.75134087 11.29624176 C153.21103701 11.28413096 142.67073579 11.27374911 132.13042545 11.27036667 C131.1182398 11.27003732 131.1182398 11.27003732 130.08560595 11.26970132 C129.0709676 11.2693739 129.0709676 11.2693739 128.03583151 11.26903987 C126.66508233 11.2685964 125.29433316 11.26814984 123.92358398 11.2677002 C122.90367063 11.26736805 122.90367063 11.26736805 121.86315297 11.2670292 C110.8398487 11.26307919 99.81661045 11.24561911 88.79333169 11.22234067 C77.48295474 11.19864817 66.17262212 11.18642399 54.86221594 11.18499875 C48.50894106 11.18394804 42.15575931 11.17798375 35.8025074 11.16017914 C29.82963606 11.14376643 23.85692852 11.14150972 17.88404274 11.15031815 C15.68738111 11.15109213 13.49071093 11.14669858 11.2940712 11.13685989 C8.30413061 11.12424949 5.31477983 11.12995745 2.32484436 11.14044189 C1.00929419 11.12835729 1.00929419 11.12835729 -0.33283275 11.11602855 C-4.63868191 11.00661928 -4.63868191 11.00661928 -8.36099249 12.84368062 Z M-10.67822266 48.50793457 C-10.71947266 75.95980957 -10.76072266 103.41168457 -10.80322266 131.69543457 C-10.82143066 140.36848877 -10.83963867 149.04154297 -10.85839844 157.97741699 C-10.86508665 165.74118725 -10.86508665 165.74118725 -10.86911011 173.50495911 C-10.87097596 176.96726537 -10.87848112 180.42951051 -10.88937378 183.89179993 C-10.90308001 188.30680394 -10.90720716 192.72171892 -10.90436721 197.13674223 C-10.90496116 198.75789946 -10.90893411 200.37905976 -10.91665292 202.00019872 C-10.92659192 204.18914407 -10.92420596 206.37774296 -10.91873169 208.56669617 C-10.92057528 209.79360263 -10.92241886 211.02050909 -10.92431831 212.28459454 C-10.68053477 215.47765076 -10.15374223 217.67821554 -8.67822266 220.50793457 C-5.31269316 222.19069932 -1.50384661 221.65202436 2.19786072 221.64837646 C3.12850281 221.65134759 4.0591449 221.65431871 5.01798826 221.65737987 C8.1556372 221.66609422 11.2932481 221.66757741 14.4309082 221.66906738 C16.67261334 221.67369356 18.91431769 221.67871794 21.15602112 221.68411255 C27.25921496 221.69725635 33.3623978 221.70368515 39.46560359 221.70812321 C43.27447519 221.71105024 47.08334375 221.71515429 50.89221382 221.71962738 C61.43251768 221.73173818 71.9728189 221.74212003 82.51312923 221.74550247 C83.52531489 221.74583182 83.52531489 221.74583182 84.55794874 221.74616782 C85.57258709 221.74649524 85.57258709 221.74649524 86.60772318 221.74682927 C87.97847235 221.74727274 89.34922153 221.7477193 90.7199707 221.74816895 C91.73988405 221.74850109 91.73988405 221.74850109 92.78040171 221.74883994 C103.80370599 221.75278995 114.82694424 221.77025003 125.850223 221.79352847 C137.16059994 221.81722097 148.47093257 221.82944515 159.78133875 221.83087039 C166.13461362 221.8319211 172.48779538 221.83788539 178.84104729 221.85569 C184.81391863 221.87210271 190.78662617 221.87435942 196.75951195 221.86555099 C198.95617357 221.86477701 201.15284376 221.86917056 203.34948349 221.87900925 C206.33942408 221.89161966 209.32877486 221.88591169 212.31871033 221.87542725 C213.6342605 221.88751185 213.6342605 221.88751185 214.97638744 221.89984059 C219.2822366 222.00924986 219.2822366 222.00924986 223.00454718 220.17218852 C225.787415 216.65617523 225.44525588 213.10482534 225.44203186 208.8072052 C225.44288788 208.12433945 225.4437439 207.44147369 225.44462585 206.73791504 C225.44628383 204.43767709 225.44075289 202.1375116 225.43530273 199.83728027 C225.43499648 198.16485948 225.43512976 196.49243855 225.43566799 194.82001781 C225.43589408 190.33458822 225.43009119 185.84918521 225.42305756 181.3637619 C225.41736968 177.15738337 225.41709482 172.95101136 225.41638184 168.74462891 C225.41113101 156.4365606 225.39716991 144.12849725 225.38427734 131.82043457 C225.36365234 104.32730957 225.34302734 76.83418457 225.32177734 48.50793457 C147.44177734 48.50793457 69.56177734 48.50793457 -10.67822266 48.50793457 Z " fill="#FFFFFF" transform="translate(20.67822265625,11.4920654296875)"/>
<path d="M0 0 C1.28519531 -0.00386719 2.57039063 -0.00773437 3.89453125 -0.01171875 C4.56307129 -0.00543457 5.23161133 0.00084961 5.92041016 0.00732422 C7.9619433 0.02338396 10.00149708 0.00747079 12.04296875 -0.01171875 C13.32816406 -0.00785156 14.61335938 -0.00398438 15.9375 0 C17.11763672 0.00338379 18.29777344 0.00676758 19.51367188 0.01025391 C22.46875 0.3984375 22.46875 0.3984375 24.13215637 1.46537781 C26.14734493 4.37986108 25.86197472 7.29931964 25.80932617 10.71557617 C25.80998329 11.82814034 25.80998329 11.82814034 25.81065369 12.96318054 C25.80856383 15.41452366 25.78522419 17.86518263 25.76171875 20.31640625 C25.75612348 22.01605353 25.75185306 23.71570565 25.74885559 25.4153595 C25.73740134 29.88875691 25.70792927 34.36186209 25.67474365 38.83514404 C25.64405521 43.39982144 25.63035288 47.96454605 25.61523438 52.52929688 C25.58306005 61.48580547 25.53185675 70.44209719 25.46875 79.3984375 C26.39107422 79.34623047 26.39107422 79.34623047 27.33203125 79.29296875 C28.14027344 79.26589844 28.94851562 79.23882812 29.78125 79.2109375 C30.98201172 79.15873047 30.98201172 79.15873047 32.20703125 79.10546875 C34.46875 79.3984375 34.46875 79.3984375 36.2734375 80.68359375 C37.46875 82.3984375 37.46875 82.3984375 37.28125 86.0234375 C36.8790625 87.6940625 36.8790625 87.6940625 36.46875 89.3984375 C33.03159502 91.11701499 29.07639236 90.55489457 25.29321289 90.55957031 C24.3418898 90.56453522 23.39056671 90.56950012 22.41041565 90.57461548 C19.25407191 90.58925641 16.09777841 90.59604176 12.94140625 90.6015625 C10.75426735 90.60731166 8.56712848 90.61306942 6.37998962 90.61883545 C1.79084029 90.62935046 -2.79829148 90.63519009 -7.38745117 90.63867188 C-13.27694849 90.64416249 -19.1662153 90.66820062 -25.05564022 90.69664383 C-29.57398667 90.71523627 -34.09227717 90.72047396 -38.61065865 90.72200775 C-40.78244858 90.72504169 -42.95423736 90.73309499 -45.12598991 90.74619293 C-48.15961306 90.76318505 -51.19266738 90.76139008 -54.22631836 90.75488281 C-55.12876282 90.7640976 -56.03120728 90.77331238 -56.96099854 90.7828064 C-58.19972969 90.77445267 -58.19972969 90.77445267 -59.46348572 90.76593018 C-60.53946974 90.76813002 -60.53946974 90.76813002 -61.63719082 90.7703743 C-64.11022283 90.28474448 -65.00180372 89.36661607 -66.53125 87.3984375 C-66.95947025 84.54363581 -66.93784584 83.05350858 -65.40625 80.5859375 C-62.77922079 78.92215234 -60.58192135 79.31989718 -57.53125 79.3984375 C-57.55219727 78.08125732 -57.57314453 76.76407715 -57.59472656 75.40698242 C-57.66705443 70.52623337 -57.71302362 65.6455318 -57.75097656 60.7644043 C-57.77110847 58.65071653 -57.79841643 56.53708456 -57.83300781 54.42358398 C-57.88145627 51.38771815 -57.90420276 48.35258772 -57.921875 45.31640625 C-57.95284271 43.8959626 -57.95284271 43.8959626 -57.98443604 42.44682312 C-57.98665294 35.98458074 -57.98665294 35.98458074 -55.90527344 33.30566406 C-50.70440171 31.31816516 -45.02151824 31.93061975 -39.53125 31.9609375 C-38.24734375 31.94095703 -36.9634375 31.92097656 -35.640625 31.90039062 C-34.40828125 31.90103516 -33.1759375 31.90167969 -31.90625 31.90234375 C-30.77960937 31.90049072 -29.65296875 31.8986377 -28.4921875 31.89672852 C-25.53125 32.3984375 -25.53125 32.3984375 -23.15722656 33.81713867 C-20.64160867 37.8107765 -21.03687487 41.57230813 -21.140625 46.1953125 C-21.14628479 47.14408264 -21.15194458 48.09285278 -21.15777588 49.07037354 C-21.18014391 52.09691086 -21.23034142 55.12225879 -21.28125 58.1484375 C-21.30131443 60.2018058 -21.3195653 62.25519269 -21.3359375 64.30859375 C-21.38001019 69.33899906 -21.44904109 74.36851671 -21.53125 79.3984375 C-17.57125 79.3984375 -13.61125 79.3984375 -9.53125 79.3984375 C-9.53791183 78.45296555 -9.54457367 77.50749359 -9.55143738 76.53337097 C-9.61220462 67.63107521 -9.65720148 58.72882143 -9.68668652 49.82636547 C-9.70235459 45.24930884 -9.72361359 40.67241939 -9.75756836 36.09545898 C-9.79012126 31.67992315 -9.80809441 27.2645483 -9.81588173 22.84890175 C-9.82143258 21.16274798 -9.83227185 19.4766032 -9.84844017 17.79051781 C-9.87016075 15.43200896 -9.87321924 13.07416865 -9.87182617 10.71557617 C-9.882612 10.01570587 -9.89339783 9.31583557 -9.9045105 8.59475708 C-9.88626605 5.74748783 -9.83989042 3.84481129 -8.19465637 1.46537781 C-5.53764471 -0.23887973 -3.118458 0.00894151 0 0 Z M1.46875 11.3984375 C1.46875 33.8384375 1.46875 56.2784375 1.46875 79.3984375 C5.75875 79.3984375 10.04875 79.3984375 14.46875 79.3984375 C14.46875 56.9584375 14.46875 34.5184375 14.46875 11.3984375 C10.17875 11.3984375 5.88875 11.3984375 1.46875 11.3984375 Z M-46.53125 43.3984375 C-46.53125 55.2784375 -46.53125 67.1584375 -46.53125 79.3984375 C-41.91125 79.3984375 -37.29125 79.3984375 -32.53125 79.3984375 C-32.53125 67.5184375 -32.53125 55.6384375 -32.53125 43.3984375 C-37.15125 43.3984375 -41.77125 43.3984375 -46.53125 43.3984375 Z " fill="#FFFFFF" transform="translate(91.53125,93.6015625)"/>
<path d="M0 0 C8.86988475 6.23063468 15.15540261 14.78297218 17.44140625 25.46484375 C19.00502412 36.10507264 17.33077133 47.09343786 11.01171875 56.01953125 C3.15637516 65.3748902 -5.90073071 71.51344411 -18.23828125 72.64453125 C-30.42866027 72.7794801 -39.65297042 69.8032558 -48.9765625 61.9140625 C-52.62454157 58.25348246 -55.02550736 54.28916556 -57.23828125 49.64453125 C-57.57730469 48.9484375 -57.91632813 48.25234375 -58.265625 47.53515625 C-61.78427173 38.90879652 -61.52129942 28.45542063 -58.61328125 19.70703125 C-54.06687303 8.976872 -46.08768747 0.82683958 -35.31640625 -3.62890625 C-23.74125154 -7.67585884 -10.43114934 -6.31694384 0 0 Z M-16.23828125 5.64453125 C-18.37047386 19.98972618 -18.37047386 19.98972618 -14.56982422 33.49707031 C-10.12811286 38.9377825 -4.85668264 43.4544625 0.76171875 47.64453125 C3.83395802 47.00332195 3.83395802 47.00332195 4.7109375 44.859375 C7.59607444 35.95971979 7.4999953 29.2973524 3.76171875 20.64453125 C0.1168908 14.00573748 -4.69859223 9.23019081 -11.9765625 6.96875 C-12.77747314 6.71569092 -13.57838379 6.46263184 -14.40356445 6.2019043 C-15.009021 6.01797119 -15.61447754 5.83403809 -16.23828125 5.64453125 Z M-42.11328125 13.83203125 C-47.84701253 20.10795934 -49.96967078 27.50341415 -49.625 35.90625 C-48.48144418 44.00354928 -44.93053077 51.0219128 -38.421875 56.046875 C-31.43386038 60.7648105 -25.07954496 62.25194976 -16.71484375 61.203125 C-12.80324331 60.3208555 -9.70690525 58.63577836 -6.23828125 56.64453125 C-10.7566025 51.09345086 -15.722423 46.09100116 -20.83081055 41.08911133 C-25.5344211 36.45671573 -26.35552245 34.64946315 -26.5546875 28.10546875 C-26.59658203 26.80351563 -26.63847656 25.5015625 -26.68164062 24.16015625 C-26.72145424 22.7799508 -26.76116647 21.39974242 -26.80078125 20.01953125 C-26.84397532 18.6314971 -26.8875899 17.24347597 -26.93164062 15.85546875 C-27.03800125 12.45192869 -27.14002839 9.04831347 -27.23828125 5.64453125 C-32.22275125 5.64453125 -38.59926967 10.60830758 -42.11328125 13.83203125 Z " fill="#FFFFFF" transform="translate(210.23828125,83.35546875)"/>
<path d="M0 0 C0.70211202 -0.00453111 1.40422403 -0.00906223 2.12761217 -0.01373065 C4.48598453 -0.02641555 6.84412716 -0.02475168 9.20252991 -0.02310181 C10.89104511 -0.02908447 12.57955757 -0.0358894 14.26806641 -0.04345703 C18.85893459 -0.06114985 23.44972826 -0.06581376 28.04062724 -0.0670886 C31.87029961 -0.06898587 35.69995456 -0.07634132 39.52962023 -0.08343279 C48.56285168 -0.09972642 57.59604326 -0.10460082 66.62928772 -0.10317993 C75.95483454 -0.10197787 85.28015015 -0.12309029 94.60563844 -0.15466726 C102.60655558 -0.18079601 110.60739704 -0.19154868 118.60835654 -0.19026911 C123.38946852 -0.18975852 128.17037505 -0.1954951 132.95144463 -0.21662521 C137.44701562 -0.23595073 141.94218397 -0.2361713 146.43776894 -0.22159195 C148.08896852 -0.21949573 149.74019292 -0.22425293 151.39134979 -0.23631287 C153.64329434 -0.25169739 155.89383864 -0.24250416 158.14575195 -0.22705078 C160.03695723 -0.22868508 160.03695723 -0.22868508 161.96636868 -0.2303524 C165.1363678 0.26742554 165.1363678 0.26742554 167.58500004 2.09911156 C169.1363678 4.26742554 169.1363678 4.26742554 168.9488678 7.45492554 C168.1363678 10.26742554 168.1363678 10.26742554 167.1363678 11.26742554 C164.89035651 11.37108373 162.64101993 11.40266539 160.3926239 11.40786743 C159.32258482 11.41232412 159.32258482 11.41232412 158.23092878 11.41687083 C155.82260645 11.42559448 153.41433361 11.42706915 151.0059967 11.42855835 C149.28659966 11.43318393 147.56720364 11.43820823 145.84780884 11.44360352 C141.1639321 11.45675448 136.48006971 11.46317769 131.79617739 11.46761417 C128.87293458 11.47054052 125.94969574 11.47464448 123.02645493 11.47911835 C113.88920599 11.49280029 104.75196606 11.50246357 95.61470759 11.50632024 C85.05055654 11.51080307 74.48653474 11.52835846 63.92242301 11.55732083 C55.76785598 11.57890474 47.6133254 11.58902275 39.4587301 11.59036136 C34.58319602 11.59141174 29.70778333 11.59736888 24.83227921 11.61518097 C20.24733799 11.63160492 15.66261013 11.63384494 11.07765007 11.62504196 C9.39216861 11.62426853 7.70667595 11.62865433 6.02122307 11.63850021 C3.72525089 11.65112888 1.43004479 11.64539325 -0.86592102 11.63491821 C-2.79558999 11.63711805 -2.79558999 11.63711805 -4.76424217 11.63936234 C-7.8636322 11.26742554 -7.8636322 11.26742554 -9.80880165 9.93586349 C-10.8636322 8.26742554 -10.8636322 8.26742554 -10.7386322 5.20492554 C-9.04181615 -0.49152836 -5.21008515 0.0138545 0 0 Z " fill="#FFFFFF" transform="translate(58.86363220214844,200.73257446289063)"/>
<path d="M0 0 C0.68651642 -0.00525696 1.37303284 -0.01051392 2.08035278 -0.01593018 C4.35010523 -0.02913552 6.61915641 -0.02038979 8.88891602 -0.01025391 C10.46688471 -0.01227473 12.0448525 -0.01518625 13.62281799 -0.01895142 C16.93076464 -0.02337567 20.23846831 -0.01694151 23.54638672 -0.00292969 C27.7846156 0.01414847 32.02227397 0.00433069 36.26048183 -0.01364708 C39.5196003 -0.02449427 42.77858382 -0.02103408 46.03770638 -0.0132637 C47.6002007 -0.01126354 49.16270732 -0.01371452 50.7251873 -0.02070236 C52.91087088 -0.02833092 55.09563482 -0.01669361 57.28125 0 C59.14631447 0.00358017 59.14631447 0.00358017 61.04905701 0.00723267 C64.40277781 0.41201583 65.77896765 1.10349685 68.20532227 3.38818359 C67.94970903 5.73130489 67.61261454 8.06661762 67.20532227 10.38818359 C64.25322842 11.86423052 61.60391066 11.5318262 58.30883789 11.54931641 C57.59974777 11.55428131 56.89065765 11.55924622 56.16007996 11.56436157 C53.8105676 11.57898703 51.46112269 11.58578475 49.11157227 11.59130859 C47.48254392 11.59705842 45.8535156 11.60281617 44.2244873 11.60858154 C40.80810225 11.61909172 37.39174075 11.62493471 33.9753418 11.62841797 C29.59009744 11.63391186 25.20516216 11.65795864 20.82001495 11.68638992 C17.45549599 11.70497703 14.09105219 11.71021972 10.72648621 11.71175385 C9.10929163 11.71478832 7.49209862 11.72284344 5.87495422 11.73593903 C3.61699588 11.752923 1.35980226 11.75113892 -0.89819336 11.74462891 C-2.18455688 11.74827454 -3.47092041 11.75192017 -4.79626465 11.75567627 C-5.78574097 11.63440369 -6.77521729 11.5131311 -7.79467773 11.38818359 C-9.94970304 8.15564563 -10.26323908 7.13667436 -9.79467773 3.38818359 C-7.25442925 -0.39827462 -4.29512494 0.00825018 0 0 Z " fill="#FFFFFF" transform="translate(159.794677734375,172.61181640625)"/>
<path d="M0 0 C0.66 0.66 1.32 1.32 2 2 C1.42307692 8.57692308 1.42307692 8.57692308 0 10 C-3.4375 10.25 -3.4375 10.25 -7 10 C-9.14762184 6.77856724 -9.561068 5.7404533 -9 2 C-6.07557433 -1.24936186 -4.04996841 -1.38551551 0 0 Z " fill="#FFFFFF" transform="translate(34,202)"/>
<path d="M0 0 C1.175625 0.0825 2.35125 0.165 3.5625 0.25 C5.71012184 3.47143276 6.123568 4.5095467 5.5625 8.25 C3.875 10.125 3.875 10.125 1.5625 11.25 C-1.80786311 11.00925978 -3.02548021 10.66201979 -5.4375 8.25 C-4.74408106 0.34502408 -4.74408106 0.34502408 0 0 Z " fill="#FFFFFF" transform="translate(45.4375,30.75)"/>
<path d="M0 0 C1.7325 0.1546875 1.7325 0.1546875 3.5 0.3125 C5.5 3.3125 5.5 3.3125 5.3125 6.375 C4.5 9.3125 4.5 9.3125 1.5 11.3125 C-1.82240324 10.9883631 -3.10776303 10.70473697 -5.5 8.3125 C-5.75 5.3125 -5.75 5.3125 -5.5 2.3125 C-3.5 0.3125 -3.5 0.3125 0 0 Z " fill="#FFFFFF" transform="translate(26.5,30.6875)"/>
<path d="M0 0 C3.0625 0.375 3.0625 0.375 5.0625 2 C6.0625 4.375 6.0625 4.375 5.25 7.625 C4.858125 8.5325 4.46625 9.44 4.0625 10.375 C0.77553767 11.17453138 -0.64773192 11.47158936 -3.9375 10.375 C-5.31875018 7.61249964 -5.12829306 5.42768901 -4.9375 2.375 C-2.9375 0.375 -2.9375 0.375 0 0 Z " fill="#FFFFFF" transform="translate(64.9375,30.625)"/>
</svg>
