<?xml version="1.0" encoding="UTF-8"?>
<svg version="1.1" xmlns="http://www.w3.org/2000/svg" width="256" height="256">
<path d="M0 0 C2.09261624 1.20544244 3.77497926 2.49249282 5.5546875 4.12109375 C6.34359375 4.77851562 6.34359375 4.77851562 7.1484375 5.44921875 C11.30639247 9.83817122 11.2918657 15.39011324 11.21264648 21.14038086 C10.84332578 27.68122489 8.90310588 31.39688612 4.5546875 36.12109375 C3.86632812 36.90484375 3.17796875 37.68859375 2.46875 38.49609375 C0.9617906 40.18811834 -0.56091213 41.86623008 -2.09765625 43.53125 C-5.22426992 46.9804095 -8.13392477 50.58577337 -11.0625 54.203125 C-13.65286839 57.37526465 -16.29203535 60.50161958 -18.9453125 63.62109375 C-22.38721474 67.66859878 -25.78475777 71.74509171 -29.1328125 75.87109375 C-30.56982343 77.62149537 -32.00730146 79.37151366 -33.4453125 81.12109375 C-34.10015625 81.93707031 -34.755 82.75304687 -35.4296875 83.59375 C-42.44658264 91.99999038 -50.71214405 96.93342853 -61.4453125 99.12109375 C-67.23131914 99.56169952 -73.00064553 99.56214141 -78.80078125 99.5625 C-80.47366987 99.57429396 -82.14654805 99.58766307 -83.81941223 99.6025238 C-88.19781716 99.63850445 -92.57612947 99.65885133 -96.95465088 99.67407227 C-103.97147365 99.69901869 -110.98809197 99.73876647 -118.0047245 99.79597282 C-120.44364445 99.81220296 -122.88236775 99.81606943 -125.32133484 99.81898499 C-126.82514784 99.82876638 -128.32895781 99.83903049 -129.83276367 99.84985352 C-131.78940193 99.8562661 -131.78940193 99.8562661 -133.78556824 99.86280823 C-140.07905739 100.30696963 -144.99122052 101.58354236 -149.3046875 106.21484375 C-151.09900353 109.2135637 -151.0799216 112.12174692 -151.046875 115.55859375 C-151.97532767 121.52981879 -156.97376078 125.99667882 -161.05859375 130.17578125 C-161.59123337 130.72219269 -162.12387299 131.26860413 -162.6726532 131.83157349 C-163.79345789 132.9755035 -164.91718855 134.1165734 -166.04370117 135.25488281 C-167.75867157 136.9969664 -169.44816962 138.76155001 -171.13867188 140.52734375 C-172.23548277 141.64079893 -173.33374232 142.75282936 -174.43359375 143.86328125 C-174.93176102 144.39130341 -175.42992828 144.91932556 -175.94319153 145.46334839 C-178.55363708 148.04203065 -180.12646128 149.08095936 -183.79911804 149.54324341 C-188.33770433 149.01777427 -189.63218868 147.79056721 -192.81054688 144.56640625 C-193.29775711 144.08182449 -193.78496735 143.59724274 -194.28694153 143.09797668 C-195.88826752 141.49687172 -197.46327567 139.87230801 -199.0390625 138.24609375 C-200.15425296 137.12036995 -201.27093717 135.99612413 -202.38903809 134.87329102 C-205.32848084 131.91281896 -208.24590944 128.93152337 -211.15960693 125.94573975 C-213.52440388 123.52937427 -215.90383558 121.12773061 -218.28435516 118.72686768 C-230.71878514 106.18546616 -230.71878514 106.18546616 -235.8840332 100.78857422 C-237.48570402 99.12049154 -239.10649532 97.47032601 -240.75463867 95.84814453 C-245.37763035 91.08990424 -245.37763035 91.08990424 -245.69946289 86.4831543 C-244.25366567 82.60733698 -242.30422561 80.14452686 -239.37890625 77.328125 C-238.86658951 76.81481125 -238.35427277 76.3014975 -237.82643127 75.77262878 C-236.74326048 74.69411971 -235.65274377 73.6229437 -234.55541992 72.55883789 C-232.89451722 70.94496703 -231.2617229 69.30627 -229.63085938 67.66210938 C-217.73878051 55.8302665 -217.73878051 55.8302665 -209.1796875 54.68359375 C-206.27577417 54.36651675 -206.27577417 54.36651675 -204.4609375 51.93359375 C-203.87828125 51.00546875 -203.295625 50.07734375 -202.6953125 49.12109375 C-193.67167378 35.97722754 -181.03553158 27.93709477 -165.42578125 24.6171875 C-154.07460311 22.72780398 -141.61563534 22.18984659 -130.59164429 26.14489746 C-127.37292499 27.14355305 -124.8331034 27.38397765 -121.47509766 27.40820312 C-120.32014801 27.42161743 -119.16519836 27.43503174 -117.97525024 27.44885254 C-116.74076141 27.45412964 -115.50627258 27.45940674 -114.234375 27.46484375 C-112.27515102 27.48718933 -110.31592709 27.50954566 -108.35671043 27.53252411 C-104.92797657 27.5701297 -101.49915171 27.59522521 -98.0703125 27.62109375 C-93.98439578 27.65197757 -89.89859326 27.68516485 -85.81283569 27.73303223 C-83.27306489 27.76195596 -80.73317996 27.78244181 -78.19326782 27.79333496 C-69.04984657 27.89895583 -61.91033188 28.52232921 -54.4453125 34.12109375 C-51.5624796 32.82705308 -49.62952017 31.51690982 -47.51953125 29.171875 C-46.70645508 28.28097168 -46.70645508 28.28097168 -45.87695312 27.37207031 C-45.01360352 26.41252441 -45.01360352 26.41252441 -44.1328125 25.43359375 C-38.98633764 19.82947176 -33.78619488 14.2907837 -28.4453125 8.87109375 C-27.83518311 8.23985596 -27.22505371 7.60861816 -26.59643555 6.95825195 C-19.18340911 -0.5138749 -10.40703952 -3.74054935 0 0 Z M-16.171875 13.16796875 C-16.87062744 13.80259033 -17.56937988 14.43721191 -18.28930664 15.09106445 C-21.75598122 18.35517941 -25.15077311 21.68201776 -28.5078125 25.05859375 C-29.17619141 25.72310547 -29.84457031 26.38761719 -30.53320312 27.07226562 C-34.50765383 31.05444121 -38.28411118 35.14457254 -41.92456055 39.43481445 C-43.4453125 41.12109375 -43.4453125 41.12109375 -46.1953125 43.37109375 C-49.21077294 47.05665651 -49.69575072 50.65345369 -50.71484375 55.2421875 C-52.01635076 60.37165632 -54.12617135 63.15331677 -58.34814453 66.25073242 C-63.40405688 69.03177013 -68.61692932 68.638508 -74.25 68.546875 C-75.36972198 68.54358688 -76.48944397 68.54029877 -77.64309692 68.53691101 C-79.99812679 68.52652362 -82.35313173 68.50663092 -84.70800781 68.4777832 C-88.32891768 68.43348848 -91.94916453 68.41631179 -95.5703125 68.40429688 C-97.85938467 68.39088165 -100.14844861 68.37596113 -102.4375 68.359375 C-104.07016312 68.3482946 -104.07016312 68.3482946 -105.73580933 68.33699036 C-106.7341983 68.32415512 -107.73258728 68.31131989 -108.76123047 68.2980957 C-109.64390594 68.2882515 -110.52658142 68.27840729 -111.43600464 68.26826477 C-113.4453125 68.12109375 -113.4453125 68.12109375 -114.4453125 67.12109375 C-114.48612033 65.12151011 -114.48785606 63.12064121 -114.4453125 61.12109375 C-111.47413525 59.4179375 -109.35338496 58.87385563 -105.93969727 58.8815918 C-104.61295738 58.87599495 -104.61295738 58.87599495 -103.25941467 58.87028503 C-102.31142502 58.8744191 -101.36343536 58.87855316 -100.38671875 58.8828125 C-98.37173803 58.86739624 -96.35676394 58.85109286 -94.34179688 58.83398438 C-91.17066826 58.81751545 -88.0000254 58.80861109 -84.82885742 58.81567383 C-81.76425338 58.81829213 -78.70112568 58.79018914 -75.63671875 58.7578125 C-74.69075333 58.76801926 -73.7447879 58.77822601 -72.77015686 58.78874207 C-68.18554124 58.72062861 -66.10864835 58.63010657 -62.37475586 55.76489258 C-60.1024284 52.65126053 -59.36649568 50.98311805 -59.4453125 47.12109375 C-61.12227765 43.76716345 -62.33606186 41.6847334 -65.71821594 39.96617126 C-68.76547066 39.02188257 -71.26540314 38.86292998 -74.45385742 38.84985352 C-75.64246872 38.8396669 -76.83108002 38.82948029 -78.05570984 38.81898499 C-79.97139519 38.81577492 -79.97139519 38.81577492 -81.92578125 38.8125 C-83.26232493 38.80138664 -84.59885849 38.78899032 -85.93537903 38.77537537 C-91.5913479 38.72022185 -97.24738903 38.68942221 -102.90356445 38.66479492 C-106.37192748 38.64878916 -109.83994687 38.61843227 -113.30813026 38.58003044 C-115.25208159 38.56292844 -117.19615596 38.56232675 -119.1401825 38.56214905 C-125.64255985 38.4901333 -131.27148413 37.98255705 -137.42663574 35.81866455 C-149.66162732 31.59075989 -163.89645718 34.88906541 -175.4375 39.64453125 C-184.28012273 43.98545513 -191.02349025 50.98836038 -196.4453125 59.12109375 C-196.14991968 62.69552843 -194.51500313 64.41798525 -192.02709961 66.87988281 C-190.9460923 67.96055023 -190.9460923 67.96055023 -189.84324646 69.06304932 C-189.06095169 69.82986023 -188.27865692 70.59667114 -187.47265625 71.38671875 C-186.27619225 72.57681549 -186.27619225 72.57681549 -185.05555725 73.79095459 C-182.50492403 76.32478773 -179.94406024 78.8479948 -177.3828125 81.37109375 C-175.65231108 83.08655015 -173.9224847 84.8026878 -172.19335938 86.51953125 C-167.95181344 90.72799018 -163.70181952 94.92777026 -159.4453125 99.12109375 C-156.67548714 97.8344652 -154.89047878 96.64889484 -152.5078125 94.62109375 C-145.78687131 89.13461115 -138.34581819 89.00201085 -129.90869141 88.97924805 C-129.19060806 88.97577362 -128.47252472 88.97229919 -127.73268127 88.96871948 C-126.18532699 88.9614126 -124.63796257 88.95604048 -123.09059525 88.95242882 C-120.63431784 88.945202 -118.1782332 88.92949087 -115.72201538 88.91108704 C-108.74243778 88.85890153 -101.76297177 88.81066191 -94.78320312 88.79516602 C-90.50200066 88.78504219 -86.2212943 88.75561471 -81.94028854 88.71384621 C-80.31777078 88.70160177 -78.69518281 88.69640287 -77.07262039 88.69864464 C-64.73370605 88.7450828 -64.73370605 88.7450828 -53.4453125 84.12109375 C-52.77078033 83.70731979 -52.09624817 83.29354584 -51.40127563 82.86723328 C-45.07906378 78.78019313 -40.57757122 72.63900543 -35.87744141 66.86767578 C-33.56293062 64.04496692 -31.18803603 61.27415071 -28.8203125 58.49609375 C-24.74829878 53.69450792 -20.74775996 48.83924081 -16.77734375 43.953125 C-15.06265822 41.8708017 -13.33429393 39.80803548 -11.58203125 37.7578125 C-10.84726562 36.89736328 -10.84726562 36.89736328 -10.09765625 36.01953125 C-9.151311 34.91419999 -8.2022747 33.81116448 -7.25 32.7109375 C-1.96057361 26.95430522 -1.96057361 26.95430522 0.90234375 19.92578125 C0.36504622 16.28982264 -0.13018815 14.49182827 -2.5703125 11.62109375 C-8.04918391 8.76255214 -11.65410736 9.06006284 -16.171875 13.16796875 Z M-223.65087891 78.26293945 C-226.25886328 80.87269796 -228.85427554 83.49450903 -231.4453125 86.12109375 C-227.63657896 94.4580306 -219.85566682 100.84998361 -213.44921875 107.21484375 C-212.19890114 108.46303894 -212.19890114 108.46303894 -210.92332458 109.7364502 C-208.28717988 112.3670431 -205.64756145 114.99411816 -203.0078125 117.62109375 C-201.20875271 119.4151323 -199.4099223 121.2094009 -197.61132812 123.00390625 C-193.22530438 127.378965 -188.83643108 131.75114887 -184.4453125 136.12109375 C-179.29570354 131.74136082 -174.29444849 127.2706684 -169.4453125 122.55859375 C-168.75308594 121.91212891 -168.06085938 121.26566406 -167.34765625 120.59960938 C-166.69925781 119.96603516 -166.05085938 119.33246094 -165.3828125 118.6796875 C-164.79371094 118.11564209 -164.20460938 117.55159668 -163.59765625 116.97045898 C-162.21292363 115.15313142 -162.21292363 115.15313142 -162.61672974 112.79342651 C-163.64601505 109.47379087 -165.09745556 107.96777077 -167.55029297 105.5144043 C-168.42144745 104.63386887 -169.29260193 103.75333344 -170.19015503 102.84611511 C-171.14717011 101.899576 -172.10462919 100.95348562 -173.0625 100.0078125 C-174.04103249 99.029125 -175.01889796 98.04977018 -175.99612427 97.06977844 C-178.0427308 95.02178936 -180.09612119 92.98093504 -182.15478516 90.94506836 C-184.79537079 88.33292325 -187.42004074 85.70544288 -190.04006767 83.07269573 C-192.05559119 81.05022542 -194.07840402 79.0351791 -196.10361099 77.02240944 C-197.0745314 76.0560093 -198.0433619 75.08750483 -199.01006699 74.11688805 C-200.35988622 72.76416526 -201.72046943 71.42220898 -203.08154297 70.08081055 C-203.8535202 69.3142363 -204.62549744 68.54766205 -205.42086792 67.75785828 C-211.74756988 62.64271635 -219.32359909 73.95747884 -223.65087891 78.26293945 Z " fill="#9CA3AF" transform="translate(245.4453125,106.87890625)"/>
<path d="M0 0 C1.70122694 1.16774971 3.39072897 2.35295706 5.0625 3.5625 C6.114375 4.305 7.16625 5.0475 8.25 5.8125 C19.99189914 17.29346805 25.94665567 31.178263 26.375 47.4375 C26.11340605 60.89505562 21.43488647 75.95263186 11.8984375 85.91796875 C-3.24480684 99.48244932 -17.60378801 103.43583345 -37.37353516 102.73730469 C-47.57648867 102.04169293 -55.83051292 97.49285229 -63.9375 91.5625 C-64.92363281 90.85287109 -64.92363281 90.85287109 -65.9296875 90.12890625 C-75.48086324 82.6365395 -82.44074575 70.08234493 -84.65625 58.1953125 C-86.49772828 40.95702975 -83.43809763 26.18468638 -73.0546875 11.98828125 C-55.36939003 -9.09803497 -23.44408296 -14.37401606 0 0 Z M-61.9375 16.5625 C-70.34929029 26.40574218 -74.36904577 37.36027003 -74.2109375 50.24609375 C-73.29164836 61.39575775 -68.6020143 72.07355792 -60.54296875 79.8828125 C-49.13596578 89.37988717 -37.75972958 92.53701192 -23.02636719 91.7578125 C-10.95721003 90.62932656 -2.10265174 83.72566586 5.55859375 74.82421875 C13.43638988 65.02117569 16.09836433 53.97828229 15.0625 41.5625 C13.34508227 33.1324324 10.28105009 26.35808446 5.0625 19.5625 C4.19625 18.263125 4.19625 18.263125 3.3125 16.9375 C-4.75956669 8.41698516 -15.6275947 3.28836152 -27.33984375 2.52734375 C-40.81636142 2.70973271 -52.28836332 7.15661887 -61.9375 16.5625 Z " fill="#9CA3AF" transform="translate(178.9375,7.4375)"/>
<path d="M0 0 C1.7325 0.1546875 1.7325 0.1546875 3.5 0.3125 C6.17927341 4.33141012 5.65601248 6.55411923 5.5 11.3125 C6.3353125 11.4053125 6.3353125 11.4053125 7.1875 11.5 C10.62250048 12.70689206 12.28136672 14.4599715 14.5 17.3125 C14.3 22.5125 14.3 22.5125 12.5 24.3125 C6.03846154 24.67147436 6.03846154 24.67147436 2.5 22.3125 C-0.12531524 22.14536431 -0.12531524 22.14536431 -2.5 22.3125 C-2.83 23.9625 -3.16 25.6125 -3.5 27.3125 C-2.91992188 27.48265625 -2.33984375 27.6528125 -1.7421875 27.828125 C4.84010504 29.87015635 10.74145632 32.18013927 14.5 38.3125 C16.176194 43.34108199 16.10642735 47.65280411 14.3125 52.5625 C12.34968139 55.54056962 10.46000581 57.33916279 7.5 59.3125 C6.84 59.3125 6.18 59.3125 5.5 59.3125 C5.54125 60.570625 5.5825 61.82875 5.625 63.125 C5.7390374 66.60314073 5.55925681 67.22361478 3.5 70.3125 C0 70.625 0 70.625 -3.5 70.3125 C-5.5 68.3125 -5.5 68.3125 -5.6953125 66.1484375 C-5.67210937 65.33632812 -5.64890625 64.52421875 -5.625 63.6875 C-5.59792969 62.46160156 -5.59792969 62.46160156 -5.5703125 61.2109375 C-5.53550781 60.27121094 -5.53550781 60.27121094 -5.5 59.3125 C-6.38945312 59.13074219 -6.38945312 59.13074219 -7.296875 58.9453125 C-10.91922708 57.90484967 -12.92285277 56.00679029 -15.5 53.3125 C-16 49.625 -16 49.625 -15.5 46.3125 C-13.5 44.3125 -13.5 44.3125 -10.6875 43.9375 C-6.80013867 44.39483663 -5.47261029 45.87343514 -2.5 48.3125 C0.2104607 48.64842508 0.2104607 48.64842508 2.5 48.3125 C2.83 46.6625 3.16 45.0125 3.5 43.3125 C2.91992188 43.14234375 2.33984375 42.9721875 1.7421875 42.796875 C-4.84010504 40.75484365 -10.74145632 38.44486073 -14.5 32.3125 C-16.176194 27.28391801 -16.10642735 22.97219589 -14.3125 18.0625 C-12.34968139 15.08443038 -10.46000581 13.28583721 -7.5 11.3125 C-6.84 11.3125 -6.18 11.3125 -5.5 11.3125 C-5.52320313 10.68601562 -5.54640625 10.05953125 -5.5703125 9.4140625 C-5.58835938 8.59679688 -5.60640625 7.77953125 -5.625 6.9375 C-5.64820313 6.12539063 -5.67140625 5.31328125 -5.6953125 4.4765625 C-5.33905601 0.52924061 -3.72621245 0.33269754 0 0 Z " fill="#9CA3AF" transform="translate(148.5,19.6875)"/>
<path d="M0 0 C3.5 -0.3125 3.5 -0.3125 7 0 C9 2 9 2 9.375 4.9375 C9 8 9 8 7.375 10 C5 11 5 11 1.75 10.1875 C0.38875 9.5996875 0.38875 9.5996875 -1 9 C-1.625 6.1875 -1.625 6.1875 -2 3 C-1.34 2.01 -0.68 1.02 0 0 Z " fill="#9BA3AF" transform="translate(111,165)"/>
</svg>
