<?xml version="1.0" standalone="no"?>
<!DOCTYPE svg PUBLIC "-//W3C//DTD SVG 20010904//EN"
 "http://www.w3.org/TR/2001/REC-SVG-20010904/DTD/svg10.dtd">
<svg version="1.0" xmlns="http://www.w3.org/2000/svg"
 width="500.000000pt" height="500.000000pt" viewBox="0 0 500.000000 500.000000"
 preserveAspectRatio="xMidYMid meet">

<g transform="translate(0.000000,500.000000) scale(0.100000,-0.100000)"
fill="#FFFFFF" stroke="none">
<path d="M4385 4091 c-33 -9 -85 -31 -115 -48 -62 -35 -59 -33 -509 -443 -443
-402 -1040 -942 -1316 -1190 -126 -113 -268 -242 -316 -287 -48 -46 -94 -83
-103 -83 -9 0 -42 26 -74 58 -31 31 -181 174 -332 317 -151 142 -391 370 -533
505 -350 332 -415 373 -587 374 -200 1 -361 -97 -450 -273 -88 -175 -61 -368
74 -532 25 -30 200 -201 388 -380 189 -178 399 -378 468 -444 286 -276 660
-627 706 -663 119 -95 269 -132 404 -101 85 19 193 63 244 98 28 19 233 199
455 400 222 201 481 436 576 521 479 432 580 523 696 630 69 63 208 190 310
281 101 91 252 227 334 301 175 158 205 192 252 296 82 177 43 392 -96 531
-128 127 -314 179 -476 132z"/>
</g>
</svg>
