<?xml version="1.0" encoding="utf-8"?>
<!DOCTYPE svg PUBLIC "-//W3C//DTD SVG 20010904//EN" "http://www.w3.org/TR/2001/REC-SVG-20010904/DTD/svg10.dtd">
<svg version="1.0" xmlns="http://www.w3.org/2000/svg" width="258pt" height="258pt" viewBox="0 0 258 258" style="" preserveAspectRatio="xMidYMid meet">
<g fill="#9CA3AFFF">
<path d="M 3.441 2.419 C 1.538 3.811 1.500 6.258 1.500 129.000 C 1.500 251.742 1.538 254.189 3.441 255.581 C 5.085 256.783 19.888 257.000 100.191 257.000 C 193.667 257.000 195.028 256.972 197.000 255.000 C 198.926 253.074 199.000 251.667 199.000 217.058 L 199.000 181.115 207.854 165.808 C 212.724 157.388 225.185 135.875 235.547 118.000 C 245.908 100.125 254.902 83.512 255.533 81.083 C 258.937 67.971 249.310 55.411 236.008 55.607 C 229.852 55.698 223.325 58.490 220.345 62.306 C 219.330 63.606 214.225 72.140 209.000 81.272 L 199.500 97.875 199.000 83.354 C 198.556 70.467 198.282 68.674 196.559 67.417 C 194.154 65.661 193.846 65.661 191.441 67.418 C 189.630 68.741 189.480 70.420 189.198 92.475 L 188.896 116.114 161.499 163.547 L 134.101 210.981 132.517 225.741 C 131.646 233.858 130.703 241.963 130.422 243.750 L 129.909 247.000 70.455 247.000 L 11.000 247.000 11.000 129.000 L 11.000 11.000 99.897 11.000 L 188.795 11.000 189.147 19.581 C 189.439 26.668 189.838 28.408 191.441 29.581 C 193.990 31.445 194.621 31.379 197.000 29.000 C 198.758 27.242 199.000 25.667 199.000 16.000 C 199.000 6.333 198.758 4.758 197.000 3.000 C 195.028 1.028 193.667 1.000 100.191 1.000 C 19.888 1.000 5.085 1.217 3.441 2.419 M 228.809 89.840 L 238.052 95.180 236.139 98.340 C 235.087 100.078 218.805 128.275 199.956 161.000 C 181.108 193.725 165.347 220.887 164.932 221.361 C 164.085 222.328 144.718 211.295 145.343 210.201 C 145.753 209.483 216.878 86.147 217.718 84.697 C 218.295 83.701 217.727 83.438 228.809 89.840 M 169.300 246.771 L 149.564 246.500 159.653 239.248 L 169.743 231.996 179.122 215.603 L 188.500 199.210 188.768 223.126 L 189.036 247.042 169.300 246.771 M 243.600 68.400 C 246.195 70.995 247.000 72.644 247.000 75.366 C 247.000 79.196 244.238 86.000 242.683 86.000 C 240.793 86.000 224.000 75.818 224.007 74.675 C 224.018 72.716 227.733 67.716 230.190 66.353 C 231.460 65.648 234.233 65.055 236.350 65.035 C 239.421 65.007 240.888 65.688 243.600 68.400 M 150.737 225.000 C 154.167 226.925 156.867 228.816 156.737 229.202 C 156.380 230.258 141.791 241.000 140.713 241.000 C 140.198 241.000 140.028 239.538 140.334 237.750 C 140.640 235.963 141.195 231.440 141.567 227.700 C 141.994 223.415 142.661 221.011 143.372 221.200 C 143.992 221.365 147.307 223.075 150.737 225.000 "/></g>
<g fill="#9CA3AFFF">
<path d="M 47.223 139.557 C 46.000 140.413 45.000 141.962 45.000 143.000 C 45.000 144.038 46.000 145.587 47.223 146.443 C 49.164 147.803 55.924 148.000 100.651 148.000 C 145.869 148.000 152.041 147.816 153.429 146.429 C 155.436 144.422 155.436 141.578 153.429 139.571 C 152.041 138.184 145.869 138.000 100.651 138.000 C 55.924 138.000 49.164 138.197 47.223 139.557 "/></g>
<g fill="#9CA3AFFF">
<path d="M 47.223 83.557 C 46.000 84.413 45.000 85.962 45.000 87.000 C 45.000 88.038 46.000 89.587 47.223 90.443 C 49.164 91.803 55.924 92.000 100.651 92.000 C 145.869 92.000 152.041 91.816 153.429 90.429 C 155.436 88.422 155.436 85.578 153.429 83.571 C 152.041 82.184 145.869 82.000 100.651 82.000 C 55.924 82.000 49.164 82.197 47.223 83.557 "/></g>
<g fill="#9CA3AFFF">
<path d="M 47.223 55.557 C 46.000 56.413 45.000 57.962 45.000 59.000 C 45.000 60.038 46.000 61.587 47.223 62.443 C 49.164 63.803 55.924 64.000 100.651 64.000 C 145.869 64.000 152.041 63.816 153.429 62.429 C 155.436 60.422 155.436 57.578 153.429 55.571 C 152.041 54.184 145.869 54.000 100.651 54.000 C 55.924 54.000 49.164 54.197 47.223 55.557 "/></g>
<g fill="#9CA3AFFF">
<path d="M 47.223 195.557 C 46.000 196.413 45.000 197.962 45.000 199.000 C 45.000 200.038 46.000 201.587 47.223 202.443 C 49.076 203.741 53.219 204.000 72.151 204.000 C 96.315 204.000 98.000 203.674 98.000 199.000 C 98.000 194.326 96.315 194.000 72.151 194.000 C 53.219 194.000 49.076 194.259 47.223 195.557 "/></g>
<g fill="#9CA3AFFF">
<path d="M 110.571 111.571 C 109.707 112.436 109.000 113.979 109.000 115.000 C 109.000 119.586 110.904 120.000 132.000 120.000 C 153.096 120.000 155.000 119.586 155.000 115.000 C 155.000 110.414 153.096 110.000 132.000 110.000 C 115.281 110.000 111.894 110.248 110.571 111.571 "/></g>
<g fill="#9CA3AFFF">
<path d="M 47.223 111.557 C 46.000 112.413 45.000 113.962 45.000 115.000 C 45.000 119.208 48.371 120.000 66.288 120.000 C 75.986 120.000 83.952 119.561 85.066 118.965 C 86.302 118.303 87.000 116.873 87.000 115.000 C 87.000 113.127 86.302 111.697 85.066 111.035 C 83.952 110.439 75.986 110.000 66.288 110.000 C 52.662 110.000 49.020 110.297 47.223 111.557 "/></g>
<g fill="#9CA3AFFF">
<path d="M 95.223 167.557 C 94.000 168.413 93.000 169.962 93.000 171.000 C 93.000 175.178 96.407 176.000 113.723 176.000 C 128.667 176.000 130.164 175.836 132.000 174.000 C 133.100 172.900 134.000 171.550 134.000 171.000 C 134.000 170.450 133.100 169.100 132.000 168.000 C 130.164 166.164 128.667 166.000 113.723 166.000 C 100.609 166.000 97.013 166.303 95.223 167.557 "/></g>
<g fill="#9CA3AFFF">
<path d="M 47.223 167.557 C 46.000 168.413 45.000 169.962 45.000 171.000 C 45.000 174.973 48.594 176.000 62.500 176.000 C 72.697 176.000 76.041 175.659 77.777 174.443 C 80.617 172.454 80.617 169.546 77.777 167.557 C 74.562 165.305 50.438 165.305 47.223 167.557 "/></g>
<g fill="#9CA3AFFF">
<path d="M 190.570 46.204 C 189.257 48.078 189.228 48.713 190.378 50.454 C 192.115 53.084 195.304 53.553 197.375 51.482 C 199.421 49.436 199.438 47.581 197.429 45.571 C 195.215 43.358 192.380 43.620 190.570 46.204 "/></g>
</svg>
