<?xml version="1.0" encoding="UTF-8"?>
<svg version="1.1" xmlns="http://www.w3.org/2000/svg" width="256" height="256">
<path d="M0 0 C13.60943102 10.33777103 23.25761423 24.98597901 26 42 C28.06674465 62.38200826 21.6442457 78.93426671 13 97 C12.69223633 97.64727051 12.38447266 98.29454102 12.06738281 98.96142578 C2.77698836 118.36077377 -7.68557402 137.22986585 -19.296875 155.33105469 C-21.12699363 158.19901008 -22.92158472 161.08786166 -24.71875 163.9765625 C-25.95648871 165.92304919 -27.19602388 167.86839491 -28.4375 169.8125 C-29.00460693 170.73313232 -29.57171387 171.65376465 -30.15600586 172.60229492 C-34.11722504 178.69598311 -34.11722504 178.69598311 -38.0625 180.0546875 C-42.58805779 178.42981968 -44.13244808 175.31764703 -46.5625 171.3125 C-47.07570801 170.50304932 -47.58891602 169.69359863 -48.11767578 168.85961914 C-49.20973241 167.12962026 -50.29182629 165.39329913 -51.36474609 163.65136719 C-52.94557351 161.08824599 -54.55585029 158.5463537 -56.17578125 156.0078125 C-67.46196558 138.20079847 -78.03684528 119.82697206 -87.13525391 100.79882812 C-88.01581035 98.96711162 -88.91879354 97.14765823 -89.82421875 95.328125 C-99.08361088 76.44334702 -106.48582853 55.06575962 -100.4375 34 C-93.00658281 13.95982612 -80.55507777 1.18166037 -61.37109375 -7.73828125 C-40.92189103 -15.39192259 -17.96149217 -11.8437772 0 0 Z M-73 10 C-73.98613281 10.77085938 -74.97226563 11.54171875 -75.98828125 12.3359375 C-84.04127923 19.0945898 -89.20201935 29.02386663 -92 39 C-92.185625 39.598125 -92.37125 40.19625 -92.5625 40.8125 C-98.81291926 72.0645963 -75.13724778 106.6890241 -59.68603516 132.21289062 C-58.01025734 134.98304405 -56.35235706 137.76316196 -54.69921875 140.546875 C-51.82476421 145.38010278 -48.9211217 150.19486108 -46 155 C-45.61666504 155.63405762 -45.23333008 156.26811523 -44.83837891 156.92138672 C-43.85901272 158.53606583 -42.86759926 160.14342182 -41.875 161.75 C-41.35679688 162.59046875 -40.83859375 163.4309375 -40.3046875 164.296875 C-39.87414062 164.85890625 -39.44359375 165.4209375 -39 166 C-38.34 166 -37.68 166 -37 166 C-35.5292501 164.1309801 -35.5292501 164.1309801 -34.05078125 161.6640625 C-33.45773193 160.7155542 -32.86468262 159.7670459 -32.25366211 158.78979492 C-31.61307861 157.7454126 -30.97249512 156.70103027 -30.3125 155.625 C-29.31198608 154.00525269 -29.31198608 154.00525269 -28.29125977 152.3527832 C-11.80293331 125.50047641 5.0491229 98.05037762 15 68 C15.38929688 66.83210938 15.77859375 65.66421875 16.1796875 64.4609375 C19.46493553 50.60031963 17.01440997 36.20037727 9.625 24.125 C8.43912692 22.40099964 7.23268253 20.69084772 6 19 C5.56171875 18.36578125 5.1234375 17.7315625 4.671875 17.078125 C-3.1140163 6.8532798 -15.7386587 0.75519884 -28 -2 C-45.02486446 -3.60019547 -59.49830212 -1.08313286 -73 10 Z " fill="#9CA3AF" transform="translate(166,44)"/>
<path d="M0 0 C7.34897953 5.34076504 12.14391754 10.81305845 14.75 19.5 C15.72299253 29.22992532 14.12711747 37.54137764 7.875 45.375 C2.02295065 51.45164826 -5.15703175 54.63252277 -13.55859375 55.06640625 C-21.88257138 54.83999406 -28.71278324 52.15142257 -34.7265625 46.328125 C-40.6286911 39.75728232 -43.41624254 33.12844403 -43.19921875 24.23046875 C-42.34078093 14.61933163 -38.17648097 8.35199853 -31 2 C-21.83480736 -4.09404914 -9.83715903 -5.27766087 0 0 Z M-29.375 13.375 C-32.87856288 17.88094463 -34.25257617 21.71576877 -33.875 27.4375 C-32.98196892 33.54501144 -30.58859199 37.41140801 -26.1875 41.8125 C-20.94628301 45.40941362 -16.19426647 46.580805 -9.98046875 45.53515625 C-3.74362583 43.8498555 0.35365593 40.31324421 4 35 C6.27193229 29.52670858 6.42469126 24.68836585 5 19 C2.05494552 13.32804322 -2.07937446 9.30496035 -7.9375 6.6875 C-16.73716476 4.71206505 -23.33067106 6.7424152 -29.375 13.375 Z " fill="#9CA3AF" transform="translate(142,67)"/>
</svg>
