<?xml version="1.0" encoding="utf-8"?>
<!DOCTYPE svg PUBLIC "-//W3C//DTD SVG 20010904//EN" "http://www.w3.org/TR/2001/REC-SVG-20010904/DTD/svg10.dtd">
<svg version="1.0" xmlns="http://www.w3.org/2000/svg" width="258pt" height="258pt" viewBox="0 0 258 258" style="" preserveAspectRatio="xMidYMid meet">
<g fill="#FFFFFFFF">
<path d="M 115.500 23.557 C 114.400 23.811 111.025 24.495 108.000 25.076 C 69.022 32.564 36.922 63.003 26.325 102.523 C 23.936 111.433 23.650 114.265 23.650 129.000 C 23.650 143.735 23.936 146.567 26.325 155.477 C 47.591 234.787 146.182 261.685 203.934 203.934 C 235.787 172.081 244.085 122.466 224.244 82.500 C 213.578 61.015 197.332 44.666 176.053 34.003 C 161.371 26.645 150.324 24.012 132.000 23.499 C 124.025 23.276 116.600 23.302 115.500 23.557 M 140.500 31.104 C 162.786 33.824 182.517 43.472 198.522 59.478 C 232.242 93.197 237.105 144.044 210.481 184.515 C 205.527 192.046 192.245 205.397 184.910 210.220 C 149.728 233.349 108.272 233.349 73.090 210.220 C 65.906 205.496 52.504 192.094 47.780 184.910 C 24.746 149.873 24.648 108.250 47.519 73.485 C 52.473 65.954 65.755 52.603 73.090 47.780 C 89.512 36.984 108.867 30.705 127.500 30.129 C 129.700 30.061 135.550 30.500 140.500 31.104 "/></g>
<g fill="#FFFFFFFF">
<path d="M 110.500 41.661 C 81.483 47.871 56.455 69.046 45.957 96.267 C 41.435 107.994 40.037 115.843 40.017 129.622 C 39.981 155.167 49.278 176.611 68.172 194.559 C 79.920 205.718 93.237 212.810 109.689 216.668 C 120.984 219.317 139.679 219.063 151.000 216.107 C 174.668 209.927 195.651 193.780 207.429 172.682 C 215.084 158.970 219.956 137.197 218.531 123.064 C 216.945 107.324 210.908 89.993 203.014 78.521 C 190.334 60.091 169.195 46.204 146.792 41.588 C 137.202 39.612 119.912 39.647 110.500 41.661 M 152.500 49.975 C 179.396 58.521 199.714 78.974 208.157 106.000 C 210.191 112.511 210.500 115.544 210.500 129.000 C 210.500 142.456 210.191 145.489 208.157 152.000 C 199.647 179.240 179.240 199.647 152.000 208.157 C 145.489 210.191 142.456 210.500 129.000 210.500 C 115.544 210.500 112.511 210.191 106.000 208.157 C 78.760 199.647 58.353 179.240 49.843 152.000 C 47.809 145.489 47.500 142.456 47.500 129.000 C 47.500 115.544 47.809 112.511 49.843 106.000 C 56.654 84.199 71.561 66.105 90.911 56.152 C 105.584 48.605 113.067 46.996 131.500 47.425 C 142.550 47.682 146.975 48.220 152.500 49.975 "/></g>
<g fill="#FFFFFFFF">
<path d="M 81.234 81.266 C 75.055 87.462 70.000 92.970 70.000 93.505 C 70.000 94.041 77.758 102.246 87.239 111.740 L 104.479 129.000 87.239 146.260 C 77.758 155.754 70.000 163.973 70.000 164.527 C 70.000 165.818 92.212 188.000 93.505 188.000 C 94.041 188.000 102.246 180.242 111.740 170.761 L 129.000 153.521 146.260 170.761 C 155.754 180.242 163.923 188.000 164.414 188.000 C 165.684 188.000 188.000 165.827 188.000 164.566 C 188.000 163.991 180.242 155.754 170.761 146.260 L 153.521 129.000 170.761 111.740 C 180.242 102.246 188.000 94.027 188.000 93.473 C 188.000 92.182 165.788 70.000 164.495 70.000 C 163.959 70.000 155.754 77.758 146.260 87.239 L 129.000 104.479 111.740 87.239 C 102.246 77.758 94.027 70.000 93.473 70.000 C 92.920 70.000 87.412 75.070 81.234 81.266 M 111.000 96.500 C 120.062 105.575 128.162 113.000 129.000 113.000 C 129.838 113.000 137.938 105.575 147.000 96.500 C 156.062 87.425 163.920 80.000 164.462 80.000 C 165.785 80.000 178.000 92.165 178.000 93.482 C 178.000 94.055 170.575 101.938 161.500 111.000 C 152.425 120.062 145.000 128.162 145.000 129.000 C 145.000 129.838 152.425 137.938 161.500 147.000 C 170.575 156.062 178.000 163.920 178.000 164.462 C 178.000 165.785 165.835 178.000 164.518 178.000 C 163.945 178.000 156.062 170.575 147.000 161.500 C 137.938 152.425 129.838 145.000 129.000 145.000 C 128.162 145.000 120.062 152.425 111.000 161.500 C 101.938 170.575 94.080 178.000 93.538 178.000 C 92.215 178.000 80.000 165.835 80.000 164.518 C 80.000 163.945 87.425 156.062 96.500 147.000 C 105.575 137.938 113.000 129.838 113.000 129.000 C 113.000 128.162 105.575 120.062 96.500 111.000 C 87.425 101.938 80.000 94.080 80.000 93.538 C 80.000 92.215 92.165 80.000 93.482 80.000 C 94.055 80.000 101.938 87.425 111.000 96.500 "/></g>
</svg>
