<?xml version="1.0" encoding="UTF-8"?>
<svg version="1.1" xmlns="http://www.w3.org/2000/svg" width="256" height="256">
<path d="M0 0 C8.48456941 1.88179166 15.4318524 0.64713098 23.84960938 -1.22851562 C37.01185126 -3.88208696 37.01185126 -3.88208696 41.41210938 -2.66601562 C43.83789063 -0.47851562 43.83789063 -0.47851562 46.41210938 2.33398438 C47.32089844 3.23117188 48.2296875 4.12835938 49.16601562 5.05273438 C50.09285156 5.97054688 51.0196875 6.88835938 51.97460938 7.83398438 C52.90402344 8.75179688 53.8334375 9.66960938 54.79101562 10.61523438 C57.41210937 13.33398437 57.41210937 13.33398437 59.18896484 15.80883789 C61.78814677 18.76110438 64.01575723 19.8759134 67.60351562 21.45507812 C68.79525391 21.99841797 69.98699219 22.54175781 71.21484375 23.1015625 C73.0971382 23.94133272 74.9819746 24.77471111 76.86987305 25.60180664 C78.7050435 26.41157411 80.52946005 27.24557517 82.35351562 28.08007812 C83.44349854 28.5614624 84.53348145 29.04284668 85.65649414 29.53881836 C89.06657681 31.76034205 90.00833478 33.54617523 91.41210938 37.33398438 C91.91699219 40.08789063 91.91699219 40.08789063 92.11523438 42.89648438 C92.24925659 44.45290649 92.24925659 44.45290649 92.38598633 46.04077148 C92.52266724 47.67091187 92.52266724 47.67091187 92.66210938 49.33398438 C93.72745492 59.81453829 95.66076874 67.38475244 101.41210938 76.33398438 C102.54092437 78.14411088 103.66621353 79.9564434 104.78710938 81.77148438 C105.26921875 82.49207031 105.75132812 83.21265625 106.24804688 83.95507812 C107.82653462 87.18091381 108.26947541 89.74115038 108.41210938 93.33398438 C107.18945312 96.72851562 107.18945312 96.72851562 105.34960938 100.14648438 C105.03032471 100.75468018 104.71104004 101.36287598 104.38208008 101.98950195 C102.45285717 105.61521764 100.32699306 109.07014232 98.09960938 112.52148438 C94.52618183 118.40156886 93.9006735 124.05186352 93.12988281 130.80761719 C92.91348941 132.67310033 92.68852993 134.53760617 92.45581055 136.40112305 C92.22147886 138.28942852 92.00750702 140.18039126 91.81567383 142.07348633 C90.99662705 148.69568296 90.99662705 148.69568296 88.16210938 151.79101562 C85.38445327 153.34950165 82.63841461 154.79602681 79.72460938 156.08398438 C78.77199219 156.51195312 77.819375 156.93992188 76.83789062 157.38085938 C74.41210938 158.33398438 74.41210938 158.33398438 72.41210938 158.33398438 C72.76660156 159.460625 73.12109375 160.58726562 73.48632812 161.74804688 C77.66729459 175.19333257 81.58654804 188.71477049 85.45108032 202.25384521 C86.04939357 204.34646831 86.65044201 206.43831133 87.25424194 208.52935791 C88.11551169 211.51543597 88.96626273 214.50432483 89.81445312 217.49414062 C90.07663635 218.39651962 90.33881958 219.29889862 90.60894775 220.22862244 C91.85675543 224.67114421 92.92618853 228.6753911 92.41210938 233.33398438 C90.47460938 236.27148438 90.47460938 236.27148438 87.41210938 238.33398438 C79.75882457 238.10438583 73.03230791 235.77828513 65.84960938 233.27148438 C64.74552734 232.89443359 63.64144531 232.51738281 62.50390625 232.12890625 C59.80370162 231.20545965 57.10669046 230.2736872 54.41210938 229.33398438 C54.0549585 229.77677734 53.69780762 230.21957031 53.32983398 230.67578125 C50.478644 234.20726967 47.61742283 237.72988457 44.74023438 241.24023438 C42.86915456 243.52549092 41.0483706 245.81719939 39.27148438 248.17773438 C35.53076277 253.00221645 35.53076277 253.00221645 32.35742188 253.94335938 C29.18895618 254.1522692 26.95495044 253.71984377 24.36230469 251.87695312 C21.54304977 248.20076895 20.60627164 244.32615768 19.39648438 239.89648438 C19.00544525 238.52085327 19.00544525 238.52085327 18.60650635 237.11743164 C18.05924669 235.18257635 17.51834489 233.24591294 16.98339844 231.30761719 C16.16400471 228.34084681 15.32498154 225.38018694 14.48242188 222.41992188 C13.95261711 220.53743516 13.42393297 218.65463262 12.89648438 216.77148438 C12.52157867 215.44322632 12.52157867 215.44322632 12.13909912 214.08813477 C11.91176086 213.26047607 11.68442261 212.43281738 11.45019531 211.58007812 C11.24908142 210.8548999 11.04796753 210.12972168 10.84075928 209.38256836 C10.41210938 207.33398438 10.41210938 207.33398438 10.41210938 203.33398438 C9.75210938 203.33398438 9.09210938 203.33398438 8.41210938 203.33398438 C8.29585205 204.30182861 8.17959473 205.26967285 8.05981445 206.2668457 C7.4161276 210.74961215 6.25679436 215.04894231 5.04882812 219.40820312 C4.81557327 220.25445755 4.58231842 221.10071198 4.34199524 221.97261047 C3.8494025 223.75074788 3.35425738 225.52817999 2.85668945 227.30493164 C2.09995608 230.02024034 1.36239064 232.74032186 0.625 235.4609375 C0.14245019 237.19368679 -0.34123503 238.92612037 -0.82617188 240.65820312 C-1.04300125 241.46867599 -1.25983063 242.27914886 -1.48323059 243.11418152 C-2.73206453 247.48203881 -3.78874891 250.5292216 -7.58789062 253.33398438 C-12.25455729 254.54088093 -12.25455729 254.54088093 -15.58789062 253.33398438 C-19.43402106 250.10373757 -22.50434805 246.27583261 -25.58789062 242.33398438 C-26.05646484 241.74101562 -26.52503906 241.14804688 -27.0078125 240.53710938 C-29.91883519 236.84007106 -32.7713258 233.10338708 -35.58789062 229.33398438 C-36.76762451 229.74293945 -36.76762451 229.74293945 -37.97119141 230.16015625 C-40.90964585 231.17386455 -43.85078312 232.17924966 -46.79394531 233.17919922 C-48.68576428 233.82472829 -50.57435912 234.47968126 -52.46289062 235.13476562 C-53.66171875 235.54082031 -54.86054687 235.946875 -56.09570312 236.36523438 C-57.19543457 236.74228516 -58.29516602 237.11933594 -59.42822266 237.5078125 C-62.67415756 238.35654096 -65.25051368 238.62730279 -68.58789062 238.33398438 C-71.52539062 236.39648438 -71.52539062 236.39648438 -73.58789062 233.33398438 C-73.3237772 225.12037626 -70.83508964 217.37551723 -68.58789062 209.52539062 C-68.18758723 208.10830836 -67.78785734 206.69106397 -67.38867188 205.27366638 C-66.55573627 202.32158552 -65.71823746 199.3708549 -64.87695312 196.42114258 C-63.79794184 192.63774671 -62.72697639 188.85213477 -61.65893555 185.06562901 C-60.63797157 181.447279 -59.61309552 177.83004087 -58.58789062 174.21289062 C-58.39275879 173.52319246 -58.19762695 172.8334943 -57.99658203 172.12289619 C-57.44584978 170.17905377 -56.8919482 168.23611011 -56.33789062 166.29321289 C-55.86609375 164.6351638 -55.86609375 164.6351638 -55.38476562 162.94361877 C-54.58789063 160.33398438 -54.58789063 160.33398438 -53.58789062 158.33398438 C-54.37164062 158.10710937 -55.15539063 157.88023437 -55.96289062 157.64648438 C-61.39605963 155.67930249 -67.45456325 153.46731175 -71.58789062 149.33398438 C-72.05859375 147.35375977 -72.05859375 147.35375977 -72.36914062 144.93164062 C-72.48902344 144.04025391 -72.60890625 143.14886719 -72.73242188 142.23046875 C-72.84972656 141.29525391 -72.96703125 140.36003906 -73.08789062 139.39648438 C-73.44682796 136.64134453 -73.81275764 133.88789306 -74.19750977 131.13623047 C-74.45576745 129.28239578 -74.69486532 127.4257812 -74.91381836 125.56689453 C-75.95603114 118.19093291 -78.71809292 112.84806564 -82.65039062 106.58398438 C-89.63892483 95.33414882 -89.63892483 95.33414882 -89.58789062 89.33398438 C-88.61914062 86.44726562 -88.61914062 86.44726562 -87.08789062 83.64648438 C-86.2603125 82.09574219 -86.2603125 82.09574219 -85.41601562 80.51367188 C-84.20993899 78.4159232 -82.9707289 76.33683464 -81.69726562 74.27929688 C-77.53593572 67.5477338 -75.39118768 62.1906214 -74.58789062 54.33398438 C-74.3615688 52.15524574 -74.13174793 49.97706341 -73.89379883 47.79956055 C-73.73536351 46.3167522 -73.58997542 44.83247255 -73.4597168 43.34692383 C-72.98994355 38.69741486 -72.04573586 35.30597307 -69.58789062 31.33398438 C-66.95922852 29.66577148 -66.95922852 29.66577148 -63.81054688 28.36132812 C-62.66223389 27.86068848 -61.5139209 27.36004883 -60.33081055 26.84423828 C-59.72852631 26.58813782 -59.12624207 26.33203735 -58.50570679 26.06817627 C-46.78842929 21.03665647 -38.15995092 15.71932401 -30.58789062 5.33398438 C-29.39212034 3.90669768 -28.18617887 2.48775777 -26.96289062 1.08398438 C-26.17914063 0.17648437 -25.39539063 -0.73101563 -24.58789062 -1.66601562 C-17.45716647 -5.2313777 -7.29646477 -1.74370272 0 0 Z M-21.46289062 17.58398438 C-23.71328373 20.4117284 -23.71328373 20.4117284 -25.58789062 23.33398438 C-30.81065615 30.54760606 -36.61684853 33.79029838 -44.55273438 37.47460938 C-45.21112305 37.78986572 -45.86951172 38.10512207 -46.54785156 38.42993164 C-48.58789062 39.33398438 -48.58789062 39.33398438 -50.80761719 40.03295898 C-53.17845396 40.8879667 -54.73926246 41.60979117 -56.58789062 43.33398438 C-57.94544095 47.27642695 -58.15251749 51.25729169 -58.46289062 55.39648438 C-59.69782688 66.67891856 -62.61042826 74.93949424 -68.44335938 84.60351562 C-70.97845586 88.68338798 -70.97845586 88.68338798 -71.58789062 93.33398438 C-70.09301741 96.37424692 -68.2229435 99.16958176 -66.40039062 102.02148438 C-61.30955549 110.35836474 -59.7252684 117.41625292 -58.90039062 127.08398438 C-58.38416798 134.64614429 -58.38416798 134.64614429 -55.02148438 141.18212891 C-51.21429087 143.99550419 -46.98529797 145.4875896 -42.46728516 146.78808594 C-33.57909428 149.3697948 -28.18923404 155.55900963 -22.28710938 162.27539062 C-21.8150708 162.79786377 -21.34303223 163.32033691 -20.85668945 163.85864258 C-19.58789062 165.33398438 -19.58789062 165.33398438 -17.89257812 167.84960938 C-14.43972566 170.07348045 -11.85013029 169.04393635 -7.953125 168.21484375 C-6.98697266 167.98603516 -6.02082031 167.75722656 -5.02539062 167.52148438 C5.27349246 165.1393817 13.65634113 165.15000764 23.81542969 168.09985352 C30.11495246 169.8479988 30.11495246 169.8479988 36.26611328 168.390625 C41.28070713 164.55351843 44.97003478 159.43935958 48.50976562 154.27148438 C52.87819926 149.05014972 60.22167366 147.0113994 66.3046875 144.390625 C67.31337891 143.93751953 68.32207031 143.48441406 69.36132812 143.01757812 C70.28260498 142.62111084 71.20388184 142.22464355 72.15307617 141.81616211 C75.00070857 139.94779766 75.52685716 138.58475653 76.41210938 135.33398438 C76.77310657 133.06111324 76.77310657 133.06111324 76.87695312 130.73632812 C77.86609844 118.80393843 80.31315941 109.96093017 86.73999023 99.76928711 C87.2247583 98.99528564 87.70952637 98.22128418 88.20898438 97.42382812 C88.6559668 96.752146 89.10294922 96.08046387 89.56347656 95.38842773 C90.70163108 92.63308531 90.28925208 91.14994268 89.41210938 88.33398438 C88.47137903 86.41050639 88.47137903 86.41050639 87.26757812 84.60351562 C81.38925583 74.85402185 78.79561387 67.03047023 77.78710938 55.64648438 C77.23650072 48.03629747 77.23650072 48.03629747 73.82519531 41.46533203 C70.04856875 38.665022 65.95326763 37.25306264 61.47509766 35.96118164 C53.36568576 33.49572849 48.59469865 28.89746893 43.03710938 22.64648438 C41.63572657 21.09885926 40.23218839 19.55318223 38.82617188 18.00976562 C38.21725098 17.32825439 37.60833008 16.64674316 36.98095703 15.94458008 C35.48724052 14.23460985 35.48724052 14.23460985 33.41210938 13.33398438 C31.39537106 13.56914343 31.39537106 13.56914343 29.12304688 14.11132812 C27.83333984 14.38686523 27.83333984 14.38686523 26.51757812 14.66796875 C24.72043421 15.06519155 22.92355133 15.46359751 21.12695312 15.86328125 C12.52242625 17.69797606 6.24795495 17.67437644 -2.25146484 15.40136719 C-12.63495961 12.51272139 -12.63495961 12.51272139 -21.46289062 17.58398438 Z M-39.58789062 168.33398438 C-44.66560666 184.56308321 -49.26450334 200.88843081 -53.58789062 217.33398438 C-51.85771555 216.87947253 -50.12879186 216.4201958 -48.40039062 215.95898438 C-47.43746094 215.70375 -46.47453125 215.44851562 -45.48242188 215.18554688 C-42.76535966 214.38619524 -40.20872022 213.40010848 -37.58789062 212.33398438 C-35.52539062 211.96289062 -35.52539062 211.96289062 -33.58789062 211.89648438 C-32.62882812 211.83654297 -32.62882812 211.83654297 -31.65039062 211.77539062 C-26.51020148 213.16752519 -22.98784326 219.16687887 -19.77539062 223.14648438 C-18.98519531 224.12230469 -18.195 225.098125 -17.38085938 226.10351562 C-16.78917969 226.83957031 -16.1975 227.575625 -15.58789062 228.33398438 C-13.17264668 224.71111846 -12.1726933 221.00678828 -10.98632812 216.86914062 C-10.62433823 215.62456337 -10.62433823 215.62456337 -10.2550354 214.35484314 C-9.74655189 212.60131991 -9.24070486 210.84703032 -8.73730469 209.09204102 C-7.96619152 206.40797401 -7.18388751 203.72734974 -6.40039062 201.046875 C-5.90752528 199.34199269 -5.41531577 197.63692061 -4.92382812 195.93164062 C-4.57232193 194.72991966 -4.57232193 194.72991966 -4.2137146 193.50392151 C-3.99994171 192.75311813 -3.78616882 192.00231476 -3.56591797 191.22875977 C-3.37653656 190.57162491 -3.18715515 189.91449005 -2.99203491 189.23744202 C-2.44942973 187.00616958 -2.44942973 187.00616958 -2.58789062 183.33398438 C-3.88726562 183.47835937 -5.18664062 183.62273437 -6.52539062 183.77148438 C-7.75322266 183.90103516 -7.75322266 183.90103516 -9.00585938 184.03320312 C-10.67982403 184.22820355 -12.35024462 184.45797432 -14.01367188 184.72851562 C-14.78066406 184.84582031 -15.54765625 184.963125 -16.33789062 185.08398438 C-17.03398438 185.20257813 -17.73007813 185.32117188 -18.44726562 185.44335938 C-22.87325108 185.21721413 -25.38863013 182.53743101 -28.37695312 179.48632812 C-29.32859557 178.42033085 -30.27382235 177.34857505 -31.21289062 176.27148438 C-33.8513339 173.27292925 -36.23251949 170.57089847 -39.58789062 168.33398438 Z M57.41210938 168.33398438 C50.67895066 174.76919066 50.67895066 174.76919066 44.72460938 181.89648438 C42.41210938 184.33398438 42.41210938 184.33398438 39.22460938 185.33398438 C35.18130907 185.33398438 31.66348601 184.73864244 27.74414062 183.80664062 C25.15530254 183.20155696 25.15530254 183.20155696 21.41210938 183.33398438 C22.83136461 193.1758596 25.67949971 202.52694203 28.53710938 212.02148438 C29.01029916 213.60921609 29.48295941 215.19710572 29.95507812 216.78515625 C31.10133088 220.63661169 32.25470836 224.48586513 33.41210938 228.33398438 C37.53493447 224.26266799 41.10071861 220.02136518 44.64257812 215.44335938 C47.02657545 212.60150826 47.9366324 212.3888471 51.66210938 211.95898438 C57.27229722 211.96933528 62.29886404 214.30851593 67.43554688 216.33789062 C68.90894531 216.83095703 68.90894531 216.83095703 70.41210938 217.33398438 C71.07210937 217.00398438 71.73210937 216.67398438 72.41210938 216.33398438 C70.60663117 209.81688637 68.79084125 203.30272664 66.96777344 196.79052734 C66.34851743 194.5737468 65.73164554 192.35629885 65.1171875 190.13818359 C64.23474607 186.95427797 63.34382332 183.77285285 62.45117188 180.59179688 C62.17713531 179.5959256 61.90309875 178.60005432 61.62075806 177.57400513 C61.36063934 176.6532016 61.10052063 175.73239807 60.83251953 174.78369141 C60.60601715 173.97094757 60.37951477 173.15820374 60.14614868 172.3208313 C59.49836323 170.14141409 59.49836323 170.14141409 57.41210938 168.33398438 Z " fill="#9CA3AF" transform="translate(118.587890625,2.666015625)"/>
<path d="M0 0 C12.99599636 8.71682683 20.64704759 19.67225304 24.60546875 34.81640625 C27.15952553 52.18904992 23.89808911 67.47555525 13.41015625 81.6484375 C4.111906 93.06887663 -9.23615092 99.48485644 -23.7109375 101.28125 C-39.82381119 102.35289006 -53.7461145 97.39892291 -66.1875 87.25 C-75.12005909 79.0017902 -82.07607497 66.81482649 -83.17700195 54.52392578 C-83.7247993 35.94246505 -80.43600112 21.99721678 -68 7.5 C-49.13892432 -9.31659266 -21.96587982 -13.56458714 0 0 Z M-57 20.5 C-57.886875 21.386875 -58.77375 22.27375 -59.6875 23.1875 C-66.94189321 32.5886014 -68.22414396 43.06299783 -67 54.5 C-65.08961338 63.95700706 -59.8875693 71.7563299 -52.24609375 77.609375 C-42.85436254 83.79386194 -33.21215758 86.75706882 -21.9375 84.875 C-11.34467042 82.35289772 -2.53271305 76.88017554 3.25 67.625 C4.18854691 65.92858901 5.10709468 64.22087206 6 62.5 C6.34289062 61.88640625 6.68578125 61.2728125 7.0390625 60.640625 C10.62381325 53.06909537 10.1674382 43.04522605 8.12109375 35.078125 C5.58313231 28.47775004 2.09171002 23.37576696 -3 18.5 C-3.495 18.01917969 -3.99 17.53835937 -4.5 17.04296875 C-12.89840104 9.48897216 -21.88977395 7.93239427 -32.8125 8.16015625 C-42.62255997 8.69747999 -50.3314797 13.58218922 -57 20.5 Z " fill="#9CA3AE" transform="translate(157,47.5)"/>
<path d="M0 0 C2.75487553 2.31054077 2.96798721 3.71171384 3.36547852 7.29125977 C2.90168723 11.9976415 1.51382258 13.38752269 -1.78515625 16.71484375 C-2.27906357 17.21544815 -2.77297089 17.71605255 -3.28184509 18.23182678 C-4.32668871 19.2814159 -5.3803537 20.32228867 -6.44213867 21.35473633 C-8.05842694 22.93352145 -9.63393177 24.54620743 -11.20898438 26.16601562 C-12.23213825 27.18454352 -13.25746164 28.20089764 -14.28515625 29.21484375 C-15.21207275 30.13386475 -16.13898926 31.05288574 -17.09399414 31.99975586 C-20.68335611 34.47036349 -22.72645664 34.49405493 -27 34 C-30.14186219 32.18335209 -32.48468069 29.60170401 -35 27 C-35.60714844 26.401875 -36.21429688 25.80375 -36.83984375 25.1875 C-39.47920653 22.40530112 -40.86190846 20.69045768 -41.625 16.875 C-40.82166332 13.17965126 -39.85931901 11.49273965 -37 9 C-32.62901047 8.28474717 -30.74376653 8.49360577 -27.0625 11 C-26.381875 11.66 -25.70125 12.32 -25 13 C-21.15588253 11.43387807 -18.84049791 8.97905879 -16 6 C-10.64492661 0.38370351 -7.89522406 -2.0096934 0 0 Z " fill="#9CA3AF" transform="translate(147,78)"/>
</svg>
