<?xml version="1.0" standalone="no"?>
<!DOCTYPE svg PUBLIC "-//W3C//DTD SVG 20010904//EN"
 "http://www.w3.org/TR/2001/REC-SVG-20010904/DTD/svg10.dtd">
<svg version="1.0" xmlns="http://www.w3.org/2000/svg"
 width="260.000000pt" height="164.000000pt" viewBox="0 0 260.000000 164.000000"
 preserveAspectRatio="xMidYMid meet">

<g transform="translate(0.000000,164.000000) scale(0.100000,-0.100000)"
fill="#FFFFFF" stroke="none">
<path d="M710 1438 c-36 -18 -49 -32 -64 -70 -35 -86 -26 -101 230 -358 l224
-225 -229 -230 c-254 -254 -258 -261 -226 -343 27 -68 89 -101 163 -87 31 6
71 41 265 233 l227 226 116 -114 c64 -63 155 -155 202 -204 98 -100 163 -146
204 -146 69 0 132 51 144 115 14 74 4 87 -234 327 l-226 228 226 228 c195 196
227 232 233 265 20 103 -64 190 -163 172 -31 -5 -73 -42 -267 -236 l-230 -229
-215 216 c-261 263 -287 278 -380 232z"/>
</g>
</svg>
