<?xml version="1.0" encoding="UTF-8"?>
<svg version="1.1" xmlns="http://www.w3.org/2000/svg" width="256" height="256">
<path d="M0 0 C7.57043693 2.3108883 14.70738095 5.41169049 21.90429688 8.6706543 C23.88952816 9.56907475 25.87808918 10.45978815 27.8671875 11.34960938 C37.57654814 15.71769876 37.57654814 15.71769876 41 18 C41.1875 21.125 41.1875 21.125 41 24 C42.33792603 23.68192383 42.33792603 23.68192383 43.70288086 23.35742188 C47.05021914 22.56669494 50.39942535 21.78506597 53.75024414 21.00927734 C55.19313446 20.67331695 56.63521863 20.33387272 58.07641602 19.99072266 C78.34327284 15.17163642 78.34327284 15.17163642 86.125 19.0625 C90.55004797 20.9911917 93.23356407 21.3489913 98 20 C99.11375 19.484375 100.2275 18.96875 101.375 18.4375 C110.71846877 14.73233135 120.69105576 18.26865282 130.0625 20.5 C131.51476392 20.83814293 132.96723673 21.17539003 134.41992188 21.51171875 C137.94908329 22.33082908 141.47526164 23.16203492 145 24 C145 22.02 145 20.04 145 18 C153.91238763 13.37362622 162.92584456 9.02922201 172.125 5 C173.45664185 4.40360718 173.45664185 4.40360718 174.81518555 3.79516602 C179.33396876 1.84577746 182.97280475 0.35754693 188 1 C189 2 189 2 189.0625 5.0625 C189.041875 6.031875 189.02125 7.00125 189 8 C180.79592258 12.2002258 172.56477343 16.29111519 164.125 20 C163.10019531 20.45354858 163.10019531 20.45354858 162.0546875 20.91625977 C157.25140694 23 157.25140694 23 155 23 C155.41958984 24.00353516 155.41958984 24.00353516 155.84765625 25.02734375 C163.34028834 42.97593189 170.63606794 60.99802618 177.83007812 79.06835938 C178.16650833 79.91276077 178.50293854 80.75716217 178.8495636 81.62715149 C179.48517867 83.22299061 180.11997347 84.81915676 180.75382996 86.41569519 C182.26993048 90.2548982 182.26993048 90.2548982 184 94 C185.41478638 93.34813721 185.41478638 93.34813721 186.8581543 92.68310547 C190.36322334 91.0737812 193.87845807 89.48783057 197.3972168 87.90869141 C198.91799118 87.22230843 200.43594445 86.52963862 201.95092773 85.83056641 C204.13071806 84.82604815 206.31969516 83.84466763 208.51171875 82.8671875 C209.18587326 82.55063202 209.86002777 82.23407654 210.55461121 81.90792847 C213.7924276 80.48978439 215.50300452 79.86255665 218.96801758 80.82080078 C219.63857178 81.20993652 220.30912598 81.59907227 221 82 C221 83.98 221 85.96 221 88 C212.08761237 92.62637378 203.07415544 96.97077799 193.875 101 C192.54335815 101.59639282 192.54335815 101.59639282 191.18481445 102.20483398 C186.62687902 104.17111268 183.07107092 105.53204679 178 105 C176.02 101.04 176.02 101.04 174 97 C169.76570244 98.31061591 165.92592596 99.94356259 162 102 C162.350625 102.804375 162.70125 103.60875 163.0625 104.4375 C164.43761465 109.66293567 164.54471467 114.29800723 161.80078125 119.09765625 C159.24314016 122.36687203 157.69488699 123.80697584 153.625 124.9375 C152.75875 124.958125 151.8925 124.97875 151 125 C151.0825 126.03125 151.165 127.0625 151.25 128.125 C150.95486439 132.6996019 149.92527181 134.52129839 147 138 C143.8115803 140.64183347 141.44695971 141.10216769 137.4375 141.3125 C135.10342974 141.43038415 135.10342974 141.43038415 133 142 C130.67939769 144.81420633 130.67939769 144.81420633 129 148 C125.8115803 150.64183347 123.44695971 151.10216769 119.4375 151.3125 C117.10611813 151.4307971 117.10611813 151.4307971 115 152 C112.60869555 154.79514598 112.60869555 154.79514598 111 158 C108.12258812 160.98017659 105.19833654 161.69185689 101.0859375 162.06640625 C96.51845061 161.92099936 93.04138373 159.87695472 89.625 157 C87.09329752 155.07108382 85.48427934 154.40611782 82.5 153.5 C78.6074609 152.30179745 75.93035613 150.93035613 73 148 C72.71511719 147.30777344 72.43023437 146.61554688 72.13671875 145.90234375 C71.76160156 145.27457031 71.38648437 144.64679688 71 144 C69.00933214 143.44645785 69.00933214 143.44645785 66.75 143.5 C62.16442376 143.1756184 59.56101695 142.05230024 56 139 C55.566875 138.113125 55.13375 137.22625 54.6875 136.3125 C53.27030266 133.8242121 53.27030266 133.8242121 51.03125 133.6015625 C49.44974806 133.49085736 47.86766674 133.3881767 46.28515625 133.29296875 C41.72556448 132.7084057 38.92811235 130.1446719 36.125 126.6875 C34.71791249 123.32612427 34.78778505 120.60765422 35 117 C34.13375 116.979375 33.2675 116.95875 32.375 116.9375 C28.29474774 115.80409659 26.76798363 114.33682285 24.15625 111.10546875 C22.81707734 108.66690773 22.72398897 107.07197872 22.6875 104.3125 C22.70743989 102.03695828 22.70743989 102.03695828 22 100 C19.08145217 97.91691434 16.46587052 97.12274679 13 96 C11.35 98.97 9.7 101.94 8 105 C1.60075062 104.53397451 -3.29206386 103.40142573 -9.0625 100.65625 C-9.77986328 100.32709595 -10.49722656 99.99794189 -11.23632812 99.65881348 C-13.49665811 98.61785256 -15.74810441 97.5590622 -18 96.5 C-19.53984107 95.78922933 -21.08020192 95.07958359 -22.62109375 94.37109375 C-33.79218567 89.20781433 -33.79218567 89.20781433 -35 88 C-35.04080783 86.00041636 -35.04254356 83.99954746 -35 82 C-32.96801758 80.82080078 -32.96801758 80.82080078 -30 80 C-27.3028101 80.81421056 -25.03647581 81.68166449 -22.51171875 82.8671875 C-21.4569207 83.33754929 -21.4569207 83.33754929 -20.3808136 83.81741333 C-18.14193894 84.82031539 -15.9150104 85.84714006 -13.6875 86.875 C-12.16934423 87.5602011 -10.65047064 88.24381416 -9.13085938 88.92578125 C-5.41200009 90.59889096 -1.70366545 92.29353622 2 94 C9.78539648 75.37962778 17.3650549 56.68272014 24.83007812 37.93164062 C25.16650833 37.08723923 25.50293854 36.24283783 25.8495636 35.37284851 C26.48517867 33.77700939 27.11997347 32.18084324 27.75382996 30.58430481 C29.88890985 25.2221803 29.88890985 25.2221803 31 23 C29.77152344 22.61585937 28.54304688 22.23171875 27.27734375 21.8359375 C21.20495474 19.80665334 15.39728278 17.24976551 9.5625 14.625 C8.47517578 14.15578125 7.38785156 13.6865625 6.26757812 13.203125 C5.23181641 12.73648438 4.19605469 12.26984375 3.12890625 11.7890625 C2.19119385 11.37350098 1.25348145 10.95793945 0.28735352 10.52978516 C-2.48975108 8.67245381 -3.0777949 7.15663881 -4 4 C-2.68 2.68 -1.36 1.36 0 0 Z M66.921875 27.27734375 C65.76042969 27.54353516 64.59898438 27.80972656 63.40234375 28.08398438 C62.19707031 28.36564453 60.99179688 28.64730469 59.75 28.9375 C52.16706404 30.70794713 44.76721752 32.34161997 37 33 C31.14794217 47.02139347 25.30951192 61.04692774 19.75 75.1875 C19.36787354 76.15373291 18.98574707 77.11996582 18.59204102 78.11547852 C18.24713623 78.99905029 17.90223145 79.88262207 17.546875 80.79296875 C17.09586426 81.94575317 17.09586426 81.94575317 16.63574219 83.12182617 C15.89312668 84.98526051 15.89312668 84.98526051 16 87 C17.4096347 87.70180531 18.82807641 88.38593958 20.25 89.0625 C21.43335938 89.63677734 21.43335938 89.63677734 22.640625 90.22265625 C25.43966291 91.14485583 26.33670583 91.24762346 29 90 C30.91219341 88.25024329 32.67649866 86.51438246 34.4375 84.625 C39.37949611 79.3608488 43.46957672 75.63590957 50.94140625 74.9296875 C55.14413146 75.07323409 58.37681054 76.88055899 61.8125 79.25 C63 81 63 81 63.625 84.4375 C64.58969758 88.03519273 64.58969758 88.03519273 66.984375 89.16796875 C68.58537049 89.80889015 70.19232551 90.43511064 71.8046875 91.046875 C74.92979901 92.40368498 76.32448423 94.06784741 78 97 C78.75 100.3125 78.75 100.3125 79 103 C79.90492187 103.23783203 79.90492187 103.23783203 80.828125 103.48046875 C85.99987844 104.99028709 89.17267364 106.13699866 92 111 C92.2475 112.03125 92.495 113.0625 92.75 114.125 C93.66220583 117.06785144 93.66220583 117.06785144 95.7578125 117.87109375 C97.18028187 118.3356271 98.60481835 118.79387357 100.03125 119.24609375 C103.19592589 120.45796368 104.35165663 122.0837002 106 125 C106.27929972 126.43209564 106.52664505 127.87061969 106.75 129.3125 C107.83716831 135.09778852 111.25843289 138.6773777 116 142 C119.2607041 142.83939269 119.2607041 142.83939269 122 142 C124.23546307 140.13725541 124.23546307 140.13725541 124.52734375 137.2890625 C123.75955504 132.50033589 121.07507049 130.52344015 117.5625 127.375 C116.34888368 126.26496947 115.14156427 125.14800545 113.94140625 124.0234375 C113.40201416 123.53794434 112.86262207 123.05245117 112.30688477 122.55224609 C110.75434579 120.70822539 110.28103653 119.38471777 110 117 C111.4375 115.25 111.4375 115.25 113 114 C116.81820408 115.29702824 119.05746487 116.73349785 121.77734375 119.6953125 C122.45603516 120.41074219 123.13472656 121.12617188 123.83398438 121.86328125 C125.23842344 123.37334665 126.63686487 124.88901204 128.02929688 126.41015625 C131.99847092 130.73072198 131.99847092 130.73072198 137.37890625 132.6171875 C140.14150839 132.20930051 140.14150839 132.20930051 142 130 C142.43138487 126.53713458 142.52217915 124.71824141 140.43945312 121.85351562 C139.72724609 121.21091797 139.01503906 120.56832031 138.28125 119.90625 C137.51425781 119.18566406 136.74726563 118.46507812 135.95703125 117.72265625 C134.74080078 116.62244141 134.74080078 116.62244141 133.5 115.5 C131.89273538 114.04605156 130.29831497 112.57774465 128.71875 111.09375 C128.00654297 110.45115234 127.29433594 109.80855469 126.56054688 109.14648438 C124.51013426 106.3262047 124.71159174 104.40515636 125 101 C127.27978516 100.30322266 127.27978516 100.30322266 130 100 C131.83349609 101.24755859 131.83349609 101.24755859 133.5234375 103.1484375 C134.1525 103.82390625 134.7815625 104.499375 135.4296875 105.1953125 C136.71921767 106.64020775 138.00828567 108.08551563 139.296875 109.53125 C142.4946844 112.9640005 144.2225992 114.78869836 148.8515625 116.046875 C151.92500591 116.25159459 151.92500591 116.25159459 154 114.875 C155.20114489 113.01628368 155.20114489 113.01628368 154.86219788 110.71089172 C153.7171786 107.11076307 151.8860104 105.40555821 149.20483398 102.75073242 C148.70725586 102.25257019 148.20967773 101.75440796 147.69702148 101.2411499 C146.05601783 99.6029248 144.40132132 97.97931043 142.74609375 96.35546875 C141.60321979 95.22005797 140.46122792 94.08375866 139.32008362 92.9466095 C136.31870032 89.96047633 133.30549858 86.98655161 130.28967285 84.01501465 C127.21257618 80.97888374 124.1468147 77.93135442 121.08007812 74.88476562 C115.06441818 68.91196563 109.03622443 62.95201603 103 57 C101.57518267 57.47008629 100.15078527 57.94144549 98.7265625 58.41333008 C97.93330566 58.67567947 97.14004883 58.93802887 96.32275391 59.20832825 C93.18060989 60.27927539 90.09726977 61.49376061 87 62.6875 C79.63745489 65.30001601 74.02281313 66.53313673 66.6875 63.4375 C62.73792359 61.16708482 60.2868319 58.40274564 59 54 C58.21378316 47.78256106 58.27607239 42.26486317 62 37 C65.52867707 33.83785804 68.91867969 31.98821463 73.3125 30.25 C74.38113281 29.82203125 75.44976562 29.3940625 76.55078125 28.953125 C77.35902344 28.63859375 78.16726562 28.3240625 79 28 C78.505 27.01 78.505 27.01 78 26 C74.09677699 25.85302235 70.71982883 26.38918798 66.921875 27.27734375 Z M100.28515625 28.703125 C99.5517955 28.98218689 98.81843475 29.26124878 98.06285095 29.54876709 C96.51568181 30.13993396 94.97009684 30.73526153 93.42602539 31.33447266 C91.07808668 32.2439624 88.72421747 33.13652639 86.36914062 34.02734375 C84.86159235 34.60576368 83.35441804 35.18515941 81.84765625 35.765625 C81.15060074 36.02933899 80.45354523 36.29305298 79.73536682 36.5647583 C72.22639739 39.37322906 72.22639739 39.37322906 67 45 C66.59179274 48.67386532 66.75158965 50.55286137 68.5625 53.8125 C71.80887905 56.7259171 73.6511817 56.81493235 78 57 C81.14348057 56.25818729 84.05701051 55.08020705 87.0390625 53.8515625 C87.88294525 53.51957855 88.726828 53.1875946 89.59628296 52.84555054 C92.27882031 51.78715154 94.95195808 50.70712908 97.625 49.625 C100.30667333 48.55425647 102.99009201 47.48812356 105.67514038 46.4258728 C107.34139764 45.76508984 109.00543904 45.09868398 110.66690063 44.42593384 C118.26480284 41.38348142 118.26480284 41.38348142 122 41 C123.875 42.1875 123.875 42.1875 125 44 C124.91796875 45.94140625 124.91796875 45.94140625 124 48 C121.49609375 49.484375 121.49609375 49.484375 118.4375 50.75 C117.42558594 51.17796875 116.41367188 51.6059375 115.37109375 52.046875 C114.58863281 52.36140625 113.80617187 52.6759375 113 53 C117.4978935 58.39190397 122.26126542 63.39391684 127.2421875 68.33984375 C128.39474533 69.49027916 128.39474533 69.49027916 129.57058716 70.66395569 C132.00303509 73.0908474 134.43895322 75.51422127 136.875 77.9375 C138.53408552 79.59156486 140.19294202 81.24585945 141.8515625 82.90039062 C145.89839709 86.93625433 149.94807953 90.96924277 154 95 C157.47423341 93.62214896 160.8803232 92.18176086 164.25 90.5625 C165.12140625 90.15128906 165.9928125 89.74007812 166.890625 89.31640625 C169.31607338 88.11410463 169.31607338 88.11410463 170 85 C169.38431679 82.6556751 169.38431679 82.6556751 168.29345703 80.10131836 C167.89619415 79.10696274 167.49893127 78.11260712 167.08963013 77.08811951 C166.65013031 76.01618851 166.21063049 74.94425751 165.7578125 73.83984375 C165.31484833 72.73902969 164.87188416 71.63821564 164.41549683 70.50404358 C162.99415685 66.97822239 161.55964684 63.45792476 160.125 59.9375 C159.16451776 57.55958666 158.20487159 55.18133544 157.24609375 52.80273438 C155.49085127 48.45620406 153.7329704 44.11079275 151.96533203 39.76928711 C151.60923859 38.89453232 151.25314514 38.01977753 150.88626099 37.11851501 C150.30351609 35.72552375 149.67528013 34.35056026 149 33 C146.47252935 32.4822724 146.47252935 32.4822724 143.3125 32.1875 C135.59009723 31.20826748 128.11566094 29.50819943 120.55395508 27.67651367 C119.64798584 27.46099854 118.7420166 27.2454834 117.80859375 27.0234375 C117.00220459 26.82669434 116.19581543 26.62995117 115.36499023 26.42724609 C109.70896899 25.40546049 105.56589226 26.64990905 100.28515625 28.703125 Z M42 90 C41.27441895 90.65863037 41.27441895 90.65863037 40.53417969 91.33056641 C38.98494627 92.74489191 37.45959983 94.18155787 35.9375 95.625 C34.97714844 96.52476562 34.01679687 97.42453125 33.02734375 98.3515625 C30.71166827 100.8031619 30.71166827 100.8031619 31.06640625 103.7109375 C31.88668229 106.14515383 31.88668229 106.14515383 34 108 C38.61876162 108.05702175 41.3170152 107.07381086 44.7109375 104.0859375 C45.94801661 102.86468456 47.169166 101.62711334 48.375 100.375 C49.00277344 99.77042969 49.63054687 99.16585937 50.27734375 98.54296875 C54.31707915 94.45088257 55.83656999 91.77947941 56 86 C49.55452342 80.84361874 47.32094037 85.06155534 42 90 Z M56 104 C55.48920898 104.46615723 54.97841797 104.93231445 54.45214844 105.41259766 C52.78388684 106.94488654 51.14030051 108.50035527 49.5 110.0625 C48.95939941 110.5565332 48.41879883 111.05056641 47.86181641 111.55957031 C45.24434263 114.1037986 44.0594275 115.5884646 43.53125 119.24609375 C43.74988247 122.13550165 43.74988247 122.13550165 46 124 C49.52334062 124.44367096 51.346553 124.43604153 54.33349609 122.44287109 C55.05617676 121.72695801 55.77885742 121.01104492 56.5234375 120.2734375 C57.31621094 119.48839844 58.10898438 118.70335937 58.92578125 117.89453125 C59.73402344 117.06308594 60.54226562 116.23164063 61.375 115.375 C62.20644531 114.56675781 63.03789063 113.75851563 63.89453125 112.92578125 C64.67957031 112.13300781 65.46460937 111.34023437 66.2734375 110.5234375 C66.98935059 109.80075684 67.70526367 109.07807617 68.44287109 108.33349609 C70.4338173 105.34988621 70.43467894 103.51926257 70 100 C64.15462038 94.15462038 60.831249 99.50738995 56 104 Z M68.625 118.625 C67.98433594 119.24246094 67.34367187 119.85992187 66.68359375 120.49609375 C63.7397218 123.47762717 62.14237827 125.11890549 61.4609375 129.3359375 C61.77316634 132.1417148 61.77316634 132.1417148 64 134 C66.77136062 134.73339521 66.77136062 134.73339521 70 134 C72.7609965 132.05604079 75.00099946 129.70004473 77.3125 127.25 C77.94478516 126.61578125 78.57707031 125.9815625 79.22851562 125.328125 C83.28475072 121.30670924 83.28475072 121.30670924 85 116 C84.05945016 113.63450124 84.05945016 113.63450124 82 112 C75.58463198 110.73765152 72.7567816 114.33795312 68.625 118.625 Z M86.875 129.25 C86.21242188 129.85328125 85.54984375 130.4565625 84.8671875 131.078125 C81.22886944 134.78862447 81.22886944 134.78862447 79.5625 139.5625 C79.80457103 142.11024854 79.80457103 142.11024854 81.6875 143.9375 C83.9610175 145.28451097 83.9610175 145.28451097 86.34765625 144.33984375 C89.3852305 142.80539903 91.3587739 141.04029884 93.75 138.625 C94.52859375 137.85414063 95.3071875 137.08328125 96.109375 136.2890625 C97.9554283 134.05396491 98.74682265 132.85728719 99 130 C97.99033641 127.65373496 97.99033641 127.65373496 96 126 C91.74668061 125.43664644 89.95931545 126.37130558 86.875 129.25 Z M103 142 C100.69 144.31 98.38 146.62 96 149 C97.32 150.32 98.64 151.64 100 153 C103.24983135 151.91215032 103.24983135 151.91215032 106 150 C105.74751373 146.48254713 105.74751373 146.48254713 105 143 C104.34 142.67 103.68 142.34 103 142 Z " fill="#9CA4AF" transform="translate(35,83)"/>
<path d="M0 0 C9.21930274 6.94878434 15.26837173 15.8290243 18.01171875 27.05078125 C18.42202089 30.35588174 18.49030725 33.59793381 18.44921875 36.92578125 C18.44019531 37.80419678 18.43117188 38.6826123 18.421875 39.58764648 C18.10368129 51.52985405 13.87405042 60.06935858 6.01171875 69.05078125 C-4.66362882 79.02271445 -16.73211046 81.74173154 -30.921875 81.421875 C-42.07808077 80.83950572 -51.17843515 75.88812681 -58.98828125 68.05078125 C-69.0329525 56.42214261 -71.29021958 44.37717346 -70.25439453 29.40820312 C-69.00770268 18.36411454 -62.90891813 9.16495264 -54.63671875 2.01953125 C-38.54603037 -10.03571465 -16.94505931 -11.05305176 0 0 Z M-53.98828125 15.05078125 C-61.13035557 24.26690058 -61.84011125 33.78892486 -60.98828125 45.05078125 C-59.17670569 54.12081728 -53.01780029 61.15313219 -45.8359375 66.71875 C-37.98964777 71.85422946 -29.33907134 73.97139938 -20.05078125 72.42578125 C-10.61774321 70.20280174 -2.97320219 65.7380797 3.01171875 58.05078125 C9.03795399 47.94709331 10.71689817 37.68037169 8.43359375 26.125 C5.26736257 17.10124113 -1.83636046 9.80747505 -9.96875 4.98828125 C-26.26321553 -2.5758807 -42.21461752 2.35697328 -53.98828125 15.05078125 Z " fill="#9CA3AF" transform="translate(153.98828125,18.94921875)"/>
<path d="M0 0 C1 1 1 1 1.39111328 3.68408203 C0.87386548 8.06938767 -1.22739413 10.09397378 -4.2578125 13.0546875 C-4.79848358 13.60109894 -5.33915466 14.14751038 -5.89620972 14.71047974 C-7.04062723 15.85897086 -8.19261991 16.9999569 -9.3515625 18.13378906 C-11.11955824 19.86965712 -12.85326343 21.63520325 -14.5859375 23.40625 C-15.7038105 24.52015799 -16.8235434 25.63220321 -17.9453125 26.7421875 C-18.71912766 27.53422073 -18.71912766 27.53422073 -19.50857544 28.34225464 C-22.08520393 30.82143256 -23.63810092 31.95023991 -27.22094727 32.44287109 C-30.9144674 31.85427006 -32.26282964 30.44300787 -34.8125 27.75 C-35.58207031 26.96109375 -36.35164063 26.1721875 -37.14453125 25.359375 C-38.93108846 23.08762646 -39.82832111 21.86526155 -40 19 C-39.01 17.515 -39.01 17.515 -38 16 C-35.125 15.5625 -35.125 15.5625 -32 16 C-29.625 18 -29.625 18 -28 20 C-24.53878902 18.52687602 -22.44002325 16.60345637 -19.8828125 13.8671875 C-18.72458984 12.65869141 -18.72458984 12.65869141 -17.54296875 11.42578125 C-15.93076858 9.72502727 -14.32656868 8.01665377 -12.73046875 6.30078125 C-11.56837891 5.09615234 -11.56837891 5.09615234 -10.3828125 3.8671875 C-9.68559082 3.12581543 -8.98836914 2.38444336 -8.27001953 1.62060547 C-5.34821135 -0.46532298 -3.51345098 -0.38327438 0 0 Z " fill="#9CA3AF" transform="translate(147,40)"/>
</svg>
