<?xml version="1.0" encoding="UTF-8"?>
<svg version="1.1" xmlns="http://www.w3.org/2000/svg" width="256" height="256">
<path d="M0 0 C5.42343854 2.61487215 8.7323198 6.34390816 11.3125 11.75 C12.72977716 18.44985566 11.47407612 24.10917528 8 30 C8.556875 30.20625 9.11375 30.4125 9.6875 30.625 C14.56438966 33.52477223 17.5072017 38.03044425 19.40454102 43.30224609 C20.78375665 49.55084502 20.29860848 56.13257593 20.1875 62.5 C20.1724286 64.00519497 20.15874453 65.51040451 20.14648438 67.015625 C20.11366687 70.67738941 20.06201989 74.33860021 20 78 C20.66 77.67 21.32 77.34 22 77 C24.75 76.5 24.75 76.5 28 77 C31.52161969 80.02327728 34.18776308 83.73078802 36 88 C35.59662045 91.83210571 34.26543435 95.37242154 33 99 C34.134375 99.45375 35.26875 99.9075 36.4375 100.375 C40 102 40 102 41 104 C41.58576188 109.10277101 41.79975555 113.91465781 41 119 C38.7037604 121.70323174 36.34835536 122.91626891 33 124 C33.515625 125.051875 34.03125 126.10375 34.5625 127.1875 C35.98649788 130.56440926 36.35678709 132.47235355 35 136 C31.03327496 142.61120841 31.03327496 142.61120841 28 145 C25.51953125 145.29296875 25.51953125 145.29296875 22.8125 145.1875 C21.91144531 145.16042969 21.01039063 145.13335937 20.08203125 145.10546875 C19.39496094 145.07066406 18.70789063 145.03585938 18 145 C17.96003906 145.60328125 17.92007813 146.2065625 17.87890625 146.828125 C17.04991104 153.17352044 17.04991104 153.17352044 14.109375 155.48828125 C9.47608059 157.65521316 5.11978628 158.88611686 0 158 C-2.9375 155.5 -2.9375 155.5 -5 153 C-8.16115776 154.36983503 -8.9927092 154.9890638 -11 158 C-16.56684168 158.68364722 -21.06413685 157.89294297 -26.14453125 155.48828125 C-29.0966707 153.12035466 -29.40476128 150.45738278 -29.87890625 146.828125 C-29.91886719 146.22484375 -29.95882812 145.6215625 -30 145 C-30.65226562 145.08121094 -31.30453125 145.16242188 -31.9765625 145.24609375 C-38.9766203 145.75199763 -38.9766203 145.75199763 -41.9296875 143.58203125 C-44.45601221 140.63465243 -46.44980738 137.56617081 -48 134 C-47.6732704 129.86142505 -45.93941098 126.62585532 -44 123 C-44.928125 122.71125 -45.85625 122.4225 -46.8125 122.125 C-50 121 -50 121 -53 119 C-53.22107787 116.2114711 -53.28107535 113.65346819 -53.1875 110.875 C-53.17396484 110.12089844 -53.16042969 109.36679688 -53.14648438 108.58984375 C-53.11109985 106.72625873 -53.05729167 104.86304022 -53 103 C-50.36 101.68 -47.72 100.36 -45 99 C-45.4640625 97.6696875 -45.4640625 97.6696875 -45.9375 96.3125 C-48.36178423 88.75443741 -48.36178423 88.75443741 -46.85546875 85.61328125 C-46.30503906 84.85402344 -45.75460938 84.09476562 -45.1875 83.3125 C-44.64480469 82.54550781 -44.10210937 81.77851563 -43.54296875 80.98828125 C-42 79 -42 79 -40 77 C-34.66666667 76.66666667 -34.66666667 76.66666667 -32 78 C-32.02094727 77.08299316 -32.04189453 76.16598633 -32.06347656 75.22119141 C-32.13221946 71.77316965 -32.18207152 68.32589065 -32.21972656 64.87744141 C-32.23966981 63.39359952 -32.2668349 61.90983445 -32.30175781 60.42626953 C-32.54049812 50.0129791 -32.43989127 40.37920238 -24.875 32.375 C-22 30 -22 30 -20 30 C-20.474375 28.96875 -20.94875 27.9375 -21.4375 26.875 C-23.75831331 21.36030551 -24.53365059 16.94749632 -22.86328125 11.02734375 C-21.05868979 6.78941176 -18.0421163 3.30904891 -14.171875 0.828125 C-9.64802976 -0.89679441 -4.74731201 -0.51545881 0 0 Z M-10.6875 10.5625 C-13.24071817 12.90511298 -13.24071817 12.90511298 -14.125 16.4375 C-14.32041984 20.11161091 -14.32041984 20.11161091 -11.9375 22.9375 C-9.16764391 25.17147653 -9.16764391 25.17147653 -6 25.625 C-1.88710733 24.76814736 -0.40313068 23.42264067 2 20 C2.3309316 16.39969811 2.3309316 16.39969811 1 13 C-1.18498756 10.46808501 -1.18498756 10.46808501 -4 9 C-7.9417798 8.6649197 -7.9417798 8.6649197 -10.6875 10.5625 Z M-18.75 40.75 C-22.75569811 46.53600837 -23.24744558 52.01932497 -23.125 58.9375 C-23.11597656 59.62134766 -23.10695312 60.30519531 -23.09765625 61.00976562 C-23.07438958 62.67333287 -23.03853167 64.33671631 -23 66 C-22.41089844 65.84273437 -21.82179687 65.68546875 -21.21484375 65.5234375 C-17.96418894 64.75520515 -15.33145535 64.64932049 -12 65 C-9.0625 67.5 -9.0625 67.5 -7 70 C-4.77344339 69.00188842 -3.23745688 68.29399424 -1.6875 66.375 C1.03504714 64.15662826 3.61395988 64.76238315 7 65 C8.33881481 65.31058621 9.67399172 65.63862632 11 66 C11.76203391 53.55792316 11.76203391 53.55792316 8 42 C4.98777971 38.84135234 1.5635359 35.26660773 -2.953125 34.796875 C-9.78164258 34.6575175 -13.77746826 35.77746826 -18.75 40.75 Z M-18 74 C-18.24234375 74.68707031 -18.4846875 75.37414062 -18.734375 76.08203125 C-19.23710937 77.43361328 -19.23710937 77.43361328 -19.75 78.8125 C-20.07484375 79.70582031 -20.3996875 80.59914063 -20.734375 81.51953125 C-22.17488738 84.34275768 -23.22276399 85.49235759 -26 87 C-28.578125 87.29296875 -28.578125 87.29296875 -31.25 87.1875 C-32.14203125 87.16042969 -33.0340625 87.13335937 -33.953125 87.10546875 C-34.62859375 87.07066406 -35.3040625 87.03585938 -36 87 C-36.69159401 88.84725052 -36.69159401 88.84725052 -37 91 C-36.34 91.99 -35.68 92.98 -35 94 C-34.98828125 96.15625 -34.98828125 96.15625 -35.3125 98.5 C-35.41175781 99.2734375 -35.51101562 100.046875 -35.61328125 100.84375 C-36 103 -36 103 -37 106 C-40.5625 107.6875 -40.5625 107.6875 -44 109 C-44 110.32 -44 111.64 -44 113 C-41.69 113.66 -39.38 114.32 -37 115 C-34.54773869 124.04271357 -34.54773869 124.04271357 -35 128 C-35.66 128.99 -36.32 129.98 -37 131 C-36.69159401 133.15274948 -36.69159401 133.15274948 -36 135 C-35.33613281 134.95359375 -34.67226562 134.9071875 -33.98828125 134.859375 C-29.8178569 134.6889051 -26.80970507 134.61201632 -23 136.4375 C-20.21176688 140.00992368 -19.63306475 143.57799547 -19 148 C-16.06312654 147.41385929 -15.04285821 147.03928669 -12.75 144.9375 C-9.73536242 142.8135508 -7.6755688 142.3674989 -3.9921875 142.52734375 C-0.51961146 143.35122944 1.42209038 145.60194454 4 148 C4.99 148 5.98 148 7 148 C7.08636719 147.39671875 7.17273438 146.7934375 7.26171875 146.171875 C7.94642135 142.27723636 8.5368627 139.59339467 11 136.4375 C15.32446828 134.36535895 19.28691658 134.67054174 24 135 C24.59874408 133.08990939 24.59874408 133.08990939 25 131 C24.67 130.401875 24.34 129.80375 24 129.1875 C22.24731863 125.35350949 23.49712136 121.64578466 24.6875 117.75 C26.6249443 115.16674093 29.08769601 114.26621912 32 113 C32 111.68 32 110.36 32 109 C29.69 108.34 27.38 107.68 25 107 C23.47962341 101.81283282 22.6919037 98.35130306 24 93 C24.2784375 91.576875 24.2784375 91.576875 24.5625 90.125 C24.706875 89.42375 24.85125 88.7225 25 88 C21.91302224 86.77005819 21.91302224 86.77005819 18.125 87.1875 C15.10161716 87.19859498 13.98056245 86.99006525 11.1875 85.5625 C8.20050541 82.06344919 7.15642897 78.40007121 6 74 C3.78640109 74.99230296 2.19748968 75.7822276 0.5546875 77.59375 C-2.13896665 80.03022109 -5.08182607 79.51849968 -8.5546875 79.4375 C-12.17979704 78.7889181 -13.76022881 76.79971399 -16 74 C-16.66 74 -17.32 74 -18 74 Z " fill="#FFFFFF" transform="translate(215,98)"/>
<path d="M0 0 C5.01791684 2.41935276 8.49958655 5.9991731 11 11 C11.55493184 18.03269384 11.40327424 23.7606639 8 30 C8.556875 30.20625 9.11375 30.4125 9.6875 30.625 C14.56438966 33.52477223 17.5072017 38.03044425 19.40454102 43.30224609 C20.78375665 49.55084502 20.29860848 56.13257593 20.1875 62.5 C20.1724286 64.00519497 20.15874453 65.51040451 20.14648438 67.015625 C20.11366687 70.67738941 20.06201989 74.33860021 20 78 C20.66 77.67 21.32 77.34 22 77 C24.75 76.5 24.75 76.5 28 77 C31.52161969 80.02327728 34.18776308 83.73078802 36 88 C35.59662045 91.83210571 34.26543435 95.37242154 33 99 C34.134375 99.45375 35.26875 99.9075 36.4375 100.375 C40 102 40 102 41 104 C41.14879681 106.30921203 41.22134584 108.6236764 41.25 110.9375 C41.27578125 112.18402344 41.3015625 113.43054688 41.328125 114.71484375 C41 118 41 118 39.65234375 119.8671875 C37.55147181 121.3075016 35.39639535 122.15802326 33 123 C33.309375 123.886875 33.61875 124.77375 33.9375 125.6875 C36.36178423 133.24556259 36.36178423 133.24556259 34.85546875 136.38671875 C34.30503906 137.14597656 33.75460938 137.90523437 33.1875 138.6875 C32.37345703 139.83798828 32.37345703 139.83798828 31.54296875 141.01171875 C30 143 30 143 28 145 C25.6171875 145.1953125 25.6171875 145.1953125 22.875 145.125 C21.96492188 145.10695312 21.05484375 145.08890625 20.1171875 145.0703125 C19.41851562 145.04710937 18.71984375 145.02390625 18 145 C17.96003906 145.60328125 17.92007813 146.2065625 17.87890625 146.828125 C17.05219637 153.15602775 17.05219637 153.15602775 14.14453125 155.48828125 C9.07619334 157.88723637 4.54443489 158.84576125 -1 158 C-3.5 155.5 -3.5 155.5 -5 153 C-7.22655661 153.99811158 -8.76254312 154.70600576 -10.3125 156.625 C-12 158 -12 158 -15.125 158.4375 C-19.95407609 157.89228173 -24.11796023 157.05590321 -28 154 C-29.32688122 151.0349308 -29.78618973 148.22784541 -30 145 C-30.65226562 145.08121094 -31.30453125 145.16242188 -31.9765625 145.24609375 C-38.99921135 145.75363032 -38.99921135 145.75363032 -41.9296875 143.546875 C-43.43850461 141.76031544 -44.74874912 139.9741019 -46 138 C-46.66 137.01 -47.32 136.02 -48 135 C-47.65351369 131.0154074 -46.60913531 127.64737336 -45 124 C-45.5775 123.81308594 -46.155 123.62617188 -46.75 123.43359375 C-49.47725149 122.22621679 -51.0475592 121.28422812 -53 119 C-53.90860005 113.91072488 -53.8653728 109.12159414 -53 104 C-50.86798934 101.0745422 -48.37652345 100.18634608 -45 99 C-45.4640625 97.6696875 -45.4640625 97.6696875 -45.9375 96.3125 C-48.36178423 88.75443741 -48.36178423 88.75443741 -46.85546875 85.61328125 C-46.30503906 84.85402344 -45.75460938 84.09476562 -45.1875 83.3125 C-44.64480469 82.54550781 -44.10210937 81.77851563 -43.54296875 80.98828125 C-42 79 -42 79 -40 77 C-34.66666667 76.66666667 -34.66666667 76.66666667 -32 78 C-32.02094727 77.08299316 -32.04189453 76.16598633 -32.06347656 75.22119141 C-32.13221946 71.77316965 -32.18207152 68.32589065 -32.21972656 64.87744141 C-32.23966981 63.39359952 -32.2668349 61.90983445 -32.30175781 60.42626953 C-32.54049812 50.0129791 -32.43989127 40.37920238 -24.875 32.375 C-22 30 -22 30 -20 30 C-20.474375 29.175 -20.94875 28.35 -21.4375 27.5 C-24.36064395 20.95215755 -24.63624303 15.77383011 -22.16015625 9.1171875 C-17.26986991 0.19282656 -9.34834988 -0.88099632 0 0 Z M-10.6875 10.5625 C-13.24071817 12.90511298 -13.24071817 12.90511298 -14.125 16.4375 C-14.32041984 20.11161091 -14.32041984 20.11161091 -11.9375 22.9375 C-9.16764391 25.17147653 -9.16764391 25.17147653 -6 25.625 C-1.88710733 24.76814736 -0.40313068 23.42264067 2 20 C2.3309316 16.39969811 2.3309316 16.39969811 1 13 C-1.18498756 10.46808501 -1.18498756 10.46808501 -4 9 C-7.9417798 8.6649197 -7.9417798 8.6649197 -10.6875 10.5625 Z M-19.25 41.375 C-22.9203228 46.8804842 -23.27534053 51.97974509 -23.125 58.375 C-23.11597656 59.11105469 -23.10695313 59.84710938 -23.09765625 60.60546875 C-23.07430144 62.4037888 -23.03843836 64.20193911 -23 66 C-22.41089844 65.84273437 -21.82179688 65.68546875 -21.21484375 65.5234375 C-17.96418894 64.75520515 -15.33145535 64.64932049 -12 65 C-9.0625 67.5 -9.0625 67.5 -7 70 C-4.77344339 69.00188842 -3.23745688 68.29399424 -1.6875 66.375 C1.03504714 64.15662826 3.61395988 64.76238315 7 65 C8.33881481 65.31058621 9.67399172 65.63862632 11 66 C11.97347045 52.19756868 11.97347045 52.19756868 6.34765625 40.16015625 C1.57205077 35.86917881 -2.33375045 34.63582793 -8.71875 34.71875 C-13.39526506 35.29530665 -16.13034363 38.08202939 -19.25 41.375 Z M-18 74 C-18.24234375 74.68707031 -18.4846875 75.37414062 -18.734375 76.08203125 C-19.23710938 77.43361328 -19.23710938 77.43361328 -19.75 78.8125 C-20.07484375 79.70582031 -20.3996875 80.59914063 -20.734375 81.51953125 C-22.17488738 84.34275768 -23.22276399 85.49235759 -26 87 C-28.578125 87.29296875 -28.578125 87.29296875 -31.25 87.1875 C-32.14203125 87.16042969 -33.0340625 87.13335937 -33.953125 87.10546875 C-34.62859375 87.07066406 -35.3040625 87.03585938 -36 87 C-36.59874408 88.91009061 -36.59874408 88.91009061 -37 91 C-36.67 91.598125 -36.34 92.19625 -36 92.8125 C-34.51123416 96.06917528 -35.33318554 98.54468869 -36 102 C-36.185625 102.969375 -36.37125 103.93875 -36.5625 104.9375 C-36.7790625 105.9584375 -36.7790625 105.9584375 -37 107 C-39.31 107.66 -41.62 108.32 -44 109 C-44 110.32 -44 111.64 -44 113 C-42.6078125 113.5259375 -42.6078125 113.5259375 -41.1875 114.0625 C-37.1058877 116.54348002 -36.30879896 118.45769772 -35 123 C-35.25 126.125 -35.25 126.125 -36 129 C-36.185625 129.94875 -36.37125 130.8975 -36.5625 131.875 C-36.706875 132.57625 -36.85125 133.2775 -37 134 C-34.2981565 134.86458992 -32.45283854 134.97015483 -29.5625 134.8125 C-26 135 -26 135 -23.1875 136.4375 C-20.16625921 139.97666778 -19.64798399 143.47378345 -19 148 C-16.06312654 147.41385929 -15.04285821 147.03928669 -12.75 144.9375 C-9.73536242 142.8135508 -7.6755688 142.3674989 -3.9921875 142.52734375 C-0.51961146 143.35122944 1.42209038 145.60194454 4 148 C4.99 148 5.98 148 7 148 C7.08636719 147.39671875 7.17273437 146.7934375 7.26171875 146.171875 C7.94642135 142.27723636 8.5368627 139.59339467 11 136.4375 C15.32446828 134.36535895 19.28691658 134.67054174 24 135 C24.69159401 133.15274948 24.69159401 133.15274948 25 131 C24.34 130.01 23.68 129.02 23 128 C22.98828125 125.87890625 22.98828125 125.87890625 23.3125 123.5625 C23.41175781 122.80066406 23.51101562 122.03882813 23.61328125 121.25390625 C23.97713868 119.13324225 24.44610538 117.07828837 25 115 C27.31 114.34 29.62 113.68 32 113 C32 111.68 32 110.36 32 109 C30.88625 108.62875 29.7725 108.2575 28.625 107.875 C25.62057076 106.58218499 25.12789185 106.25022319 23.5625 103.1875 C22.59020366 97.67782077 22.85759257 94.14177784 25 89 C24.505 88.01 24.505 88.01 24 87 C23.00419922 87.06960937 23.00419922 87.06960937 21.98828125 87.140625 C17.84159266 87.31012468 14.83641065 87.40930734 11.0625 85.5625 C8.22418157 82.03610438 7.13986385 78.33704294 6 74 C3.78640109 74.99230296 2.19748968 75.7822276 0.5546875 77.59375 C-2.13896665 80.03022109 -5.08182607 79.51849968 -8.5546875 79.4375 C-12.17979704 78.7889181 -13.76022881 76.79971399 -16 74 C-16.66 74 -17.32 74 -18 74 Z " fill="#FFFFFF" transform="translate(53,98)"/>
<path d="M0 0 C5.08528197 2.45183238 8.83953747 5.79300748 10.79296875 11.19140625 C12.50610447 17.82591366 11.49196222 22.70310622 9 29 C9.68835938 29.58394531 9.68835938 29.58394531 10.390625 30.1796875 C11.00421875 30.73914063 11.6178125 31.29859375 12.25 31.875 C12.85328125 32.40867188 13.4565625 32.94234375 14.078125 33.4921875 C20.86218229 42.34455494 20.49988856 52.00945121 20.25 62.625 C20.22989241 64.12106968 20.21164921 65.61716564 20.1953125 67.11328125 C20.15168115 70.74274238 20.08289303 74.37119819 20 78 C20.66 77.67 21.32 77.34 22 77 C24.75 76.5 24.75 76.5 28 77 C31.52161969 80.02327728 34.18776308 83.73078802 36 88 C35.59662045 91.83210571 34.26543435 95.37242154 33 99 C34.134375 99.45375 35.26875 99.9075 36.4375 100.375 C40 102 40 102 41 104 C41.14879681 106.30921203 41.22134584 108.6236764 41.25 110.9375 C41.27578125 112.18402344 41.3015625 113.43054688 41.328125 114.71484375 C41 118 41 118 39.65234375 119.8671875 C37.55147181 121.3075016 35.39639535 122.15802326 33 123 C33.309375 123.886875 33.61875 124.77375 33.9375 125.6875 C36.36178423 133.24556259 36.36178423 133.24556259 34.85546875 136.38671875 C34.30503906 137.14597656 33.75460938 137.90523437 33.1875 138.6875 C32.37345703 139.83798828 32.37345703 139.83798828 31.54296875 141.01171875 C30 143 30 143 28 145 C25.3984375 144.9765625 25.3984375 144.9765625 22.375 144.625 C21.37210937 144.51414063 20.36921875 144.40328125 19.3359375 144.2890625 C18.56507813 144.19367188 17.79421875 144.09828125 17 144 C16.67 147.3 16.34 150.6 16 154 C5.8265896 159.0084482 5.8265896 159.0084482 0 158 C-2.9375 155.5 -2.9375 155.5 -5 153 C-7.22655661 153.99811158 -8.76254312 154.70600576 -10.3125 156.625 C-12 158 -12 158 -15.125 158.4375 C-20.08627311 157.87735626 -23.52809906 156.20155123 -28 154 C-28.33 150.7 -28.66 147.4 -29 144 C-29.72445312 144.15339844 -30.44890625 144.30679688 -31.1953125 144.46484375 C-38.94406702 145.71497615 -38.94406702 145.71497615 -41.99609375 143.6484375 C-44.51151223 140.7001914 -46.45134184 137.55537015 -48 134 C-47.59662045 130.16789429 -46.26543435 126.62757846 -45 123 C-47.64 121.68 -50.28 120.36 -53 119 C-53 113.72 -53 108.44 -53 103 C-46.25 99 -46.25 99 -44 99 C-44.30035156 98.48050781 -44.60070312 97.96101563 -44.91015625 97.42578125 C-47.95820116 91.83597686 -47.95820116 91.83597686 -48.125 88.5 C-46.21479262 84.25509471 -43.29809389 80.29809389 -40 77 C-34.47058824 76.76470588 -34.47058824 76.76470588 -32 78 C-32.02094727 77.08299316 -32.04189453 76.16598633 -32.06347656 75.22119141 C-32.13221946 71.77316965 -32.18207152 68.32589065 -32.21972656 64.87744141 C-32.23966981 63.39359952 -32.2668349 61.90983445 -32.30175781 60.42626953 C-32.52953661 50.49109432 -32.37771568 41.71238509 -26.078125 33.4921875 C-25.47484375 32.95851562 -24.8715625 32.42484375 -24.25 31.875 C-23.63640625 31.31554687 -23.0228125 30.75609375 -22.390625 30.1796875 C-21.93171875 29.79039063 -21.4728125 29.40109375 -21 29 C-21.23976563 28.31035156 -21.47953125 27.62070312 -21.7265625 26.91015625 C-23.76405163 20.45220157 -24.85222342 15.33694827 -22 9 C-16.30028171 0.30917591 -10.14053548 -1.1010501 0 0 Z M-10.6875 10.5625 C-13.24071817 12.90511298 -13.24071817 12.90511298 -14.125 16.4375 C-14.32041984 20.11161091 -14.32041984 20.11161091 -11.9375 22.9375 C-9.16764391 25.17147653 -9.16764391 25.17147653 -6 25.625 C-1.88710733 24.76814736 -0.40313068 23.42264067 2 20 C2.3309316 16.39969811 2.3309316 16.39969811 1 13 C-1.18498756 10.46808501 -1.18498756 10.46808501 -4 9 C-7.9417798 8.6649197 -7.9417798 8.6649197 -10.6875 10.5625 Z M-19.25 41.375 C-22.9203228 46.8804842 -23.27534053 51.97974509 -23.125 58.375 C-23.11597656 59.11105469 -23.10695313 59.84710938 -23.09765625 60.60546875 C-23.07430144 62.4037888 -23.03843836 64.20193911 -23 66 C-22.41089844 65.84273437 -21.82179688 65.68546875 -21.21484375 65.5234375 C-17.96418894 64.75520515 -15.33145535 64.64932049 -12 65 C-9.0625 67.5 -9.0625 67.5 -7 70 C-4.77344339 69.00188842 -3.23745688 68.29399424 -1.6875 66.375 C1.03504714 64.15662826 3.61395988 64.76238315 7 65 C8.33881481 65.31058621 9.67399172 65.63862632 11 66 C11.76203391 53.55792316 11.76203391 53.55792316 8 42 C3.82480221 37.6218412 0.39687633 34.86445553 -5.75 34.6875 C-11.93099318 34.75875064 -15.03928601 36.93035745 -19.25 41.375 Z M-18 74 C-18.24234375 74.68707031 -18.4846875 75.37414062 -18.734375 76.08203125 C-19.23710938 77.43361328 -19.23710938 77.43361328 -19.75 78.8125 C-20.07484375 79.70582031 -20.3996875 80.59914063 -20.734375 81.51953125 C-22.17488738 84.34275768 -23.22276399 85.49235759 -26 87 C-28.578125 87.29296875 -28.578125 87.29296875 -31.25 87.1875 C-32.14203125 87.16042969 -33.0340625 87.13335937 -33.953125 87.10546875 C-34.62859375 87.07066406 -35.3040625 87.03585938 -36 87 C-36.69159401 88.84725052 -36.69159401 88.84725052 -37 91 C-36.34 91.99 -35.68 92.98 -35 94 C-35.35610871 98.41574798 -36.05315931 102.67158544 -37 107 C-39.31 107.66 -41.62 108.32 -44 109 C-44 110.32 -44 111.64 -44 113 C-41.69 113.66 -39.38 114.32 -37 115 C-35.47962341 120.18716718 -34.6919037 123.64869694 -36 129 C-36.185625 129.94875 -36.37125 130.8975 -36.5625 131.875 C-36.706875 132.57625 -36.85125 133.2775 -37 134 C-33.91302224 135.22994181 -33.91302224 135.22994181 -30.125 134.8125 C-27.10161716 134.80140502 -25.98056245 135.00993475 -23.1875 136.4375 C-20.20050541 139.93655081 -19.15642897 143.59992879 -18 148 C-15.77202047 146.9412494 -14.0693562 146.06440219 -12.25 144.375 C-8.92687239 142.34419979 -5.72762713 142.18839718 -2 143 C0.22016188 144.47514111 2.01641252 146.20093229 4 148 C4.99 147.67 5.98 147.34 7 147 C7.91520429 144.78051905 8.45718594 142.54898009 9.05859375 140.2265625 C10.24651464 137.41695707 11.33392531 136.46143849 14 135 C16.578125 134.70703125 16.578125 134.70703125 19.25 134.8125 C20.58804688 134.85310547 20.58804688 134.85310547 21.953125 134.89453125 C22.96632812 134.94673828 22.96632812 134.94673828 24 135 C24.59812242 133.08714256 24.59812242 133.08714256 25 131 C24.505 130.13375 24.505 130.13375 24 129.25 C22.05625865 124.87658196 23.69645858 119.46928485 25 115 C27.31 114.34 29.62 113.68 32 113 C32 111.68 32 110.36 32 109 C29.69 108.34 27.38 107.68 25 107 C22.54773869 97.95728643 22.54773869 97.95728643 23 94 C23.99 92.515 23.99 92.515 25 91 C24.69159401 88.84725052 24.69159401 88.84725052 24 87 C23.00419922 87.06960937 23.00419922 87.06960937 21.98828125 87.140625 C17.84159266 87.31012468 14.83641065 87.40930734 11.0625 85.5625 C8.22418157 82.03610438 7.13986385 78.33704294 6 74 C3.77202047 75.0587506 2.0693562 75.93559781 0.25 77.625 C-3.07669654 79.65798122 -6.26885889 79.80363039 -10 79 C-12.3034835 77.54516832 -14.00996295 75.89527338 -16 74 C-16.66 74 -17.32 74 -18 74 Z " fill="#FFFFFF" transform="translate(134,0)"/>
<path d="M0 0 C4.90708223 4.90708223 7.04375389 10.15630831 7.5 17 C7.40116071 22.89741081 5.73006929 27.48991761 1.9375 32 C-4.25923987 37.18796827 -8.48187929 39.60086236 -16.59765625 39.46484375 C-23.07579351 38.81820573 -27.57139544 36.241111 -31.75 31.25 C-36.16305996 25.24333506 -37.50958007 20.72372532 -36.75 13.25 C-35.33432013 7.59768993 -33.00202797 2.49906607 -28.078125 -0.90625 C-18.51366643 -6.62857564 -9.23787062 -5.87864494 0 0 Z M-25.5625 10.4375 C-27.13648044 14.16534841 -27.34076626 17.26030457 -26.75 21.25 C-24.99086879 25.41636339 -22.91636339 27.49086879 -18.75 29.25 C-14.76030457 29.84076626 -11.66534841 29.63648044 -7.9375 28.0625 C-4.01007719 24.80834967 -2.87865911 22.40793195 -2.3125 17.3125 C-2.48160557 13.05265006 -3.96139819 10.50336878 -6.75 7.25 C-9.7781958 4.8707033 -12.99769379 4.88724554 -16.7890625 5 C-20.83939304 5.5163768 -23.02573074 7.37588192 -25.5625 10.4375 Z " fill="#FFFFFF" transform="translate(142.75,93.75)"/>
<path d="M0 0 C5.22210116 4.83133168 7.50721421 10.36211946 7.97265625 17.34375 C7.87350174 23.99949635 5.44110494 29.87530131 0.72265625 34.59375 C-5.401374 38.82906064 -10.84977888 40.34863863 -18.27734375 39.59375 C-23.92965382 38.17807013 -29.02827768 35.84577797 -32.43359375 30.921875 C-36.19150048 24.64080232 -37.3511645 18.76582242 -35.8515625 11.54296875 C-33.86193296 5.25671591 -29.99722874 0.63617742 -24.20703125 -2.54296875 C-16.06177509 -5.7689573 -7.19811392 -5.08449936 0 0 Z M-25.08984375 10.78125 C-26.63954948 14.45160568 -26.9696803 17.70601397 -26.27734375 21.59375 C-24.66810878 24.69727458 -23.27387108 26.81076424 -20.52734375 28.96875 C-15.31096508 30.41774408 -11.62837856 30.29428657 -6.90234375 27.84375 C-2.90899335 24.42087823 -2.38358449 22.93238337 -1.96484375 17.65625 C-2.07726942 13.87593678 -2.81315028 11.5677766 -5.27734375 8.59375 C-8.84071372 5.64124345 -11.86119637 5.11409578 -16.3515625 5.30859375 C-20.37423382 5.90424285 -22.55659284 7.72387821 -25.08984375 10.78125 Z " fill="#FFFFFF" transform="translate(223.27734375,191.40625)"/>
<path d="M0 0 C5.68346571 5.43113425 8.67024725 9.9110659 9.3125 17.875 C9.12358123 24.46196772 6.66713558 30.33286442 2 35 C-4.12403025 39.23531064 -9.57243513 40.75488863 -17 40 C-22.65231007 38.58432013 -27.75093393 36.25202797 -31.15625 31.328125 C-34.89939789 25.07172067 -36.18526349 19.06770138 -34.50390625 11.87890625 C-32.12093691 4.75692444 -27.42274797 0.74660298 -21 -3 C-14.42079433 -5.37582427 -5.64674675 -3.8899811 0 0 Z M-23.8125 11.1875 C-25.36220573 14.85785568 -25.69233655 18.11226397 -25 22 C-23.39076503 25.10352458 -21.99652733 27.21701424 -19.25 29.375 C-14.60712268 30.66468814 -10.57383678 30.66450886 -6.1875 28.8125 C-3.13012821 26.27924909 -1.31049285 24.09689007 -0.71484375 20.07421875 C-0.52034578 15.58385262 -1.04749345 12.56336997 -4 9 C-7.56336997 6.04749345 -10.58385262 5.52034578 -15.07421875 5.71484375 C-19.09689007 6.31049285 -21.27924909 8.13012821 -23.8125 11.1875 Z " fill="#FFFFFF" transform="translate(60,191)"/>
<path d="M0 0 C4.48287545 0.61246116 8.12741063 2.37534521 12.0625 4.5 C13.04778687 5.02968384 13.04778687 5.02968384 14.05297852 5.57006836 C20.51146237 9.13501388 26.27561187 13.33943621 32 18 C32.75023437 18.6084375 33.50046875 19.216875 34.2734375 19.84375 C46.00057719 29.72869533 55.54972655 43.11294068 62 57 C62 57.66 62 58.32 62 59 C56.71500631 62.00283733 56.71500631 62.00283733 54.03125 61.9921875 C50.8615275 60.44389997 49.7931223 57.58166938 48.25 54.5625 C44.76929628 48.11605273 40.76896376 42.5772627 36 37 C35.5565625 36.4121875 35.113125 35.824375 34.65625 35.21875 C25.11203692 22.88110871 10.69440976 15.68904038 -3 9 C-2.38550003 5.66177043 -1.65439171 2.97790508 0 0 Z " fill="#FFFFFF" transform="translate(171,34)"/>
<path d="M0 0 C0.99 2.97 1.98 5.94 3 9 C1.81664062 9.6290625 0.63328125 10.258125 -0.5859375 10.90625 C-9.36880711 15.6382754 -17.47652796 20.38051104 -25 27 C-25.58265625 27.44085938 -26.1653125 27.88171875 -26.765625 28.3359375 C-37.50678443 36.61767257 -44.74450828 49.20597836 -51 61 C-54.33822957 60.38550003 -57.02209492 59.65439171 -60 58 C-59.42366342 53.39803974 -57.48511154 49.84623061 -55.125 45.9375 C-54.52933228 44.95003784 -54.52933228 44.95003784 -53.92163086 43.94262695 C-49.70205185 37.18329746 -44.5812303 31.6449248 -39 26 C-38.20980469 25.13761719 -37.41960938 24.27523437 -36.60546875 23.38671875 C-29.01546039 15.29322725 -11.88381661 0 0 0 Z " fill="#FFFFFF" transform="translate(84,34)"/>
<path d="M0 0 C2.17722656 0.433125 2.17722656 0.433125 4.3984375 0.875 C22.79459481 4.39806874 38.65386479 4.92390996 57.02490234 1.36376953 C60.00508599 0.81488527 62.99720422 0.40535775 66 0 C66.99 2.97 67.98 5.94 69 9 C66.64716625 9.65104151 64.29291551 10.29592122 61.9375 10.9375 C61.28072266 11.11990234 60.62394531 11.30230469 59.94726562 11.49023438 C58.9659668 11.75610352 58.9659668 11.75610352 57.96484375 12.02734375 C57.3730835 12.18968506 56.78132324 12.35202637 56.17163086 12.51928711 C48.31611251 14.25818712 40.50434574 14.23132467 32.5 14.25 C31.82969757 14.25167175 31.15939514 14.25334351 30.46878052 14.25506592 C18.71855897 14.25682638 7.94230499 13.61785348 -3 9 C-2.01 6.03 -1.02 3.06 0 0 Z " fill="#FFFFFF" transform="translate(96,242)"/>
</svg>
