<svg width="23" height="23" viewBox="0 0 23 23" fill="none" xmlns="http://www.w3.org/2000/svg">
<path d="M9.35901 11.2302C9.35901 10.1965 10.197 9.35844 11.2308 9.35844C12.2646 9.35844 13.1026 10.1965 13.1026 11.2302C13.1026 12.264 12.2646 13.102 11.2308 13.102C10.197 13.102 9.35901 12.264 9.35901 11.2302Z" fill="#C9C7C5"/>
<path fill-rule="evenodd" clip-rule="evenodd" d="M1.87183 11.2302C1.87183 7.61206 4.80494 4.67896 8.42311 4.67896H14.0385C17.6567 4.67896 20.5898 7.61206 20.5898 11.2302C20.5898 14.8484 17.6567 17.7815 14.0385 17.7815H8.42311C4.80493 17.7815 1.87183 14.8484 1.87183 11.2302ZM11.2308 7.48665C9.16327 7.48665 7.48721 9.16271 7.48721 11.2302C7.48721 13.2978 9.16327 14.9738 11.2308 14.9738C13.2983 14.9738 14.9744 13.2978 14.9744 11.2302C14.9744 9.16271 13.2983 7.48665 11.2308 7.48665Z" fill="#C9C7C5"/>
</svg>
