<?xml version="1.0" standalone="no"?>
<!DOCTYPE svg PUBLIC "-//W3C//DTD SVG 20010904//EN"
 "http://www.w3.org/TR/2001/REC-SVG-20010904/DTD/svg10.dtd">
<svg version="1.0" xmlns="http://www.w3.org/2000/svg"
 width="512.000000pt" height="512.000000pt" viewBox="0 0 512.000000 512.000000"
 preserveAspectRatio="xMidYMid meet">

<g transform="translate(0.000000,512.000000) scale(0.100000,-0.100000)"
fill="#000000" stroke="none">
<path d="M1006 4929 c-26 -20 -26 -23 -26 -142 l0 -122 -61 -25 c-34 -13 -96
-47 -139 -75 l-77 -51 -99 63 c-95 60 -125 71 -150 55 -7 -4 -71 -98 -143
-210 -92 -143 -131 -212 -131 -233 0 -26 11 -37 103 -97 56 -38 101 -74 99
-81 -24 -110 -27 -253 -8 -359 l12 -73 -100 -67 c-87 -58 -101 -71 -104 -97
-2 -24 23 -70 121 -222 139 -217 152 -233 181 -233 12 0 65 29 120 65 l99 64
56 -38 c118 -80 234 -126 271 -108 13 7 26 21 30 32 14 37 -6 62 -65 84 -81
30 -121 53 -200 110 -38 28 -77 51 -87 51 -9 0 -55 -24 -100 -53 -46 -29 -88
-56 -94 -60 -8 -4 -44 43 -97 126 -47 73 -88 139 -92 148 -4 11 20 32 90 77
108 69 108 70 80 187 -20 80 -19 220 1 326 10 48 14 94 11 103 -4 9 -47 42
-97 74 -49 31 -90 60 -90 64 0 8 165 267 179 281 5 4 50 -19 102 -52 51 -34
101 -61 109 -61 9 0 43 21 76 46 66 51 162 102 242 128 29 10 57 26 62 36 6
10 10 68 10 129 l0 111 175 0 175 0 0 -119 c0 -113 1 -121 22 -135 12 -9 29
-16 37 -16 27 0 197 -87 247 -127 76 -61 78 -61 188 8 54 34 101 57 106 53 4
-5 40 -61 80 -124 40 -63 82 -125 93 -137 37 -41 97 -20 97 32 0 21 -176 310
-218 358 -26 29 -61 19 -158 -43 -51 -33 -96 -60 -100 -60 -4 0 -35 18 -68 40
-34 21 -96 55 -138 75 l-77 35 -3 127 c-3 125 -4 128 -28 140 -18 9 -91 13
-261 13 -224 0 -238 -1 -263 -21z"/>
<path d="M2520 4770 c-27 -27 -25 -54 4 -78 21 -16 48 -20 158 -25 894 -40
1687 -686 1918 -1561 36 -137 57 -262 66 -386 l6 -95 -74 73 c-55 53 -80 72
-101 72 -31 0 -62 -39 -53 -68 3 -10 66 -78 140 -151 116 -114 138 -132 158
-126 13 4 80 64 151 134 133 133 147 159 111 195 -31 32 -63 19 -139 -55 l-73
-71 -7 69 c-30 334 -89 557 -214 818 -117 243 -246 428 -426 610 -373 376
-849 603 -1374 655 -164 16 -227 14 -251 -10z"/>
<path d="M1120 4301 c-92 -30 -142 -61 -216 -135 -272 -273 -171 -724 192
-856 67 -24 93 -19 114 20 18 34 -6 66 -69 89 -206 75 -314 276 -262 488 28
114 131 228 248 274 45 18 79 23 148 23 80 0 97 -3 156 -31 74 -34 136 -86
180 -149 35 -51 61 -62 94 -40 38 25 32 64 -19 133 -64 88 -172 160 -281 189
-72 20 -218 17 -285 -5z"/>
<path d="M2310 4075 c-7 -8 -22 -77 -34 -154 -11 -77 -24 -142 -28 -146 -4 -4
-45 -20 -92 -36 -47 -16 -117 -44 -156 -64 -38 -19 -74 -35 -79 -35 -5 0 -54
33 -109 74 -106 79 -133 96 -153 96 -16 0 -337 -318 -345 -342 -7 -23 4 -42
92 -160 41 -55 74 -104 74 -109 0 -5 -14 -38 -32 -72 -17 -34 -47 -107 -67
-162 l-36 -100 -142 -21 c-78 -11 -149 -26 -157 -34 -24 -19 -24 -481 -1 -500
9 -7 80 -22 160 -34 l144 -20 26 -82 c14 -46 44 -121 68 -168 l43 -85 -69 -93
c-85 -115 -107 -149 -107 -167 0 -18 317 -339 342 -347 23 -7 38 2 163 95
l105 78 73 -38 c40 -21 112 -51 160 -67 49 -17 91 -33 95 -37 4 -4 17 -69 28
-146 12 -77 27 -146 34 -154 10 -12 53 -15 251 -15 237 0 239 0 253 22 7 13
21 82 31 153 10 72 21 134 25 138 4 5 48 22 96 39 49 16 121 46 161 67 l72 38
122 -88 c67 -49 129 -89 137 -89 21 0 341 319 348 347 5 17 -13 49 -76 134
-45 61 -84 117 -86 124 -3 7 9 42 27 76 18 35 48 109 68 164 l36 100 142 21
c78 11 149 26 157 33 14 12 16 47 16 251 0 208 -2 239 -16 251 -9 8 -80 23
-158 34 l-141 21 -36 99 c-19 55 -50 128 -67 162 -18 34 -32 66 -32 71 0 5 33
54 74 110 89 120 99 137 92 160 -9 26 -330 342 -348 342 -15 0 -90 -50 -190
-126 -31 -24 -61 -44 -68 -44 -6 0 -39 14 -73 32 -34 17 -107 47 -162 67 l-99
36 -21 142 c-12 78 -27 148 -34 157 -19 23 -482 24 -501 1z m410 -112 c1 -44
43 -271 53 -280 6 -7 53 -24 102 -38 50 -14 143 -52 208 -85 74 -37 124 -57
135 -53 9 4 64 42 122 85 58 43 107 78 110 78 3 0 54 -49 114 -109 l109 -109
-24 -34 c-12 -18 -48 -67 -79 -108 -31 -41 -59 -83 -63 -92 -4 -11 16 -62 53
-135 33 -65 71 -158 85 -208 14 -49 31 -95 38 -102 9 -9 243 -53 281 -53 3 0
6 -72 6 -160 0 -88 -3 -160 -6 -160 -38 0 -272 -44 -281 -53 -7 -7 -24 -52
-38 -102 -14 -49 -52 -143 -85 -208 -36 -73 -57 -125 -53 -135 4 -9 32 -51 63
-92 31 -41 67 -90 79 -108 l24 -34 -109 -109 c-60 -60 -111 -109 -115 -109 -3
0 -48 32 -100 71 -147 110 -129 107 -251 45 -58 -30 -145 -66 -194 -81 -138
-42 -137 -42 -150 -110 -7 -33 -17 -99 -24 -147 l-12 -88 -158 0 -158 0 -12
88 c-7 48 -17 114 -24 147 -13 68 -12 68 -150 110 -49 15 -136 51 -194 81
l-106 54 -34 -20 c-18 -11 -68 -46 -110 -78 -42 -32 -83 -62 -91 -66 -9 -6
-46 24 -122 100 -60 60 -109 111 -109 115 0 3 32 48 71 100 111 147 107 131
48 244 -49 94 -109 251 -109 286 0 9 -8 26 -17 38 -15 17 -43 25 -152 41 -74
12 -138 23 -143 26 -11 7 -11 301 0 308 5 3 69 14 143 26 109 16 137 24 152
41 9 12 17 29 17 39 0 34 62 194 111 288 57 110 60 94 -50 241 -39 52 -71 97
-71 100 0 4 49 55 109 115 l109 109 34 -24 c18 -12 67 -48 108 -79 41 -31 83
-59 92 -63 11 -4 61 16 135 53 65 33 159 71 208 85 50 14 96 31 102 38 10 9
52 236 53 280 0 4 72 7 160 7 88 0 160 -3 160 -7z"/>
<path d="M2422 3165 c-223 -49 -420 -247 -467 -471 -45 -214 14 -414 170 -569
155 -156 355 -215 569 -170 226 48 423 245 471 471 45 214 -14 414 -170 569
-60 60 -99 90 -156 118 -130 64 -277 82 -417 52z m258 -116 c170 -39 330 -199
369 -369 13 -58 13 -182 0 -240 -39 -170 -199 -330 -369 -369 -57 -13 -182
-14 -238 -1 -115 27 -243 118 -307 220 -101 160 -101 380 0 540 61 96 171 178
290 216 49 15 194 17 255 3z"/>
<path d="M365 2689 c-11 -4 -75 -63 -142 -131 -128 -130 -143 -157 -107 -192
31 -32 63 -19 139 55 l73 71 7 -69 c13 -149 27 -243 51 -351 92 -412 299 -787
602 -1089 367 -367 844 -592 1361 -643 164 -16 227 -14 251 10 27 27 25 54 -4
78 -21 16 -48 20 -158 25 -585 27 -1146 316 -1525 787 -266 330 -432 751 -459
1160 l-6 95 74 -72 c54 -54 80 -73 100 -73 27 0 58 31 58 59 0 18 -256 278
-279 284 -9 2 -26 1 -36 -4z"/>
<path d="M4088 2180 c-29 -18 -39 -46 -27 -73 8 -17 32 -33 80 -52 67 -26 167
-85 222 -131 16 -13 36 -24 46 -24 9 0 55 24 102 53 46 29 89 56 95 60 12 7
198 -268 192 -283 -2 -5 -45 -36 -95 -69 -105 -69 -106 -70 -78 -186 20 -80
19 -220 -1 -326 -10 -48 -14 -94 -11 -102 3 -8 46 -42 96 -74 50 -32 91 -61
91 -65 0 -4 -41 -70 -91 -147 -104 -160 -80 -152 -207 -70 -41 27 -82 49 -92
49 -9 0 -43 -21 -76 -46 -66 -51 -162 -102 -242 -128 -29 -10 -57 -26 -62 -36
-6 -10 -10 -68 -10 -129 l0 -111 -175 0 -175 0 0 119 c0 83 -4 122 -12 129 -7
6 -44 22 -83 37 -82 31 -138 62 -218 121 -33 24 -66 44 -75 44 -8 0 -58 -27
-109 -61 -52 -33 -96 -59 -98 -57 -1 1 -42 64 -90 138 -48 74 -93 138 -99 142
-17 12 -61 9 -74 -4 -27 -27 -11 -67 92 -227 58 -89 110 -169 117 -177 21 -26
58 -15 157 50 l99 64 74 -49 c40 -27 104 -61 141 -77 l67 -27 3 -130 c3 -127
4 -130 28 -142 19 -10 85 -13 266 -11 304 4 284 -8 284 162 l0 121 61 25 c34
13 97 47 139 75 l78 52 98 -64 c94 -60 125 -72 150 -55 7 4 71 99 143 211 108
167 132 209 129 235 -3 27 -16 39 -104 97 l-101 67 13 73 c17 94 17 204 0 297
l-12 73 100 67 c87 58 101 71 104 97 2 25 -21 68 -119 220 -137 213 -154 235
-183 235 -12 0 -66 -29 -121 -65 l-99 -64 -47 35 c-49 36 -195 108 -239 118
-14 3 -33 1 -42 -4z"/>
<path d="M3921 1804 c-12 -15 -21 -30 -21 -34 0 -21 41 -54 89 -71 294 -103
357 -504 110 -699 -76 -60 -147 -84 -254 -84 -80 0 -97 3 -156 31 -74 34 -136
86 -180 149 -35 51 -61 62 -94 40 -39 -26 -33 -65 23 -137 93 -123 224 -189
388 -197 167 -7 287 40 398 159 261 276 158 716 -197 848 -74 27 -81 27 -106
-5z"/>
</g>
</svg>
