<?xml version="1.0" standalone="no"?>
<!DOCTYPE svg PUBLIC "-//W3C//DTD SVG 20010904//EN"
 "http://www.w3.org/TR/2001/REC-SVG-20010904/DTD/svg10.dtd">
<svg version="1.0" xmlns="http://www.w3.org/2000/svg"
 width="512.000000pt" height="512.000000pt" viewBox="0 0 512.000000 512.000000"
 preserveAspectRatio="xMidYMid meet">

<g transform="translate(0.000000,512.000000) scale(0.100000,-0.100000)"
fill="#000000" stroke="none">
<path d="M3225 4919 c-324 -109 -601 -205 -613 -211 -54 -28 -54 -24 -49 -621
4 -518 5 -557 25 -638 48 -202 133 -387 249 -550 79 -110 264 -304 378 -396
177 -143 562 -373 625 -373 32 0 269 125 399 210 172 112 287 208 427 352 226
235 361 476 427 763 19 84 21 129 24 637 5 592 5 588 -49 616 -42 22 -1209
412 -1231 411 -12 0 -287 -90 -612 -200z m1134 -193 c284 -96 524 -178 534
-181 16 -7 17 -36 17 -419 0 -447 -7 -552 -45 -695 -103 -387 -448 -763 -951
-1036 l-71 -39 -64 33 c-211 109 -427 267 -589 431 -217 219 -341 435 -397
694 -12 57 -16 168 -20 549 -3 262 -3 477 -1 477 1 0 242 81 533 180 292 98
532 179 534 179 2 1 236 -77 520 -173z"/>
<path d="M4435 4149 c-11 -6 -171 -162 -356 -346 l-337 -335 -182 227 c-199
249 -220 266 -287 244 -59 -19 -90 -93 -60 -146 32 -57 446 -564 473 -579 67
-37 66 -37 491 388 220 221 397 406 403 422 30 81 -69 166 -145 125z"/>
<path d="M1211 3394 c-146 -39 -274 -147 -339 -286 -21 -45 -128 -298 -238
-561 l-199 -477 -66 -40 c-160 -95 -276 -243 -340 -435 -23 -70 -24 -74 -27
-635 -3 -409 0 -580 8 -620 17 -79 64 -162 125 -219 213 -201 547 -140 676
124 34 70 34 71 37 233 l4 162 1494 0 1494 0 0 -132 c0 -197 33 -290 135 -387
213 -201 547 -140 676 124 l34 70 5 425 c3 234 3 508 -1 610 -5 174 -7 190
-36 273 -37 104 -82 182 -144 248 -41 45 -49 49 -90 49 -36 0 -50 -5 -72 -28
-32 -33 -44 -81 -27 -112 7 -12 28 -43 47 -68 93 -122 116 -213 111 -447 -4
-204 -17 -245 -104 -324 -103 -94 95 -86 -2034 -86 l-1875 0 -67 33 c-75 37
-120 83 -155 159 -20 44 -25 73 -30 190 -7 184 6 275 56 378 64 133 158 219
301 275 l65 25 1183 5 1184 5 29 33 c43 48 37 112 -15 154 -20 16 -96 18
-1168 18 -665 0 -1148 4 -1148 9 0 11 351 854 373 897 25 47 88 105 147 133
l55 26 422 5 421 5 26 24 c51 48 40 142 -20 170 -40 18 -844 14 -913 -5z
m-911 -2696 c90 -44 155 -58 260 -58 l80 0 0 -128 c0 -118 -2 -132 -26 -181
-45 -90 -140 -134 -238 -110 -67 16 -138 85 -154 151 -13 51 -17 372 -4 366 4
-1 41 -19 82 -40z m4180 -136 c0 -172 -1 -180 -26 -231 -66 -132 -229 -157
-334 -52 -58 58 -70 101 -70 249 l0 109 108 5 c115 6 204 29 270 73 21 13 40
24 45 24 4 1 7 -79 7 -177z"/>
<path d="M693 1478 c-57 -28 -67 -122 -17 -169 l26 -24 351 -3 c312 -3 356 -1
383 13 61 33 74 117 25 166 l-29 29 -359 -1 c-226 0 -366 -4 -380 -11z"/>
<path d="M3253 1478 c-57 -28 -67 -122 -17 -169 l26 -24 351 -3 c312 -3 356
-1 383 13 61 33 74 117 25 166 l-29 29 -359 -1 c-226 0 -366 -4 -380 -11z"/>
</g>
</svg>
