<?xml version="1.0" standalone="no"?>
<!DOCTYPE svg PUBLIC "-//W3C//DTD SVG 20010904//EN"
 "http://www.w3.org/TR/2001/REC-SVG-20010904/DTD/svg10.dtd">
<svg version="1.0" xmlns="http://www.w3.org/2000/svg"
 width="500.000000pt" height="500.000000pt" viewBox="0 0 500.000000 500.000000"
 preserveAspectRatio="xMidYMid meet">

<g transform="translate(0.000000,500.000000) scale(0.100000,-0.100000)"
fill="#FFFFFF" stroke="none">
<path d="M3149 4227 c-77 -52 -102 -144 -60 -225 11 -20 303 -320 655 -672
350 -349 636 -638 636 -642 0 -4 -946 -8 -2102 -8 -1227 0 -2119 -4 -2142 -10
-22 -5 -51 -17 -65 -27 -33 -24 -70 -98 -71 -141 0 -57 46 -128 105 -160 28
-16 199 -17 2153 -20 1167 -1 2122 -6 2122 -10 0 -4 -280 -285 -622 -623 -343
-339 -636 -635 -652 -658 -41 -59 -47 -139 -14 -196 44 -75 141 -105 226 -70
46 20 1634 1601 1663 1657 24 47 24 109 0 156 -26 48 -1627 1648 -1664 1662
-50 18 -130 12 -168 -13z"/>
</g>
</svg>
