<?xml version="1.0" standalone="no"?>
<!DOCTYPE svg PUBLIC "-//W3C//DTD SVG 20010904//EN"
 "http://www.w3.org/TR/2001/REC-SVG-20010904/DTD/svg10.dtd">
<svg version="1.0" xmlns="http://www.w3.org/2000/svg"
 width="667.000000pt" height="667.000000pt" viewBox="0 0 667.000000 667.000000"
 preserveAspectRatio="xMidYMid meet">

<g transform="translate(0.000000,667.000000) scale(0.100000,-0.100000)"
fill="#FFFFFF" stroke="none">
<path d="M2273 5659 c-36 -10 -88 -57 -318 -279 -242 -234 -1710 -1702 -1827
-1826 -96 -102 -108 -119 -119 -168 -9 -42 -9 -64 1 -105 12 -50 28 -68 345
-394 362 -373 1672 -1677 1811 -1803 l87 -79 81 0 c62 0 90 5 121 21 91 47
139 162 110 260 -13 46 -39 75 -236 280 -122 126 -509 517 -861 869 -351 352
-638 643 -638 648 0 4 690 8 1533 8 842 1 2117 4 2832 8 l1300 6 46 23 c66 32
129 135 129 211 0 71 -90 191 -159 212 -26 8 -797 14 -2776 20 -1507 5 -2778
11 -2824 15 l-84 6 846 842 c930 925 897 888 897 1009 0 70 -16 111 -60 154
-62 61 -159 86 -237 62z"/>
</g>
</svg>
